<svg width="800" height="600" xmlns="http://www.w3.org/2000/svg" version="1.1">
 <g id="Layer_1">
  <title>Layer 1</title>
  <text fill="#9ACEE6" x="318.60036" y="428.17499" id="svg_1" font-size="250" font-family="'Quicksand SemiBold'" text-anchor="start" xml:space="preserve" font-weight="normal" font-style="normal" stroke-width="0" stroke="#000" transform="matrix(2.11532 0 0 1.7921 -665.827 -300.424)">MP</text>
  <path fill="none" stroke="#000" stroke-width="0" id="svg_2" d="m217,117.6c-1,-1 -2,-2 -2,-3c0,-2 -1.22127,-6.57162 3,-14c3.16354,-5.56705 7.65593,-9.38903 11,-12c4.59599,-3.58844 10.70407,-6.9561 19,-9c7.82817,-1.92866 15.81558,-3.99245 24,-5c7.94006,-0.97746 14.01071,-0.3871 21,0c9.04153,0.50076 23.55426,3.4298 34,8c8.64294,3.78145 15.73651,11.27379 23,18c6.76459,6.26421 13,11 16,13l1,1"/>
 </g>

</svg>