<svg version="1.1" xmlns="http://www.w3.org/2000/svg" viewBox="0 0 250 250"><desc>Created with Snap</desc><defs></defs><g transform="matrix(0.0379,0,0,0.0379,80.9417,107.2978)"><rect x="-2137.39538556121" y="-2833.3013165065267" width="6601.652457429973" height="6601.514233405779" fill="#143d59" style=""></rect><g transform="matrix(15.5647,0,0,15.5647,-1949.5073,-2606.1496)">
<g id="gSkti1e4zcz40">
	<g>
		<g>
			<path d="M225.06721,10.341c1.23495,1.65353,3.01845,1.41042,4.38576,2.5862c2.39267,0.45277,4.68831,1.41448,7.21394,1.18947
				c0.84003-0.31175,1.57216-1.81431,1.70761-3.35163c0.15523-1.53093-0.47322-2.54051-1.31909-2.22455l0.01126,0.02772
				c-2.15663,0.14926-4.10898-0.78846-6.19243-1.03553c-1.36449-0.92133-2.89391-1.17806-4.54001-0.67497
				c-0.20007,0.06581-0.41191,0.01704-0.53685,0.75679c-0.31398-0.18994-0.7153,0.21282-0.89032,0.87016
				c-0.17578,0.66963-0.06279,1.36485,0.2413,1.5512L225.06721,10.341z" fill="#f4b41a" style=""></path>
			<path d="M221.10158,32.50251c0.00539,0.66294,0.25748,0.84137,0.49411,0.99265c1.53104,0.9107,3.20959,0.19941,4.9108,0.09729
				c1.7682-0.11266,3.26273,0.90202,4.91487,1.25013c0.69881,0.16361,1.2959-1.51426,1.68762-3.15171
				c0.39349-1.63427,0.21246-3.75928-0.52397-3.92845l-0.70006,0.574c-1.61304-0.5347-2.31502-0.34704-4.01256-0.48235
				c-1.99504-0.15542-4.11923,1.03063-6.149,1.93065c-0.34949-0.18209-0.78723,0.34627-0.99025,1.19787
				c-0.18942,0.83902-0.04758,1.67167,0.29175,1.85081L221.10158,32.50251z" fill="#f4b41a" style=""></path>
			<path d="M223.37909,19.83764c0.06723,1.26354,0.67081,1.76963,1.21411,2.03905c1.00467,0.52055,1.99904,0.86484,3.12422,0.8127
				c2.1087-0.0937,3.71466,1.76878,5.94298,1.19172c0.03229-0.01734,0.07904-0.21951,0.11887-0.34517
				c0.67381,0.15502,1.5011-0.90246,1.85461-2.37492c0.35294-1.4688,0.07961-2.80746-0.62186-2.95541l0.07697-0.33233
				c-0.26669-0.32214-0.62973-0.22873-0.97722-0.19582c0.07774,0.01757,0.15079,0.03413,0.22905,0.05198
				c-2.97229-0.60184-5.91682-2.05581-9.1821-0.37554c-0.43871,0.23084-0.87762,0.51435-1.33223,0.65687
				c-0.26822-0.14323-0.603,0.21768-0.75523,0.83391c-0.14354,0.59911-0.05061,1.20448,0.21817,1.35938L223.37909,19.83764z" fill="#f4b41a" style=""></path>
		</g>
		<g>
			<path d="M254.36748,17.34735c1.01688,1.79617,2.81697,1.78006,4.02507,3.11913c2.31641,0.75126,4.47223,1.99525,7.00604,2.09112
				c0.87253-0.20314,1.78882-1.60115,2.11758-3.10905c0.34732-1.49899-0.14853-2.57991-1.02762-2.37337l0.0076,0.02894
				c-2.1582-0.12442-3.97662-1.30122-6.01248-1.80953c-1.2377-1.08629-2.72293-1.53409-4.41983-1.24294
				c-0.20692,0.04008-0.41072-0.0351-0.62814,0.68303c-0.28761-0.22803-0.73659,0.12089-0.99304,0.75087
				c-0.25906,0.64203-0.23444,1.34601,0.04401,1.56932L254.36748,17.34735z" fill="#f4b41a" style=""></path>
			<path d="M247.63885,38.83195c-0.07805,0.65814,0.14931,0.86704,0.3649,1.04687c1.40273,1.09625,3.15672,0.60222,4.85649,0.71538
				c1.76788,0.11146,3.12161,1.30659,4.71635,1.86048c0.67242,0.25055,1.47659-1.33855,2.07199-2.91324
				c0.59698-1.57155,0.68579-3.70235-0.02304-3.96312l-0.76672,0.48093c-1.53265-0.73397-2.25247-0.63653-3.91899-0.98492
				c-1.95883-0.40602-4.21524,0.50267-6.3412,1.13986c-0.32376-0.22475-0.82434,0.2444-1.13318,1.06351
				c-0.29391,0.80836-0.25803,1.65236,0.05579,1.87279L247.63885,38.83195z" fill="#f4b41a" style=""></path>
			<path d="M251.49524,26.5553c-0.09273,1.26193,0.44217,1.84004,0.9472,2.17586c0.93069,0.64308,1.87344,1.11,2.99588,1.20037
				c2.10342,0.17315,3.46109,2.22341,5.74423,1.93238c0.0343-0.0131,0.10608-0.20772,0.16162-0.3273
				c0.64859,0.2389,1.60284-0.70555,2.13959-2.12164c0.53568-1.41242,0.43378-2.77493-0.24335-3.01029l0.11813-0.31997
				c-0.22372-0.35324-0.59543-0.30648-0.94434-0.31761c0.07492,0.02724,0.14514,0.05291,0.22058,0.08042
				c-2.87225-0.97248-5.60959-2.78659-9.06075-1.53173c-0.46443,0.1738-0.93568,0.3996-1.40456,0.48355
				c-0.24806-0.1759-0.62553,0.14001-0.85422,0.73214c-0.2182,0.57615-0.20222,1.18858,0.0448,1.37601L251.49524,26.5553z" fill="#f4b41a" style=""></path>
		</g>
		<g>
			<path d="M279.72366,27.04344c0.74576,1.92439,2.52884,2.16879,3.53,3.66856c2.1828,1.07817,4.13535,2.62065,6.62802,3.08128
				c0.89246-0.07492,2.00101-1.32584,2.54431-2.77035c0.5603-1.43311,0.22632-2.57415-0.67294-2.49675l0.00314,0.02986
				c-2.11655-0.43483-3.74481-1.86179-5.68503-2.65902c-1.06693-1.25381-2.47095-1.91156-4.19168-1.86899
				c-0.2106,0.00969-0.40158-0.09417-0.72037,0.58493c-0.25146-0.26719-0.74628,0.01297-1.09125,0.5992
				c-0.34918,0.59789-0.42697,1.29795-0.1839,1.55911L279.72366,27.04344z" fill="#f4b41a" style=""></path>
			<path d="M269.95462,47.32701c-0.17261,0.63994,0.022,0.87949,0.20929,1.08878c1.22958,1.28799,3.03702,1.05315,4.703,1.41137
				c1.73331,0.3662,2.90054,1.74483,4.39886,2.52372c0.62921,0.34512,1.65472-1.11105,2.47147-2.58306
				c0.81781-1.46873,1.21359-3.56444,0.54984-3.92501l-0.82828,0.36502c-1.41034-0.94798-2.13672-0.95571-3.73563-1.54169
				c-1.87973-0.68512-4.24405-0.11277-6.43997,0.20982c-0.2876-0.26928-0.85104,0.12233-1.27515,0.88813
				c-0.40784,0.75729-0.49481,1.59748-0.21609,1.861L269.95462,47.32701z" fill="#f4b41a" style=""></path>
			<path d="M275.54822,35.73836c-0.27451,1.23521,0.17105,1.88471,0.62189,2.28994c0.82773,0.77104,1.69321,1.36959,2.79077,1.62132
				c2.05603,0.4757,3.10275,2.7008,5.40369,2.74284c0.03616-0.00786,0.13544-0.19004,0.20746-0.30045
				c0.60721,0.33018,1.68799-0.46653,2.42355-1.79014c0.73422-1.32021,0.83063-2.68299,0.19461-3.0137l0.16321-0.29953
				c-0.17029-0.38179-0.54486-0.38926-0.88852-0.45081l0.20691,0.11159c-2.70117-1.37732-5.14645-3.56811-8.74246-2.82601
				c-0.48459,0.10465-0.98361,0.25985-1.45981,0.27517c-0.21979-0.20995-0.63892,0.04781-0.95114,0.60064
				c-0.29913,0.53856-0.37198,1.14668-0.15482,1.36802L275.54822,35.73836z" fill="#f4b41a" style=""></path>
		</g>
		<g>
			<path d="M303.4039,40.2961c0.46051,2.01149,2.18936,2.50984,2.96393,4.13758c2.00415,1.38059,3.7139,3.18737,6.11411,4.00097
				c0.89377,0.05383,2.17075-1.02487,2.91571-2.37638c0.76019-1.33789,0.59412-2.51469-0.30698-2.56708l-0.00079,0.02999
				c-2.0314-0.73371-3.43701-2.37952-5.24155-3.44696c-0.87466-1.39382-2.16867-2.24645-3.87708-2.45169
				c-0.20956-0.02069-0.38348-0.15088-0.79684,0.47504c-0.21036-0.30045-0.73999-0.0943-1.16592,0.43601
				c-0.4317,0.54131-0.60956,1.2229-0.4068,1.51628L303.4039,40.2961z" fill="#f4b41a" style=""></path>
			<path d="M290.81476,58.96072c-0.263,0.60837-0.1048,0.87359,0.05054,1.10777c1.03207,1.4521,2.85495,1.48039,4.45258,2.07488
				c1.66336,0.61217,2.62079,2.14469,3.99234,3.13118c0.57339,0.43221,1.79745-0.86155,2.81723-2.20101
				c1.02002-1.33606,1.71286-3.35318,1.10751-3.80543l-0.87228,0.24217c-1.2597-1.14104-1.97745-1.25328-3.47552-2.06322
				c-1.76212-0.94877-4.18433-0.72297-6.40457-0.72048c-0.24597-0.30792-0.85999-0.00171-1.38989,0.69508
				c-0.51291,0.69062-0.71985,1.5096-0.48199,1.8107L290.81476,58.96072z" fill="#f4b41a" style=""></path>
			<path d="M298.01959,48.29871c-0.44977,1.18282-0.10217,1.88982,0.28552,2.35582c0.70804,0.8821,1.47842,1.59892,2.52832,2.00612
				c1.96616,0.76659,2.68207,3.11913,4.9534,3.49136c0.03668-0.00262,0.1611-0.16869,0.24832-0.26745
				c0.5535,0.41401,1.73749-0.21925,2.65561-1.42355c0.91629-1.20102,1.20734-2.53577,0.62555-2.95436l0.20456-0.27295
				c-0.1134-0.40222-0.48303-0.46338-0.81412-0.57366l0.18832,0.14001c-2.47461-1.75085-4.57855-4.27013-8.24371-4.05336
				c-0.49457,0.03392-1.01059,0.11565-1.48392,0.06208c-0.18729-0.23929-0.63916-0.04453-1.02762,0.45736
				c-0.37381,0.48997-0.5336,1.08132-0.35049,1.33161L298.01959,48.29871z" fill="#f4b41a" style=""></path>
		</g>
		<g>
			<path d="M324.92807,56.80674c0.16711,2.05628,1.80612,2.79654,2.33917,4.51805c1.78543,1.65262,3.21854,3.68494,5.47705,4.83279
				c0.87698,0.18101,2.29492-0.70411,3.22562-1.93513c0.94351-1.21544,0.94772-2.40363,0.0639-2.58411l-0.00522,0.0296
				c-1.90515-1.01622-3.06009-2.84566-4.69254-4.15958c-0.66559-1.50423-1.82391-2.53276-3.48441-2.98004
				c-0.20459-0.05056-0.35782-0.20419-0.85657,0.35612c-0.16504-0.32743-0.71878-0.19921-1.21622,0.26469
				c-0.50476,0.47386-0.7785,1.12284-0.62003,1.44215L324.92807,56.80674z" fill="#f4b41a" style=""></path>
			<path d="M309.79489,73.47559c-0.34735,0.56449-0.2287,0.84962-0.10846,1.10371c0.8136,1.58504,2.61398,1.87423,4.1102,2.69125
				c1.55859,0.84399,2.2868,2.49766,3.5033,3.67027c0.50555,0.50961,1.90198-0.59566,3.103-1.7756
				c1.20078-1.17641,2.17468-3.07368,1.64032-3.6078l-0.89767,0.11486c-1.08344-1.3092-1.77783-1.52296-3.14441-2.53892
				c-1.60809-1.19094-4.03766-1.31419-6.23538-1.62983c-0.19934-0.34-0.85107-0.12495-1.47528,0.48866
				c-0.60641,0.61007-0.92862,1.39081-0.73608,1.72295L309.79489,73.47559z" fill="#f4b41a" style=""></path>
			<path d="M318.45273,63.95565c-0.61426,1.10607-0.37195,1.8555-0.05499,2.37219c0.57443,0.97431,1.23404,1.79395,2.21451,2.34705
				c1.83597,1.03979,2.20795,3.4704,4.40225,4.16351c0.03668,0.00249,0.18362-0.14407,0.28421-0.22933
				c0.48856,0.48879,1.75085,0.0313,2.83167-1.02919c1.07843-1.05774,1.55753-2.33709,1.04202-2.83439l0.24152-0.24086
				c-0.05502-0.41441-0.41177-0.52769-0.72375-0.68407l0.16632,0.16542c-2.19824-2.08614-3.91925-4.87981-7.57681-5.18969
				c-0.49429-0.0372-1.0166-0.03012-1.47736-0.15088c-0.15115-0.26365-0.62607-0.13556-1.08264,0.30556
				c-0.43982,0.43129-0.68262,0.99369-0.53751,1.26756L318.45273,63.95565z" fill="#f4b41a" style=""></path>
		</g>
		<g>
			<path d="M343.86392,76.22079c-0.12836,2.05929,1.38858,3.02679,1.67072,4.80724c1.53107,1.89165,2.65979,4.10863,4.73126,5.56873
				c0.84216,0.30477,2.37219-0.3683,3.46948-1.45354c1.10779-1.06796,1.28146-2.24371,0.43222-2.54913l-0.00943,0.02855
				c-1.74063-1.27908-2.62262-3.25547-4.05099-4.79008c-0.44427-1.58438-1.44385-2.76839-3.02393-3.44892
				c-0.19516-0.07924-0.32507-0.25317-0.89874,0.22999c-0.11655-0.3476-0.68289-0.30006-1.24161,0.08814
				c-0.56738,0.39672-0.93097,0.99998-0.81964,1.33881L343.86392,76.22079z" fill="#f4b41a" style=""></path>
			<path d="M326.50394,90.55543c-0.42462,0.50922-0.34787,0.80836-0.26508,1.07699c0.57889,1.6855,2.31952,2.2293,3.68375,3.25207
				c1.42236,1.0584,1.90671,2.79943,2.94296,4.13405c0.42749,0.57681,1.96774-0.31735,3.32516-1.31327
				c1.3566-0.99265,2.59222-2.73119,2.13956-3.33629l-0.905-0.0148c-0.88541-1.45105-1.54208-1.76198-2.74966-2.96327
				c-1.4216-1.409-3.80896-1.87868-5.93939-2.50552c-0.14877-0.36515-0.82458-0.24545-1.53003,0.27269
				c-0.68735,0.51708-1.11798,1.24385-0.9747,1.60023L326.50394,90.55543z" fill="#f4b41a" style=""></path>
			<path d="M336.43356,82.37077c-0.7662,1.00693-0.63339,1.78347-0.39319,2.34023c0.42932,1.04674,0.965,1.95242,1.85693,2.6403
				c1.66861,1.29218,1.68954,3.75134,3.7626,4.75158c0.03589,0.00786,0.20221-0.11617,0.31409-0.18624
				c0.4136,0.55375,1.72858,0.28172,2.95004-0.61335c1.21857-0.89259,1.87552-2.0902,1.43625-2.65653l0.27347-0.2038
				c0.00497-0.41794-0.33215-0.58139-0.61871-0.78086l0.14117,0.18768c-1.8779-2.38005-3.18265-5.39204-6.759-6.22215
				c-0.48407-0.10753-1.00195-0.17537-1.4407-0.3607c-0.11212-0.28264-0.60065-0.22383-1.11539,0.14748
				c-0.49716,0.36398-0.81778,0.88591-0.71301,1.17785L336.43356,82.37077z" fill="#f4b41a" style=""></path>
		</g>
		<g>
			<path d="M359.83456,98.15528c-0.422,2.02,0.94064,3.19536,0.96448,4.99821c1.24426,2.0923,2.04294,4.44891,3.88336,6.19202
				c0.78976,0.42291,2.40048-0.02331,3.64236-0.9396c1.25003-0.89743,1.59082-2.03651,0.79398-2.46099l-0.01337,0.02685
				c-1.53922-1.51667-2.12857-3.59993-3.32254-5.32433c-0.21243-1.63232-1.03232-2.94795-2.49869-3.84852
				c-0.18179-0.10648-0.28528-0.29731-0.92258,0.09862c-0.06549-0.36083-0.63287-0.39501-1.24139-0.09103
				c-0.61844,0.31133-1.06479,0.85631-1.00299,1.20757L359.83456,98.15528z" fill="#f4b41a" style=""></path>
			<path d="M340.59851,109.85291c-0.49298,0.44296-0.45999,0.75008-0.41678,1.02762c0.33084,1.75046,1.9751,2.53774,3.17822,3.74519
				c1.25525,1.25092,1.48419,3.0429,2.31744,4.51189c0.34,0.63195,1.99289-0.03156,3.47916-0.82211
				c1.48526-0.78728,2.95792-2.33002,2.5972-2.99379l-0.89374-0.1446c-0.66745-1.56277-1.27255-1.96473-2.29492-3.32659
				c-1.20444-1.59814-3.4996-2.40506-5.51764-3.33039c-0.09485-0.38257-0.78088-0.36096-1.55334,0.05069
				c-0.75443,0.41322-1.28461,1.07071-1.19421,1.44372L340.59851,109.85291z" fill="#f4b41a" style=""></path>
			<path d="M351.59897,103.17641c-0.90244,0.88669-0.88226,1.67423-0.72455,2.25968
				c0.27478,1.09743,0.67502,2.07056,1.45877,2.87919c1.46613,1.51824,1.13345,3.95474,3.0412,5.24234
				c0.0343,0.01297,0.21689-0.08591,0.3374-0.13922c0.32977,0.60745,1.67017,0.52717,3.00766-0.18297
				c1.33435-0.70805,2.15662-1.79892,1.80325-2.42249l0.29993-0.16241c0.06494-0.41309-0.24545-0.62317-0.50006-0.86181
				l0.11264,0.20602c-1.51669-2.6255-2.37585-5.794-5.79636-7.12875c-0.46365-0.1759-0.96658-0.31722-1.37418-0.56371
				c-0.07022-0.29574-0.56241-0.30766-1.12506-0.01389c-0.54407,0.28893-0.93622,0.75952-0.87463,1.06338L351.59897,103.17641z" fill="#f4b41a" style=""></path>
		</g>
		<g>
			<path d="M372.48895,122.16505c-0.70883,1.93788,0.46967,3.29752,0.23285,5.08478
				c0.92914,2.24973,1.37891,4.69658,2.94797,6.68724c0.72009,0.53253,2.37848,0.32376,3.73981-0.40327
				c1.36658-0.70712,1.86847-1.78516,1.14157-2.32031l-0.0173,0.02461c-1.30371-1.72308-1.58609-3.86987-2.51834-5.74854
				c0.02539-1.64594-0.59619-3.06635-1.91745-4.16901c-0.16452-0.13163-0.23944-0.33543-0.92703-0.03549
				c-0.01285-0.3666-0.56949-0.48225-1.21545-0.26916c-0.65668,0.21886-1.17691,0.69377-1.16669,1.05028L372.48895,122.16505z" fill="#f4b41a" style=""></path>
			<path d="M351.76712,130.96634c-0.55191,0.36711-0.56372,0.67555-0.56082,0.95624c0.0744,1.77849,1.58713,2.79352,2.60269,4.16075
				c1.06088,1.41779,1.02789,3.22287,1.6398,4.79559c0.2449,0.67398,1.9761,0.25618,3.56116-0.31119
				c1.58374-0.5641,3.26385-1.87738,3.00296-2.58607l-0.86313-0.27177c-0.4343-1.64201-0.9747-2.12688-1.78961-3.62114
				c-0.96054-1.75414-3.11481-2.88286-4.97778-4.08821c-0.03848-0.392-0.72034-0.46927-1.54416-0.1734
				c-0.806,0.30019-1.42551,0.87424-1.38989,1.25603L351.76712,130.96634z" fill="#f4b41a" style=""></path>
			<path d="M363.61551,125.94599c-1.02109,0.74721-1.11487,1.52911-1.04333,2.13094c0.1134,1.12518,0.3688,2.14548,1.02734,3.05823
				c1.23114,1.71326,0.54984,4.07536,2.25116,5.62439c0.03198,0.01767,0.22687-0.05371,0.35391-0.08907
				c0.23837,0.64845,1.57611,0.76265,3.00241,0.2533c1.42264-0.50764,2.3942-1.46808,2.13461-2.13603l0.3201-0.11736
				c0.1239-0.39922-0.15247-0.65186-0.37012-0.9248c0.02774,0.07478,0.05368,0.14499,0.08173,0.22017
				c-1.12088-2.81645-1.51355-6.07533-4.70535-7.88892c-0.43326-0.24073-0.91052-0.45316-1.27832-0.75558
				c-0.02698-0.30281-0.51208-0.38545-1.11118-0.1759c-0.5802,0.20746-1.03598,0.61649-1.01895,0.92598L363.61551,125.94599z" fill="#f4b41a" style=""></path>
		</g>
		<g>
			<path d="M381.53842,147.75044c-0.98206,1.81502-0.01285,3.33118-0.5061,5.06552c0.5936,2.36079,0.68396,4.84732,1.94812,7.04414
				c0.63547,0.63129,2.3067,0.66495,3.75894,0.14276c1.45459-0.50177,2.10736-1.49559,1.46558-2.13042l-0.02069,0.02187
				c-1.04047-1.89388-1.00848-4.05885-1.65918-6.05319c0.26379-1.62512-0.14563-3.1207-1.29321-4.40358
				c-0.14383-0.15402-0.18835-0.36659-0.91238-0.16948c0.04062-0.36464-0.4935-0.55978-1.16354-0.44257
				c-0.68161,0.12155-1.26495,0.51617-1.30634,0.87045L381.53842,147.75044z" fill="#f4b41a" style=""></path>
			<path d="M359.76016,153.45734c-0.59906,0.28343-0.6554,0.5869-0.69336,0.86494c-0.18417,1.77037,1.16565,2.99393,1.97244,4.49409
				c0.84451,1.55663,0.55035,3.33812,0.92807,4.98328c0.14459,0.70255,1.91824,0.53999,3.56879,0.20825
				c1.64868-0.32875,3.50143-1.38506,3.34583-2.12401l-0.81464-0.39423c-0.19202-1.68785-0.65646-2.24593-1.24634-3.84262
				c-0.69626-1.87502-2.66428-3.30394-4.33289-4.76651c0.01862-0.39345-0.6449-0.56856-1.50305-0.39516
				c-0.84085,0.18022-1.53708,0.65868-1.55725,1.0415L359.76016,153.45734z" fill="#f4b41a" style=""></path>
			<path d="M372.21075,150.20605c-1.1185,0.59148-1.3244,1.35165-1.34091,1.95753c-0.05081,1.12978,0.05423,2.17638,0.57367,3.17519
				c0.97,1.8737-0.04636,4.11229,1.41269,5.89171c0.02905,0.02213,0.23233-0.02031,0.36304-0.0368
				c0.142,0.67635,1.4491,0.98308,2.93408,0.68564c1.48105-0.29626,2.58148-1.1058,2.42142-1.80441l0.33374-0.06969
				c0.18073-0.37708-0.05634-0.66718-0.23209-0.96867c0.01651,0.07793,0.03223,0.15114,0.04898,0.2296
				c-0.70123-2.94926-0.61768-6.23106-3.51324-8.48825c-0.39371-0.30112-0.83533-0.58035-1.15543-0.93306
				c0.01727-0.30333-0.45081-0.45552-1.07401-0.3349c-0.60403,0.12128-1.11432,0.45998-1.14206,0.76868L372.21075,150.20605z" fill="#f4b41a" style=""></path>
		</g>
		<g>
			<path d="M386.7886,174.37561c-1.23404,1.65407-0.49377,3.29425-1.23193,4.93907c0.24701,2.42151-0.02173,4.89481,0.91367,7.24991
				c0.5383,0.7157,2.18726,0.98936,3.69949,0.68106c1.51141-0.28809,2.30014-1.17673,1.75635-1.89682l-0.02332,0.01866
				c-0.75757-2.02237-0.41415-4.15926-0.77014-6.22556c0.49509-1.56952,0.30597-3.1078-0.64438-4.54262
				c-0.11996-0.17314-0.13333-0.38991-0.87805-0.29927c0.09274-0.35493-0.40759-0.62514-1.08734-0.60588
				c-0.69205,0.02173-1.32648,0.32782-1.4187,0.67241L386.7886,174.37561z" fill="#f4b41a" style=""></path>
			<path d="M364.41443,176.87682c-0.63391,0.19397-0.73318,0.48643-0.81097,0.75636
				c-0.43771,1.72722,0.72192,3.13478,1.30423,4.73764c0.61139,1.66434,0.0639,3.38736,0.20145,5.07246
				c0.04242,0.71721,1.82104,0.81145,3.50195,0.72023c1.6788-0.08875,3.66385-0.86848,3.61618-1.62283l-0.74969-0.50772
				c0.05292-1.69943-0.32639-2.3192-0.68027-3.9857c-0.41885-1.95753-2.16028-3.65704-3.60046-5.347
				c0.07516-0.38702-0.55585-0.65657-1.42996-0.60889c-0.85815,0.05684-1.61621,0.42972-1.69141,0.80614L364.41443,176.87682z" fill="#f4b41a" style=""></path>
			<path d="M377.20398,175.45824c-1.19211,0.42371-1.50568,1.14655-1.60941,1.74391
				c-0.21323,1.11118-0.26038,2.16257,0.10977,3.22639c0.68997,1.99493-0.63837,4.06503,0.5498,6.03696
				c0.0257,0.0262,0.23288,0.01343,0.36465,0.01585c0.04346,0.69009,1.29297,1.1817,2.80518,1.10063
				c1.5083-0.08047,2.7135-0.72363,2.65561-1.43796l0.34027-0.02101c0.23288-0.34721,0.04007-0.66837-0.09064-0.99213
				c0.00525,0.07962,0.01022,0.15428,0.01547,0.23438c-0.26956-3.01979,0.28629-6.25516-2.25327-8.90744
				c-0.34631-0.3548-0.74261-0.69507-1.00851-1.09035c0.06079-0.29784-0.38034-0.51604-1.0145-0.48683
				c-0.61505,0.03275-1.1691,0.29417-1.24112,0.59579L377.20398,175.45824z" fill="#f4b41a" style=""></path>
		</g>
		<g>
			<path d="M388.16382,201.4651c-1.45642,1.461-0.9566,3.18919-1.92059,4.71234c-0.09952,2.43172-0.71588,4.84222-0.1239,7.30714
				c0.43118,0.78505,2.0246,1.28995,3.56509,1.19925c1.53738-0.07072,2.44397-0.83914,2.00784-1.6293l-0.02567,0.0152
				c-0.46286-2.11018,0.17969-4.17688,0.12048-6.27213c0.71277-1.48288,0.7442-3.03143,0.00732-4.58537
				c-0.0943-0.18834-0.07675-0.40465-0.82669-0.42088c0.14224-0.33784-0.31461-0.67609-0.99017-0.75375
				c-0.68811-0.07681-1.3595,0.13576-1.49991,0.46352L388.16382,201.4651z" fill="#f4b41a" style=""></path>
			<path d="M365.66156,200.75888c-0.65512,0.10197-0.79501,0.37779-0.91052,0.63437
				c-0.67871,1.65001,0.26929,3.20958,0.61819,4.87994c0.3688,1.7354-0.41675,3.36392-0.51996,5.05138
				c-0.05972,0.7159,1.68744,1.06142,3.36444,1.20955c1.67435,0.15034,3.75003-0.33989,3.80975-1.09357l-0.67007-0.6089
				c0.2934-1.67508,0.00552-2.34259-0.10818-4.04314c-0.13672-1.998-1.61935-3.92868-2.80438-5.80847
				c0.12939-0.37282-0.45685-0.72978-1.32886-0.80687c-0.85764-0.06587-1.66101,0.19542-1.78885,0.55801L365.66156,200.75888z" fill="#f4b41a" style=""></path>
			<path d="M378.52289,201.17375c-1.24033,0.25002-1.65341,0.92107-1.84097,1.49794c-0.36908,1.06998-0.565,2.10442-0.3497,3.21028
				c0.39975,2.07318-1.20834,3.93451-0.31198,6.05536c0.022,0.0296,0.2287,0.0463,0.35889,0.06738
				c-0.05502,0.68938,1.11197,1.35335,2.62051,1.48767c1.50461,0.13431,2.78894-0.33163,2.83267-1.04713l0.34003,0.02744
				c0.27975-0.31073,0.13437-0.65611,0.05109-0.99513c-0.00629,0.07956-0.01181,0.15414-0.0181,0.23418
				c0.1611-3.02837,1.17038-6.15195-0.96658-9.13788c-0.29205-0.40045-0.63626-0.7935-0.8432-1.2227
				c0.10269-0.28618-0.30307-0.5649-0.93488-0.62611c-0.61374-0.05515-1.19919,0.12488-1.31342,0.41328L378.52289,201.17375z" fill="#f4b41a" style=""></path>
		</g>
		<g>
			<path d="M385.67325,228.487c-1.65106,1.23868-1.40405,3.02174-2.57678,4.3916c-0.44766,2.39354-1.40454,4.69119-1.17429,7.21643
				c0.31354,0.8394,1.81763,1.56841,3.35526,1.70076c1.5311,0.15192,2.53958-0.47871,2.22183-1.32394l-0.02777,0.01132
				c-0.15375-2.15628,0.77982-4.11073,1.0224-6.19484c0.91837-1.36664,1.17194-2.89661,0.66534-4.54176
				c-0.06628-0.20006-0.01782-0.41191-0.75781-0.53523c0.18912-0.31445-0.21454-0.7149-0.87228-0.88844
				c-0.6698-0.17453-1.36502-0.05992-1.55072,0.24464L385.67325,228.487z" fill="#f4b41a" style=""></path>
			<path d="M363.50311,224.56938c-0.66296,0.007-0.84085,0.2594-0.99173,0.49638c-0.9071,1.53273-0.19226,3.20938-0.08643,4.91026
				c0.1163,1.76794-0.89508,3.26437-1.23981,4.91727c-0.16187,0.69894,1.51721,1.29245,3.15543,1.68077
				c1.63507,0.39011,3.7597,0.20459,3.92737-0.53214l-0.5755-0.69875c0.53122-1.61418,0.3421-2.31567,0.47385-4.01347
				c0.15115-1.99525-1.03967-4.11682-1.94415-6.14423c0.18152-0.3499-0.34787-0.78656-1.19998-0.98761
				c-0.83929-0.18782-1.67175-0.04407-1.85013,0.29567L363.50311,224.56938z" fill="#f4b41a" style=""></path>
			<path d="M376.17297,226.81944c-1.2634,0.06993-1.76816,0.67477-2.03638,1.21857c-0.5184,1.00562-0.8605,2.00082-0.80603,3.12569
				c0.09824,2.10847-1.7608,3.71834-1.17902,5.94534c0.0173,0.03241,0.21951,0.0787,0.34525,0.11839
				c-0.1535,0.674,0.90555,1.49905,2.379,1.84941c1.46951,0.34976,2.80756,0.07381,2.95398-0.62802l0.3324,0.07617
				c0.32169-0.26726,0.22739-0.63005,0.19385-0.97752c-0.01755,0.07779-0.03378,0.15088-0.05133,0.2292
				c0.5954-2.97368,2.04318-5.92117,0.35599-9.18288c-0.23209-0.43823-0.5163-0.87653-0.65985-1.33095
				c0.14249-0.26849-0.21899-0.60234-0.8356-0.7533c-0.59933-0.14236-1.20471-0.04793-1.35898,0.22108L376.17297,226.81944z" fill="#f4b41a" style=""></path>
		</g>
		<g>
			<path d="M379.31213,254.8795c-1.81268,0.98682-1.82657,2.78691-3.18555,3.97249
				c-0.78976,2.30356-2.06937,4.43823-2.20743,6.96994c0.18835,0.87595,1.57117,1.81516,3.07318,2.16898
				c1.49307,0.37222,2.582-0.1055,2.39026-0.98779l-0.02908,0.00714c0.16031-2.15564,1.3671-3.95422,1.90933-5.98141
				c1.10672-1.2193,1.57928-2.69675,1.31628-4.39828c-0.03641-0.20761,0.0419-0.41028-0.67242-0.63942
				c0.23288-0.28375-0.10843-0.73856-0.73422-1.00548c-0.6376-0.26968-1.34195-0.25684-1.56985,0.01775L379.31213,254.8795z" fill="#f4b41a" style=""></path>
			<path d="M357.94278,247.79372c-0.65671-0.08907-0.86942,0.13477-1.05276,0.34727
				c-1.11957,1.38445-0.65488,3.14636-0.79633,4.8441c-0.14066,1.76573-1.35818,3.0995-1.93866,4.6848
				c-0.26169,0.66797,1.31366,1.4986,2.87827,2.12018c1.56146,0.62299,3.69031,0.74734,3.96298,0.04279l-0.46808-0.77466
				c0.75937-1.51993,0.67398-2.24133,1.05014-3.90182c0.43851-1.95203-0.43246-4.22324-1.03418-6.35947
				c0.23001-0.31984-0.2305-0.82835-1.04437-1.15067c-0.80338-0.30727-1.64789-0.2856-1.87344,0.02455L357.94278,247.79372z" fill="#f4b41a" style=""></path>
			<path d="M370.15341,251.85414c-1.26022-0.11368-1.84723,0.41151-2.19116,0.91072
				c-0.65854,0.91983-1.14105,1.85484-1.25027,2.97559c-0.20798,2.10022-2.28076,3.42352-2.02774,5.71109
				c0.01257,0.03458,0.2059,0.10971,0.32455,0.16721c-0.24963,0.6445,0.67871,1.61438,2.08588,2.17447
				c1.40326,0.55905,2.76721,0.48001,3.0137-0.19312l0.31799,0.1235c0.35678-0.21774,0.31619-0.5903,0.33347-0.93903
				c-0.02853,0.07446-0.05554,0.14435-0.08435,0.21933c1.02029-2.85574,2.87958-5.56244,1.6825-9.03401
				c-0.1658-0.46712-0.38376-0.94203-0.45999-1.41235c0.17996-0.24506-0.12967-0.62776-0.71771-0.86639
				c-0.57263-0.22757-1.18506-0.2218-1.3768,0.02206L370.15341,251.85414z" fill="#f4b41a" style=""></path>
		</g>
		<g>
			<path d="M369.19574,280.07007c-1.93631,0.71365-2.2103,2.49234-3.72644,3.46841
				c-1.11407,2.16443-2.68863,4.09103-3.19052,6.57553c0.06024,0.89371,1.29272,2.02283,2.72791,2.58994
				c1.42371,0.5838,2.56998,0.26895,2.50735-0.63156l-0.02985,0.0029c0.46967-2.10901,1.92346-3.71338,2.75281-5.63998
				c1.27121-1.04584,1.95203-2.43872,1.93787-4.15985c-0.00601-0.21066,0.10086-0.39972-0.5726-0.72992
				c0.27109-0.24701-0.00079-0.74628-0.58127-1.10095c-0.59174-0.35913-1.29062-0.44846-1.55569-0.2099L369.19574,280.07007z" fill="#f4b41a" style=""></path>
			<path d="M349.07718,269.96533c-0.63705-0.18317-0.87961,0.0076-1.09204,0.19135c-1.30817,1.20816-1.10358,3.0192-1.48917,4.67911
				c-0.39502,1.72714-1.79276,2.87131-2.59641,4.35669c-0.35547,0.62335,1.0834,1.67291,2.54166,2.51398
				c1.45511,0.84189,3.54388,1.2724,3.91531,0.6145l-0.35126-0.83417c0.97128-1.39447,0.99121-2.12057,1.60336-3.70941
				c0.71643-1.86819,0.18338-4.2417-0.10269-6.44278c0.27402-0.28317-0.10818-0.85309-0.86676-1.28983
				c-0.75049-0.42035-1.58923-0.52121-1.85721-0.24689L349.07718,269.96533z" fill="#f4b41a" style=""></path>
			<path d="M360.57141,275.75076c-1.23035-0.29501-1.88733,0.13974-2.2999,0.5838c-0.78479,0.81479-1.39749,1.6701-1.66754,2.76328
				c-0.50977,2.04785-2.75174,3.05759-2.83191,5.35767c0.00732,0.03601,0.18781,0.13831,0.29706,0.21231
				c-0.34027,0.60175,0.43848,1.69543,1.74979,2.45294c1.30789,0.75583,2.66873,0.87469,3.01004,0.24438l0.29678,0.16818
				c0.38452-0.16385,0.39816-0.5383,0.46548-0.8808l-0.11499,0.20477c1.42184-2.67776,3.65283-5.08627,2.97046-8.69415
				c-0.09665-0.48618-0.24359-0.98752-0.25095-1.46396c0.2135-0.21637-0.0372-0.63974-0.58466-0.961
				c-0.5336-0.30804-1.14053-0.39102-1.36554-0.17755L360.57141,275.75076z" fill="#f4b41a" style=""></path>
		</g>
		<g>
			<path d="M355.55383,303.5264c-2.01883,0.42703-2.54535,2.14737-4.18567,2.89484
				c-1.41345,1.98111-3.24814,3.66092-4.10101,6.04712c-0.06839,0.89291,0.98911,2.18726,2.32819,2.9545
				c1.32516,0.78204,2.50446,0.63541,2.57178-0.2645l-0.03012-0.00146c0.76697-2.01895,2.43585-3.39697,3.53262-5.18359
				c1.40796-0.8515,2.2818-2.13132,2.5152-3.83588c0.02411-0.20929,0.15717-0.38092-0.46207-0.80463
				c0.30386-0.20523,0.1066-0.73831-0.41675-1.17282c-0.53412-0.44058-1.21255-0.6297-1.50909-0.43185L355.55383,303.5264z" fill="#f4b41a" style=""></path>
			<path d="M337.09943,290.63083c-0.60406-0.27295-0.87177-0.11905-1.10831,0.03235
				c-1.46899,1.00797-1.5274,2.83026-2.14822,4.41794c-0.6394,1.65308-2.1875,2.58508-3.19653,3.94019
				c-0.44165,0.56613,0.83167,1.81137,2.15424,2.85306c1.31918,1.04211,3.32465,1.76788,3.78671,1.17007l-0.22763-0.87604
				c1.16147-1.24075,1.28564-1.9566,2.12021-3.44119c0.97757-1.74612,0.7916-4.17188,0.8259-6.39175
				c0.31198-0.24084,0.01572-0.85995-0.67215-1.40134c-0.6821-0.52405-1.49728-0.7446-1.80246-0.5116L337.09943,290.63083z" fill="#f4b41a" style=""></path>
			<path d="M347.6412,298.01065c-1.17535-0.46909-1.88785-0.13345-2.36014,0.24664
				c-0.89377,0.69342-1.62329,1.45169-2.04764,2.49469c-0.79895,1.95328-3.16275,2.6304-3.57245,4.89526
				c0.00211,0.03674,0.16608,0.16391,0.26352,0.25278c-0.42303,0.54663,0.19046,1.74084,1.37943,2.67868
				c1.18582,0.93573,2.51575,1.24875,2.94376,0.6741l0.26953,0.20905c0.40421-0.10693,0.47125-0.47543,0.58704-0.80469
				l-0.14304,0.1861c1.7912-2.44547,4.34467-4.50757,4.18826-8.17554c-0.02567-0.49503-0.09872-1.0123-0.03745-1.48471
				c0.24231-0.18332,0.05502-0.63843-0.44058-1.03516c-0.48355-0.38165-1.07214-0.55115-1.32547-0.37228L347.6412,298.01065z" fill="#f4b41a" style=""></path>
		</g>
		<g>
			<path d="M338.69205,324.77481c-2.05862,0.13312-2.82587,1.75995-4.55576,2.26465c-1.6817,1.75793-3.73721,3.15756-4.922,5.39682
				c-0.1954,0.87378,0.66638,2.30606,1.88184,3.25687c1.19971,0.9635,2.38791,0.98712,2.58279,0.10626l-0.0296-0.00577
				c1.04752-1.88803,2.89557-3.01263,4.23621-4.62329c1.51483-0.64084,2.5621-1.78195,3.03674-3.43503
				c0.05371-0.20358,0.20981-0.35434-0.3421-0.86234c0.33005-0.15945,0.21088-0.71524-0.24493-1.22015
				c-0.46545-0.51248-1.10986-0.79691-1.43152-0.64365L338.69205,324.77481z" fill="#f4b41a" style=""></path>
			<path d="M322.27402,309.3699c-0.55872-0.35657-0.84583-0.24255-1.10175-0.12659c-1.59814,0.78741-1.91693,2.58267-2.7583,4.06528
				c-0.86938,1.54459-2.53485,2.24554-3.72723,3.44244c-0.51788,0.49719,0.56424,1.91168,1.7244,3.13177
				c1.15649,1.21988,3.03754,2.22504,3.58029,1.69958l-0.10007-0.8996c1.32675-1.0618,1.55176-1.75241,2.59012-3.10229
				c1.21729-1.5882,1.38022-4.0155,1.73199-6.20761c0.34314-0.19379,0.13882-0.84891-0.46442-1.48315
				c-0.60013-0.6163-1.37549-0.95132-1.71078-0.76434L322.27402,309.3699z" fill="#f4b41a" style=""></path>
			<path d="M331.65039,318.18298c-1.0957-0.63254-1.84906-0.40244-2.37088-0.09399
				c-0.98358,0.55823-1.81396,1.20425-2.38318,2.17569c-1.06979,1.81854-3.50589,2.15045-4.23489,4.33319
				c-0.00342,0.03665,0.14093,0.18597,0.22449,0.28787c-0.49664,0.48041-0.05997,1.75,0.98257,2.84814
				c1.03992,1.0957,2.31116,1.5957,2.81696,1.08832l0.23682,0.24545c0.41519-0.048,0.53436-0.40308,0.69571-0.71237
				l-0.16815,0.16373c2.12204-2.1637,4.94373-3.83859,5.31332-7.49063c0.04532-0.49353,0.04688-1.01584,0.17523-1.47452
				c0.26614-0.14667,0.1459-0.62387-0.28787-1.08746c-0.4241-0.44702-0.9823-0.69907-1.25839-0.55826L331.65039,318.18298z" fill="#f4b41a" style=""></path>
		</g>
		<g>
			<path d="M318.96564,343.39261c-2.05707-0.16217-3.04959,1.33859-4.83423,1.59119
				c-1.91666,1.49997-4.15213,2.59177-5.64627,4.63913c-0.31851,0.83701,0.32928,2.3779,1.39618,3.49286
				c1.04962,1.12527,2.22235,1.31845,2.54169,0.47427l-0.02829-0.00983c1.30762-1.71948,3.29843-2.56879,4.85623-3.97177
				c1.59158-0.41806,2.79181-1.39813,3.49829-2.96674c0.08252-0.19385,0.25879-0.32083-0.21506-0.90247
				c0.3497-0.11075,0.31119-0.67792-0.0676-1.24283c-0.38742-0.57379-0.98465-0.94733-1.3252-0.84155L318.96564,343.39261z" fill="#f4b41a" style=""></path>
			<path d="M304.91849,325.79874c-0.50189-0.4328-0.80234-0.36096-1.07242-0.28268
				c-1.69452,0.55106-2.26688,2.28253-3.31204,3.62973c-1.08157,1.40448-2.83035,1.86014-4.18198,2.87415
				c-0.58362,0.418,0.28497,1.97278,1.25839,3.34637c0.96997,1.37292,2.68808,2.63687,3.30051,2.19431l0.0296-0.90475
				c1.46561-0.86115,1.78726-1.5126,3.00821-2.70035c1.43231-1.39807,1.94101-3.7774,2.60297-5.89706
				c0.36749-0.14276,0.25906-0.82043-0.24756-1.53442c-0.50555-0.6958-1.22513-1.13815-1.58371-1.00098L304.91849,325.79874z" fill="#f4b41a" style=""></path>
			<path d="M312.93875,335.86176c-0.99432-0.78262-1.77283-0.66245-2.3334-0.43161c-1.0538,0.41205-1.96826,0.93292-2.67056,1.8132
				c-1.3194,1.64725-3.77856,1.62753-4.81299,3.68387c-0.00839,0.03577,0.11288,0.20419,0.181,0.31702
				c-0.56058,0.40451-0.31015,1.72363,0.56448,2.95975c0.87256,1.23325,2.05917,1.90991,2.63257,1.47992l0.19934,0.27682
				c0.41782,0.01184,0.58676-0.3226,0.79083-0.60568l-0.18991,0.13803c2.41095-1.83847,5.44376-3.09344,6.33282-6.65573
				c0.11551-0.48206,0.19174-0.99887,0.38428-1.4346c0.28445-0.10721,0.23392-0.59674-0.12915-1.11755
				c-0.35571-0.50305-0.87228-0.83228-1.16565-0.73239L312.93875,335.86176z" fill="#f4b41a" style=""></path>
		</g>
		<g>
			<path d="M296.76984,358.99951c-2.01279-0.45538-3.21066,0.88766-5.01364,0.88153
				c-2.11288,1.20947-4.48245,1.96896-6.25583,3.7804c-0.43613,0.78256-0.01675,2.40054,0.87885,3.65744
				c0.87646,1.26468,2.00992,1.62427,2.44763,0.83469l-0.02673-0.01389c1.54208-1.51392,3.63504-2.06873,5.37909-3.23386
				c1.63583-0.18546,2.96469-0.98349,3.88965-2.43478c0.1095-0.18002,0.302-0.28043-0.08331-0.9241
				c0.36176-0.05945,0.40549-0.62631,0.1116-1.23972c-0.30124-0.6235-0.8385-1.07877-1.19083-1.02292L296.76984,358.99951z" fill="#f4b41a" style=""></path>
			<path d="M285.39218,339.57251c-0.43481-0.50034-0.74234-0.47244-1.02081-0.43381
				c-1.75555,0.30185-2.56967,1.93277-3.79691,3.1156c-1.27148,1.23416-3.06686,1.43338-4.5495,2.24213
				c-0.6373,0.32947-0.00131,1.99304,0.76437,3.49234c0.76251,1.4982,2.28052,2.99622,2.95032,2.64645l0.15924-0.89102
				c1.57379-0.64142,1.98557-1.23972,3.3642-2.23962c1.61777-1.17758,2.46255-3.45901,3.42102-5.46146
				c0.38428-0.08856,0.37381-0.77472-0.0249-1.55402c-0.40076-0.76108-1.04935-1.30212-1.42392-1.21793L285.39218,339.57251z" fill="#f4b41a" style=""></path>
			<path d="M291.88559,350.68198c-0.87149-0.91721-1.65942-0.90994-2.24725-0.76199
				c-1.10199,0.25656-2.08142,0.64072-2.90289,1.41092c-1.54233,1.4407-3.97293,1.06769-5.29211,2.95383
				c-0.01361,0.03418,0.08228,0.21826,0.13361,0.33975c-0.61295,0.31964-0.55481,1.66107,0.13306,3.01016
				c0.68579,1.34595,1.76291,2.18628,2.39212,1.84311l0.15741,0.30261c0.41205,0.07178,0.62711-0.23489,0.86993-0.48572
				l-0.20773,0.10931c2.65039-1.47287,5.83276-2.2796,7.22397-5.67758c0.18362-0.46048,0.33319-0.961,0.58624-1.36465
				c0.29706-0.06531,0.31696-0.55704,0.03275-1.12454c-0.28003-0.54886-0.74393-0.94876-1.04883-0.89206L291.88559,350.68198z" fill="#f4b41a" style=""></path>
		</g>
		<g>
			<path d="M272.55234,371.25397c-1.92609-0.74112-3.30496,0.41479-5.08804,0.14819
				c-2.26505,0.89148-4.71924,1.30029-6.73596,2.83603c-0.54431,0.71124-0.36331,2.37286,0.34079,3.74609
				c0.6842,1.37817,1.75375,1.89795,2.30121,1.17996l-0.02435-0.01755c1.74481-1.27496,3.89594-1.52133,5.79007-2.42242
				c1.64526,0.05283,3.07578-0.54498,4.20056-1.84766c0.1344-0.16232,0.33948-0.23392,0.05081-0.92642
				c0.367-0.00662,0.4917-0.56131,0.28946-1.21066c-0.20798-0.66037-0.67398-1.18845-1.03076-1.18405L272.55234,371.25397z" fill="#f4b41a" style=""></path>
			<path d="M264.09723,350.38834c-0.35782-0.55786-0.66586-0.57471-0.94669-0.57672
				c-1.77939,0.04471-2.81958,1.54044-4.20343,2.53308c-1.43521,1.03705-3.23952,0.97412-4.82219,1.55957
				c-0.67792,0.23358-0.28918,1.97165,0.25172,3.56601c0.53752,1.59268,1.82263,3.29468,2.53564,3.0455l0.28604-0.85846
				c1.64923-0.4068,2.14301-0.93915,3.65048-1.72903c1.76999-0.93103,2.93436-3.06616,4.17072-4.90881
				c0.39267-0.03204,0.4812-0.71243,0.1991-1.54111c-0.28683-0.81091-0.85056-1.43991-1.23297-1.41077L264.09723,350.38834z" fill="#f4b41a" style=""></path>
			<path d="M268.91968,362.31863c-0.73004-1.03345-1.51041-1.14005-2.1134-1.07861c-1.12689,0.0946-2.15109,0.33304-3.07498,0.97638
				c-1.73355,1.20248-4.08401,0.48172-5.66119,2.15695c-0.01807,0.03189,0.05002,0.22787,0.08331,0.35547
				c-0.65253,0.22763-0.789,1.56323-0.30362,2.99765c0.4841,1.43094,1.42813,2.41827,2.10031,2.16989l0.11209,0.3222
				c0.39685,0.13058,0.65436-0.14166,0.93069-0.35474c-0.07516,0.02652-0.14563,0.05139-0.22134,0.07803
				c2.83481-1.07376,6.09998-1.41202,7.96634-4.5733c0.24805-0.42914,0.46835-0.9028,0.77692-1.26559
				c0.30307-0.02176,0.39398-0.50543,0.19437-1.10803c-0.19775-0.5835-0.59906-1.04623-0.90894-1.03412L268.91968,362.31863z" fill="#f4b41a" style=""></path>
		</g>
		<g>
			<path d="M246.81871,379.87573c-1.79826-1.01221-3.33066-0.0683-5.05637-0.59036c-2.37062,0.55402-4.85806,0.60294-7.0757,1.83051
				c-0.64177,0.62488-0.70332,2.29517-0.20537,3.75592c0.47752,1.46271,1.46036,2.13193,2.10579,1.50076l-0.02148-0.0209
				c1.9109-1.00882,4.0751-0.94092,6.07979-1.55811c1.62041,0.29068,3.12267-0.09366,4.42455-1.2197
				c0.15637-0.1412,0.36986-0.18231,0.18466-0.9093c0.36385,0.04657,0.5679-0.48413,0.46182-1.15604
				c-0.11002-0.68353-0.49483-1.2735-0.84845-1.32086L246.81871,379.87573z" fill="#f4b41a" style=""></path>
			<path d="M241.47578,358.00537c-0.27322-0.60385-0.57576-0.66516-0.85316-0.70779
				c-1.76736-0.21356-3.01317,1.11575-4.5267,1.89749c-1.57063,0.81824-3.34715,0.49466-4.99873,0.84491
				c-0.7049,0.133-0.57182,1.90906-0.2677,3.56488c0.3015,1.65375,1.32675,3.52383,2.06833,3.38055l0.40759-0.80804
				c1.69112-0.1637,2.25693-0.6189,3.86319-1.1821c1.88654-0.66489,3.34819-2.6088,4.83841-4.2529
				c0.39319,0.02515,0.57942-0.63522,0.42043-1.49603c-0.16634-0.84393-0.63312-1.54797-1.01556-1.57449L241.47578,358.00537z" fill="#f4b41a" style=""></path>
			<path d="M244.51907,370.50839c-0.57288-1.12827-1.32938-1.3468-1.935-1.37338c-1.12872-0.06955-2.17705,0.01801-3.18449,0.52069
				c-1.88968,0.93875-4.11099-0.11493-5.91449,1.31433c-0.02278,0.02887,0.01624,0.23267,0.03065,0.36377
				c-0.67871,0.13071-1.00719,1.43253-0.7345,2.92209c0.27164,1.48593,1.06271,2.59961,1.76395,2.45114l0.06418,0.33505
				c0.37405,0.18668,0.66795-0.04538,0.97234-0.21619c-0.07806,0.01532-0.15166,0.02972-0.23024,0.0452
				c2.96051-0.65192,6.24034-0.51361,8.54575-3.37119c0.30753-0.38873,0.59409-0.82553,0.95218-1.1398
				c0.30307,0.0224,0.46286-0.44302,0.35283-1.06815c-0.11133-0.60602-0.44138-1.12201-0.74968-1.15488L244.51907,370.50839z" fill="#f4b41a" style=""></path>
		</g>
		<g>
			<path d="M220.11063,384.68253c-1.63324-1.26114-3.28534-0.54807-4.91753-1.3132c-2.42485,0.20688-4.89317-0.10236-7.263,0.79443
				c-0.72429,0.52637-1.02499,2.17068-0.74132,3.68768c0.26326,1.51602,1.13869,2.31927,1.86743,1.78726l-0.01834-0.02377
				c2.03427-0.72409,4.16469-0.34564,6.23616-0.66769c1.56094,0.52112,3.10172,0.35727,4.55185-0.56909
				c0.17499-0.11716,0.39214-0.12704,0.31381-0.87314c0.3531,0.09863,0.63156-0.39709,0.62343-1.07724
				c-0.01021-0.69226-0.30568-1.3316-0.64883-1.42944L220.11063,384.68253z" fill="#f4b41a" style=""></path>
			<path d="M217.97942,362.27005c-0.18336-0.63693-0.47412-0.74124-0.74287-0.82343c-1.71994-0.466-3.14677,0.6701-4.75931,1.22598
				c-1.67436,0.58392-3.38855,0.00842-5.076,0.11832c-0.718,0.03058-0.84137,1.80737-0.77747,3.48972
				c0.06104,1.67987,0.80838,3.67767,1.56357,3.64218l0.51996-0.74112c1.69847,0.08063,2.32425-0.28845,3.99652-0.61484
				c1.96434-0.38666,3.69266-2.0997,5.40633-3.51181c0.38557,0.0816,0.6656-0.54504,0.63234-1.4198
				c-0.04271-0.85907-0.40288-1.62311-0.77798-1.7045L217.97942,362.27005z" fill="#f4b41a" style=""></path>
			<path d="M219.18648,375.08139c-0.40393-1.19913-1.1214-1.52451-1.71707-1.63806
				c-1.10751-0.23157-2.15791-0.29596-3.22771,0.05652c-2.00598,0.65689-4.05414-0.70511-6.0452,0.45059
				c-0.02672,0.02536-0.01729,0.23267-0.02174,0.36444c-0.69075,0.03201-1.20287,1.27332-1.14655,2.78659
				c0.0558,1.50952,0.67923,2.7251,1.39435,2.6788l0.01546,0.34073c0.34314,0.23849,0.66743,0.05093,0.9933-0.07434
				c-0.07964,0.00394-0.15456,0.00766-0.23445,0.0116c3.02339-0.22009,6.24901,0.38892,8.9426-2.10638
				c0.36044-0.34033,0.707-0.73114,1.10674-0.99048c0.29678,0.06589,0.52231-0.37164,0.50345-1.00613
				c-0.02252-0.61572-0.27478-1.17386-0.57523-1.25095L219.18648,375.08139z" fill="#f4b41a" style=""></path>
		</g>
		<g>
			<path d="M193.00438,385.61447c-1.4373-1.48032-3.17349-1.00854-4.68098-1.99759
				c-2.42982-0.13931-4.83005-0.79507-7.30466-0.24402c-0.79213,0.41821-1.32309,2.00311-1.25786,3.54504
				c0.0453,1.53809,0.79893,2.45746,1.5963,2.03442l-0.01494-0.02612c2.11784-0.42789,4.17413,0.2485,6.27022,0.22375
				c1.47136,0.73694,3.01947,0.7937,4.58565,0.08234c0.18965-0.09119,0.40575-0.07016,0.43431-0.81976
				c0.33554,0.14767,0.68132-0.30341,0.76985-0.97787c0.08801-0.68668-0.11368-1.36151-0.43903-1.50711L193.00438,385.61447z" fill="#f4b41a" style=""></path>
			<path d="M194.0773,363.12656c-0.09142-0.65665-0.36462-0.80112-0.61923-0.92068
				c-1.63821-0.70547-3.21278,0.21677-4.88818,0.53824c-1.74091,0.34052-3.3558-0.47189-5.04091-0.60275
				c-0.71486-0.07156-1.08891,1.66971-1.26468,3.34409c-0.17812,1.6716,0.27792,3.75507,1.0305,3.82724l0.61977-0.65991
				c1.66965,0.32095,2.3418,0.04388,4.04367-0.04172c1.99969-0.10413,3.95409-1.55484,5.85268-2.70926
				c0.37039,0.13556,0.73685-0.44492,0.82828-1.31555c0.07988-0.85635-0.16844-1.66382-0.52861-1.79773L194.0773,363.12656z" fill="#f4b41a" style=""></path>
			<path d="M193.45282,375.97943c-0.22972-1.24438-0.89401-1.66827-1.46768-1.86526
				c-1.06377-0.38644-2.09479-0.59921-3.20387-0.40204c-2.07933,0.36581-3.914-1.27274-6.04913-0.41132
				c-0.02986,0.0213-0.05003,0.22784-0.07335,0.35764c-0.68813-0.06635-1.37128,1.08963-1.53055,2.59561
				c-0.159,1.50214,0.28578,2.79401,1.00038,2.84961l-0.033,0.33948c0.30595,0.28485,0.65381,0.14511,0.99408,0.06744
				c-0.07938-0.00739-0.15376-0.01434-0.23392-0.02179c3.02548,0.21091,6.13217,1.27121,9.15268-0.81662
				c0.40523-0.28568,0.80391-0.62338,1.23639-0.82336c0.28447,0.10739,0.56973-0.29373,0.64125-0.92441
				c0.06522-0.6127-0.1053-1.20105-0.39162-1.31998L193.45282,375.97943z" fill="#f4b41a" style=""></path>
		</g>
		<g>
			<path d="M166.02492,382.67838c-1.21124-1.6712-2.99799-1.45386-4.34831-2.64944
				c-2.38582-0.48749-4.66737-1.48242-7.19594-1.29428c-0.84453,0.29947-1.5984,1.79117-1.75636,3.32639
				c-0.1776,1.52847,0.43614,2.54718,1.28668,2.24356l-0.011-0.02795c2.15871-0.11768,4.09737,0.84827,6.17723,1.12558
				c1.35112,0.94104,2.87695,1.21997,4.53036,0.74088c0.20117-0.06296,0.41231-0.01108,0.54773-0.74893
				c0.3112,0.19437,0.71852-0.20255,0.90294-0.85721c0.18546-0.66699,0.0825-1.36383-0.21899-1.5546L166.02492,382.67838z" fill="#f4b41a" style=""></path>
			<path d="M170.31036,360.57651c0.00392-0.66287-0.24545-0.845-0.47989-0.99973c-1.5172-0.93259-3.20544-0.24564-4.90758-0.16812
				c-1.76944,0.08704-3.24866-0.94922-4.89552-1.32132c-0.69624-0.17374-1.31758,1.49533-1.73303,3.1268
				c-0.41754,1.62839-0.26744,3.7558,0.46652,3.93561l0.70805-0.56369c1.60521,0.55807,2.30957,0.38068,4.0049,0.54059
				c1.99237,0.18433,4.13326-0.97092,6.17538-1.84161c0.34682,0.18716,0.79213-0.33496,1.00719-1.18347
				c0.20171-0.83615,0.07204-1.67078-0.26482-1.8548L170.31036,360.57651z" fill="#f4b41a" style=""></path>
			<path d="M167.85016,373.20718c-0.04898-1.26443-0.64543-1.77914-1.18452-2.05643
				c-0.99696-0.53503-1.98634-0.89355-3.11192-0.85782c-2.10973,0.06308-3.68822-1.82248-5.92471-1.27783
				c-0.03275,0.01675-0.08224,0.21826-0.12416,0.34335c-0.67111-0.16489-1.51379,0.88046-1.88864,2.34769
				c-0.37431,1.46344-0.12076,2.80591,0.57864,2.96414l-0.08173,0.33115c0.26195,0.32599,0.62605,0.23792,0.97418,0.21002
				c-0.07755-0.01874-0.15036-0.03635-0.22842-0.05527c2.96341,0.64505,5.88647,2.14154,9.17574,0.50882
				c0.44217-0.22461,0.88512-0.50168,1.34169-0.63757c0.26614,0.14709,0.60588-0.20895,0.76724-0.82291
				c0.15219-0.59705,0.06784-1.2037-0.19856-1.36246L167.85016,373.20718z" fill="#f4b41a" style=""></path>
		</g>
		<g>
			<path d="M139.7417,375.87845c-0.95636-1.82904-2.75594-1.87292-3.91872-3.25156c-2.28993-0.828-4.4028-2.14313-6.9319-2.32327
				c-0.87909,0.17395-1.84122,1.54071-2.21999,3.03674c-0.39711,1.48663,0.06261,2.58347,0.94798,2.40631l-0.00681-0.02927
				c2.15267,0.19632,3.93076,1.43298,5.94854,2.00882c1.20078,1.12695,2.67003,1.62399,4.37556,1.38956
				c0.20825-0.03314,0.40968,0.04871,0.65068-0.66168c0.27975,0.23746,0.74025-0.09628,1.01765-0.71735
				c0.28003-0.63312,0.27898-1.33749,0.00838-1.56992L139.7417,375.87845z" fill="#f4b41a" style=""></path>
			<path d="M147.18309,354.63025c0.10007-0.65527-0.12024-0.87149-0.32953-1.05853c-1.3658-1.14243-3.13498-0.70712-4.83031-0.87692
				c-1.76315-0.17029-3.07655-1.40988-4.6519-2.01666c-0.66351-0.27277-1.52034,1.28857-2.16788,2.84262
				c-0.64883,1.55075-0.80888,3.67743-0.1087,3.96164l0.78217-0.45514c1.50725,0.78473,2.22997,0.7113,3.8839,1.11511
				c1.94443,0.47104,4.2299-0.36188,6.37578-0.92789c0.3159,0.23535,0.8322-0.21677,1.16801-1.02512
				c0.32063-0.79816,0.31303-1.64282,0.00682-1.8736L147.18309,354.63025z" fill="#f4b41a" style=""></path>
			<path d="M142.91965,366.77148c0.13464-1.25821-0.38087-1.85388-0.87411-2.20627c-0.90869-0.6738-1.83546-1.17181-2.95424-1.2995
				c-2.09662-0.24323-3.38513-2.33762-5.67665-2.12277c-0.03458,0.01187-0.11316,0.20401-0.17236,0.32169
				c-0.64046-0.26038-1.62564,0.65186-2.20898,2.04929c-0.58258,1.39374-0.52626,2.75882,0.14276,3.01663l-0.12889,0.31577
				c0.21191,0.3605,0.58519,0.32614,0.93332,0.34906c-0.07387-0.02982-0.14328-0.05783-0.21768-0.08783
				c2.8382,1.06763,5.51346,2.97192,9.00443,1.83286c0.46992-0.15817,0.9485-0.36816,1.42001-0.43649
				c0.24203,0.18402,0.62971-0.11905,0.87805-0.70319c0.23706-0.5686,0.2415-1.18118,0.00104-1.3768L142.91965,366.77148z" fill="#f4b41a" style=""></path>
		</g>
		<g>
			<path d="M114.72396,365.34418c-0.68132-1.94803-2.45496-2.25143-3.40583-3.78342
				c-2.14534-1.14993-4.0455-2.75613-6.52142-3.29901c-0.89429,0.04544-2.04371,1.25897-2.63466,2.68469
				c-0.60719,1.41379-0.31145,2.56516,0.5899,2.51749l-0.00236-0.02991c2.10081,0.50449,3.68061,1.98462,5.59309,2.84552
				c1.02447,1.28839,2.40572,1.99228,4.12697,2.00677c0.2106-0.00262,0.3979,0.10739,0.73921-0.56064
				c0.2423,0.27536,0.74603,0.01172,1.11039-0.56271c0.36882-0.58585,0.46993-1.28296,0.23576-1.55206L114.72396,365.34418z" fill="#f4b41a" style=""></path>
			<path d="M125.16175,345.39636c0.19358-0.63391,0.00681-0.87982-0.17341-1.09521c-1.1861-1.32812-3.00034-1.15353-4.65375-1.56683
				c-1.72046-0.42355-2.84133-1.84018-4.31321-2.66837c-0.61741-0.36581-1.69061,1.05557-2.55582,2.49982
				c-0.86573,1.44083-1.33095,3.52225-0.67923,3.90457l0.83981-0.33737c1.37836,0.9942,2.10396,1.02603,3.68245,1.66467
				c1.85615,0.74725,4.23803,0.25369,6.44363,0.0043c0.27871,0.27866,0.85473-0.09402,1.30397-0.84531
				c0.433-0.74332,0.54773-1.58017,0.27792-1.85287L125.16175,345.39636z" fill="#f4b41a" style=""></path>
			<path d="M119.18596,356.79282c0.31538-1.2254-0.10818-1.88937-0.54537-2.30939c-0.80155-0.7981-1.64659-1.42493-2.73524-1.71301
				c-2.03899-0.54367-3.01134-2.80225-5.30992-2.92044c-0.03615,0.00674-0.14145,0.18552-0.21716,0.29346
				c-0.59592-0.3501-1.70239,0.4104-2.48142,1.70892c-0.77746,1.2952-0.91891,2.65399-0.29443,3.00558l-0.17315,0.29391
				c0.15769,0.38727,0.53175,0.4071,0.87307,0.48001l-0.20274-0.11835c2.65352,1.46591,5.02466,3.73648,8.64319,3.11417
				c0.48775-0.08862,0.99147-0.22717,1.46795-0.22659c0.21271,0.2171,0.6402-0.02664,0.97051-0.56876
				c0.31696-0.52835,0.40995-1.13376,0.20039-1.36218L119.18596,356.79282z" fill="#f4b41a" style=""></path>
		</g>
		<g>
			<path d="M91.49663,351.31525c-0.39371-2.02545-2.105-2.58044-2.82536-4.23282c-1.95726-1.4458-3.60648-3.30777-5.97814-4.19983
				c-0.89167-0.08325-2.20324,0.95288-2.99249,2.27911c-0.80391,1.3121-0.67661,2.49368,0.22187,2.57565l0.0021-0.02997
				c2.00599,0.80017,3.35606,2.49124,5.1242,3.6174c0.82802,1.42178,2.09322,2.31641,3.79351,2.57782
				c0.20904,0.02765,0.37826,0.16345,0.8123-0.44852c0.20013,0.30725,0.73633,0.11871,1.17954-0.39737
				c0.44924-0.5267,0.64963-1.20193,0.45657-1.50186L91.49663,351.31525z" fill="#f4b41a" style=""></path>
			<path d="M104.69507,333.07642c0.28291-0.59946,0.1336-0.86972-0.01388-1.10889c-0.98361-1.48538-2.80466-1.57391-4.38211-2.22079
				c-1.64214-0.66666-2.54848-2.22995-3.88702-3.26117c-0.55873-0.45081-1.82472,0.80188-2.88823,2.10712
				c-1.0635,1.30173-1.82236,3.29495-1.23219,3.76685l0.87962-0.21329c1.22146,1.18185,1.93526,1.31766,3.40583,2.17657
				c1.72964,1.00635,4.15814,0.86057,6.37736,0.93137c0.23549,0.31598,0.85944,0.03012,1.41216-0.64877
				c0.53516-0.67328,0.76933-1.48492,0.54118-1.79376L104.69507,333.07642z" fill="#f4b41a" style=""></path>
			<path d="M97.14236,343.49469c0.48827-1.1673,0.1645-1.88528-0.20773-2.3638c-0.67844-0.90509-1.42473-1.64694-2.46046-2.08844
				c-1.93998-0.83096-2.57782-3.20578-4.83554-3.65265c-0.03693,0.0015-0.1666,0.16339-0.25723,0.25925
				c-0.53961-0.43201-1.74378,0.16196-2.70094,1.3353c-0.95532,1.17023-1.29008,2.49463-0.72271,2.93216l-0.21349,0.26599
				c0.10033,0.40582,0.46758,0.4791,0.79501,0.60019l-0.18362-0.14615c2.41541,1.83127,4.43502,4.4183,8.10489,4.32257
				c0.49535-0.01755,1.01374-0.08224,1.48524-0.01315c0.17917,0.24542,0.63731,0.06567,1.04228-0.42325
				c0.38951-0.47726,0.56869-1.06299,0.39397-1.31918L97.14236,343.49469z" fill="#f4b41a" style=""></path>
		</g>
		<g>
			<path d="M70.52988,334.10626c-0.09927-2.06055-1.71313-2.85431-2.18935-4.59232c-1.7299-1.71039-3.09569-3.78854-5.31516-5.01007
				c-0.87019-0.20963-2.31639,0.62836-3.28717,1.82812c-0.98309,1.18375-1.02631,2.37115-0.14879,2.58057l0.00629-0.02933
				c1.87056,1.07825,2.96445,2.94449,4.5529,4.31137c0.61584,1.52527,1.73933,2.59119,3.38435,3.0928
				c0.20274,0.05719,0.35101,0.21579,0.86783-0.32788c0.15402,0.33267,0.71171,0.22272,1.22408-0.22461
				c0.52023-0.45697,0.81518-1.09659,0.66718-1.42093L70.52988,334.10626z" fill="#f4b41a" style=""></path>
			<path d="M86.20294,317.94403c0.36568-0.55286,0.25645-0.84171,0.1446-1.09955c-0.76096-1.61096-2.55084-1.95908-4.01931-2.82489
				c-1.53004-0.89468-2.2035-2.57138-3.38068-3.78323c-0.48853-0.52597-1.92059,0.53287-3.15961,1.67267
				c-1.23875,1.13638-2.27474,3.00061-1.75819,3.55194l0.9011-0.08542c1.03967,1.34412,1.72649,1.58054,3.05927,2.64084
				c1.56775,1.24313,3.99207,1.44614,6.17802,1.8338c0.18807,0.34644,0.84661,0.15286,1.49074-0.43994
				c0.62605-0.58975,0.97366-1.35956,0.79239-1.69785L86.20294,317.94403z" fill="#f4b41a" style=""></path>
			<path d="M77.23677,327.1741c0.65041-1.08533,0.43274-1.84213,0.1328-2.36899c-0.54197-0.99271-1.17404-1.8335-2.13591-2.41849
				c-1.80089-1.09964-2.09243-3.54105-4.26292-4.30582c-0.03667-0.00378-0.18834,0.13785-0.29154,0.21985
				c-0.47229-0.50458-1.74876-0.08881-2.86387,0.93567c-1.11275,1.02173-1.63376,2.28452-1.13449,2.79852l-0.24937,0.23279
				c0.04112,0.41592,0.39423,0.54092,0.70071,0.70746l-0.16084-0.17087c2.12831,2.15735,3.75658,5.00595,7.40208,5.43573
				c0.49272,0.05344,1.01479,0.06354,1.47136,0.19928c0.14223,0.26849,0.62134,0.15613,1.09206-0.26981
				c0.45395-0.41663,0.71511-0.97064,0.5789-1.24908L77.23677,327.1741z" fill="#f4b41a" style=""></path>
		</g>
		<g>
			<path d="M52.23946,314.07605c0.19593-2.05405-1.28852-3.07108-1.51143-4.85989c-1.46821-1.94116-2.52307-4.19431-4.54556-5.72198
				c-0.83168-0.33246-2.38293,0.28973-3.51532,1.33823c-1.14261,1.03076-1.35505,2.20029-0.5163,2.53357l0.01048-0.02817
				c1.69767,1.33585,2.5139,3.34048,3.89122,4.92139c0.39161,1.59833,1.35191,2.81461,2.90866,3.54688
				c0.19253,0.08566,0.31643,0.26385,0.90581-0.20026c0.10504,0.35141,0.67294,0.32248,1.24398-0.047
				c0.57995-0.37793,0.96318-0.9689,0.86311-1.31119L52.23946,314.07605z" fill="#f4b41a" style=""></path>
			<path d="M70.06231,300.32089c0.44086-0.49481,0.37406-0.79645,0.30019-1.06763c-0.52311-1.70349-2.24462-2.3042-3.57452-3.37137
				c-1.38648-1.10458-1.81293-2.8606-2.80466-4.22855c-0.40811-0.59058-1.97717,0.25232-3.36654,1.20297
				c-1.38884,0.9472-2.68102,2.64404-2.24855,3.26379l0.90398,0.04453c0.83692,1.47949,1.48288,1.81189,2.65038,3.05222
				c1.37417,1.45511,3.74479,2.00311,5.85346,2.69968c0.13647,0.36987,0.81596,0.27249,1.53815-0.22211
				c0.70411-0.49423,1.15833-1.20642,1.02683-1.56723L70.06231,300.32089z" fill="#f4b41a" style=""></path>
			<path d="M59.8684,308.17413c0.79893-0.9812,0.69154-1.7616,0.46993-2.32602c-0.39449-1.0603-0.90031-1.98315-1.76866-2.70001
				c-1.62538-1.3465-1.56513-3.80499-3.60413-4.87308c-0.03563-0.00897-0.20589,0.1095-0.31984,0.17584
				c-0.39528-0.5672-1.71837-0.33862-2.96864,0.51556c-1.24765,0.85187-1.9439,2.02728-1.52322,2.6077l-0.28002,0.19473
				c-0.01886,0.41763,0.31277,0.59201,0.59253,0.80084l-0.1349-0.1922c1.79826,2.44083,3.00322,5.49414,6.55024,6.44174
				c0.48015,0.12344,0.99566,0.20825,1.42813,0.40796c0.10268,0.28619,0.59278,0.24356,1.11956-0.11072
				c0.50896-0.34741,0.84661-0.85846,0.75153-1.15363L59.8684,308.17413z" fill="#f4b41a" style=""></path>
		</g>
		<g>
			<path d="M37.00071,291.62485c0.48853-2.005-0.8343-3.22501-0.79841-5.02774c-1.17431-2.13257-1.8944-4.51443-3.67616-6.31796
				c-0.77536-0.44888-2.39996-0.05643-3.67145,0.81808c-1.27909,0.85538-1.6576,1.98267-0.87516,2.43341l0.01414-0.0264
				c1.48812,1.56717,2.00808,3.6691,3.14441,5.43231c0.15822,1.63861,0.9341,2.98083,2.37009,3.9296
				c0.17812,0.1124,0.27531,0.30667,0.9252-0.06802c0.05344,0.36292,0.6195,0.41583,1.2377,0.1322
				c0.62841-0.29074,1.09258-0.82062,1.04255-1.17377L37.00071,291.62485z" fill="#f4b41a" style=""></path>
			<path d="M56.61345,280.5705c0.50765-0.42636,0.4846-0.73434,0.45081-1.01318c-0.27269-1.76022-1.88995-2.60135-3.0522-3.84787
				c-1.21281-1.29175-1.38203-3.09012-2.16604-4.58578c-0.31879-0.64282-1.99289-0.03452-3.50459,0.70621
				c-1.51065,0.73746-3.03387,2.23041-2.69517,2.90579l0.88826,0.17413c0.61505,1.58405,1.20652,2.00583,2.18333,3.4007
				c1.15073,1.63712,3.41762,2.51956,5.40396,3.51108c0.08225,0.38547,0.76855,0.38651,1.55413,0.00073
				c0.76777-0.38809,1.31943-1.02768,1.24137-1.40344L56.61345,280.5705z" fill="#f4b41a" style=""></path>
			<path d="M45.39793,286.87924c0.93148-0.85645,0.93725-1.6441,0.7992-2.23447c-0.23837-1.10596-0.60614-2.0918-1.36265-2.92596
				c-1.41477-1.56598-1.00168-3.99002-2.86544-5.3403c-0.03405-0.01401-0.21977,0.0787-0.3421,0.12796
				c-0.30936-0.61807-1.65157-0.58237-3.01186,0.08298c-1.35715,0.66339-2.21529,1.72635-1.88261,2.36139l-0.30517,0.15237
				c-0.07858,0.41061,0.22449,0.63089,0.47124,0.87793l-0.10583-0.20969c1.42866,2.67453,2.18254,5.86987,5.55694,7.31735
				c0.45736,0.19107,0.95532,0.34903,1.35479,0.60883c0.06025,0.29794,0.55166,0.32611,1.12375,0.05115
				c0.55349-0.27081,0.96108-0.72803,0.90948-1.03384L45.39793,286.87924z" fill="#f4b41a" style=""></path>
		</g>
		<g>
			<path d="M25.14998,267.20618c0.773-1.91333-0.35965-3.31158-0.06339-5.09c-0.85368-2.27972-1.22146-4.74039-2.72346-6.78239
				c-0.70202-0.55638-2.36643-0.40302-3.75134,0.27818c-1.38936,0.66116-1.92688,1.72183-1.21805,2.28104l0.01807-0.02405
				c1.24556,1.76587,1.45616,3.92096,2.32556,5.83002c-0.08042,1.64432,0.49351,3.08469,1.77731,4.23105
				c0.16005,0.13699,0.22816,0.34326,0.92546,0.06631c0.00052,0.36694,0.55297,0.50104,1.20574,0.30963
				c0.66377-0.19693,1.19945-0.65421,1.20103-1.01093L25.14998,267.20618z" fill="#f4b41a" style=""></path>
			<path d="M46.15365,259.10019c0.56371-0.3486,0.58571-0.65643,0.59226-0.93707c-0.01493-1.77991-1.4931-2.84473-2.46256-4.24509
				c-1.01295-1.45238-0.91996-3.25528-1.47895-4.84753c-0.22213-0.68178-1.96643-0.32205-3.56955,0.19208
				c-1.60154,0.511-3.32463,1.76749-3.08756,2.4845l0.85368,0.30052c0.3793,1.65556,0.90319,2.15817,1.66781,3.67877
				c0.90136,1.78529,3.01684,2.98515,4.83868,4.25194c0.02541,0.3931,0.70438,0.49298,1.53763,0.22473
				c0.81544-0.27319,1.4538-0.82635,1.43102-1.20908L46.15365,259.10019z" fill="#f4b41a" style=""></path>
			<path d="M34.14444,263.72302c1.04569-0.71277,1.16514-1.49115,1.1138-2.09506c-0.0757-1.12833-0.29705-2.15662-0.92493-3.09097
				c-1.17352-1.75339-0.41361-4.09148-2.06231-5.69641c-0.03143-0.0188-0.22868,0.04604-0.35677,0.07713
				c-0.21663-0.65617-1.54994-0.81485-2.99222-0.35342c-1.43887,0.45992-2.44187,1.38739-2.20454,2.06367l-0.32403,0.10667
				c-0.13726,0.39482,0.13071,0.65665,0.33922,0.9366c-0.02541-0.07564-0.04898-0.14656-0.07439-0.22272
				c1.02631,2.85239,1.31,6.1228,4.43974,8.04196c0.42514,0.25507,0.89507,0.48322,1.25263,0.79788
				c0.01677,0.30347,0.49875,0.40222,1.10463,0.21277c0.58676-0.18808,1.05591-0.58167,1.0491-0.8916L34.14444,263.72302z" fill="#f4b41a" style=""></path>
		</g>
		<g>
			<path d="M16.95891,241.33357c1.04202-1.7813,0.1239-3.32901,0.67451-5.04587c-0.51446-2.37939-0.52206-4.86743-1.71261-7.10512
				c-0.614-0.65198-2.28313-0.74124-3.75186-0.26758c-1.47057,0.45317-2.15582,1.42461-1.53553,2.08038l0.02122-0.02115
				c0.9768,1.9272,0.87307,4.0899,1.45669,6.10474c-0.31774,1.61536,0.04165,3.12372,1.14575,4.44412
				c0.13857,0.15874,0.17629,0.37274,0.90607,0.1998c-0.05265,0.36313,0.47465,0.57588,1.14811,0.48106
				c0.68551-0.09869,1.28171-0.47354,1.33488-0.82631L16.95891,241.33357z" fill="#f4b41a" style=""></path>
			<path d="M38.91528,236.35594c0.60824-0.2632,0.67477-0.56464,0.72192-0.84137c0.24282-1.76357-1.0656-3.03159-1.82184-4.55807
				c-0.79213-1.58418-0.43902-3.35527-0.76174-5.01248c-0.12128-0.70712-1.89938-0.60373-3.56012-0.32698
				c-1.65839,0.27386-3.54545,1.26796-3.41448,2.01189l0.80129,0.42108c0.13569,1.69354,0.58126,2.26689,1.11773,3.88251
				c0.63339,1.89748,2.55267,3.39142,4.17176,4.90895c-0.0317,0.39265,0.62553,0.5899,1.48891,0.44518
				c0.84661-0.15213,1.55832-0.60699,1.59106-0.98904L38.91528,236.35594z" fill="#f4b41a" style=""></path>
			<path d="M26.36332,239.19026c1.13763-0.55382,1.36867-1.30672,1.40534-1.91182c0.08854-1.12755,0.01834-2.17717-0.46758-3.19273
				c-0.90712-1.90514,0.18336-4.10883-1.21569-5.93597c-0.02855-0.02318-0.23313,0.01251-0.36437,0.02469
				c-0.11945-0.68073-1.41556-1.03076-2.90944-0.78296c-1.49022,0.24689-2.61685,1.0195-2.48011,1.72296l-0.33608,0.05861
				c-0.19279,0.37085,0.03432,0.66869,0.20013,0.97595c-0.01414-0.07852-0.02724-0.15219-0.04139-0.23117
				c0.60248,2.97099,0.40969,6.24821,3.22849,8.60081c0.38349,0.31407,0.81544,0.60791,1.12375,0.9711
				c-0.0275,0.30269,0.43509,0.47034,1.06219,0.37059c0.60772-0.10104,1.12899-0.42252,1.16697-0.73018L26.36332,239.19026z" fill="#f4b41a" style=""></path>
		</g>
		<g>
			<path d="M12.59618,214.55045c1.28799-1.61215,0.60221-3.27538,1.39382-4.89453c-0.16686-2.42773,0.18284-4.89023-0.6753-7.27394
				c-0.51446-0.73253-2.15373-1.06003-3.67511-0.80122c-1.52008,0.23869-2.33735,1.10049-1.81739,1.83768l0.0241-0.01787
				c0.69075,2.04507,0.2774,4.16869,0.56528,6.24474c-0.54668,1.55171-0.40811,3.09483,0.49403,4.55959
				c0.11447,0.17694,0.12076,0.39403,0.86783,0.32802c-0.10425,0.35153,0.3869,0.63797,1.06691,0.64117
				c0.69232,0.00105,1.33645-0.28381,1.43992-0.62514L12.59618,214.55045z" fill="#f4b41a" style=""></path>
			<path d="M35.04056,212.78905c0.63994-0.17294,0.74917-0.46207,0.83561-0.72939c0.49429-1.71234-0.61819-3.1579-1.14759-4.77954
				c-0.55637-1.68407,0.04715-3.38881-0.0351-5.07823c-0.01912-0.71852-1.79355-0.87091-3.47682-0.83456
				c-1.68065,0.03386-3.69031,0.74844-3.66699,1.5041l0.7324,0.53201c-0.10818,1.69714,0.25042,2.32903,0.5493,4.00653
				c0.35441,1.9705,2.03873,3.72672,3.4226,5.46368c-0.08802,0.38434,0.53385,0.67458,1.40901,0.65579
				c0.85971-0.02843,1.62957-0.3761,1.71732-0.74995L35.04056,212.78905z" fill="#f4b41a" style=""></path>
			<path d="M22.2112,213.78471c1.20574-0.38422,1.54287-1.09619,1.66624-1.68996c0.24963-1.10344,0.33136-2.15274-0.00341-3.22816
				c-0.62396-2.0164,0.77143-4.04196-0.35179-6.05176c-0.02489-0.02704-0.23235-0.02101-0.36384-0.02776
				c-0.02069-0.69115-1.25368-1.2233-2.76747-1.19167c-1.51038,0.03123-2.73603,0.63457-2.70119,1.35027l-0.34105,0.00989
				c-0.24413,0.33936-0.06182,0.6666,0.05815,0.99435c-0.00262-0.0797-0.00524-0.15448-0.00786-0.2347
				c0.17079,3.02646-0.49115,6.24113,1.95936,8.9752c0.33424,0.366,0.71931,0.7191,0.97208,1.12297
				c-0.07073,0.29559,0.36306,0.52821,0.99776,0.5199c0.6161-0.01237,1.17824-0.25534,1.26023-0.55447L22.2112,213.78471z" fill="#f4b41a" style=""></path>
		</g>
		<g>
			<path d="M12.10713,187.43262c1.50357-1.41301,1.06036-3.15698,2.07409-4.64799c0.17917-2.42752,0.87438-4.8168,0.36437-7.30019
				c-0.40523-0.79907-1.9811-1.35609-3.52397-1.31628c-1.53841,0.01978-2.47016,0.75821-2.06047,1.56252l0.02646-0.01428
				c0.39292,2.12479-0.31748,4.16974-0.32717,6.26649c-0.76096,1.45917-0.84321,3.00648-0.15743,4.58426
				c0.08801,0.19136,0.06339,0.40706,0.81256,0.44774c-0.15324,0.33313,0.29233,0.68623,0.96501,0.7859
				c0.68525,0.09927,1.36343-0.09135,1.51405-0.4144L12.10713,187.43262z" fill="#f4b41a" style=""></path>
			<path d="M34.57456,188.87306c0.65801-0.08049,0.8068-0.35141,0.9307-0.60393c0.73214-1.62596-0.16424-3.21494-0.45815-4.89513
				c-0.31198-1.74574,0.52704-3.34683,0.68552-5.02925c0.0833-0.71327-1.65131-1.11615-3.32253-1.31969
				c-1.6686-0.20549-3.7592,0.21599-3.84381,0.96698l0.64963,0.63065c-0.34839,1.66408-0.08251,2.34048-0.02488,4.0434
				c0.07125,2.00095,1.48969,3.97858,2.61292,5.89525c-0.14171,0.36823,0.433,0.74399,1.30187,0.84956
				c0.855,0.09377,1.66651-0.14113,1.80613-0.49915L34.57456,188.87306z" fill="#f4b41a" style=""></path>
			<path d="M21.73367,188.03856c1.24791-0.20937,1.68248-0.86652,1.8889-1.43684c0.40392-1.05714,0.63339-2.0845,0.45448-3.19673
				c-0.33162-2.08496,1.33698-3.89214,0.5108-6.04108c-0.02069-0.03026-0.22685-0.05383-0.35625-0.07924
				c0.07754-0.68709-1.06691-1.3891-2.56996-1.57312c-1.49938-0.18388-2.79838,0.23941-2.86596,0.95309l-0.3387-0.03864
				c-0.28997,0.30136-0.15586,0.65132-0.08382,0.9929c0.00864-0.07924,0.01676-0.15364,0.02567-0.2334
				c-0.2609,3.02142-1.37208,6.11063,0.66587,9.16499c0.27897,0.40982,0.61034,0.81393,0.80313,1.24968
				c-0.11211,0.28264,0.28421,0.57445,0.91367,0.65625c0.61165,0.07518,1.2026-0.08566,1.32624-0.37013L21.73367,188.03856z" fill="#f4b41a" style=""></path>
		</g>
		<g>
			<path d="M15.4886,160.50345c1.69113-1.18335,1.50357-2.97362,2.72163-4.30379c0.52704-2.37743,1.55989-4.64195,1.41399-7.17354
				c-0.28526-0.84937-1.76447-1.62801-3.2966-1.81163c-1.52532-0.20288-2.55424,0.39371-2.26479,1.2491l0.02803-0.01035
				c0.08173,2.16026-0.91629,4.08269-1.22827,6.1577c-0.96344,1.3354-1.26782,2.8564-0.81623,4.51767
				c0.05946,0.20209,0.00419,0.41231,0.73974,0.56017c-0.1996,0.30792,0.19044,0.72166,0.8419,0.91695
				c0.66403,0.19673,1.36238,0.1053,1.55806-0.19305L15.4886,160.50345z" fill="#f4b41a" style=""></path>
			<path d="M37.51622,165.15575c0.66273,0.01506,0.84897-0.23117,1.00745-0.46298c0.95768-1.50136,0.29888-3.20061,0.24963-4.90378
				c-0.05737-1.77049,1.00325-3.2323,1.40273-4.8726c0.18546-0.69298-1.47319-1.34221-3.09752-1.7849
				c-1.62119-0.44453-3.75082-0.32993-3.94283,0.40077l0.55192,0.71747c-0.58466,1.59552-0.41911,2.30278-0.60719,3.99509
				c-0.21742,1.98909,0.90188,4.14883,1.73854,6.20486c-0.19279,0.34367,0.32167,0.79762,1.16671,1.02682
				c0.83247,0.21558,1.66938,0.09967,1.85877-0.23392L37.51622,165.15575z" fill="#f4b41a" style=""></path>
			<path d="M24.92811,162.48586c1.2652-0.02789,1.78962-0.61557,2.07593-1.15007c0.5514-0.98781,0.92651-1.97102,0.90948-3.097
				c-0.02803-2.1105,1.88366-3.65742,1.37627-5.90257c-0.01624-0.03288-0.21689-0.08592-0.34105-0.12981
				c0.17603-0.66849-0.85526-1.52832-2.31587-1.92766c-1.45721-0.39856-2.80362-0.16739-2.97336,0.52913l-0.32979-0.0871
				c-0.33031,0.25632-0.24833,0.62199-0.22632,0.97052c0.02017-0.07729,0.03877-0.1497,0.05894-0.22737
				c-0.69416,2.95213-2.23938,5.84979-0.66142,9.16591c0.21715,0.44557,0.4867,0.89323,0.61505,1.35204
				c-0.15141,0.26364,0.19882,0.60942,0.8102,0.78073c0.59436,0.16214,1.20234,0.08788,1.36553-0.17577L24.92811,162.48586z" fill="#f4b41a" style=""></path>
		</g>
		<g>
			<path d="M22.72593,134.33719c1.84463-0.92584,1.9185-2.72437,3.31624-3.86397c0.86626-2.27579,2.21633-4.36652,2.43846-6.89221
				c-0.15926-0.88158-1.50986-1.86637-2.99929-2.27003c-1.47974-0.42174-2.5841,0.01925-2.4217,0.90751l0.02934-0.00616
				c-0.23208,2.14888-1.49833,3.90615-2.10762,5.91398c-1.1468,1.18164-1.66834,2.64238-1.46218,4.35172
				c0.0296,0.20877-0.05553,0.40863,0.65067,0.66154c-0.24204,0.27583,0.08382,0.7417,0.70018,1.02933
				c0.62841,0.29076,1.33278,0.3015,1.56958,0.0347L22.72593,134.33719z" fill="#f4b41a" style=""></path>
			<path d="M43.84695,142.13194c0.65356,0.11081,0.87333-0.1057,1.06403-0.31198c1.16488-1.34641,0.75912-3.12292,0.95715-4.81509
				c0.1996-1.76003,1.46114-3.0526,2.094-4.61774c0.28395-0.65892-1.26311-1.54155-2.80597-2.21501
				c-1.53972-0.67465-3.66359-0.8698-3.95932-0.17473l0.4419,0.7899c-0.80968,1.49376-0.74838,2.21764-1.17954,3.86476
				c-0.50346,1.93631,0.29128,4.23529,0.82146,6.39046c-0.24073,0.31198,0.20274,0.8356,1.00535,1.18478
				c0.79265,0.33398,1.63743,0.34039,1.87318,0.03798L43.84695,142.13194z" fill="#f4b41a" style=""></path>
			<path d="M31.77854,137.66628c1.25577,0.15573,1.85982-0.34956,2.22052-0.83705c0.68892-0.89729,1.20234-1.81569,1.3485-2.93224
				c0.27819-2.09203,2.39393-3.34544,2.21712-5.64023c-0.01126-0.03497-0.20196-0.11656-0.31879-0.17787
				c0.27111-0.636-0.62448-1.63611-2.01201-2.24291c-1.38387-0.60549-2.74965-0.57183-3.01867,0.0926l-0.31355-0.13399
				c-0.36411,0.20576-0.33582,0.57943-0.36463,0.92743c0.03117-0.07348,0.06025-0.1425,0.09142-0.21637
				c-1.11458,2.81999-3.0632,5.46303-1.98267,8.9726c0.15036,0.47241,0.35232,0.95427,0.41283,1.42694
				c-0.18808,0.23891,0.10845,0.6317,0.68839,0.88971c0.5645,0.24663,1.17693,0.26129,1.37653,0.02397L31.77854,137.66628z" fill="#f4b41a" style=""></path>
		</g>
		<g>
			<path d="M33.67477,109.49915c1.95884-0.64871,2.29177-2.41724,3.83935-3.34231c1.18531-2.12609,2.82248-3.99914,3.40635-6.4655
				c-0.03065-0.8952-1.22512-2.06453-2.64068-2.67879c-1.40377-0.63064-2.55974-0.35402-2.527,0.54799l0.02986-0.00183
				c-0.53909,2.09203-2.04502,3.64695-2.93747,5.54475c-1.30502,1.00287-2.03166,2.37219-2.07488,4.09266
				c-0.00079,0.21073-0.11395,0.39619,0.54852,0.74851c-0.2795,0.23785-0.0241,0.74576,0.54406,1.11956
				c0.57969,0.37851,1.27515,0.49115,1.5481,0.26142L33.67477,109.49915z" fill="#f4b41a" style=""></path>
			<path d="M53.44651,120.26646c0.6305,0.20432,0.87962,0.02174,1.09782-0.15494c1.34772-1.16422,1.20338-2.98109,1.64398-4.62742
				c0.45212-1.71326,1.88707-2.81056,2.7397-4.26855c0.37589-0.61138-1.02736-1.70789-2.45732-2.59681
				c-1.4263-0.8897-3.49961-1.3891-3.89279-0.74393l0.3235,0.84543c-1.01688,1.3616-1.06088,2.08667-1.72544,3.65429
				c-0.77798,1.84345-0.32403,4.23332-0.11133,6.44284c-0.28316,0.27386,0.0799,0.85631,0.82356,1.31786
				c0.73607,0.44505,1.5709,0.57379,1.84803,0.30844L53.44651,120.26646z" fill="#f4b41a" style=""></path>
			<path d="M42.15084,114.10247c1.21989,0.33582,1.89099-0.07688,2.31823-0.507c0.81125-0.78819,1.45197-1.62276,1.75792-2.7063
				c0.57759-2.02982,2.85181-2.96458,3.00793-5.2608c-0.00603-0.03629-0.1831-0.14447-0.28971-0.222
				c0.35992-0.59017-0.38218-1.70895-1.66755-2.50945c-1.28223-0.79881-2.63832-0.96265-3.00034-0.34407l-0.29102-0.17786
				c-0.38978,0.15101-0.41571,0.52468-0.49429,0.86481l0.12154-0.20091c-1.5096,2.62916-3.81892,4.96206-3.25679,8.59041
				c0.08042,0.48906,0.21061,0.99501,0.20222,1.47136c-0.22056,0.20916,0.01598,0.64059,0.55244,0.97994
				c0.52311,0.3256,1.1269,0.42867,1.35872,0.22279L42.15084,114.10247z" fill="#f4b41a" style=""></path>
		</g>
		<g>
			<path d="M48.08525,86.50835c2.03166-0.36005,2.61475-2.06191,4.27864-2.75476c1.4779-1.93317,3.3668-3.55148,4.2975-5.90821
				c0.09797-0.89009-0.91629-2.21855-2.22943-3.02941c-1.29873-0.82539-2.48221-0.71774-2.57887,0.17944l0.02986,0.00249
				c-0.83299,1.99236-2.54612,3.31441-3.70105,5.06369c-1.4352,0.80444-2.35044,2.05458-2.6399,3.75042
				c-0.03117,0.20825-0.16974,0.37537,0.43509,0.81937c-0.31041,0.19501-0.13071,0.73424,0.37773,1.18583
				c0.51944,0.45802,1.19133,0.6694,1.49414,0.48146L48.08525,86.50835z" fill="#f4b41a" style=""></path>
			<path d="M66.10378,100.00607c0.59488,0.29272,0.86757,0.14774,1.10909,0.0042c1.50147-0.95899,1.61987-2.77834,2.29282-4.34478
				c0.69363-1.63114,2.2716-2.51168,3.32463-3.8328c0.45998-0.55127-0.7717-1.83782-2.05917-2.92255
				c-1.28407-1.08485-3.26438-1.87632-3.7461-1.29414l0.19882,0.88302c-1.20181,1.20181-1.34929,1.91313-2.23232,3.36942
				c-1.03469,1.71301-0.92886,4.14361-1.03652,6.36111c-0.31958,0.23038-0.04427,0.85905,0.62553,1.42276
				c0.6643,0.5463,1.47188,0.79357,1.78465,0.57079L66.10378,100.00607z" fill="#f4b41a" style=""></path>
			<path d="M55.81163,92.28231c1.15911,0.50765,1.88235,0.19567,2.36695-0.16856c0.91603-0.66351,1.67017-1.39735,2.12858-2.42576
				c0.86285-1.92583,3.24788-2.52464,3.73169-4.77464c-0.00079-0.0368-0.16058-0.16921-0.25488-0.26129
				c0.44086-0.5324-0.13333-1.74613-1.29061-2.72267c-1.1544-0.97431-2.47304-1.33096-2.91992-0.77078l-0.26247-0.2178
				c-0.40733,0.09351-0.4867,0.45959-0.61322,0.78492l0.14931-0.18127c-1.87082,2.3849-4.49081,4.36154-4.45545,8.03246
				c0.00943,0.49561,0.06549,1.01492-0.01126,1.48511c-0.24833,0.17511-0.07623,0.63614,0.40602,1.0491
				c0.47072,0.39738,1.05329,0.58624,1.31236,0.41585L55.81163,92.28231z" fill="#f4b41a" style=""></path>
		</g>
		<g>
			<path d="M65.63646,65.8287c2.06178-0.06535,2.88194-1.66599,4.62756-2.11352c1.73853-1.70147,3.83882-3.03282,5.09669-5.23186
				c0.22396-0.86678-0.59016-2.32661-1.7739-3.3169c-1.16724-1.00247-2.35385-1.0652-2.57756-0.19122l0.02908,0.00668
				c-1.10882,1.85262-2.99274,2.91573-4.38551,4.48138c-1.53527,0.59069-2.61947,1.69663-3.14808,3.33314
				c-0.06051,0.2017-0.22134,0.34721,0.31355,0.87307c-0.33503,0.14853-0.23444,0.70791,0.20458,1.22761
				c0.44845,0.52744,1.08315,0.83286,1.40979,0.69036L65.63646,65.8287z" fill="#f4b41a" style=""></path>
			<path d="M81.53872,81.76528c0.54668,0.37471,0.83745,0.2702,1.09704,0.1628c1.62328-0.73437,2.00075-2.51823,2.89058-3.97229
				c0.91969-1.5151,2.60715-2.1608,3.83804-3.31782c0.53411-0.47988-0.50111-1.92911-1.62041-3.18671
				c-1.11589-1.25734-2.96262-2.32386-3.52239-1.81647l0.07047,0.9024c-1.36108,1.0174-1.60862,1.7003-2.69072,3.01527
				c-1.26861,1.54719-1.51143,3.96783-1.935,6.1471c-0.34944,0.18231-0.16686,0.84386,0.41544,1.49768
				c0.57943,0.63561,1.34326,0.99605,1.68458,0.82015L81.53872,81.76528z" fill="#f4b41a" style=""></path>
			<path d="M72.45729,72.64848c1.07451,0.66836,1.83494,0.46313,2.36642,0.17197c1.00143-0.52547,1.85275-1.14379,2.45339-2.09597
				c1.12899-1.78242,3.57479-2.03388,4.37504-4.19141c0.00446-0.03654-0.13464-0.19044-0.2148-0.29508
				c0.51211-0.46378,0.11736-1.74706-0.88852-2.87893c-1.00326-1.12938-2.25746-1.67096-2.77952-1.18046l-0.22868-0.25304
				c-0.4165,0.03431-0.5472,0.38519-0.71878,0.68905l0.17341-0.15808c-2.19197,2.09269-5.06683,3.6738-5.55667,7.31159
				c-0.0613,0.49168-0.08016,1.01373-0.22344,1.46795c-0.27059,0.13779-0.16608,0.61872,0.25199,1.09624
				c0.40916,0.46077,0.95872,0.73096,1.23927,0.59946L72.45729,72.64848z" fill="#f4b41a" style=""></path>
		</g>
		<g>
			<path d="M85.96484,47.87016c2.05051,0.22972,3.09202-1.23757,4.88425-1.43128c1.96513-1.43599,4.23542-2.45352,5.79636-4.45047
				c0.34603-0.82605-0.25042-2.38751-1.28013-3.53707c-1.01164-1.15937-2.17757-1.39107-2.52464-0.55795l0.02802,0.01087
				c-1.36395,1.67541-3.38173,2.45863-4.98511,3.80962c-1.60468,0.36542-2.83662,1.30554-3.59443,2.85011
				c-0.0888,0.19096-0.26928,0.31211,0.1852,0.90895c-0.3531,0.09928-0.33346,0.66731,0.02646,1.24451
				c0.36829,0.58624,0.95296,0.97916,1.2969,0.88473L85.96484,47.87016z" fill="#f4b41a" style=""></path>
			<path d="M99.42444,65.91711c0.48749,0.4491,0.7903,0.38728,1.06272,0.318c1.71182-0.49495,2.34075-2.20651,3.42966-3.51834
				c1.12716-1.36802,2.8898-1.76565,4.27393-2.73446c0.59724-0.39842-0.21977-1.9811-1.14732-3.38605
				c-0.92415-1.40416-2.5993-2.72411-3.22614-2.30212l-0.05946,0.90332c-1.4931,0.81229-1.83598,1.45275-3.09543,2.59956
				c-1.47738,1.34995-2.0644,3.71126-2.79575,5.80788c-0.37196,0.13058-0.28578,0.81138,0.19698,1.54168
				c0.48251,0.7121,1.18714,1.17798,1.54993,1.05264L99.42444,65.91711z" fill="#f4b41a" style=""></path>
			<path d="M91.74023,55.59536c0.9679,0.81491,1.75007,0.72049,2.31797,0.50831c1.06664-0.37708,1.99786-0.86757,2.72896-1.72413
				c1.37286-1.60299,3.83018-1.502,4.93167-3.52305c0.00969-0.0355-0.10609-0.20786-0.17053-0.32285
				c0.57367-0.38585,0.36699-1.71248-0.46652-2.97676c-0.83116-1.2614-1.99499-1.97691-2.58228-1.56605l-0.18991-0.28329
				c-0.41727-0.02554-0.59724,0.30307-0.81046,0.5793l0.19437-0.13163c-2.47015,1.75792-5.54305,2.91219-6.54893,6.44336
				c-0.1315,0.47792-0.22475,0.99199-0.43169,1.42119c-0.28762,0.09771-0.25304,0.58873,0.09246,1.12113
				c0.33897,0.51447,0.84426,0.86063,1.14104,0.77039L91.74023,55.59536z" fill="#f4b41a" style=""></path>
		</g>
		<g>
			<path d="M108.6654,33.0039c1.99682,0.52167,3.23845-0.78086,5.04037-0.71498c2.15189-1.13881,4.54556-1.81935,6.3784-3.57086
				c0.46181-0.76777,0.0964-2.39878-0.75703-3.68467c-0.83404-1.2931-1.9549-1.69008-2.41855-0.9155l0.02619,0.0148
				c-1.59185,1.46192-3.7021,1.94705-5.48412,3.05377c-1.6411,0.1311-2.99589,0.88473-3.96849,2.30474
				c-0.11526,0.17629-0.3112,0.27033,0.05265,0.92637c-0.36385,0.04741-0.42619,0.61256-0.15272,1.23534
				c0.28029,0.63313,0.80235,1.10594,1.15623,1.0618L108.6654,33.0039z" fill="#f4b41a" style=""></path>
			<path d="M119.39317,52.79712c0.41806,0.51446,0.72637,0.49678,1.00561,0.46744c1.76447-0.24348,2.6323-1.84633,3.89777-2.98776
				c1.31157-1.1912,3.11246-1.33056,4.62074-2.08955c0.64806-0.30805,0.06758-1.99184-0.6478-3.51585
				c-0.71223-1.5227-2.17966-3.07028-2.86046-2.74298l-0.18886,0.88525c-1.59421,0.58873-2.02563,1.173-3.43649,2.12661
				c-1.65602,1.12323-2.57572,3.37531-3.59993,5.34476c-0.38689,0.0757-0.39921,0.76187-0.02646,1.554
				c0.37537,0.77392,1.00562,1.33619,1.38256,1.26442L119.39317,52.79712z" fill="#f4b41a" style=""></path>
			<path d="M113.2712,41.47866c0.84085,0.9455,1.62852,0.96436,2.22105,0.836c1.10961-0.21991,2.10134-0.57131,2.94795-1.31379
				c1.58923-1.38884,4.00621-0.93528,5.38719-2.7765c0.01467-0.03379-0.07517-0.22095-0.12233-0.34407
				c0.62318-0.29914,0.60982-1.64162-0.03274-3.01291c-0.64072-1.36802-1.68956-2.24357-2.33002-1.92164l-0.14722-0.30753
				c-0.40916-0.08553-0.6347,0.21388-0.88564,0.45644l0.2114-0.10229c-2.69779,1.384-5.90533,2.08484-7.40864,5.43487
				c-0.19855,0.45422-0.36489,0.94956-0.63129,1.34457c-0.29888,0.0554-0.33503,0.54616-0.06968,1.12283
				c0.26169,0.55782,0.71198,0.97287,1.01871,0.92624L113.2712,41.47866z" fill="#f4b41a" style=""></path>
		</g>
		<g>
			<path d="M134.27345,20.56207c1.90016,0.80483,3.31703-0.30451,5.09041,0.02122c2.29361-0.81557,4.76036-1.14248,6.82712-2.61017
				c0.5679-0.69272,0.44217-2.35935-0.21584-3.7554c-0.63785-1.40011-1.68956-1.9553-2.26035-1.2559l0.02357,0.01834
				c-1.78621,1.21622-3.94466,1.39081-5.86813,2.22825c-1.64265-0.10753-3.09253,0.44243-4.26004,1.70685
				c-0.1396,0.15782-0.34708,0.22252-0.08199,0.92428c-0.36671-0.0055-0.51001,0.54472-0.32953,1.2005
				c0.18599,0.66692,0.63417,1.21019,0.99069,1.21766L134.27345,20.56207z" fill="#f4b41a" style=""></path>
			<path d="M142.02892,41.69763c0.33922,0.56947,0.64648,0.59658,0.92703,0.60798c1.77992,0.01454,2.86909-1.44568,4.28545-2.3917
				c1.46899-0.98859,3.27014-0.8656,4.87167-1.39801c0.68526-0.21087,0.35468-1.96093-0.13254-3.57243
				c-0.48434-1.60966-1.71208-3.35357-2.43297-3.1283l-0.31459,0.84845c-1.66179,0.35166-2.17311,0.8673-3.70628,1.60639
				c-1.80009,0.87162-3.03491,2.96681-4.33182,4.7673c-0.39345,0.01886-0.5045,0.696-0.25015,1.53357
				c0.25958,0.82002,0.80208,1.46756,1.18504,1.45105L142.02892,41.69763z" fill="#f4b41a" style=""></path>
			<path d="M137.60646,29.61338c0.69521,1.05722,1.47162,1.18976,2.07619,1.1485c1.12952-0.0571,2.16133-0.26129,3.10617-0.87359
				c1.7726-1.14405,4.0979-0.34538,5.73009-1.96709c0.01912-0.0313-0.04243-0.22947-0.07126-0.35808
				c0.65959-0.20576,0.84059-1.53606,0.40314-2.98593c-0.43587-1.44621-1.34666-2.46453-2.02667-2.2386l-0.10112-0.32573
				c-0.39265-0.14381-0.6588,0.11971-0.94221,0.32351c0.07596-0.0241,0.14722-0.0465,0.22397-0.07073
				c-2.86937,0.97876-6.14397,1.2081-8.11511,4.30562c-0.26221,0.42069-0.49797,0.88669-0.81859,1.23901
				c-0.30386,0.01166-0.41048,0.49207-0.23103,1.10096c0.17812,0.58977,0.56396,1.0656,0.87386,1.06376L137.60646,29.61338z" fill="#f4b41a" style=""></path>
		</g>
		<g>
			<path d="M163.909,12.27805c1.67937,1.19946,3.30428,0.42537,4.964,1.12955c2.41628-0.29655,4.89464-0.07837,7.23088-1.06119
				c0.70511-0.5525,0.94525-2.20653,0.60674-3.71224c-0.31804-1.5055-1.22342-2.27612-1.93263-1.71789l0.01929,0.02311
				c-2.00783,0.79815-4.15205,0.49857-6.21133,0.89705c-1.57996-0.4629-3.11462-0.24185-4.52971,0.73789
				c-0.17075,0.12363-0.38721,0.14168-0.28114,0.88426c-0.35693-0.08538-0.61676,0.42038-0.58322,1.09977
				c0.03606,0.6914,0.35527,1.31928,0.70171,1.40427L163.909,12.27805z" fill="#f4b41a" style=""></path>
			<path d="M166.87404,34.59551c0.20718,0.62966,0.50125,0.7231,0.77248,0.79528c1.73448,0.40189,3.1162-0.78613,4.70511-1.40096
				c1.64973-0.64511,3.38177-0.13295,5.06166-0.30406c0.71527-0.05674,0.77332-1.83687,0.64835-3.51569
				c-0.12224-1.67665-0.94138-3.64586-1.69415-3.58284l-0.49199,0.7597c-1.6989-0.0185-2.31036,0.37337-3.96828,0.76099
				c-1.94714,0.45883-3.60924,2.2346-5.26759,3.70937c-0.38797-0.0672-0.64413,0.56951-0.57849,1.44238
				c0.07471,0.85687,0.46338,1.60693,0.84082,1.67426L166.87404,34.59551z" fill="#f4b41a" style=""></path>
			<path d="M165.1902,21.83811c0.44839,1.18318,1.17743,1.48167,1.77661,1.57312c1.11481,0.1902,2.16649,0.2156,3.22214-0.17608
				c1.97969-0.73063,4.07553,0.55522,6.02206-0.67249c0.0256-0.02633,0.00867-0.23313,0.0085-0.36501
				c0.68877-0.05713,1.15485-1.31626,1.04337-2.82649c-0.11073-1.5065-0.77805-2.69861-1.49106-2.6262l-0.02779-0.33986
				c-0.35175-0.22578-0.66916-0.02651-0.9901,0.11064c0.07957-0.00682,0.15413-0.01323,0.23396-0.02016
				c-3.0135,0.33068-6.2597-0.15867-8.85837,2.43502c-0.34752,0.35345-0.67934,0.75693-1.06903,1.03107
				c-0.29878-0.05479-0.5079,0.39078-0.46542,1.02408c0.04544,0.61448,0.3183,1.16287,0.62125,1.22874L165.1902,21.83811z" fill="#f4b41a" style=""></path>
		</g>
		<g>
			<path d="M193.12985,9.8837c1.59027,1.31419,3.26437,0.65578,4.8701,1.47397c2.42982-0.12731,4.88583,0.26247,7.28265-0.55677
				c0.74078-0.50255,1.09467-2.13618,0.86075-3.66162c-0.21426-1.52374-1.06219-2.35503-1.80769-1.84712l0.01755,0.02436
				c-2.0555,0.65749-4.17149,0.20956-6.25162,0.46365c-1.54208-0.57209-3.08678-0.45893-4.56599,0.41925
				c-0.17865,0.11133-0.3958,0.11408-0.3421,0.86233c-0.3497-0.11015-0.64412,0.37616-0.65854,1.05617
				c-0.0123,0.69219,0.26195,1.34091,0.60144,1.45001L193.12985,9.8837z" fill="#f4b41a" style=""></path>
			<path d="M194.52235,32.35401c0.16241,0.64268,0.44977,0.7565,0.71564,0.84753c1.70448,0.52232,3.16824-0.56646,4.7986-1.06927
				c1.69322-0.52887,3.38829,0.10229,5.07915,0.04728c0.71904-0.0072,0.90005-1.77901,0.89114-3.46254
				c-0.00681-1.68104-0.68866-3.70196-1.44464-3.69109l-0.54379,0.72376c-1.69533-0.13582-2.33316,0.21257-4.01538,0.48408
				c-1.97614,0.32206-3.75998,1.97757-5.51949,3.33249c-0.38297-0.09417-0.68341,0.52298-0.67896,1.39827
				c0.0144,0.85997,0.34917,1.63546,0.72166,1.72911L194.52235,32.35401z" fill="#f4b41a" style=""></path>
			<path d="M193.73756,19.69643c0.36436,1.21177,1.07057,1.56055,1.66231,1.69362c1.09914,0.26784,2.14691,0.36672,3.22771,0.04951
				c2.02643-0.59095,4.02875,0.83731,6.05673-0.25304c0.02725-0.02449,0.02463-0.23195,0.03354-0.36345
				c0.69153-0.00956,1.24345-1.23351,1.23639-2.74782c-0.00682-1.51064-0.59018-2.74572-1.30608-2.7228l-0.00446-0.34105
				c-0.33528-0.2495-0.66534-0.07269-0.99487,0.04204c0.07964-0.00144,0.1543-0.00262,0.23471-0.00406
				c-3.02863,0.12154-6.23145-0.59279-9.0052,1.81254c-0.37144,0.32835-0.73083,0.70752-1.13869,0.95362
				c-0.29442-0.0757-0.5341,0.35415-0.53621,0.98898c0.00237,0.6161,0.23602,1.18229,0.5336,1.26913L193.73756,19.69643z" fill="#f4b41a" style=""></path>
		</g>
	</g>
</g>


<desc>Created with Snap</desc><defs></defs></g><g><g transform="matrix(1.024,0,0,-1.024,0,0)"><path d="M636 276L636 66Q636 47 663 47L702 47Q712 47 718 40Q725 33 725 23Q725 13 718 6Q712 0 702 0L663 0Q582 0 582 65L582 276Q582 338 524 338Q446 338 395 251L395 13Q395 3 387 -4Q379 -10 368 -10Q357 -10 349 -4Q341 3 341 13L341 276Q341 338 283 338Q238 338 207 315Q177 292 149 243L149 13Q149 3 141 -4Q133 -10 122 -10Q111 -10 103 -4Q95 3 95 13L95 308Q95 327 76 327L29 327Q19 327 12 333Q6 340 6 350Q6 360 12 367Q19 374 29 374L83 374Q145 374 145 306Q176 346 207 365Q239 384 284 384Q370 384 390 312Q420 348 451 366Q482 384 529 384Q576 384 606 356Q636 329 636 276ZM1040 136L1040 155Q974 173 927 173Q881 173 851 155Q822 137 822 104Q822 72 841 54Q860 36 893 36Q985 36 1040 136ZM1120 47L1159 47Q1169 47 1175 40Q1182 33 1182 23Q1182 13 1175 6Q1169 0 1159 0L1115 0Q1079 0 1059 16Q1040 32 1040 61Q1040 66 1041 72Q988 -10 887 -10Q831 -10 799 20Q768 50 768 103Q768 157 810 187Q853 218 916 218Q980 218 1040 197L1040 266Q1040 314 1005 328Q978 338 930 338Q883 338 843 322L843 259Q843 249 835 242Q827 236 816 236Q805 236 797 242Q789 249 789 259L789 335Q789 348 802 355Q851 384 932 384Q1013 384 1053 357Q1093 331 1093 266L1093 66Q1093 47 1120 47ZM1282 -11Q1244 -33 1244 -77Q1244 -120 1280 -145Q1317 -170 1381 -170Q1445 -170 1496 -148Q1547 -126 1547 -88Q1547 -47 1475 -39Q1450 -37 1316 -19Q1294 -15 1282 -11ZM1495 241Q1495 285 1465 312Q1436 340 1389 340Q1343 340 1313 312Q1284 285 1284 241Q1284 197 1313 169Q1343 142 1389 142Q1436 142 1465 169Q1495 197 1495 241ZM1525 514Q1541 514 1547 497Q1561 462 1561 434Q1561 376 1513 336Q1549 299 1549 237Q1549 175 1502 135Q1456 96 1389 96Q1359 96 1332 104Q1309 97 1291 82Q1274 68 1274 54Q1274 35 1324 26Q1346 23 1483 7Q1601 -8 1601 -88Q1601 -150 1530 -183Q1460 -216 1380 -216Q1301 -216 1245 -182Q1190 -147 1190 -85Q1190 -23 1243 9Q1221 22 1221 54Q1221 98 1290 125Q1231 170 1231 237Q1231 305 1275 345Q1319 386 1381 386Q1444 386 1480 363Q1507 390 1507 432Q1507 453 1500 471Q1488 501 1512 511Q1519 514 1525 514ZM1740 351L1740 13Q1740 3 1732 -4Q1724 -10 1713 -10Q1702 -10 1694 -4Q1686 3 1686 13L1686 327L1620 327Q1610 327 1603 333Q1597 340 1597 350Q1597 360 1603 367Q1610 374 1620 374L1717 374Q1740 374 1740 351ZM1684 524Q1675 534 1675 548Q1675 562 1684 572Q1693 582 1709 582Q1725 582 1734 572Q1744 562 1744 548Q1744 534 1734 524Q1725 514 1709 514Q1693 514 1684 524ZM2153 96Q2161 108 2169 108Q2178 108 2187 104Q2201 98 2201 87Q2201 77 2198 72Q2147 -10 2036 -10Q1951 -10 1900 47Q1849 105 1849 189Q1849 273 1902 328Q1956 384 2035 384Q2115 384 2174 347Q2186 339 2186 328L2186 244Q2186 234 2178 227Q2170 221 2159 221Q2148 221 2140 227Q2132 234 2132 244L2132 315Q2092 338 2036 338Q1980 338 1941 296Q1902 254 1902 187Q1902 121 1939 78Q1977 36 2036 36Q2114 36 2153 96Z" fill="#ffffff" style=""></path></g></g><g transform="matrix(1,0,0,1,-681.472,1296.3841)"><g transform="matrix(1.024,0,0,-1.024,0,0)"><path d="M146 303Q198 384 284 384Q371 384 416 328Q462 273 462 188Q462 103 415 46Q369 -10 286 -10Q204 -10 150 47L150 -206Q150 -216 142 -223Q134 -229 123 -229Q112 -229 104 -223Q96 -216 96 -206L96 308Q96 327 77 327L30 327Q20 327 13 333Q7 340 7 350Q7 360 13 367Q20 374 30 374L84 374Q148 374 146 303ZM150 243L150 96Q214 36 278 36Q342 36 375 78Q409 120 409 189Q409 258 376 298Q343 338 285 338Q200 338 150 243ZM851 220Q848 274 819 306Q791 338 737 338Q684 338 648 305Q612 273 603 220L851 220ZM853 96Q860 108 869 108Q878 108 887 103Q896 99 899 89Q903 80 898 72Q847 -10 736 -10Q648 -10 597 46Q547 103 547 189Q547 275 599 329Q651 384 736 384Q821 384 862 333Q904 282 904 197Q904 174 878 174L601 173Q605 111 641 73Q678 36 736 36Q814 36 853 96ZM1259 136L1259 155Q1193 173 1146 173Q1100 173 1070 155Q1041 137 1041 104Q1041 72 1060 54Q1079 36 1112 36Q1204 36 1259 136ZM1339 47L1378 47Q1388 47 1394 40Q1401 33 1401 23Q1401 13 1394 6Q1388 0 1378 0L1334 0Q1298 0 1278 16Q1259 32 1259 61Q1259 66 1260 72Q1207 -10 1106 -10Q1050 -10 1018 20Q987 50 987 103Q987 157 1029 187Q1072 218 1135 218Q1199 218 1259 197L1259 266Q1259 314 1224 328Q1197 338 1149 338Q1102 338 1062 322L1062 259Q1062 249 1054 242Q1046 236 1035 236Q1024 236 1016 242Q1008 249 1008 259L1008 335Q1008 348 1021 355Q1070 384 1151 384Q1232 384 1272 357Q1312 331 1312 266L1312 66Q1312 47 1339 47ZM1741 96Q1749 108 1757 108Q1766 108 1775 104Q1789 98 1789 87Q1789 77 1786 72Q1735 -10 1624 -10Q1539 -10 1488 47Q1437 105 1437 189Q1437 273 1490 328Q1544 384 1623 384Q1703 384 1762 347Q1774 339 1774 328L1774 244Q1774 234 1766 227Q1758 221 1747 221Q1736 221 1728 227Q1720 234 1720 244L1720 315Q1680 338 1624 338Q1568 338 1529 296Q1490 254 1490 187Q1490 121 1527 78Q1565 36 1624 36Q1702 36 1741 96ZM2058 36Q2119 36 2157 78Q2196 120 2196 186Q2196 253 2157 295Q2119 338 2058 338Q1997 338 1958 295Q1920 253 1920 186Q1920 120 1958 78Q1997 36 2058 36ZM1919 45Q1866 101 1866 187Q1866 273 1920 328Q1974 384 2058 384Q2142 384 2195 328Q2249 273 2249 186Q2249 100 2195 45Q2142 -10 2057 -10Q1973 -10 1919 45ZM2636 96Q2644 108 2652 108Q2661 108 2670 104Q2684 98 2684 87Q2684 77 2681 72Q2630 -10 2519 -10Q2434 -10 2383 47Q2332 105 2332 189Q2332 273 2385 328Q2439 384 2518 384Q2598 384 2657 347Q2669 339 2669 328L2669 244Q2669 234 2661 227Q2653 221 2642 221Q2631 221 2623 227Q2615 234 2615 244L2615 315Q2575 338 2519 338Q2463 338 2424 296Q2385 254 2385 187Q2385 121 2422 78Q2460 36 2519 36Q2597 36 2636 96ZM2841 242L2841 212Q2885 205 2931 205Q2977 205 3016 223Q3056 242 3056 283Q3056 340 2987 340Q2894 340 2841 242ZM3124 36Q3134 36 3140 29Q3147 23 3147 13Q3147 3 3140 -4Q3134 -10 3124 -10Q3035 -10 2961 38Q2888 87 2841 160L2841 13Q2841 3 2833 -4Q2825 -10 2814 -10Q2803 -10 2795 -4Q2787 3 2787 13L2787 703L2721 703Q2711 703 2704 709Q2698 716 2698 726Q2698 736 2704 743Q2711 750 2721 750L2814 750Q2824 750 2832 743Q2841 736 2841 726L2841 307Q2899 386 2987 386Q3044 386 3077 359Q3110 333 3110 286Q3110 239 3080 210Q3031 163 2942 163Q2909 163 2883 170Q2926 113 2991 74Q3057 36 3124 36ZM3209 39L3209 120Q3209 130 3217 136Q3225 143 3236 143Q3247 143 3255 136Q3263 130 3263 120L3263 52Q3311 36 3363 36Q3477 36 3477 100Q3477 148 3370 171Q3365 172 3348 176Q3331 180 3320 182Q3309 185 3283 194Q3258 204 3247 214Q3217 241 3217 280Q3217 320 3243 344Q3270 369 3302 376Q3334 384 3372 384Q3442 384 3501 357Q3519 349 3519 335L3519 258Q3519 248 3511 241Q3503 235 3492 235Q3481 235 3473 241Q3465 248 3465 258L3465 322Q3425 338 3372 338Q3270 338 3270 280Q3270 259 3283 251Q3297 243 3303 239Q3310 235 3327 231Q3351 225 3376 220Q3401 215 3417 211Q3433 207 3457 197Q3482 188 3496 176Q3531 148 3531 103Q3531 58 3501 31Q3472 5 3437 -3Q3403 -10 3363 -10Q3284 -10 3227 16Q3209 24 3209 39Z" fill="#ffffff" style=""></path></g></g></g></svg>