<svg version="1.1" xmlns="http://www.w3.org/2000/svg" viewBox="0 0 250 250"><desc>Created with Snap</desc><defs></defs><g transform="matrix(0.0453,0,0,0.0453,66.91,167.2683)"><rect x="-920.95" y="-3688.5999999999995" width="4403.9" height="5512.999999999999" fill="#4a274f" style=""></rect><g transform="matrix(25.5362,0,0,25.5362,4.1925,-3509.0808)"><g><path d="M78.4,66.5c-5.5,4.8-9.9,15.2-9.9,15.2s-6.9-11.4-12.9-15.3c-9.5-6.1-13.6-6.2-13.6-6.2V65c0,0,7.8,1.2,11.7,4.6   c8.2,7.1,14.8,18.5,14.8,18.5S74.4,75,80.1,70.5C88.1,64.3,95,65,95,65v-4.8C95,60.1,85.1,60.7,78.4,66.5z" fill="#efa07b" style=""></path><path d="M42,80c-6.4-3.6-17.8-4.3-17.8-4.3s8.7-10.1,10.5-17C37.5,47.9,36.2,44,36.2,44l-4.6,1.6c0,0,1.3,7.7-0.6,12.4   c-4.1,9.9-13,19.8-13,19.8s14.6,1.3,20.7,5.1c8.6,5.4,10.2,12,10.2,12l4.6-1.6C53.5,93.4,49.7,84.4,42,80z" fill="#efa07b" style=""></path><path d="M35.3,36.8c11.3-0.9,14.6-3.4,14.6-3.4l-3-3.8c0,0-6.9,3.7-12.1,3.4c-10.9-0.6-23.3-5.6-23.3-5.6s3.5,14,1.8,20.9   C10.9,58.2,5,61.8,5,61.8l3,3.8c0,0,7.5-6.5,9.1-15.1c1.3-7.1-1.7-18-1.7-18S28,37.4,35.3,36.8z" fill="#efa07b" style=""></path><path d="M37.4,17.8c7.3-1.1,16.7-7.4,16.7-7.4s-0.6,13.2,2.4,19.8c4.6,10.2,8,12.5,8,12.5l2.7-4c0,0-5.9-5.2-7.3-10.2   C56.9,18.2,57.7,5,57.7,5s-12.3,7.8-19.5,8.5c-10.2,1-15.6-3.3-15.6-3.3l-2.7,4.1C19.9,14.2,28.6,19.1,37.4,17.8z" fill="#efa07b" style=""></path><path d="M65,60.5c0,0,3.1-7.2,7.4-10.1c9-6.1,21.9-9.7,21.9-9.7s-11.5-8.9-14.5-15.4c-4.2-9.1-1.9-15.6-1.9-15.6l-4.8-1.2   c0,0-1.9,9.6,2.2,17.4c3.4,6.4,12.5,13.2,12.5,13.2S75,42.9,69.6,47.8c-8.3,7.6-9.4,11.5-9.4,11.5L65,60.5z" fill="#efa07b" style=""></path></g><desc>Created with Snap</desc><defs></defs></g><g><g transform="matrix(0.5,0,0,-0.5,0,0)"><path d="M432 0L145 0Q191 158 191 543Q191 817 143 917Q131 942 116 964L83 1010L430 1010Q415 951 410 916L403 856Q519 1030 698 1030Q878 1030 931 835Q1010 970 1140 1014Q1186 1030 1243 1030Q1301 1030 1347 1005Q1394 981 1426 936Q1489 845 1489 687L1489 580Q1489 274 1497 196Q1506 119 1510 94Q1516 50 1530 0L1235 0Q1279 151 1279 543Q1279 702 1263 756Q1247 811 1221 835Q1196 860 1152 860Q1023 860 947 708L947 580Q947 274 955 196Q964 119 968 94Q974 50 988 0L693 0Q738 154 738 543Q738 706 722 758Q706 811 681 835Q656 860 612 860Q569 860 534 843Q499 826 471 798Q418 746 388 664Q386 635 386 604L386 543Q386 158 432 0ZM910 602L914 620L910 602ZM2517 534L2514 342Q2514 163 2547 98Q2567 59 2594 38L2641 0L2351 0L2320 116Q2207 -20 1998 -20Q1879 -20 1806 60Q1742 132 1742 230Q1742 328 1788 401Q1835 474 1911 522Q2061 615 2288 619L2288 630Q2288 873 2213 915Q2186 930 2143 930Q2101 930 2059 902Q2017 874 1983 830Q1915 741 1886 620Q1797 673 1797 823Q1797 884 1813 960Q1851 960 1885 971L1962 995Q2075 1030 2183 1030Q2291 1030 2355 998Q2420 966 2456 903Q2517 796 2517 534ZM1958 210Q1958 148 1986 114Q2015 80 2058 80Q2101 80 2141 102Q2181 125 2213 164Q2288 253 2288 373L2288 521Q2148 508 2057 428Q1958 342 1958 210ZM3302 24Q3205 -20 3111 -20Q3017 -20 2955 4Q2893 28 2849 74Q2757 170 2757 339Q2757 665 2944 847Q3111 1010 3346 1010L3574 1010Q3546 913 3542 824Q3538 735 3536 678Q3535 622 3534 564Q3532 448 3532 327Q3532 206 3513 92Q3494 -21 3462 -106Q3431 -191 3390 -251Q3350 -311 3306 -352Q3234 -419 3139 -450Q3119 -442 3100 -421Q3082 -400 3078 -380Q3192 -334 3259 -151Q3285 -80 3302 24ZM3324 334L3327 634Q3327 815 3314 908Q3172 880 3090 740Q3007 597 3007 379Q3007 244 3027 188Q3048 132 3076 106Q3105 80 3145 80Q3186 80 3217 96Q3248 112 3272 144Q3324 213 3324 334ZM4086 1279Q4066 1246 4037 1223Q4008 1201 3971 1201Q3934 1201 3905 1223Q3876 1246 3856 1279Q3815 1347 3815 1423Q3815 1515 3899 1546Q3929 1557 3972 1557Q4091 1557 4120 1473Q4129 1449 4129 1419Q4129 1390 4118 1351Q4107 1312 4086 1279ZM4110 0L3815 0Q3861 158 3861 543Q3861 814 3813 916Q3801 942 3786 964L3753 1010L4108 1010Q4064 845 4064 501Q4064 158 4110 0ZM5016 1070Q5041 1010 5041 938Q5041 867 5036 820Q5031 773 5021 729Q5000 636 4956 580Q4912 852 4813 910Q4778 930 4737 930Q4697 930 4667 911Q4637 892 4616 856Q4573 784 4573 669Q4573 555 4596 472Q4619 390 4656 324Q4694 259 4741 211Q4789 164 4837 132Q4934 70 5009 70Q5005 44 4983 19Q4961 -6 4935 -20Q4829 -20 4692 52Q4437 187 4348 446Q4315 541 4315 640Q4315 740 4338 808Q4361 877 4405 926Q4495 1030 4655 1030Q4709 1030 4760 1023Q4856 1010 4894 1010Q4933 1010 4963 1020Q4993 1031 5016 1070Z" fill="#ffffff" style=""></path></g></g><g transform="matrix(1,0,0,1,-643.25,1297.2)"><g transform="matrix(0.5,0,0,-0.5,0,0)"><path d="M329 946Q441 1030 609 1030Q847 1030 920 833Q944 768 944 669Q944 571 921 477Q899 384 859 309Q819 234 764 177Q710 120 646 82Q518 5 374 1Q376 -53 380 -105L390 -211Q399 -319 452 -394L486 -440L121 -440Q149 -344 153 -248Q158 -152 160 -84Q163 -15 164 58Q168 228 168 356Q168 768 142 860Q126 917 101 951L59 1010L328 1010Q322 990 329 946ZM694 643Q694 930 549 930Q477 930 429 866Q377 797 377 677L370 203L370 148Q370 121 371 93Q516 115 606 267Q694 417 694 643ZM1864 340Q1900 316 1900 256Q1900 197 1884 152Q1868 107 1828 68Q1738 -20 1554 -20Q1340 -20 1228 138Q1129 279 1129 519Q1129 761 1263 899Q1390 1030 1607 1030Q1758 1030 1843 942Q1910 872 1910 780Q1910 689 1874 615Q1839 542 1770 489Q1628 379 1373 373Q1394 172 1499 104Q1537 80 1600 80Q1663 80 1734 146Q1805 212 1864 340ZM1367 499L1367 468Q1683 489 1683 774Q1683 881 1619 918Q1597 930 1561 930Q1525 930 1488 908Q1452 886 1425 836Q1367 727 1367 499ZM2864 534L2861 342Q2861 163 2894 98Q2914 59 2941 38L2988 0L2698 0L2667 116Q2554 -20 2345 -20Q2226 -20 2153 60Q2089 132 2089 230Q2089 328 2135 401Q2182 474 2258 522Q2408 615 2635 619L2635 630Q2635 873 2560 915Q2533 930 2490 930Q2448 930 2406 902Q2364 874 2330 830Q2262 741 2233 620Q2144 673 2144 823Q2144 884 2160 960Q2198 960 2232 971L2309 995Q2422 1030 2530 1030Q2638 1030 2702 998Q2767 966 2803 903Q2864 796 2864 534ZM2305 210Q2305 148 2333 114Q2362 80 2405 80Q2448 80 2488 102Q2528 125 2560 164Q2635 253 2635 373L2635 521Q2495 508 2404 428Q2305 342 2305 210ZM3788 1070Q3813 1010 3813 938Q3813 867 3808 820Q3803 773 3793 729Q3772 636 3728 580Q3684 852 3585 910Q3550 930 3509 930Q3469 930 3439 911Q3409 892 3388 856Q3345 784 3345 669Q3345 555 3368 472Q3391 390 3428 324Q3466 259 3513 211Q3561 164 3609 132Q3706 70 3781 70Q3777 44 3755 19Q3733 -6 3707 -20Q3601 -20 3464 52Q3209 187 3120 446Q3087 541 3087 640Q3087 740 3110 808Q3133 877 3177 926Q3267 1030 3427 1030Q3481 1030 3532 1023Q3628 1010 3666 1010Q3705 1010 3735 1020Q3765 1031 3788 1070ZM4451 930Q4361 930 4321 840Q4282 750 4282 537Q4282 80 4451 80Q4541 80 4580 202Q4620 324 4620 537Q4620 750 4580 840Q4541 930 4451 930ZM4030 575Q4030 1030 4451 1030Q4872 1030 4872 575Q4872 299 4756 138Q4643 -20 4451 -20Q4259 -20 4146 138Q4030 299 4030 575ZM5764 1070Q5789 1010 5789 938Q5789 867 5784 820Q5779 773 5769 729Q5748 636 5704 580Q5660 852 5561 910Q5526 930 5485 930Q5445 930 5415 911Q5385 892 5364 856Q5321 784 5321 669Q5321 555 5344 472Q5367 390 5404 324Q5442 259 5489 211Q5537 164 5585 132Q5682 70 5757 70Q5753 44 5731 19Q5709 -6 5683 -20Q5577 -20 5440 52Q5185 187 5096 446Q5063 541 5063 640Q5063 740 5086 808Q5109 877 5153 926Q5243 1030 5403 1030Q5457 1030 5508 1023Q5604 1010 5642 1010Q5681 1010 5711 1020Q5741 1031 5764 1070ZM6246 498L6246 424Q6246 134 6285 0L5990 0Q6018 97 6025 229Q6040 548 6040 724Q6040 900 6039 960Q6038 1021 6037 1082Q6031 1297 6016 1355Q6002 1414 5989 1440Q5970 1482 5928 1530L6293 1530Q6265 1429 6260 1339L6253 1194Q6246 1029 6246 943Q6246 857 6247 827Q6249 797 6255 778Q6267 738 6315 740Q6364 742 6403 760Q6442 779 6467 808Q6517 864 6517 927Q6517 990 6502 1010L6791 1010Q6779 986 6769 961Q6760 937 6749 912Q6678 754 6525 683Q6535 476 6661 268Q6780 75 6923 0L6588 0Q6488 48 6426 322Q6405 415 6398 501Q6391 587 6376 613Q6361 640 6322 640Q6246 640 6246 498ZM7588 1069Q7615 1009 7615 948Q7615 887 7609 847Q7604 807 7593 770Q7568 686 7522 641Q7491 796 7454 842Q7418 888 7381 904Q7345 920 7304 920Q7263 920 7237 912Q7211 904 7192 889Q7149 856 7149 814Q7149 772 7170 741Q7191 711 7225 684Q7260 658 7304 633L7394 582Q7510 517 7553 474Q7638 389 7638 295Q7638 172 7554 88Q7448 -20 7236 -20Q7043 -20 6946 70Q6918 96 6906 122Q6914 197 6973 263Q7030 327 7084 337Q7080 324 7080 298Q7080 272 7095 233Q7110 195 7138 162Q7201 86 7280 86Q7359 86 7396 122Q7433 158 7433 204Q7433 250 7412 281Q7391 312 7356 339Q7322 366 7278 391L7188 442Q7073 510 7030 558Q6944 654 6944 767Q6944 886 7044 960Q7139 1030 7281 1030L7457 1018Q7521 1018 7546 1033Q7571 1049 7588 1069Z" fill="#ffffff" style=""></path></g></g></g></svg>