<svg version="1.1" xmlns="http://www.w3.org/2000/svg" viewBox="0 0 250 250"><desc>Created with Snap</desc><defs></defs><g transform="matrix(0.0453,0,0,0.0453,60.6911,164.4249)"><rect x="-1016.8321411132813" y="-3630.0802246093745" width="4873.21640625" height="5519.360351562499" fill="#540d6e" style=""></rect><g transform="matrix(25.5715,0,0,25.5715,141.1998,-3450.7379)"><g><path d="M78.4,66.5c-5.5,4.8-9.9,15.2-9.9,15.2s-6.9-11.4-12.9-15.3c-9.5-6.1-13.6-6.2-13.6-6.2V65c0,0,7.8,1.2,11.7,4.6   c8.2,7.1,14.8,18.5,14.8,18.5S74.4,75,80.1,70.5C88.1,64.3,95,65,95,65v-4.8C95,60.1,85.1,60.7,78.4,66.5z" fill="#ffffff" style=""></path><path d="M42,80c-6.4-3.6-17.8-4.3-17.8-4.3s8.7-10.1,10.5-17C37.5,47.9,36.2,44,36.2,44l-4.6,1.6c0,0,1.3,7.7-0.6,12.4   c-4.1,9.9-13,19.8-13,19.8s14.6,1.3,20.7,5.1c8.6,5.4,10.2,12,10.2,12l4.6-1.6C53.5,93.4,49.7,84.4,42,80z" fill="#ffffff" style=""></path><path d="M35.3,36.8c11.3-0.9,14.6-3.4,14.6-3.4l-3-3.8c0,0-6.9,3.7-12.1,3.4c-10.9-0.6-23.3-5.6-23.3-5.6s3.5,14,1.8,20.9   C10.9,58.2,5,61.8,5,61.8l3,3.8c0,0,7.5-6.5,9.1-15.1c1.3-7.1-1.7-18-1.7-18S28,37.4,35.3,36.8z" fill="#ffffff" style=""></path><path d="M37.4,17.8c7.3-1.1,16.7-7.4,16.7-7.4s-0.6,13.2,2.4,19.8c4.6,10.2,8,12.5,8,12.5l2.7-4c0,0-5.9-5.2-7.3-10.2   C56.9,18.2,57.7,5,57.7,5s-12.3,7.8-19.5,8.5c-10.2,1-15.6-3.3-15.6-3.3l-2.7,4.1C19.9,14.2,28.6,19.1,37.4,17.8z" fill="#ffffff" style=""></path><path d="M65,60.5c0,0,3.1-7.2,7.4-10.1c9-6.1,21.9-9.7,21.9-9.7s-11.5-8.9-14.5-15.4c-4.2-9.1-1.9-15.6-1.9-15.6l-4.8-1.2   c0,0-1.9,9.6,2.2,17.4c3.4,6.4,12.5,13.2,12.5,13.2S75,42.9,69.6,47.8c-8.3,7.6-9.4,11.5-9.4,11.5L65,60.5z" fill="#ffffff" style=""></path></g><desc>Created with Snap</desc><defs></defs></g><g><g transform="matrix(1.024,0,0,-1.024,0,0)"><path d="M735 30Q729 47 727 68Q726 89 726 120Q726 142 726 154Q727 167 727 176Q727 186 727 195Q728 205 728 222Q728 257 726 292Q725 328 716 356Q707 385 688 403Q669 421 633 421Q572 421 538 363Q504 305 497 178Q495 138 495 105Q495 72 491 48Q487 25 476 12Q466 -1 442 -1Q420 -1 410 10Q400 22 395 45Q391 68 390 101Q390 134 387 178Q384 226 377 270Q371 314 356 347Q342 381 317 401Q293 421 255 421Q219 421 199 403Q180 386 171 357Q162 329 160 293Q159 258 159 222Q159 204 159 195Q160 187 160 180Q160 173 160 162Q161 151 161 128Q161 95 159 71Q158 47 152 30Q145 10 133 5Q121 1 111 1Q80 1 71 23Q62 45 61 87Q61 110 60 138Q60 167 60 208Q60 228 60 243Q60 258 60 272Q61 286 61 300Q62 315 63 334Q66 395 85 431Q104 468 130 487Q156 506 186 511Q216 517 241 517Q295 517 332 501Q369 485 392 459Q416 433 427 400Q439 367 443 333Q447 366 459 398Q472 431 496 456Q521 482 560 498Q599 514 656 514Q683 514 711 508Q740 503 764 484Q788 465 804 429Q821 394 824 334Q825 315 825 300Q826 286 826 272Q827 258 827 243Q827 228 827 208Q827 167 826 138Q826 110 826 87Q826 68 824 52Q823 36 818 25Q813 14 803 7Q794 1 776 1Q759 1 750 7Q741 14 735 30ZM1354 -4Q1338 -4 1328 1Q1319 7 1314 16Q1309 25 1307 37Q1305 50 1304 64Q1279 33 1239 12Q1200 -9 1139 -9Q1100 -9 1059 2Q1019 14 986 42Q953 71 932 119Q911 167 911 240Q911 297 925 347Q939 397 967 434Q996 472 1039 494Q1082 516 1140 516Q1191 516 1231 497Q1271 479 1303 437Q1303 449 1304 461Q1305 474 1309 484Q1314 495 1324 501Q1334 508 1351 508Q1366 508 1379 496Q1392 484 1394 444Q1397 391 1398 349Q1400 307 1400 262Q1400 207 1399 161Q1398 115 1394 63Q1392 40 1388 26Q1385 13 1380 6Q1375 0 1368 -2Q1361 -4 1354 -4ZM1300 250Q1300 302 1284 335Q1269 368 1245 386Q1222 405 1195 412Q1168 419 1145 419Q1109 419 1083 406Q1058 393 1042 370Q1026 348 1018 317Q1011 287 1011 251Q1011 163 1049 121Q1088 79 1154 79Q1193 79 1220 92Q1248 106 1265 129Q1283 152 1291 183Q1300 215 1300 250ZM1714 -137Q1761 -137 1793 -119Q1826 -100 1846 -66Q1866 -31 1874 17Q1883 66 1883 127Q1874 95 1857 73Q1840 51 1817 37Q1795 24 1767 18Q1739 12 1709 12Q1663 12 1622 25Q1581 38 1550 66Q1520 94 1502 137Q1484 181 1484 242Q1484 301 1501 350Q1519 400 1552 436Q1586 472 1634 492Q1682 512 1744 512Q1777 512 1802 506Q1828 500 1848 490Q1868 480 1883 466Q1899 452 1912 436Q1950 388 1967 322Q1984 257 1984 165Q1984 97 1972 26Q1961 -45 1931 -103Q1901 -160 1848 -197Q1795 -233 1712 -233Q1697 -233 1678 -232Q1660 -230 1640 -227Q1621 -224 1602 -219Q1583 -213 1567 -204Q1547 -193 1535 -183Q1523 -173 1523 -150Q1523 -131 1531 -116Q1540 -100 1561 -100Q1571 -100 1583 -106Q1595 -112 1612 -119Q1630 -125 1654 -131Q1679 -137 1714 -137ZM1719 103Q1758 103 1785 117Q1813 132 1830 156Q1848 180 1856 210Q1865 240 1865 270Q1865 295 1858 320Q1852 346 1837 367Q1822 388 1796 401Q1770 414 1731 414Q1665 414 1624 374Q1584 334 1584 256Q1584 183 1620 143Q1656 103 1719 103ZM2082 62Q2080 99 2078 146Q2077 194 2077 251Q2077 322 2078 372Q2079 423 2083 455Q2088 488 2098 503Q2108 519 2126 519Q2143 519 2156 507Q2169 495 2171 455Q2177 350 2177 252Q2177 202 2175 158Q2173 115 2171 63Q2170 39 2166 26Q2163 13 2157 6Q2151 -1 2143 -3Q2136 -4 2126 -4Q2108 -4 2096 8Q2084 21 2082 62ZM2127 700Q2150 700 2169 682Q2189 664 2189 639Q2189 615 2169 597Q2149 580 2124 580Q2103 580 2084 597Q2066 615 2066 641Q2066 665 2084 682Q2103 700 2127 700ZM2529 510Q2558 510 2587 505Q2617 500 2641 491Q2665 482 2680 469Q2695 456 2695 439Q2695 395 2645 395Q2633 395 2622 398Q2612 402 2598 405Q2584 409 2563 412Q2542 416 2511 416Q2445 416 2409 371Q2373 326 2373 254Q2373 175 2409 127Q2446 79 2513 79Q2555 79 2581 86Q2607 93 2623 102Q2640 111 2650 118Q2661 125 2674 125Q2692 125 2702 117Q2713 110 2713 87Q2713 63 2694 45Q2676 27 2648 15Q2620 3 2587 -3Q2555 -9 2528 -9Q2407 -9 2338 58Q2269 125 2269 248Q2269 301 2285 348Q2302 396 2335 432Q2368 468 2416 489Q2465 510 2529 510Z" fill="#ffffff" style=""></path></g></g><g transform="matrix(1,0,0,1,-763.9041,1333.2481)"><g transform="matrix(1.024,0,0,-1.024,0,0)"><path d="M170 -144Q170 -163 169 -181Q168 -198 162 -212Q157 -226 146 -235Q136 -243 117 -243Q95 -243 80 -228Q66 -212 64 -173Q63 -148 61 -112Q59 -76 57 -36Q56 4 54 44Q53 84 53 118Q53 235 69 311Q86 387 119 432Q152 477 200 495Q249 513 313 513Q364 513 409 497Q454 482 487 449Q521 417 541 365Q561 314 561 242Q561 182 540 136Q520 90 484 58Q448 27 399 10Q351 -6 296 -6Q249 -6 211 13Q174 33 158 56Q163 0 166 -48Q170 -96 170 -144ZM308 413Q273 413 247 401Q222 389 206 368Q190 347 182 318Q175 289 175 255Q175 222 181 192Q188 163 203 141Q218 119 243 106Q268 93 304 93Q332 93 358 100Q384 108 404 126Q425 144 437 174Q450 204 450 249Q450 295 437 326Q425 358 404 377Q384 397 358 405Q333 413 308 413ZM881 184Q846 184 807 189Q769 195 724 213Q733 152 774 121Q816 90 894 90Q922 90 944 93Q967 97 984 101Q1001 106 1014 109Q1027 113 1038 113Q1052 113 1065 104Q1078 96 1078 76Q1078 51 1057 35Q1037 19 1007 9Q978 0 945 -4Q912 -7 887 -7Q828 -7 778 9Q729 25 693 57Q657 90 637 138Q617 186 617 250Q617 312 636 360Q656 408 690 441Q724 474 770 491Q817 508 871 508Q913 508 952 497Q992 486 1022 464Q1053 442 1071 408Q1090 375 1090 330Q1090 290 1075 262Q1060 234 1032 217Q1005 200 966 192Q928 184 881 184ZM874 416Q847 416 822 409Q797 403 776 388Q756 374 742 350Q728 327 723 292Q761 275 797 268Q833 262 873 262Q932 262 960 276Q989 291 989 329Q989 364 962 390Q936 416 874 416ZM1595 -4Q1579 -4 1569 1Q1560 7 1555 16Q1550 25 1548 37Q1546 50 1545 64Q1520 33 1480 12Q1441 -9 1380 -9Q1341 -9 1300 2Q1260 14 1227 42Q1194 71 1173 119Q1152 167 1152 240Q1152 297 1166 347Q1180 397 1208 434Q1237 472 1280 494Q1323 516 1381 516Q1432 516 1472 497Q1512 479 1544 437Q1544 449 1545 461Q1546 474 1550 484Q1555 495 1565 501Q1575 508 1592 508Q1607 508 1620 496Q1633 484 1635 444Q1638 391 1639 349Q1641 307 1641 262Q1641 207 1640 161Q1639 115 1635 63Q1633 40 1629 26Q1626 13 1621 6Q1616 0 1609 -2Q1602 -4 1595 -4ZM1541 250Q1541 302 1525 335Q1510 368 1486 386Q1463 405 1436 412Q1409 419 1386 419Q1350 419 1324 406Q1299 393 1283 370Q1267 348 1259 317Q1252 287 1252 251Q1252 163 1290 121Q1329 79 1395 79Q1434 79 1461 92Q1489 106 1506 129Q1524 152 1532 183Q1541 215 1541 250ZM1986 510Q2015 510 2044 505Q2074 500 2098 491Q2122 482 2137 469Q2152 456 2152 439Q2152 395 2102 395Q2090 395 2079 398Q2069 402 2055 405Q2041 409 2020 412Q1999 416 1968 416Q1902 416 1866 371Q1830 326 1830 254Q1830 175 1866 127Q1903 79 1970 79Q2012 79 2038 86Q2064 93 2080 102Q2097 111 2107 118Q2118 125 2131 125Q2149 125 2159 117Q2170 110 2170 87Q2170 63 2151 45Q2133 27 2105 15Q2077 3 2044 -3Q2012 -9 1985 -9Q1864 -9 1795 58Q1726 125 1726 248Q1726 301 1742 348Q1759 396 1792 432Q1825 468 1873 489Q1922 510 1986 510ZM2486 507Q2543 507 2588 489Q2633 472 2664 440Q2696 408 2713 362Q2730 316 2730 259Q2730 196 2710 146Q2691 96 2656 61Q2622 26 2574 7Q2527 -12 2471 -12Q2410 -12 2363 9Q2317 30 2285 66Q2254 102 2238 149Q2222 196 2222 248Q2222 305 2240 352Q2259 400 2293 434Q2328 469 2377 488Q2426 507 2486 507ZM2475 80Q2516 80 2545 94Q2574 109 2592 133Q2611 157 2619 187Q2628 218 2628 251Q2628 285 2619 314Q2611 344 2593 366Q2576 388 2548 400Q2521 413 2483 413Q2444 413 2415 400Q2386 387 2366 364Q2347 342 2337 311Q2327 280 2327 244Q2327 171 2364 125Q2402 80 2475 80ZM3047 510Q3076 510 3105 505Q3135 500 3159 491Q3183 482 3198 469Q3213 456 3213 439Q3213 395 3163 395Q3151 395 3140 398Q3130 402 3116 405Q3102 409 3081 412Q3060 416 3029 416Q2963 416 2927 371Q2891 326 2891 254Q2891 175 2927 127Q2964 79 3031 79Q3073 79 3099 86Q3125 93 3141 102Q3158 111 3168 118Q3179 125 3192 125Q3210 125 3220 117Q3231 110 3231 87Q3231 63 3212 45Q3194 27 3166 15Q3138 3 3105 -3Q3073 -9 3046 -9Q2925 -9 2856 58Q2787 125 2787 248Q2787 301 2803 348Q2820 396 2853 432Q2886 468 2934 489Q2983 510 3047 510ZM3320 53Q3318 75 3317 119Q3316 164 3315 222Q3314 281 3314 350Q3314 419 3314 491Q3314 576 3315 630Q3316 684 3321 715Q3326 746 3337 757Q3348 769 3369 769Q3387 769 3395 757Q3403 746 3407 707Q3409 683 3410 642Q3412 602 3412 554Q3413 506 3413 454Q3414 402 3414 355L3414 274L3636 475Q3647 485 3662 494Q3678 504 3695 504Q3715 504 3725 488Q3735 473 3735 453Q3735 442 3731 432Q3728 423 3717 415L3582 304L3746 66Q3755 54 3755 39Q3755 17 3741 6Q3727 -5 3705 -5Q3689 -5 3677 1Q3665 7 3654 24L3504 241L3413 166Q3412 129 3411 100Q3410 71 3408 54Q3404 19 3395 8Q3386 -3 3363 -3Q3340 -3 3331 8Q3323 19 3320 53ZM4020 522Q4041 522 4073 518Q4105 515 4134 505Q4163 496 4184 479Q4205 462 4205 436Q4205 421 4196 410Q4188 399 4170 399Q4157 399 4140 403Q4124 407 4104 412Q4085 418 4062 422Q4040 426 4015 426Q3973 426 3946 413Q3920 400 3920 372Q3920 356 3929 345Q3939 334 3955 325Q3972 317 3994 311Q4017 305 4042 299Q4073 291 4103 281Q4134 271 4158 253Q4182 236 4197 209Q4212 183 4212 144Q4212 70 4156 26Q4100 -17 3991 -17Q3967 -17 3934 -14Q3901 -10 3872 -1Q3843 9 3822 26Q3802 44 3802 73Q3802 93 3811 103Q3821 114 3835 114Q3846 114 3858 107Q3870 100 3887 92Q3904 84 3928 77Q3952 70 3987 70Q4000 70 4021 71Q4042 73 4062 80Q4083 87 4097 99Q4112 112 4112 135Q4112 153 4102 165Q4092 178 4075 187Q4058 196 4035 202Q4013 209 3988 216Q3959 224 3929 234Q3900 244 3876 260Q3852 276 3837 300Q3822 325 3822 361Q3822 395 3836 424Q3850 454 3876 476Q3902 498 3938 510Q3975 522 4020 522Z" fill="#ffffff" style=""></path></g></g></g></svg>