<svg version="1.1" xmlns="http://www.w3.org/2000/svg" viewBox="0 0 250 250"><desc>Created with Snap</desc><defs></defs><g transform="matrix(0.0466,0,0,0.0466,63.4303,165.5534)"><rect x="-891.3922149658204" y="-3553.2801757812495" width="4425.728369140625" height="5365.760253906249" fill="#540d6e" style=""></rect><g transform="matrix(24.7172,0,0,24.7172,85.6099,-3369.6664)"><g><path d="M78.4,66.5c-5.5,4.8-9.9,15.2-9.9,15.2s-6.9-11.4-12.9-15.3c-9.5-6.1-13.6-6.2-13.6-6.2V65c0,0,7.8,1.2,11.7,4.6   c8.2,7.1,14.8,18.5,14.8,18.5S74.4,75,80.1,70.5C88.1,64.3,95,65,95,65v-4.8C95,60.1,85.1,60.7,78.4,66.5z" fill="#ffffff" style=""></path><path d="M42,80c-6.4-3.6-17.8-4.3-17.8-4.3s8.7-10.1,10.5-17C37.5,47.9,36.2,44,36.2,44l-4.6,1.6c0,0,1.3,7.7-0.6,12.4   c-4.1,9.9-13,19.8-13,19.8s14.6,1.3,20.7,5.1c8.6,5.4,10.2,12,10.2,12l4.6-1.6C53.5,93.4,49.7,84.4,42,80z" fill="#ffffff" style=""></path><path d="M35.3,36.8c11.3-0.9,14.6-3.4,14.6-3.4l-3-3.8c0,0-6.9,3.7-12.1,3.4c-10.9-0.6-23.3-5.6-23.3-5.6s3.5,14,1.8,20.9   C10.9,58.2,5,61.8,5,61.8l3,3.8c0,0,7.5-6.5,9.1-15.1c1.3-7.1-1.7-18-1.7-18S28,37.4,35.3,36.8z" fill="#ffffff" style=""></path><path d="M37.4,17.8c7.3-1.1,16.7-7.4,16.7-7.4s-0.6,13.2,2.4,19.8c4.6,10.2,8,12.5,8,12.5l2.7-4c0,0-5.9-5.2-7.3-10.2   C56.9,18.2,57.7,5,57.7,5s-12.3,7.8-19.5,8.5c-10.2,1-15.6-3.3-15.6-3.3l-2.7,4.1C19.9,14.2,28.6,19.1,37.4,17.8z" fill="#ffffff" style=""></path><path d="M65,60.5c0,0,3.1-7.2,7.4-10.1c9-6.1,21.9-9.7,21.9-9.7s-11.5-8.9-14.5-15.4c-4.2-9.1-1.9-15.6-1.9-15.6l-4.8-1.2   c0,0-1.9,9.6,2.2,17.4c3.4,6.4,12.5,13.2,12.5,13.2S75,42.9,69.6,47.8c-8.3,7.6-9.4,11.5-9.4,11.5L65,60.5z" fill="#ffffff" style=""></path></g><desc>Created with Snap</desc><defs></defs></g><g><g transform="matrix(1.024,0,0,-1.024,0,0)"><path d="M156 341L156 0L68 0L68 470L136 470L149 405Q182 438 220 457Q258 477 311 477Q361 477 393 456Q425 436 441 400Q476 437 518 457Q560 477 611 477Q683 477 719 436Q756 396 756 324L756 0L668 0L668 308Q668 355 648 380Q628 405 582 405Q514 405 455 344Q456 339 456 334Q456 329 456 324L456 0L368 0L368 308Q368 355 348 380Q328 405 282 405Q214 405 156 341ZM931 364L897 428Q921 440 942 449Q963 459 984 465Q1005 471 1027 474Q1049 477 1075 477Q1114 477 1146 468Q1179 460 1202 440Q1226 420 1239 387Q1252 355 1252 306L1252 0L1179 0L1168 52L1166 52Q1135 19 1098 5Q1061 -9 1016 -9Q982 -9 953 0Q925 10 904 27Q883 45 871 70Q860 95 860 126Q860 200 918 238Q977 277 1073 277L1163 277L1163 317Q1163 368 1137 386Q1111 405 1067 405Q1041 405 1007 396Q974 388 931 364ZM1164 121L1164 217L1090 215Q1015 213 983 188Q952 164 952 129Q952 108 959 93Q966 79 977 71Q989 63 1004 59Q1020 56 1037 56Q1070 56 1104 71Q1138 87 1164 121ZM1374 314Q1374 353 1388 383Q1402 414 1427 435Q1453 456 1488 466Q1523 477 1564 477Q1579 477 1593 475Q1607 473 1621 470L1824 470L1824 405L1793 405L1713 416Q1732 396 1742 370Q1753 344 1753 315Q1753 276 1739 245Q1725 215 1700 194Q1675 173 1640 162Q1605 152 1564 152Q1533 152 1510 156Q1487 148 1478 135Q1469 123 1469 109Q1469 86 1484 78Q1500 70 1526 70L1650 70Q1728 70 1769 34Q1811 -1 1811 -62Q1811 -101 1794 -132Q1777 -163 1745 -185Q1714 -207 1669 -219Q1624 -230 1568 -230Q1466 -230 1405 -194Q1345 -157 1345 -86Q1345 -49 1368 -24Q1392 1 1430 14Q1410 28 1400 43Q1390 59 1390 85Q1390 116 1408 138Q1427 160 1459 173Q1419 191 1396 225Q1374 260 1374 314ZM1625 0L1481 0Q1430 -23 1430 -72Q1430 -160 1572 -160Q1614 -160 1643 -152Q1672 -144 1690 -131Q1708 -118 1716 -102Q1725 -86 1725 -69Q1725 -27 1696 -14Q1668 0 1625 0ZM1664 312Q1664 365 1636 390Q1609 415 1564 415Q1519 415 1491 390Q1464 365 1464 316Q1464 264 1491 239Q1519 215 1564 215Q1609 215 1636 239Q1664 263 1664 312ZM2024 0L1936 0L1936 470L2024 470L2024 0ZM1980 591Q1957 591 1940 606Q1924 622 1924 645Q1924 668 1940 684Q1957 700 1980 700Q2002 700 2019 684Q2036 668 2036 645Q2036 622 2019 606Q2002 591 1980 591ZM2391 59Q2423 59 2447 66Q2471 73 2494 84L2513 18Q2459 -9 2384 -9Q2333 -9 2288 6Q2244 21 2210 51Q2177 82 2158 127Q2139 173 2139 234Q2139 290 2157 335Q2175 380 2207 411Q2239 443 2284 460Q2329 477 2383 477Q2414 477 2443 472Q2473 468 2511 451L2491 384Q2445 410 2392 410Q2319 410 2274 364Q2229 319 2229 237Q2229 186 2243 152Q2257 118 2280 97Q2303 77 2332 68Q2361 59 2391 59Z" fill="#ffffff" style=""></path></g></g><g transform="matrix(1,0,0,1,-649.7282,1269.7601)"><g transform="matrix(1.024,0,0,-1.024,0,0)"><path d="M263 -9Q231 -9 201 0Q172 9 151 24L151 -230L64 -230L64 477L137 477L150 416Q177 441 211 459Q245 477 291 477Q385 477 439 417Q493 357 493 245Q493 179 473 131Q454 83 421 52Q389 21 347 6Q306 -9 263 -9ZM272 405Q230 405 199 384Q168 364 151 343L151 92Q174 75 200 67Q226 59 252 59Q279 59 306 68Q333 78 354 100Q375 122 388 157Q401 192 401 243Q401 318 369 361Q338 405 272 405ZM999 271L999 225L662 225L662 221Q662 143 704 101Q747 59 820 59Q858 59 887 65Q917 71 952 85L970 20Q941 7 901 -1Q862 -9 817 -9Q766 -9 721 5Q677 19 643 48Q609 78 589 124Q570 170 570 234Q570 289 586 334Q603 379 633 410Q663 442 705 459Q748 477 801 477Q846 477 882 462Q919 447 945 420Q971 393 985 355Q999 317 999 271ZM664 286L908 288Q908 314 901 336Q895 359 881 376Q868 393 847 403Q826 413 796 413Q741 413 706 378Q672 343 664 286ZM1142 364L1108 428Q1132 440 1153 449Q1174 459 1195 465Q1216 471 1238 474Q1260 477 1286 477Q1325 477 1357 468Q1390 460 1413 440Q1437 420 1450 387Q1463 355 1463 306L1463 0L1390 0L1379 52L1377 52Q1346 19 1309 5Q1272 -9 1227 -9Q1193 -9 1164 0Q1136 10 1115 27Q1094 45 1082 70Q1071 95 1071 126Q1071 200 1129 238Q1188 277 1284 277L1374 277L1374 317Q1374 368 1348 386Q1322 405 1278 405Q1252 405 1218 396Q1185 388 1142 364ZM1375 121L1375 217L1301 215Q1226 213 1194 188Q1163 164 1163 129Q1163 108 1170 93Q1177 79 1188 71Q1200 63 1215 59Q1231 56 1248 56Q1281 56 1315 71Q1349 87 1375 121ZM1815 59Q1847 59 1871 66Q1895 73 1918 84L1937 18Q1883 -9 1808 -9Q1757 -9 1712 6Q1668 21 1634 51Q1601 82 1582 127Q1563 173 1563 234Q1563 290 1581 335Q1599 380 1631 411Q1663 443 1708 460Q1753 477 1807 477Q1838 477 1867 472Q1897 468 1935 451L1915 384Q1869 410 1816 410Q1743 410 1698 364Q1653 319 1653 237Q1653 186 1667 152Q1681 118 1704 97Q1727 77 1756 68Q1785 59 1815 59ZM2465 240Q2465 181 2447 134Q2429 88 2397 56Q2366 24 2324 7Q2282 -9 2233 -9Q2184 -9 2142 6Q2101 22 2070 52Q2040 83 2022 127Q2005 172 2005 230Q2005 289 2023 335Q2041 381 2072 412Q2104 444 2146 460Q2188 477 2237 477Q2286 477 2327 462Q2369 447 2399 417Q2430 387 2447 342Q2465 298 2465 240ZM2373 235Q2373 282 2361 315Q2349 348 2329 369Q2310 390 2285 399Q2260 409 2234 409Q2208 409 2183 401Q2158 393 2139 373Q2120 353 2108 319Q2097 286 2097 235Q2097 188 2109 154Q2121 121 2140 100Q2160 79 2185 69Q2210 59 2236 59Q2262 59 2287 67Q2312 76 2331 96Q2350 117 2361 150Q2373 184 2373 235ZM2795 59Q2827 59 2851 66Q2875 73 2898 84L2917 18Q2863 -9 2788 -9Q2737 -9 2692 6Q2648 21 2614 51Q2581 82 2562 127Q2543 173 2543 234Q2543 290 2561 335Q2579 380 2611 411Q2643 443 2688 460Q2733 477 2787 477Q2818 477 2847 472Q2877 468 2915 451L2895 384Q2849 410 2796 410Q2723 410 2678 364Q2633 319 2633 237Q2633 186 2647 152Q2661 118 2684 97Q2707 77 2736 68Q2765 59 2795 59ZM3149 219L3102 172L3102 0L3015 0L3015 710L3102 710L3102 268L3291 470L3400 470L3207 272L3409 0L3305 0L3149 219ZM3765 449L3745 382Q3712 398 3685 404Q3658 410 3631 410Q3583 410 3560 392Q3537 375 3537 346Q3537 325 3553 309Q3569 294 3620 279L3650 270Q3717 250 3751 218Q3786 187 3786 133Q3786 69 3738 30Q3691 -9 3606 -9Q3561 -9 3519 -1Q3478 7 3448 21L3469 90Q3498 76 3532 67Q3566 59 3601 59Q3646 59 3672 75Q3699 91 3699 128Q3699 160 3676 173Q3653 187 3610 200L3579 210Q3514 231 3482 262Q3451 294 3451 344Q3451 374 3464 399Q3477 424 3499 441Q3522 458 3553 467Q3584 477 3621 477Q3656 477 3693 470Q3731 464 3765 449Z" fill="#ffffff" style=""></path></g></g></g></svg>