<svg version="1.1" xmlns="http://www.w3.org/2000/svg" viewBox="0 0 250 250"><desc>Created with Snap</desc><defs></defs><g transform="matrix(0.0322,0,0,0.0322,9.2458,176.0253)"><g transform="matrix(28.1405,0,0,28.1405,2168.5391,-3656.5283)"><title>mandala 1</title><desc>Created with Sketch.</desc><g stroke="none" stroke-width="1" fill="none" fill-rule="evenodd"><g fill="#000000"><path d="M50,42 C52.7614237,42 55,39.7800786 55,37.0416667 C55,34.3032548 52.7614237,25 50,25 C47.2385763,25 45,34.3032548 45,37.0416667 C45,39.7800786 47.2385763,42 50,42 Z" fill="#603f83" style=""></path><path d="M50,75.1387841 C52.7614237,75.1387841 55,72.9188626 55,70.1804507 C55,67.4420389 52.7614237,58.1387841 50,58.1387841 C47.2385763,58.1387841 45,67.4420389 45,70.1804507 C45,72.9188626 47.2385763,75.1387841 50,75.1387841 Z" transform="translate(50.000000, 66.638784) rotate(-180.000000) translate(-50.000000, -66.638784) " fill="#603f83" style=""></path><path d="M50,75.1387841 C52.7614237,75.1387841 55,72.9188626 55,70.1804507 C55,67.4420389 52.7614237,58.1387841 50,58.1387841 C47.2385763,58.1387841 45,67.4420389 45,70.1804507 C45,72.9188626 47.2385763,75.1387841 50,75.1387841 Z" transform="translate(50.000000, 66.638784) rotate(-180.000000) translate(-50.000000, -66.638784) " fill="#603f83" style=""></path><path d="M50.5,20.9 C52.4329966,20.9 54,19.346055 54,17.4291667 C54,15.5122783 52.4329966,9 50.5,9 C48.5670034,9 47,15.5122783 47,17.4291667 C47,19.346055 48.5670034,20.9 50.5,20.9 Z" fill="#603f83" style=""></path><path d="M50.5,91.0387841 C52.4329966,91.0387841 54,89.4848391 54,87.5679507 C54,85.6510624 52.4329966,79.1387841 50.5,79.1387841 C48.5670034,79.1387841 47,85.6510624 47,87.5679507 C47,89.4848391 48.5670034,91.0387841 50.5,91.0387841 Z" transform="translate(50.500000, 85.088784) rotate(-180.000000) translate(-50.500000, -85.088784) " fill="#603f83" style=""></path><path d="M50.5,19.1 C51.3284271,19.1 52,18.4340236 52,17.6125 C52,16.7909764 51.3284271,14 50.5,14 C49.6715729,14 49,16.7909764 49,17.6125 C49,18.4340236 49.6715729,19.1 50.5,19.1 Z" fill="#603f83" style=""></path><path d="M49.9117647,39.1 C51.3899386,39.1 52.5882353,37.9116891 52.5882353,36.4458333 C52.5882353,34.9799776 51.3899386,30 49.9117647,30 C48.4335908,30 47.2352941,34.9799776 47.2352941,36.4458333 C47.2352941,37.9116891 48.4335908,39.1 49.9117647,39.1 Z" fill="#603f83" style=""></path><path d="M49.9117647,70.1 C51.3899386,70.1 52.5882353,68.9116891 52.5882353,67.4458333 C52.5882353,65.9799776 51.3899386,61 49.9117647,61 C48.4335908,61 47.2352941,65.9799776 47.2352941,67.4458333 C47.2352941,68.9116891 48.4335908,70.1 49.9117647,70.1 Z" transform="translate(49.911765, 65.550000) rotate(-180.000000) translate(-49.911765, -65.550000) " fill="#603f83" style=""></path><path d="M36.5879513,30.9125766 C37.8958698,30.9125766 38.9561472,29.8611348 38.9561472,28.5641156 C38.9561472,27.2670964 37.8958698,22.8607104 36.5879513,22.8607104 C35.2800328,22.8607104 34.2197554,27.2670964 34.2197554,28.5641156 C34.2197554,29.8611348 35.2800328,30.9125766 36.5879513,30.9125766 Z" transform="translate(36.587951, 26.886644) rotate(-390.000000) translate(-36.587951, -26.886644) " fill="#603f83" style=""></path><path d="M64.1610014,77.9044189 C65.500176,77.9044189 66.5857915,76.8278502 66.5857915,75.4998354 C66.5857915,74.1718206 65.500176,69.6601326 64.1610014,69.6601326 C62.8218268,69.6601326 61.7362113,74.1718206 61.7362113,75.4998354 C61.7362113,76.8278502 62.8218268,77.9044189 64.1610014,77.9044189 Z" transform="translate(64.161001, 73.782276) rotate(-570.000000) translate(-64.161001, -73.782276) " fill="#603f83" style=""></path><path d="M63.6612228,30.8200849 C64.9691413,30.8200849 66.0294187,29.7686431 66.0294187,28.4716239 C66.0294187,27.1746047 64.9691413,22.7682187 63.6612228,22.7682187 C62.3533043,22.7682187 61.2930269,27.1746047 61.2930269,28.4716239 C61.2930269,29.7686431 62.3533043,30.8200849 63.6612228,30.8200849 Z" transform="translate(63.661223, 26.794152) rotate(-690.000000) translate(-63.661223, -26.794152) " fill="#603f83" style=""></path><path d="M36.404323,77.5139682 C37.7434976,77.5139682 38.8291131,76.4373995 38.8291131,75.1093847 C38.8291131,73.7813699 37.7434976,69.2696819 36.404323,69.2696819 C35.0651485,69.2696819 33.979533,73.7813699 33.979533,75.1093847 C33.979533,76.4373995 35.0651485,77.5139682 36.404323,77.5139682 Z" transform="translate(36.404323, 73.391825) rotate(-870.000000) translate(-36.404323, -73.391825) " fill="#603f83" style=""></path><path d="M23.3895219,54.1148785 C24.6974403,54.1148785 25.7577178,53.0634367 25.7577178,51.7664175 C25.7577178,50.4693984 24.6974403,46.0630124 23.3895219,46.0630124 C22.0816034,46.0630124 21.0213259,50.4693984 21.0213259,51.7664175 C21.0213259,53.0634367 22.0816034,54.1148785 23.3895219,54.1148785 Z" transform="translate(23.389522, 50.088945) rotate(-450.000000) translate(-23.389522, -50.088945) " fill="#603f83" style=""></path><path d="M77.3727405,54.5174195 C78.7119151,54.5174195 79.7975306,53.4408508 79.7975306,52.112836 C79.7975306,50.7848212 78.7119151,46.2731332 77.3727405,46.2731332 C76.0335659,46.2731332 74.9479504,50.7848212 74.9479504,52.112836 C74.9479504,53.4408508 76.0335659,54.5174195 77.3727405,54.5174195 Z" transform="translate(77.372741, 50.395276) rotate(-630.000000) translate(-77.372741, -50.395276) " fill="#603f83" style=""></path><path d="M36.3962979,46.4994902 C37.8744718,46.4994902 39.0727685,45.3111793 39.0727685,43.8453236 C39.0727685,42.3794678 37.8744718,37.3994902 36.3962979,37.3994902 C34.9181241,37.3994902 33.7198274,42.3794678 33.7198274,43.8453236 C33.7198274,45.3111793 34.9181241,46.4994902 36.3962979,46.4994902 Z" transform="translate(36.396298, 41.949490) rotate(-60.000000) translate(-36.396298, -41.949490) " fill="#603f83" style=""></path><path d="M63.2430855,61.9994902 C64.7212593,61.9994902 65.919556,60.8111793 65.919556,59.3453236 C65.919556,57.8794678 64.7212593,52.8994902 63.2430855,52.8994902 C61.7649116,52.8994902 60.5666149,57.8794678 60.5666149,59.3453236 C60.5666149,60.8111793 61.7649116,61.9994902 63.2430855,61.9994902 Z" transform="translate(63.243085, 57.449490) rotate(-240.000000) translate(-63.243085, -57.449490) " fill="#603f83" style=""></path><path d="M62.7689875,46.998586 C64.2471614,46.998586 65.4454581,45.8102751 65.4454581,44.3444193 C65.4454581,42.8785636 64.2471614,37.898586 62.7689875,37.898586 C61.2908137,37.898586 60.092517,42.8785636 60.092517,44.3444193 C60.092517,45.8102751 61.2908137,46.998586 62.7689875,46.998586 Z" transform="translate(62.768988, 42.448586) rotate(-300.000000) translate(-62.768988, -42.448586) " fill="#603f83" style=""></path><path d="M36.2786509,62.1428915 C37.7568248,62.1428915 38.9551215,60.9545806 38.9551215,59.4887249 C38.9551215,58.0228691 37.7568248,53.0428915 36.2786509,53.0428915 C34.800477,53.0428915 33.6021803,58.0228691 33.6021803,59.4887249 C33.6021803,60.9545806 34.800477,62.1428915 36.2786509,62.1428915 Z" transform="translate(36.278651, 57.592892) rotate(-480.000000) translate(-36.278651, -57.592892) " fill="#603f83" style=""></path><path d="M50.5,86.1 C51.3284271,86.1 52,85.4340236 52,84.6125 C52,83.7909764 51.3284271,81 50.5,81 C49.6715729,81 49,83.7909764 49,84.6125 C49,85.4340236 49.6715729,86.1 50.5,86.1 Z" transform="translate(50.500000, 83.550000) rotate(-180.000000) translate(-50.500000, -83.550000) " fill="#603f83" style=""></path><path d="M44.7130934,23.2568182 C45.5415205,23.2568182 46.2130934,22.5908418 46.2130934,21.7693182 C46.2130934,20.9477946 45.5415205,18.1568182 44.7130934,18.1568182 C43.8846663,18.1568182 43.2130934,20.9477946 43.2130934,21.7693182 C43.2130934,22.5908418 43.8846663,23.2568182 44.7130934,23.2568182 Z" transform="translate(44.713093, 20.706818) rotate(-15.000000) translate(-44.713093, -20.706818) " fill="#603f83" style=""></path><path d="M56.0539694,81.9738486 C56.8823966,81.9738486 57.5539694,81.3078721 57.5539694,80.4863486 C57.5539694,79.664825 56.8823966,76.8738486 56.0539694,76.8738486 C55.2255423,76.8738486 54.5539694,79.664825 54.5539694,80.4863486 C54.5539694,81.3078721 55.2255423,81.9738486 56.0539694,81.9738486 Z" transform="translate(56.053969, 79.423849) rotate(-195.000000) translate(-56.053969, -79.423849) " fill="#603f83" style=""></path><path d="M56.2869066,23.2568182 C57.1153337,23.2568182 57.7869066,22.5908418 57.7869066,21.7693182 C57.7869066,20.9477946 57.1153337,18.1568182 56.2869066,18.1568182 C55.4584795,18.1568182 54.7869066,20.9477946 54.7869066,21.7693182 C54.7869066,22.5908418 55.4584795,23.2568182 56.2869066,23.2568182 Z" transform="translate(56.286907, 20.706818) rotate(-345.000000) translate(-56.286907, -20.706818) " fill="#603f83" style=""></path><path d="M44.9460306,81.9738486 C45.7744577,81.9738486 46.4460306,81.3078721 46.4460306,80.4863486 C46.4460306,79.664825 45.7744577,76.8738486 44.9460306,76.8738486 C44.1176034,76.8738486 43.4460306,79.664825 43.4460306,80.4863486 C43.4460306,81.3078721 44.1176034,81.9738486 44.9460306,81.9738486 Z" transform="translate(44.946031, 79.423849) rotate(-525.000000) translate(-44.946031, -79.423849) " fill="#603f83" style=""></path><path d="M27.4937248,33.0437248 C28.3221519,33.0437248 28.9937248,32.3777483 28.9937248,31.5562248 C28.9937248,30.7347012 28.3221519,27.9437248 27.4937248,27.9437248 C26.6652977,27.9437248 25.9937248,30.7347012 25.9937248,31.5562248 C25.9937248,32.3777483 26.6652977,33.0437248 27.4937248,33.0437248 Z" transform="translate(27.493725, 30.493725) rotate(-45.000000) translate(-27.493725, -30.493725) " fill="#603f83" style=""></path><path d="M72.8698791,71.4198791 C73.6983062,71.4198791 74.3698791,70.7539027 74.3698791,69.9323791 C74.3698791,69.1108556 73.6983062,66.3198791 72.8698791,66.3198791 C72.041452,66.3198791 71.3698791,69.1108556 71.3698791,69.9323791 C71.3698791,70.7539027 72.041452,71.4198791 72.8698791,71.4198791 Z" transform="translate(72.869879, 68.869879) rotate(-225.000000) translate(-72.869879, -68.869879) " fill="#603f83" style=""></path><path d="M21.7068182,42.2630934 C22.5352453,42.2630934 23.2068182,41.597117 23.2068182,40.7755934 C23.2068182,39.9540699 22.5352453,37.1630934 21.7068182,37.1630934 C20.8783911,37.1630934 20.2068182,39.9540699 20.2068182,40.7755934 C20.2068182,41.597117 20.8783911,42.2630934 21.7068182,42.2630934 Z" transform="translate(21.706818, 39.713093) rotate(-75.000000) translate(-21.706818, -39.713093) " fill="#603f83" style=""></path><path d="M78.4238486,61.6039694 C79.2522757,61.6039694 79.9238486,60.937993 79.9238486,60.1164694 C79.9238486,59.2949459 79.2522757,56.5039694 78.4238486,56.5039694 C77.5954214,56.5039694 76.9238486,59.2949459 76.9238486,60.1164694 C76.9238486,60.937993 77.5954214,61.6039694 78.4238486,61.6039694 Z" transform="translate(78.423849, 59.053969) rotate(-255.000000) translate(-78.423849, -59.053969) " fill="#603f83" style=""></path><path d="M20.7068182,61.8369066 C21.5352453,61.8369066 22.2068182,61.1709301 22.2068182,60.3494066 C22.2068182,59.527883 21.5352453,56.7369066 20.7068182,56.7369066 C19.8783911,56.7369066 19.2068182,59.527883 19.2068182,60.3494066 C19.2068182,61.1709301 19.8783911,61.8369066 20.7068182,61.8369066 Z" transform="translate(20.706818, 59.286907) rotate(-105.000000) translate(-20.706818, -59.286907) " fill="#603f83" style=""></path><path d="M78.4238486,42.4960306 C79.2522757,42.4960306 79.9238486,41.8300541 79.9238486,41.0085306 C79.9238486,40.187007 79.2522757,37.3960306 78.4238486,37.3960306 C77.5954214,37.3960306 76.9238486,40.187007 76.9238486,41.0085306 C76.9238486,41.8300541 77.5954214,42.4960306 78.4238486,42.4960306 Z" transform="translate(78.423849, 39.946031) rotate(-285.000000) translate(-78.423849, -39.946031) " fill="#603f83" style=""></path><path d="M27.4937248,72.0562752 C28.3221519,72.0562752 28.9937248,71.3902988 28.9937248,70.5687752 C28.9937248,69.7472517 28.3221519,66.9562752 27.4937248,66.9562752 C26.6652977,66.9562752 25.9937248,69.7472517 25.9937248,70.5687752 C25.9937248,71.3902988 26.6652977,72.0562752 27.4937248,72.0562752 Z" transform="translate(27.493725, 69.506275) rotate(-135.000000) translate(-27.493725, -69.506275) " fill="#603f83" style=""></path><path d="M71.8698791,32.6801209 C72.6983062,32.6801209 73.3698791,32.0141444 73.3698791,31.1926209 C73.3698791,30.3710973 72.6983062,27.5801209 71.8698791,27.5801209 C71.041452,27.5801209 70.3698791,30.3710973 70.3698791,31.1926209 C70.3698791,32.0141444 71.041452,32.6801209 71.8698791,32.6801209 Z" transform="translate(71.869879, 30.130121) rotate(-315.000000) translate(-71.869879, -30.130121) " fill="#603f83" style=""></path><path d="M20.0984375,35.075 C20.9268647,35.075 21.5984375,34.4090236 21.5984375,33.5875 C21.5984375,32.7659764 20.9268647,29.975 20.0984375,29.975 C19.2700104,29.975 18.5984375,32.7659764 18.5984375,33.5875 C18.5984375,34.4090236 19.2700104,35.075 20.0984375,35.075 Z" transform="translate(20.098438, 32.525000) rotate(-60.000000) translate(-20.098438, -32.525000) " fill="#603f83" style=""></path><path d="M79.6517809,68.494943 C80.480208,68.494943 81.1517809,67.8289665 81.1517809,67.007443 C81.1517809,66.1859194 80.480208,63.394943 79.6517809,63.394943 C78.8233537,63.394943 78.1517809,66.1859194 78.1517809,67.007443 C78.1517809,67.8289665 78.8233537,68.494943 79.6517809,68.494943 Z" transform="translate(79.651781, 65.944943) rotate(-240.000000) translate(-79.651781, -65.944943) " fill="#603f83" style=""></path><path d="M78.2185498,35.8919873 C79.0469769,35.8919873 79.7185498,35.2260109 79.7185498,34.4044873 C79.7185498,33.5829637 79.0469769,30.7919873 78.2185498,30.7919873 C77.3901226,30.7919873 76.7185498,33.5829637 76.7185498,34.4044873 C76.7185498,35.2260109 77.3901226,35.8919873 78.2185498,35.8919873 Z" transform="translate(78.218550, 33.341987) rotate(-300.000000) translate(-78.218550, -33.341987) " fill="#603f83" style=""></path><path d="M21.4993585,68.756724 C22.3277856,68.756724 22.9993585,68.0907476 22.9993585,67.269224 C22.9993585,66.4477004 22.3277856,63.656724 21.4993585,63.656724 C20.6709314,63.656724 19.9993585,66.4477004 19.9993585,67.269224 C19.9993585,68.0907476 20.6709314,68.756724 21.4993585,68.756724 Z" transform="translate(21.499359, 66.206724) rotate(-480.000000) translate(-21.499359, -66.206724) " fill="#603f83" style=""></path><path d="M79.5429399,38.4 C81.4759366,38.4 83.0429399,36.846055 83.0429399,34.9291667 C83.0429399,33.0122783 81.4759366,26.5 79.5429399,26.5 C77.6099433,26.5 76.0429399,33.0122783 76.0429399,34.9291667 C76.0429399,36.846055 77.6099433,38.4 79.5429399,38.4 Z" transform="translate(79.542940, 32.450000) rotate(-300.000000) translate(-79.542940, -32.450000) " fill="#603f83" style=""></path><path d="M20.2028949,72.969392 C22.1358916,72.969392 23.7028949,71.415447 23.7028949,69.4985587 C23.7028949,67.5816704 22.1358916,61.069392 20.2028949,61.069392 C18.2698983,61.069392 16.7028949,67.5816704 16.7028949,69.4985587 C16.7028949,71.415447 18.2698983,72.969392 20.2028949,72.969392 Z" transform="translate(20.202895, 67.019392) rotate(-480.000000) translate(-20.202895, -67.019392) " fill="#603f83" style=""></path><path d="M80.5429399,72.4 C82.4759366,72.4 84.0429399,70.846055 84.0429399,68.9291667 C84.0429399,67.0122783 82.4759366,60.5 80.5429399,60.5 C78.6099433,60.5 77.0429399,67.0122783 77.0429399,68.9291667 C77.0429399,70.846055 78.6099433,72.4 80.5429399,72.4 Z" transform="translate(80.542940, 66.450000) rotate(-240.000000) translate(-80.542940, -66.450000) " fill="#603f83" style=""></path><path d="M19.2028949,37.830608 C21.1358916,37.830608 22.7028949,36.276663 22.7028949,34.3597746 C22.7028949,32.4428863 21.1358916,25.930608 19.2028949,25.930608 C17.2698983,25.930608 15.7028949,32.4428863 15.7028949,34.3597746 C15.7028949,36.276663 17.2698983,37.830608 19.2028949,37.830608 Z" transform="translate(19.202895, 31.880608) rotate(-420.000000) translate(-19.202895, -31.880608) " fill="#603f83" style=""></path><path d="M64.580127,33.5 C67.3415508,33.5 69.580127,31.2800786 69.580127,28.5416667 C69.580127,25.8032548 67.3415508,16.5 64.580127,16.5 C61.8187033,16.5 59.580127,25.8032548 59.580127,28.5416667 C59.580127,31.2800786 61.8187033,33.5 64.580127,33.5 Z" transform="translate(64.580127, 25.000000) rotate(-330.000000) translate(-64.580127, -25.000000) " fill="#603f83" style=""></path><path d="M35.580127,83.5 C38.3415508,83.5 40.580127,81.2800786 40.580127,78.5416667 C40.580127,75.8032548 38.3415508,66.5 35.580127,66.5 C32.8187033,66.5 30.580127,75.8032548 30.580127,78.5416667 C30.580127,81.2800786 32.8187033,83.5 35.580127,83.5 Z" transform="translate(35.580127, 75.000000) rotate(-510.000000) translate(-35.580127, -75.000000) " fill="#603f83" style=""></path><path d="M35.580127,33.5 C38.3415508,33.5 40.580127,31.2800786 40.580127,28.5416667 C40.580127,25.8032548 38.3415508,16.5 35.580127,16.5 C32.8187033,16.5 30.580127,25.8032548 30.580127,28.5416667 C30.580127,31.2800786 32.8187033,33.5 35.580127,33.5 Z" transform="translate(35.580127, 25.000000) rotate(-30.000000) translate(-35.580127, -25.000000) " fill="#603f83" style=""></path><path d="M64.580127,83.3612159 C67.3415508,83.3612159 69.580127,81.1412945 69.580127,78.4028826 C69.580127,75.6644707 67.3415508,66.3612159 64.580127,66.3612159 C61.8187033,66.3612159 59.580127,75.6644707 59.580127,78.4028826 C59.580127,81.1412945 61.8187033,83.3612159 64.580127,83.3612159 Z" transform="translate(64.580127, 74.861216) rotate(-210.000000) translate(-64.580127, -74.861216) " fill="#603f83" style=""></path><path d="M78.5,58.6387841 C81.2614237,58.6387841 83.5,56.4188626 83.5,53.6804507 C83.5,50.9420389 81.2614237,41.6387841 78.5,41.6387841 C75.7385763,41.6387841 73.5,50.9420389 73.5,53.6804507 C73.5,56.4188626 75.7385763,58.6387841 78.5,58.6387841 Z" transform="translate(78.500000, 50.138784) rotate(-270.000000) translate(-78.500000, -50.138784) " fill="#603f83" style=""></path><path d="M21.5,58.6387841 C24.2614237,58.6387841 26.5,56.4188626 26.5,53.6804507 C26.5,50.9420389 24.2614237,41.6387841 21.5,41.6387841 C18.7385763,41.6387841 16.5,50.9420389 16.5,53.6804507 C16.5,56.4188626 18.7385763,58.6387841 21.5,58.6387841 Z" transform="translate(21.500000, 50.138784) rotate(-450.000000) translate(-21.500000, -50.138784) " fill="#603f83" style=""></path><path d="M63.8612159,50.2189111 C66.6226397,50.2189111 68.8612159,47.9989896 68.8612159,45.2605778 C68.8612159,42.5221659 66.6226397,33.2189111 63.8612159,33.2189111 C61.0997922,33.2189111 58.8612159,42.5221659 58.8612159,45.2605778 C58.8612159,47.9989896 61.0997922,50.2189111 63.8612159,50.2189111 Z" transform="translate(63.861216, 41.718911) rotate(-300.000000) translate(-63.861216, -41.718911) " fill="#603f83" style=""></path><path d="M35.8612159,66.2189111 C38.6226397,66.2189111 40.8612159,63.9989896 40.8612159,61.2605778 C40.8612159,58.5221659 38.6226397,49.2189111 35.8612159,49.2189111 C33.0997922,49.2189111 30.8612159,58.5221659 30.8612159,61.2605778 C30.8612159,63.9989896 33.0997922,66.2189111 35.8612159,66.2189111 Z" transform="translate(35.861216, 57.718911) rotate(-480.000000) translate(-35.861216, -57.718911) " fill="#603f83" style=""></path><path d="M63.8612159,66.2189111 C66.6226397,66.2189111 68.8612159,63.9989896 68.8612159,61.2605778 C68.8612159,58.5221659 66.6226397,49.2189111 63.8612159,49.2189111 C61.0997922,49.2189111 58.8612159,58.5221659 58.8612159,61.2605778 C58.8612159,63.9989896 61.0997922,66.2189111 63.8612159,66.2189111 Z" transform="translate(63.861216, 57.718911) rotate(-240.000000) translate(-63.861216, -57.718911) " fill="#603f83" style=""></path><path d="M35.8612159,50.2189111 C38.6226397,50.2189111 40.8612159,47.9989896 40.8612159,45.2605778 C40.8612159,42.5221659 38.6226397,33.2189111 35.8612159,33.2189111 C33.0997922,33.2189111 30.8612159,42.5221659 30.8612159,45.2605778 C30.8612159,47.9989896 33.0997922,50.2189111 35.8612159,50.2189111 Z" transform="translate(35.861216, 41.718911) rotate(-420.000000) translate(-35.861216, -41.718911) " fill="#603f83" style=""></path><circle cx="50" cy="50.1387841" r="4.5" fill="#603f83" style=""></circle><circle transform="translate(40.794286, 13.777782) rotate(-15.000000) translate(-40.794286, -13.777782) " cx="40.7942858" cy="13.7777815" r="2.5" fill="#603f83" style=""></circle><circle transform="translate(60.205714, 86.222218) rotate(-15.000000) translate(-60.205714, -86.222218) " cx="60.2057142" cy="86.2222185" r="2.5" fill="#603f83" style=""></circle><circle transform="translate(60.205714, 13.777782) rotate(-345.000000) translate(-60.205714, -13.777782) " cx="60.2057142" cy="13.7777815" r="2.5" fill="#603f83" style=""></circle><circle transform="translate(40.794286, 86.222218) rotate(-345.000000) translate(-40.794286, -86.222218) " cx="40.7942858" cy="86.2222185" r="2.5" fill="#603f83" style=""></circle><circle transform="translate(23.983496, 23.483496) rotate(-45.000000) translate(-23.983496, -23.483496) " cx="23.9834957" cy="23.4834957" r="2.5" fill="#603f83" style=""></circle><circle transform="translate(77.016504, 76.516504) rotate(-45.000000) translate(-77.016504, -76.516504) " cx="77.0165043" cy="76.5165043" r="2.5" fill="#603f83" style=""></circle><circle transform="translate(14.277782, 40.294286) rotate(-75.000000) translate(-14.277782, -40.294286) " cx="14.2777815" cy="40.2942858" r="2.5" fill="#603f83" style=""></circle><circle transform="translate(86.722218, 59.705714) rotate(-75.000000) translate(-86.722218, -59.705714) " cx="86.7222185" cy="59.7057142" r="2.5" fill="#603f83" style=""></circle><circle transform="translate(14.277782, 59.705714) rotate(-105.000000) translate(-14.277782, -59.705714) " cx="14.2777815" cy="59.7057142" r="2.5" fill="#603f83" style=""></circle><circle transform="translate(86.722218, 40.294286) rotate(-105.000000) translate(-86.722218, -40.294286) " cx="86.7222185" cy="40.2942858" r="2.5" fill="#603f83" style=""></circle><circle transform="translate(23.983496, 76.516504) rotate(-135.000000) translate(-23.983496, -76.516504) " cx="23.9834957" cy="76.5165043" r="2.5" fill="#603f83" style=""></circle><circle transform="translate(77.016504, 23.483496) rotate(-135.000000) translate(-77.016504, -23.483496) " cx="77.0165043" cy="23.4834957" r="2.5" fill="#603f83" style=""></circle></g></g><defs></defs></g><g><g transform="matrix(1.024,0,0,-1.024,0,0)"><path d="M328 170Q282 271 246 365Q211 460 186 534Q163 410 147 284Q132 158 108 43Q102 17 86 8Q70 0 59 0Q41 0 30 11Q20 22 20 39Q20 62 25 109Q31 157 39 217Q48 277 59 343Q70 409 81 470Q93 532 103 582Q114 632 122 659Q135 705 175 705Q199 705 216 681Q233 658 252 609Q272 561 299 487Q327 413 371 313Q414 413 440 486Q467 560 485 608Q504 657 521 680Q538 704 563 704Q586 704 598 692Q610 681 616 658Q623 630 633 580Q643 531 654 470Q666 410 677 344Q688 278 697 218Q706 158 711 109Q717 61 717 35Q717 19 706 9Q695 0 678 0Q667 0 651 8Q635 17 629 43Q617 100 607 161Q598 222 589 284Q581 347 573 409Q565 472 556 534Q543 494 526 446Q509 398 490 349Q471 301 451 254Q431 207 412 169Q405 156 393 149Q382 143 370 143Q357 143 345 149Q334 156 328 170ZM1208 -4Q1192 -4 1182 1Q1173 7 1168 16Q1163 25 1161 37Q1159 50 1158 64Q1133 33 1093 12Q1054 -9 993 -9Q954 -9 913 2Q873 14 840 42Q807 71 786 119Q765 167 765 240Q765 297 779 347Q793 397 821 434Q850 472 893 494Q936 516 994 516Q1045 516 1085 497Q1125 479 1157 437Q1157 449 1158 461Q1159 474 1163 484Q1168 495 1178 501Q1188 508 1205 508Q1220 508 1233 496Q1246 484 1248 444Q1251 391 1252 349Q1254 307 1254 262Q1254 207 1253 161Q1252 115 1248 63Q1246 40 1242 26Q1239 13 1234 6Q1229 0 1222 -2Q1215 -4 1208 -4ZM1154 250Q1154 302 1138 335Q1123 368 1099 386Q1076 405 1049 412Q1022 419 999 419Q963 419 937 406Q912 393 896 370Q880 348 872 317Q865 287 865 251Q865 163 903 121Q942 79 1008 79Q1047 79 1074 92Q1102 106 1119 129Q1137 152 1145 183Q1154 215 1154 250ZM1568 -137Q1615 -137 1647 -119Q1680 -100 1700 -66Q1720 -31 1728 17Q1737 66 1737 127Q1728 95 1711 73Q1694 51 1671 37Q1649 24 1621 18Q1593 12 1563 12Q1517 12 1476 25Q1435 38 1404 66Q1374 94 1356 137Q1338 181 1338 242Q1338 301 1355 350Q1373 400 1406 436Q1440 472 1488 492Q1536 512 1598 512Q1631 512 1656 506Q1682 500 1702 490Q1722 480 1737 466Q1753 452 1766 436Q1804 388 1821 322Q1838 257 1838 165Q1838 97 1826 26Q1815 -45 1785 -103Q1755 -160 1702 -197Q1649 -233 1566 -233Q1551 -233 1532 -232Q1514 -230 1494 -227Q1475 -224 1456 -219Q1437 -213 1421 -204Q1401 -193 1389 -183Q1377 -173 1377 -150Q1377 -131 1385 -116Q1394 -100 1415 -100Q1425 -100 1437 -106Q1449 -112 1466 -119Q1484 -125 1508 -131Q1533 -137 1568 -137ZM1573 103Q1612 103 1639 117Q1667 132 1684 156Q1702 180 1710 210Q1719 240 1719 270Q1719 295 1712 320Q1706 346 1691 367Q1676 388 1650 401Q1624 414 1585 414Q1519 414 1478 374Q1438 334 1438 256Q1438 183 1474 143Q1510 103 1573 103ZM1936 62Q1934 99 1932 146Q1931 194 1931 251Q1931 322 1932 372Q1933 423 1937 455Q1942 488 1952 503Q1962 519 1980 519Q1997 519 2010 507Q2023 495 2025 455Q2031 350 2031 252Q2031 202 2029 158Q2027 115 2025 63Q2024 39 2020 26Q2017 13 2011 6Q2005 -1 1997 -3Q1990 -4 1980 -4Q1962 -4 1950 8Q1938 21 1936 62ZM1981 700Q2004 700 2023 682Q2043 664 2043 639Q2043 615 2023 597Q2003 580 1978 580Q1957 580 1938 597Q1920 615 1920 641Q1920 665 1938 682Q1957 700 1981 700ZM2383 510Q2412 510 2441 505Q2471 500 2495 491Q2519 482 2534 469Q2549 456 2549 439Q2549 395 2499 395Q2487 395 2476 398Q2466 402 2452 405Q2438 409 2417 412Q2396 416 2365 416Q2299 416 2263 371Q2227 326 2227 254Q2227 175 2263 127Q2300 79 2367 79Q2409 79 2435 86Q2461 93 2477 102Q2494 111 2504 118Q2515 125 2528 125Q2546 125 2556 117Q2567 110 2567 87Q2567 63 2548 45Q2530 27 2502 15Q2474 3 2441 -3Q2409 -9 2382 -9Q2261 -9 2192 58Q2123 125 2123 248Q2123 301 2139 348Q2156 396 2189 432Q2222 468 2270 489Q2319 510 2383 510ZM2961 246L2960 63Q2960 39 2955 26Q2951 13 2944 6Q2938 -1 2929 -3Q2921 -4 2913 -4Q2886 -4 2877 8Q2869 20 2866 62Q2864 84 2863 126Q2862 168 2861 226Q2861 284 2860 354Q2860 424 2860 502Q2860 539 2869 577Q2878 615 2903 646Q2929 677 2974 696Q3020 715 3093 715Q3144 715 3190 704Q3236 693 3271 666Q3306 639 3327 594Q3348 549 3348 482Q3348 412 3325 366Q3302 320 3260 293Q3218 266 3160 255Q3102 244 3033 244Q3016 244 2999 244Q2982 244 2961 246ZM3248 484Q3248 551 3210 585Q3173 619 3086 619Q3053 619 3029 613Q3006 608 2991 594Q2976 581 2968 558Q2961 535 2961 500Q2961 466 2961 422Q2961 379 2962 341Q2985 340 3013 340Q3042 340 3067 340Q3097 340 3129 344Q3162 348 3188 362Q3214 377 3231 405Q3248 434 3248 484ZM3660 184Q3625 184 3586 189Q3548 195 3503 213Q3512 152 3553 121Q3595 90 3673 90Q3701 90 3723 93Q3746 97 3763 101Q3780 106 3793 109Q3806 113 3817 113Q3831 113 3844 104Q3857 96 3857 76Q3857 51 3836 35Q3816 19 3786 9Q3757 0 3724 -4Q3691 -7 3666 -7Q3607 -7 3557 9Q3508 25 3472 57Q3436 90 3416 138Q3396 186 3396 250Q3396 312 3415 360Q3435 408 3469 441Q3503 474 3549 491Q3596 508 3650 508Q3692 508 3731 497Q3771 486 3801 464Q3832 442 3850 408Q3869 375 3869 330Q3869 290 3854 262Q3839 234 3811 217Q3784 200 3745 192Q3707 184 3660 184ZM3653 416Q3626 416 3601 409Q3576 403 3555 388Q3535 374 3521 350Q3507 327 3502 292Q3540 275 3576 268Q3612 262 3652 262Q3711 262 3739 276Q3768 291 3768 329Q3768 364 3741 390Q3715 416 3653 416ZM4374 -4Q4358 -4 4348 1Q4339 7 4334 16Q4329 25 4327 37Q4325 50 4324 64Q4299 33 4259 12Q4220 -9 4159 -9Q4120 -9 4079 2Q4039 14 4006 42Q3973 71 3952 119Q3931 167 3931 240Q3931 297 3945 347Q3959 397 3987 434Q4016 472 4059 494Q4102 516 4160 516Q4211 516 4251 497Q4291 479 4323 437Q4323 449 4324 461Q4325 474 4329 484Q4334 495 4344 501Q4354 508 4371 508Q4386 508 4399 496Q4412 484 4414 444Q4417 391 4418 349Q4420 307 4420 262Q4420 207 4419 161Q4418 115 4414 63Q4412 40 4408 26Q4405 13 4400 6Q4395 0 4388 -2Q4381 -4 4374 -4ZM4320 250Q4320 302 4304 335Q4289 368 4265 386Q4242 405 4215 412Q4188 419 4165 419Q4129 419 4103 406Q4078 393 4062 370Q4046 348 4038 317Q4031 287 4031 251Q4031 163 4069 121Q4108 79 4174 79Q4213 79 4240 92Q4268 106 4285 129Q4303 152 4311 183Q4320 215 4320 250ZM4765 510Q4794 510 4823 505Q4853 500 4877 491Q4901 482 4916 469Q4931 456 4931 439Q4931 395 4881 395Q4869 395 4858 398Q4848 402 4834 405Q4820 409 4799 412Q4778 416 4747 416Q4681 416 4645 371Q4609 326 4609 254Q4609 175 4645 127Q4682 79 4749 79Q4791 79 4817 86Q4843 93 4859 102Q4876 111 4886 118Q4897 125 4910 125Q4928 125 4938 117Q4949 110 4949 87Q4949 63 4930 45Q4912 27 4884 15Q4856 3 4823 -3Q4791 -9 4764 -9Q4643 -9 4574 58Q4505 125 4505 248Q4505 301 4521 348Q4538 396 4571 432Q4604 468 4652 489Q4701 510 4765 510ZM5265 507Q5322 507 5367 489Q5412 472 5443 440Q5475 408 5492 362Q5509 316 5509 259Q5509 196 5489 146Q5470 96 5435 61Q5401 26 5353 7Q5306 -12 5250 -12Q5189 -12 5142 9Q5096 30 5064 66Q5033 102 5017 149Q5001 196 5001 248Q5001 305 5019 352Q5038 400 5072 434Q5107 469 5156 488Q5205 507 5265 507ZM5254 80Q5295 80 5324 94Q5353 109 5371 133Q5390 157 5398 187Q5407 218 5407 251Q5407 285 5398 314Q5390 344 5372 366Q5355 388 5327 400Q5300 413 5262 413Q5223 413 5194 400Q5165 387 5145 364Q5126 342 5116 311Q5106 280 5106 244Q5106 171 5143 125Q5181 80 5254 80ZM5826 510Q5855 510 5884 505Q5914 500 5938 491Q5962 482 5977 469Q5992 456 5992 439Q5992 395 5942 395Q5930 395 5919 398Q5909 402 5895 405Q5881 409 5860 412Q5839 416 5808 416Q5742 416 5706 371Q5670 326 5670 254Q5670 175 5706 127Q5743 79 5810 79Q5852 79 5878 86Q5904 93 5920 102Q5937 111 5947 118Q5958 125 5971 125Q5989 125 5999 117Q6010 110 6010 87Q6010 63 5991 45Q5973 27 5945 15Q5917 3 5884 -3Q5852 -9 5825 -9Q5704 -9 5635 58Q5566 125 5566 248Q5566 301 5582 348Q5599 396 5632 432Q5665 468 5713 489Q5762 510 5826 510ZM6099 53Q6097 75 6096 119Q6095 164 6094 222Q6093 281 6093 350Q6093 419 6093 491Q6093 576 6094 630Q6095 684 6100 715Q6105 746 6116 757Q6127 769 6148 769Q6166 769 6174 757Q6182 746 6186 707Q6188 683 6189 642Q6191 602 6191 554Q6192 506 6192 454Q6193 402 6193 355L6193 274L6415 475Q6426 485 6441 494Q6457 504 6474 504Q6494 504 6504 488Q6514 473 6514 453Q6514 442 6510 432Q6507 423 6496 415L6361 304L6525 66Q6534 54 6534 39Q6534 17 6520 6Q6506 -5 6484 -5Q6468 -5 6456 1Q6444 7 6433 24L6283 241L6192 166Q6191 129 6190 100Q6189 71 6187 54Q6183 19 6174 8Q6165 -3 6142 -3Q6119 -3 6110 8Q6102 19 6099 53ZM6799 522Q6820 522 6852 518Q6884 515 6913 505Q6942 496 6963 479Q6984 462 6984 436Q6984 421 6975 410Q6967 399 6949 399Q6936 399 6919 403Q6903 407 6883 412Q6864 418 6841 422Q6819 426 6794 426Q6752 426 6725 413Q6699 400 6699 372Q6699 356 6708 345Q6718 334 6734 325Q6751 317 6773 311Q6796 305 6821 299Q6852 291 6882 281Q6913 271 6937 253Q6961 236 6976 209Q6991 183 6991 144Q6991 70 6935 26Q6879 -17 6770 -17Q6746 -17 6713 -14Q6680 -10 6651 -1Q6622 9 6601 26Q6581 44 6581 73Q6581 93 6590 103Q6600 114 6614 114Q6625 114 6637 107Q6649 100 6666 92Q6683 84 6707 77Q6731 70 6766 70Q6779 70 6800 71Q6821 73 6841 80Q6862 87 6876 99Q6891 112 6891 135Q6891 153 6881 165Q6871 178 6854 187Q6837 196 6814 202Q6792 209 6767 216Q6738 224 6708 234Q6679 244 6655 260Q6631 276 6616 300Q6601 325 6601 361Q6601 395 6615 424Q6629 454 6655 476Q6681 498 6717 510Q6754 522 6799 522Z" fill="#603f83" style=""></path></g></g></g></svg>