<svg version="1.1" xmlns="http://www.w3.org/2000/svg" viewBox="0 0 250 250"><desc>Created with Snap</desc><defs></defs><g transform="matrix(0.0304,0,0,0.0304,8.7304,171.9101)"><g transform="matrix(27.0732,0,0,27.0732,2451.297,-3541.9634)"><title>mandala 1</title><desc>Created with Sketch.</desc><g stroke="none" stroke-width="1" fill="none" fill-rule="evenodd"><g fill="#000000"><path d="M50,42 C52.7614237,42 55,39.7800786 55,37.0416667 C55,34.3032548 52.7614237,25 50,25 C47.2385763,25 45,34.3032548 45,37.0416667 C45,39.7800786 47.2385763,42 50,42 Z" fill="#210070" style=""></path><path d="M50,75.1387841 C52.7614237,75.1387841 55,72.9188626 55,70.1804507 C55,67.4420389 52.7614237,58.1387841 50,58.1387841 C47.2385763,58.1387841 45,67.4420389 45,70.1804507 C45,72.9188626 47.2385763,75.1387841 50,75.1387841 Z" transform="translate(50.000000, 66.638784) rotate(-180.000000) translate(-50.000000, -66.638784) " fill="#210070" style=""></path><path d="M50,75.1387841 C52.7614237,75.1387841 55,72.9188626 55,70.1804507 C55,67.4420389 52.7614237,58.1387841 50,58.1387841 C47.2385763,58.1387841 45,67.4420389 45,70.1804507 C45,72.9188626 47.2385763,75.1387841 50,75.1387841 Z" transform="translate(50.000000, 66.638784) rotate(-180.000000) translate(-50.000000, -66.638784) " fill="#210070" style=""></path><path d="M50.5,20.9 C52.4329966,20.9 54,19.346055 54,17.4291667 C54,15.5122783 52.4329966,9 50.5,9 C48.5670034,9 47,15.5122783 47,17.4291667 C47,19.346055 48.5670034,20.9 50.5,20.9 Z" fill="#210070" style=""></path><path d="M50.5,91.0387841 C52.4329966,91.0387841 54,89.4848391 54,87.5679507 C54,85.6510624 52.4329966,79.1387841 50.5,79.1387841 C48.5670034,79.1387841 47,85.6510624 47,87.5679507 C47,89.4848391 48.5670034,91.0387841 50.5,91.0387841 Z" transform="translate(50.500000, 85.088784) rotate(-180.000000) translate(-50.500000, -85.088784) " fill="#210070" style=""></path><path d="M50.5,19.1 C51.3284271,19.1 52,18.4340236 52,17.6125 C52,16.7909764 51.3284271,14 50.5,14 C49.6715729,14 49,16.7909764 49,17.6125 C49,18.4340236 49.6715729,19.1 50.5,19.1 Z" fill="#210070" style=""></path><path d="M49.9117647,39.1 C51.3899386,39.1 52.5882353,37.9116891 52.5882353,36.4458333 C52.5882353,34.9799776 51.3899386,30 49.9117647,30 C48.4335908,30 47.2352941,34.9799776 47.2352941,36.4458333 C47.2352941,37.9116891 48.4335908,39.1 49.9117647,39.1 Z" fill="#210070" style=""></path><path d="M49.9117647,70.1 C51.3899386,70.1 52.5882353,68.9116891 52.5882353,67.4458333 C52.5882353,65.9799776 51.3899386,61 49.9117647,61 C48.4335908,61 47.2352941,65.9799776 47.2352941,67.4458333 C47.2352941,68.9116891 48.4335908,70.1 49.9117647,70.1 Z" transform="translate(49.911765, 65.550000) rotate(-180.000000) translate(-49.911765, -65.550000) " fill="#210070" style=""></path><path d="M36.5879513,30.9125766 C37.8958698,30.9125766 38.9561472,29.8611348 38.9561472,28.5641156 C38.9561472,27.2670964 37.8958698,22.8607104 36.5879513,22.8607104 C35.2800328,22.8607104 34.2197554,27.2670964 34.2197554,28.5641156 C34.2197554,29.8611348 35.2800328,30.9125766 36.5879513,30.9125766 Z" transform="translate(36.587951, 26.886644) rotate(-390.000000) translate(-36.587951, -26.886644) " fill="#210070" style=""></path><path d="M64.1610014,77.9044189 C65.500176,77.9044189 66.5857915,76.8278502 66.5857915,75.4998354 C66.5857915,74.1718206 65.500176,69.6601326 64.1610014,69.6601326 C62.8218268,69.6601326 61.7362113,74.1718206 61.7362113,75.4998354 C61.7362113,76.8278502 62.8218268,77.9044189 64.1610014,77.9044189 Z" transform="translate(64.161001, 73.782276) rotate(-570.000000) translate(-64.161001, -73.782276) " fill="#210070" style=""></path><path d="M63.6612228,30.8200849 C64.9691413,30.8200849 66.0294187,29.7686431 66.0294187,28.4716239 C66.0294187,27.1746047 64.9691413,22.7682187 63.6612228,22.7682187 C62.3533043,22.7682187 61.2930269,27.1746047 61.2930269,28.4716239 C61.2930269,29.7686431 62.3533043,30.8200849 63.6612228,30.8200849 Z" transform="translate(63.661223, 26.794152) rotate(-690.000000) translate(-63.661223, -26.794152) " fill="#210070" style=""></path><path d="M36.404323,77.5139682 C37.7434976,77.5139682 38.8291131,76.4373995 38.8291131,75.1093847 C38.8291131,73.7813699 37.7434976,69.2696819 36.404323,69.2696819 C35.0651485,69.2696819 33.979533,73.7813699 33.979533,75.1093847 C33.979533,76.4373995 35.0651485,77.5139682 36.404323,77.5139682 Z" transform="translate(36.404323, 73.391825) rotate(-870.000000) translate(-36.404323, -73.391825) " fill="#210070" style=""></path><path d="M23.3895219,54.1148785 C24.6974403,54.1148785 25.7577178,53.0634367 25.7577178,51.7664175 C25.7577178,50.4693984 24.6974403,46.0630124 23.3895219,46.0630124 C22.0816034,46.0630124 21.0213259,50.4693984 21.0213259,51.7664175 C21.0213259,53.0634367 22.0816034,54.1148785 23.3895219,54.1148785 Z" transform="translate(23.389522, 50.088945) rotate(-450.000000) translate(-23.389522, -50.088945) " fill="#210070" style=""></path><path d="M77.3727405,54.5174195 C78.7119151,54.5174195 79.7975306,53.4408508 79.7975306,52.112836 C79.7975306,50.7848212 78.7119151,46.2731332 77.3727405,46.2731332 C76.0335659,46.2731332 74.9479504,50.7848212 74.9479504,52.112836 C74.9479504,53.4408508 76.0335659,54.5174195 77.3727405,54.5174195 Z" transform="translate(77.372741, 50.395276) rotate(-630.000000) translate(-77.372741, -50.395276) " fill="#210070" style=""></path><path d="M36.3962979,46.4994902 C37.8744718,46.4994902 39.0727685,45.3111793 39.0727685,43.8453236 C39.0727685,42.3794678 37.8744718,37.3994902 36.3962979,37.3994902 C34.9181241,37.3994902 33.7198274,42.3794678 33.7198274,43.8453236 C33.7198274,45.3111793 34.9181241,46.4994902 36.3962979,46.4994902 Z" transform="translate(36.396298, 41.949490) rotate(-60.000000) translate(-36.396298, -41.949490) " fill="#210070" style=""></path><path d="M63.2430855,61.9994902 C64.7212593,61.9994902 65.919556,60.8111793 65.919556,59.3453236 C65.919556,57.8794678 64.7212593,52.8994902 63.2430855,52.8994902 C61.7649116,52.8994902 60.5666149,57.8794678 60.5666149,59.3453236 C60.5666149,60.8111793 61.7649116,61.9994902 63.2430855,61.9994902 Z" transform="translate(63.243085, 57.449490) rotate(-240.000000) translate(-63.243085, -57.449490) " fill="#210070" style=""></path><path d="M62.7689875,46.998586 C64.2471614,46.998586 65.4454581,45.8102751 65.4454581,44.3444193 C65.4454581,42.8785636 64.2471614,37.898586 62.7689875,37.898586 C61.2908137,37.898586 60.092517,42.8785636 60.092517,44.3444193 C60.092517,45.8102751 61.2908137,46.998586 62.7689875,46.998586 Z" transform="translate(62.768988, 42.448586) rotate(-300.000000) translate(-62.768988, -42.448586) " fill="#210070" style=""></path><path d="M36.2786509,62.1428915 C37.7568248,62.1428915 38.9551215,60.9545806 38.9551215,59.4887249 C38.9551215,58.0228691 37.7568248,53.0428915 36.2786509,53.0428915 C34.800477,53.0428915 33.6021803,58.0228691 33.6021803,59.4887249 C33.6021803,60.9545806 34.800477,62.1428915 36.2786509,62.1428915 Z" transform="translate(36.278651, 57.592892) rotate(-480.000000) translate(-36.278651, -57.592892) " fill="#210070" style=""></path><path d="M50.5,86.1 C51.3284271,86.1 52,85.4340236 52,84.6125 C52,83.7909764 51.3284271,81 50.5,81 C49.6715729,81 49,83.7909764 49,84.6125 C49,85.4340236 49.6715729,86.1 50.5,86.1 Z" transform="translate(50.500000, 83.550000) rotate(-180.000000) translate(-50.500000, -83.550000) " fill="#210070" style=""></path><path d="M44.7130934,23.2568182 C45.5415205,23.2568182 46.2130934,22.5908418 46.2130934,21.7693182 C46.2130934,20.9477946 45.5415205,18.1568182 44.7130934,18.1568182 C43.8846663,18.1568182 43.2130934,20.9477946 43.2130934,21.7693182 C43.2130934,22.5908418 43.8846663,23.2568182 44.7130934,23.2568182 Z" transform="translate(44.713093, 20.706818) rotate(-15.000000) translate(-44.713093, -20.706818) " fill="#210070" style=""></path><path d="M56.0539694,81.9738486 C56.8823966,81.9738486 57.5539694,81.3078721 57.5539694,80.4863486 C57.5539694,79.664825 56.8823966,76.8738486 56.0539694,76.8738486 C55.2255423,76.8738486 54.5539694,79.664825 54.5539694,80.4863486 C54.5539694,81.3078721 55.2255423,81.9738486 56.0539694,81.9738486 Z" transform="translate(56.053969, 79.423849) rotate(-195.000000) translate(-56.053969, -79.423849) " fill="#210070" style=""></path><path d="M56.2869066,23.2568182 C57.1153337,23.2568182 57.7869066,22.5908418 57.7869066,21.7693182 C57.7869066,20.9477946 57.1153337,18.1568182 56.2869066,18.1568182 C55.4584795,18.1568182 54.7869066,20.9477946 54.7869066,21.7693182 C54.7869066,22.5908418 55.4584795,23.2568182 56.2869066,23.2568182 Z" transform="translate(56.286907, 20.706818) rotate(-345.000000) translate(-56.286907, -20.706818) " fill="#210070" style=""></path><path d="M44.9460306,81.9738486 C45.7744577,81.9738486 46.4460306,81.3078721 46.4460306,80.4863486 C46.4460306,79.664825 45.7744577,76.8738486 44.9460306,76.8738486 C44.1176034,76.8738486 43.4460306,79.664825 43.4460306,80.4863486 C43.4460306,81.3078721 44.1176034,81.9738486 44.9460306,81.9738486 Z" transform="translate(44.946031, 79.423849) rotate(-525.000000) translate(-44.946031, -79.423849) " fill="#210070" style=""></path><path d="M27.4937248,33.0437248 C28.3221519,33.0437248 28.9937248,32.3777483 28.9937248,31.5562248 C28.9937248,30.7347012 28.3221519,27.9437248 27.4937248,27.9437248 C26.6652977,27.9437248 25.9937248,30.7347012 25.9937248,31.5562248 C25.9937248,32.3777483 26.6652977,33.0437248 27.4937248,33.0437248 Z" transform="translate(27.493725, 30.493725) rotate(-45.000000) translate(-27.493725, -30.493725) " fill="#210070" style=""></path><path d="M72.8698791,71.4198791 C73.6983062,71.4198791 74.3698791,70.7539027 74.3698791,69.9323791 C74.3698791,69.1108556 73.6983062,66.3198791 72.8698791,66.3198791 C72.041452,66.3198791 71.3698791,69.1108556 71.3698791,69.9323791 C71.3698791,70.7539027 72.041452,71.4198791 72.8698791,71.4198791 Z" transform="translate(72.869879, 68.869879) rotate(-225.000000) translate(-72.869879, -68.869879) " fill="#210070" style=""></path><path d="M21.7068182,42.2630934 C22.5352453,42.2630934 23.2068182,41.597117 23.2068182,40.7755934 C23.2068182,39.9540699 22.5352453,37.1630934 21.7068182,37.1630934 C20.8783911,37.1630934 20.2068182,39.9540699 20.2068182,40.7755934 C20.2068182,41.597117 20.8783911,42.2630934 21.7068182,42.2630934 Z" transform="translate(21.706818, 39.713093) rotate(-75.000000) translate(-21.706818, -39.713093) " fill="#210070" style=""></path><path d="M78.4238486,61.6039694 C79.2522757,61.6039694 79.9238486,60.937993 79.9238486,60.1164694 C79.9238486,59.2949459 79.2522757,56.5039694 78.4238486,56.5039694 C77.5954214,56.5039694 76.9238486,59.2949459 76.9238486,60.1164694 C76.9238486,60.937993 77.5954214,61.6039694 78.4238486,61.6039694 Z" transform="translate(78.423849, 59.053969) rotate(-255.000000) translate(-78.423849, -59.053969) " fill="#210070" style=""></path><path d="M20.7068182,61.8369066 C21.5352453,61.8369066 22.2068182,61.1709301 22.2068182,60.3494066 C22.2068182,59.527883 21.5352453,56.7369066 20.7068182,56.7369066 C19.8783911,56.7369066 19.2068182,59.527883 19.2068182,60.3494066 C19.2068182,61.1709301 19.8783911,61.8369066 20.7068182,61.8369066 Z" transform="translate(20.706818, 59.286907) rotate(-105.000000) translate(-20.706818, -59.286907) " fill="#210070" style=""></path><path d="M78.4238486,42.4960306 C79.2522757,42.4960306 79.9238486,41.8300541 79.9238486,41.0085306 C79.9238486,40.187007 79.2522757,37.3960306 78.4238486,37.3960306 C77.5954214,37.3960306 76.9238486,40.187007 76.9238486,41.0085306 C76.9238486,41.8300541 77.5954214,42.4960306 78.4238486,42.4960306 Z" transform="translate(78.423849, 39.946031) rotate(-285.000000) translate(-78.423849, -39.946031) " fill="#210070" style=""></path><path d="M27.4937248,72.0562752 C28.3221519,72.0562752 28.9937248,71.3902988 28.9937248,70.5687752 C28.9937248,69.7472517 28.3221519,66.9562752 27.4937248,66.9562752 C26.6652977,66.9562752 25.9937248,69.7472517 25.9937248,70.5687752 C25.9937248,71.3902988 26.6652977,72.0562752 27.4937248,72.0562752 Z" transform="translate(27.493725, 69.506275) rotate(-135.000000) translate(-27.493725, -69.506275) " fill="#210070" style=""></path><path d="M71.8698791,32.6801209 C72.6983062,32.6801209 73.3698791,32.0141444 73.3698791,31.1926209 C73.3698791,30.3710973 72.6983062,27.5801209 71.8698791,27.5801209 C71.041452,27.5801209 70.3698791,30.3710973 70.3698791,31.1926209 C70.3698791,32.0141444 71.041452,32.6801209 71.8698791,32.6801209 Z" transform="translate(71.869879, 30.130121) rotate(-315.000000) translate(-71.869879, -30.130121) " fill="#210070" style=""></path><path d="M20.0984375,35.075 C20.9268647,35.075 21.5984375,34.4090236 21.5984375,33.5875 C21.5984375,32.7659764 20.9268647,29.975 20.0984375,29.975 C19.2700104,29.975 18.5984375,32.7659764 18.5984375,33.5875 C18.5984375,34.4090236 19.2700104,35.075 20.0984375,35.075 Z" transform="translate(20.098438, 32.525000) rotate(-60.000000) translate(-20.098438, -32.525000) " fill="#210070" style=""></path><path d="M79.6517809,68.494943 C80.480208,68.494943 81.1517809,67.8289665 81.1517809,67.007443 C81.1517809,66.1859194 80.480208,63.394943 79.6517809,63.394943 C78.8233537,63.394943 78.1517809,66.1859194 78.1517809,67.007443 C78.1517809,67.8289665 78.8233537,68.494943 79.6517809,68.494943 Z" transform="translate(79.651781, 65.944943) rotate(-240.000000) translate(-79.651781, -65.944943) " fill="#210070" style=""></path><path d="M78.2185498,35.8919873 C79.0469769,35.8919873 79.7185498,35.2260109 79.7185498,34.4044873 C79.7185498,33.5829637 79.0469769,30.7919873 78.2185498,30.7919873 C77.3901226,30.7919873 76.7185498,33.5829637 76.7185498,34.4044873 C76.7185498,35.2260109 77.3901226,35.8919873 78.2185498,35.8919873 Z" transform="translate(78.218550, 33.341987) rotate(-300.000000) translate(-78.218550, -33.341987) " fill="#210070" style=""></path><path d="M21.4993585,68.756724 C22.3277856,68.756724 22.9993585,68.0907476 22.9993585,67.269224 C22.9993585,66.4477004 22.3277856,63.656724 21.4993585,63.656724 C20.6709314,63.656724 19.9993585,66.4477004 19.9993585,67.269224 C19.9993585,68.0907476 20.6709314,68.756724 21.4993585,68.756724 Z" transform="translate(21.499359, 66.206724) rotate(-480.000000) translate(-21.499359, -66.206724) " fill="#210070" style=""></path><path d="M79.5429399,38.4 C81.4759366,38.4 83.0429399,36.846055 83.0429399,34.9291667 C83.0429399,33.0122783 81.4759366,26.5 79.5429399,26.5 C77.6099433,26.5 76.0429399,33.0122783 76.0429399,34.9291667 C76.0429399,36.846055 77.6099433,38.4 79.5429399,38.4 Z" transform="translate(79.542940, 32.450000) rotate(-300.000000) translate(-79.542940, -32.450000) " fill="#210070" style=""></path><path d="M20.2028949,72.969392 C22.1358916,72.969392 23.7028949,71.415447 23.7028949,69.4985587 C23.7028949,67.5816704 22.1358916,61.069392 20.2028949,61.069392 C18.2698983,61.069392 16.7028949,67.5816704 16.7028949,69.4985587 C16.7028949,71.415447 18.2698983,72.969392 20.2028949,72.969392 Z" transform="translate(20.202895, 67.019392) rotate(-480.000000) translate(-20.202895, -67.019392) " fill="#210070" style=""></path><path d="M80.5429399,72.4 C82.4759366,72.4 84.0429399,70.846055 84.0429399,68.9291667 C84.0429399,67.0122783 82.4759366,60.5 80.5429399,60.5 C78.6099433,60.5 77.0429399,67.0122783 77.0429399,68.9291667 C77.0429399,70.846055 78.6099433,72.4 80.5429399,72.4 Z" transform="translate(80.542940, 66.450000) rotate(-240.000000) translate(-80.542940, -66.450000) " fill="#210070" style=""></path><path d="M19.2028949,37.830608 C21.1358916,37.830608 22.7028949,36.276663 22.7028949,34.3597746 C22.7028949,32.4428863 21.1358916,25.930608 19.2028949,25.930608 C17.2698983,25.930608 15.7028949,32.4428863 15.7028949,34.3597746 C15.7028949,36.276663 17.2698983,37.830608 19.2028949,37.830608 Z" transform="translate(19.202895, 31.880608) rotate(-420.000000) translate(-19.202895, -31.880608) " fill="#210070" style=""></path><path d="M64.580127,33.5 C67.3415508,33.5 69.580127,31.2800786 69.580127,28.5416667 C69.580127,25.8032548 67.3415508,16.5 64.580127,16.5 C61.8187033,16.5 59.580127,25.8032548 59.580127,28.5416667 C59.580127,31.2800786 61.8187033,33.5 64.580127,33.5 Z" transform="translate(64.580127, 25.000000) rotate(-330.000000) translate(-64.580127, -25.000000) " fill="#210070" style=""></path><path d="M35.580127,83.5 C38.3415508,83.5 40.580127,81.2800786 40.580127,78.5416667 C40.580127,75.8032548 38.3415508,66.5 35.580127,66.5 C32.8187033,66.5 30.580127,75.8032548 30.580127,78.5416667 C30.580127,81.2800786 32.8187033,83.5 35.580127,83.5 Z" transform="translate(35.580127, 75.000000) rotate(-510.000000) translate(-35.580127, -75.000000) " fill="#210070" style=""></path><path d="M35.580127,33.5 C38.3415508,33.5 40.580127,31.2800786 40.580127,28.5416667 C40.580127,25.8032548 38.3415508,16.5 35.580127,16.5 C32.8187033,16.5 30.580127,25.8032548 30.580127,28.5416667 C30.580127,31.2800786 32.8187033,33.5 35.580127,33.5 Z" transform="translate(35.580127, 25.000000) rotate(-30.000000) translate(-35.580127, -25.000000) " fill="#210070" style=""></path><path d="M64.580127,83.3612159 C67.3415508,83.3612159 69.580127,81.1412945 69.580127,78.4028826 C69.580127,75.6644707 67.3415508,66.3612159 64.580127,66.3612159 C61.8187033,66.3612159 59.580127,75.6644707 59.580127,78.4028826 C59.580127,81.1412945 61.8187033,83.3612159 64.580127,83.3612159 Z" transform="translate(64.580127, 74.861216) rotate(-210.000000) translate(-64.580127, -74.861216) " fill="#210070" style=""></path><path d="M78.5,58.6387841 C81.2614237,58.6387841 83.5,56.4188626 83.5,53.6804507 C83.5,50.9420389 81.2614237,41.6387841 78.5,41.6387841 C75.7385763,41.6387841 73.5,50.9420389 73.5,53.6804507 C73.5,56.4188626 75.7385763,58.6387841 78.5,58.6387841 Z" transform="translate(78.500000, 50.138784) rotate(-270.000000) translate(-78.500000, -50.138784) " fill="#210070" style=""></path><path d="M21.5,58.6387841 C24.2614237,58.6387841 26.5,56.4188626 26.5,53.6804507 C26.5,50.9420389 24.2614237,41.6387841 21.5,41.6387841 C18.7385763,41.6387841 16.5,50.9420389 16.5,53.6804507 C16.5,56.4188626 18.7385763,58.6387841 21.5,58.6387841 Z" transform="translate(21.500000, 50.138784) rotate(-450.000000) translate(-21.500000, -50.138784) " fill="#210070" style=""></path><path d="M63.8612159,50.2189111 C66.6226397,50.2189111 68.8612159,47.9989896 68.8612159,45.2605778 C68.8612159,42.5221659 66.6226397,33.2189111 63.8612159,33.2189111 C61.0997922,33.2189111 58.8612159,42.5221659 58.8612159,45.2605778 C58.8612159,47.9989896 61.0997922,50.2189111 63.8612159,50.2189111 Z" transform="translate(63.861216, 41.718911) rotate(-300.000000) translate(-63.861216, -41.718911) " fill="#210070" style=""></path><path d="M35.8612159,66.2189111 C38.6226397,66.2189111 40.8612159,63.9989896 40.8612159,61.2605778 C40.8612159,58.5221659 38.6226397,49.2189111 35.8612159,49.2189111 C33.0997922,49.2189111 30.8612159,58.5221659 30.8612159,61.2605778 C30.8612159,63.9989896 33.0997922,66.2189111 35.8612159,66.2189111 Z" transform="translate(35.861216, 57.718911) rotate(-480.000000) translate(-35.861216, -57.718911) " fill="#210070" style=""></path><path d="M63.8612159,66.2189111 C66.6226397,66.2189111 68.8612159,63.9989896 68.8612159,61.2605778 C68.8612159,58.5221659 66.6226397,49.2189111 63.8612159,49.2189111 C61.0997922,49.2189111 58.8612159,58.5221659 58.8612159,61.2605778 C58.8612159,63.9989896 61.0997922,66.2189111 63.8612159,66.2189111 Z" transform="translate(63.861216, 57.718911) rotate(-240.000000) translate(-63.861216, -57.718911) " fill="#210070" style=""></path><path d="M35.8612159,50.2189111 C38.6226397,50.2189111 40.8612159,47.9989896 40.8612159,45.2605778 C40.8612159,42.5221659 38.6226397,33.2189111 35.8612159,33.2189111 C33.0997922,33.2189111 30.8612159,42.5221659 30.8612159,45.2605778 C30.8612159,47.9989896 33.0997922,50.2189111 35.8612159,50.2189111 Z" transform="translate(35.861216, 41.718911) rotate(-420.000000) translate(-35.861216, -41.718911) " fill="#210070" style=""></path><circle cx="50" cy="50.1387841" r="4.5" fill="#210070" style=""></circle><circle transform="translate(40.794286, 13.777782) rotate(-15.000000) translate(-40.794286, -13.777782) " cx="40.7942858" cy="13.7777815" r="2.5" fill="#210070" style=""></circle><circle transform="translate(60.205714, 86.222218) rotate(-15.000000) translate(-60.205714, -86.222218) " cx="60.2057142" cy="86.2222185" r="2.5" fill="#210070" style=""></circle><circle transform="translate(60.205714, 13.777782) rotate(-345.000000) translate(-60.205714, -13.777782) " cx="60.2057142" cy="13.7777815" r="2.5" fill="#210070" style=""></circle><circle transform="translate(40.794286, 86.222218) rotate(-345.000000) translate(-40.794286, -86.222218) " cx="40.7942858" cy="86.2222185" r="2.5" fill="#210070" style=""></circle><circle transform="translate(23.983496, 23.483496) rotate(-45.000000) translate(-23.983496, -23.483496) " cx="23.9834957" cy="23.4834957" r="2.5" fill="#210070" style=""></circle><circle transform="translate(77.016504, 76.516504) rotate(-45.000000) translate(-77.016504, -76.516504) " cx="77.0165043" cy="76.5165043" r="2.5" fill="#210070" style=""></circle><circle transform="translate(14.277782, 40.294286) rotate(-75.000000) translate(-14.277782, -40.294286) " cx="14.2777815" cy="40.2942858" r="2.5" fill="#210070" style=""></circle><circle transform="translate(86.722218, 59.705714) rotate(-75.000000) translate(-86.722218, -59.705714) " cx="86.7222185" cy="59.7057142" r="2.5" fill="#210070" style=""></circle><circle transform="translate(14.277782, 59.705714) rotate(-105.000000) translate(-14.277782, -59.705714) " cx="14.2777815" cy="59.7057142" r="2.5" fill="#210070" style=""></circle><circle transform="translate(86.722218, 40.294286) rotate(-105.000000) translate(-86.722218, -40.294286) " cx="86.7222185" cy="40.2942858" r="2.5" fill="#210070" style=""></circle><circle transform="translate(23.983496, 76.516504) rotate(-135.000000) translate(-23.983496, -76.516504) " cx="23.9834957" cy="76.5165043" r="2.5" fill="#210070" style=""></circle><circle transform="translate(77.016504, 23.483496) rotate(-135.000000) translate(-77.016504, -23.483496) " cx="77.0165043" cy="23.4834957" r="2.5" fill="#210070" style=""></circle></g></g><defs></defs></g><g><g transform="matrix(1.024,0,0,-1.024,0,0)"><path d="M909 38L909 0L610 0L610 38Q630 48 649 55Q668 62 690 67L690 485L695 602L687 602L654 495L461 0L415 0L223 491L187 608L178 608L179 481L179 71Q198 67 221 58Q244 49 264 38L264 0L20 0L20 38Q36 46 59 57Q83 68 104 72L104 633Q84 637 61 644Q39 651 22 662L22 700L293 700L446 293L475 197L476 197L506 295L662 700L910 700L910 662Q893 652 873 644Q854 637 834 633L834 66Q855 62 874 54Q894 46 909 38ZM1400 145Q1400 123 1400 107Q1401 91 1403 73L1472 63L1472 28Q1460 22 1439 16Q1419 10 1396 4Q1374 -1 1352 -5Q1330 -8 1313 -10L1279 -10Q1269 13 1267 36Q1265 59 1264 92L1259 92Q1254 72 1242 53Q1230 35 1211 20Q1193 6 1168 -3Q1143 -12 1112 -12Q1079 -12 1051 -2Q1023 8 1002 26Q981 44 969 69Q957 95 957 127Q957 172 974 201Q991 230 1027 248Q1064 267 1121 276Q1179 285 1261 289Q1269 375 1254 415Q1239 455 1189 455Q1158 455 1132 445L1085 325L1041 325Q1033 337 1025 352Q1018 368 1011 385Q1005 403 1000 421Q996 439 994 456Q1032 482 1092 497Q1152 512 1219 512Q1276 512 1312 499Q1348 487 1368 465Q1389 444 1397 415Q1405 386 1405 353Q1405 293 1402 244Q1400 196 1400 145ZM1175 68Q1196 68 1211 76Q1226 84 1236 95Q1247 106 1252 119Q1258 132 1261 142L1261 242Q1214 241 1184 236Q1154 231 1137 219Q1120 208 1113 190Q1107 173 1107 148Q1107 110 1125 89Q1143 68 1175 68ZM1751 512Q1816 512 1859 498Q1902 485 1924 465Q1971 516 2032 536Q2039 531 2046 521Q2053 512 2058 501Q2063 490 2066 479Q2069 468 2069 461L2056 437L1951 437Q1962 423 1971 400Q1981 378 1981 347Q1981 314 1967 285Q1953 256 1924 233Q1896 211 1852 198Q1809 185 1751 185Q1734 185 1720 185Q1707 186 1697 188Q1693 182 1688 173Q1684 165 1684 157Q1684 140 1708 130Q1732 120 1769 112Q1806 104 1848 94Q1891 84 1928 67Q1965 51 1990 24Q2015 -2 2016 -44Q2017 -84 1996 -115Q1975 -146 1938 -168Q1902 -189 1852 -201Q1803 -212 1747 -212Q1681 -212 1634 -202Q1588 -191 1559 -173Q1530 -155 1516 -132Q1503 -109 1503 -84Q1503 -56 1514 -36Q1525 -16 1545 -1Q1565 14 1591 24Q1618 34 1650 42Q1635 46 1621 52Q1607 58 1596 66Q1585 75 1578 86Q1571 98 1571 113Q1571 126 1579 138Q1587 151 1600 161Q1613 172 1628 180Q1643 189 1658 195Q1595 209 1558 249Q1521 290 1521 353Q1521 428 1583 470Q1645 512 1751 512ZM1877 -76Q1877 -49 1860 -33Q1844 -16 1818 -6Q1792 5 1759 12Q1727 20 1695 30Q1669 10 1658 -10Q1647 -30 1647 -58Q1647 -104 1678 -130Q1710 -155 1767 -155Q1823 -155 1850 -132Q1877 -108 1877 -76ZM1665 348Q1665 296 1682 269Q1700 242 1751 242Q1800 242 1818 269Q1837 297 1837 348Q1837 402 1818 428Q1799 455 1751 455Q1701 455 1683 429Q1665 403 1665 348ZM2358 39L2358 0L2082 0L2082 39Q2097 47 2113 52Q2129 58 2148 63L2148 429L2082 437L2082 476Q2097 482 2119 488Q2142 494 2167 498Q2192 503 2216 506Q2240 510 2258 512L2292 512L2292 63Q2312 58 2328 52Q2344 47 2358 39ZM2131 664Q2131 699 2155 719Q2179 739 2217 739Q2255 739 2279 719Q2303 699 2303 664Q2303 630 2279 610Q2255 590 2217 590Q2179 590 2155 610Q2131 630 2131 664ZM2823 102L2839 81Q2832 61 2816 44Q2800 28 2777 15Q2755 2 2726 -5Q2698 -12 2667 -12Q2601 -12 2553 6Q2506 25 2475 59Q2444 94 2429 142Q2414 191 2414 250Q2414 377 2483 444Q2553 512 2681 512Q2730 512 2771 501Q2812 491 2839 477Q2837 460 2833 439Q2830 419 2825 398Q2821 378 2815 358Q2809 339 2803 326L2754 326L2712 445Q2705 450 2697 452Q2689 455 2673 455Q2647 455 2628 445Q2609 436 2595 413Q2582 390 2575 352Q2569 314 2569 258Q2569 217 2578 182Q2587 148 2605 122Q2624 97 2652 82Q2680 68 2718 68Q2753 68 2779 78Q2805 88 2823 102ZM3389 267L3389 67Q3416 63 3442 55Q3469 48 3490 38L3490 0L3157 0L3157 38Q3176 49 3197 56Q3219 63 3239 67L3239 633Q3216 637 3195 644Q3174 652 3157 662L3157 700L3283 700Q3323 700 3374 704Q3426 708 3469 708Q3522 708 3572 697Q3623 687 3662 662Q3702 637 3726 595Q3750 554 3750 492Q3750 433 3726 390Q3703 347 3664 319Q3625 291 3574 277Q3523 264 3469 264Q3464 264 3453 264Q3442 264 3429 264Q3417 265 3405 265Q3394 266 3389 267ZM3443 643Q3423 643 3411 641Q3400 640 3389 637L3389 333Q3398 330 3416 329Q3434 329 3445 329Q3472 329 3497 338Q3522 347 3541 366Q3561 385 3573 415Q3585 445 3585 487Q3585 567 3546 605Q3507 643 3443 643ZM4244 104L4263 84Q4255 67 4237 49Q4220 32 4194 18Q4169 5 4135 -4Q4102 -12 4063 -12Q4001 -12 3953 6Q3905 25 3873 59Q3841 94 3824 142Q3808 190 3808 250Q3808 378 3875 445Q3942 512 4061 512Q4112 512 4156 498Q4201 484 4230 452Q4260 420 4271 368Q4283 316 4270 241L3963 241Q3964 162 4003 115Q4043 68 4120 68Q4153 68 4188 78Q4224 88 4244 104ZM4057 455Q4037 455 4021 448Q4006 441 3994 422Q3983 404 3976 372Q3969 341 3966 293L4127 293Q4134 371 4118 413Q4102 455 4057 455ZM4784 145Q4784 123 4784 107Q4785 91 4787 73L4856 63L4856 28Q4844 22 4823 16Q4803 10 4780 4Q4758 -1 4736 -5Q4714 -8 4697 -10L4663 -10Q4653 13 4651 36Q4649 59 4648 92L4643 92Q4638 72 4626 53Q4614 35 4595 20Q4577 6 4552 -3Q4527 -12 4496 -12Q4463 -12 4435 -2Q4407 8 4386 26Q4365 44 4353 69Q4341 95 4341 127Q4341 172 4358 201Q4375 230 4411 248Q4448 267 4505 276Q4563 285 4645 289Q4653 375 4638 415Q4623 455 4573 455Q4542 455 4516 445L4469 325L4425 325Q4417 337 4409 352Q4402 368 4395 385Q4389 403 4384 421Q4380 439 4378 456Q4416 482 4476 497Q4536 512 4603 512Q4660 512 4696 499Q4732 487 4752 465Q4773 444 4781 415Q4789 386 4789 353Q4789 293 4786 244Q4784 196 4784 145ZM4559 68Q4580 68 4595 76Q4610 84 4620 95Q4631 106 4636 119Q4642 132 4645 142L4645 242Q4598 241 4568 236Q4538 231 4521 219Q4504 208 4497 190Q4491 173 4491 148Q4491 110 4509 89Q4527 68 4559 68ZM5311 102L5327 81Q5320 61 5304 44Q5288 28 5265 15Q5243 2 5214 -5Q5186 -12 5155 -12Q5089 -12 5041 6Q4994 25 4963 59Q4932 94 4917 142Q4902 191 4902 250Q4902 377 4971 444Q5041 512 5169 512Q5218 512 5259 501Q5300 491 5327 477Q5325 460 5321 439Q5318 419 5313 398Q5309 378 5303 358Q5297 339 5291 326L5242 326L5200 445Q5193 450 5185 452Q5177 455 5161 455Q5135 455 5116 445Q5097 436 5083 413Q5070 390 5063 352Q5057 314 5057 258Q5057 217 5066 182Q5075 148 5093 122Q5112 97 5140 82Q5168 68 5206 68Q5241 68 5267 78Q5293 88 5311 102ZM5386 250Q5386 311 5404 359Q5423 408 5457 442Q5492 476 5541 494Q5590 512 5652 512Q5722 512 5772 492Q5823 473 5855 438Q5888 404 5903 355Q5918 307 5918 250Q5918 189 5900 140Q5882 92 5847 58Q5813 24 5763 6Q5714 -12 5652 -12Q5584 -12 5534 7Q5484 27 5451 61Q5418 96 5402 144Q5386 193 5386 250ZM5541 250Q5541 205 5546 167Q5552 130 5566 104Q5580 78 5604 63Q5628 49 5666 49Q5688 49 5706 59Q5724 70 5737 93Q5750 117 5756 155Q5763 194 5763 250Q5763 296 5757 333Q5752 370 5738 396Q5725 422 5702 436Q5679 451 5644 451Q5618 451 5599 440Q5580 430 5567 406Q5554 383 5547 344Q5541 306 5541 250ZM6389 102L6405 81Q6398 61 6382 44Q6366 28 6343 15Q6321 2 6292 -5Q6264 -12 6233 -12Q6167 -12 6119 6Q6072 25 6041 59Q6010 94 5995 142Q5980 191 5980 250Q5980 377 6049 444Q6119 512 6247 512Q6296 512 6337 501Q6378 491 6405 477Q6403 460 6399 439Q6396 419 6391 398Q6387 378 6381 358Q6375 339 6369 326L6320 326L6278 445Q6271 450 6263 452Q6255 455 6239 455Q6213 455 6194 445Q6175 436 6161 413Q6148 390 6141 352Q6135 314 6135 258Q6135 217 6144 182Q6153 148 6171 122Q6190 97 6218 82Q6246 68 6284 68Q6319 68 6345 78Q6371 88 6389 102ZM6755 461L6755 500L6989 500L6989 461Q6970 453 6953 447Q6937 441 6917 437Q6902 417 6884 397Q6867 378 6849 360Q6832 342 6816 325Q6800 309 6787 296Q6802 276 6822 248Q6842 220 6865 188Q6888 157 6913 124Q6939 92 6965 63L7016 39L7016 0L6847 0L6820 24Q6797 55 6779 82Q6762 109 6748 134Q6734 159 6721 182Q6708 206 6695 229L6662 239L6662 63Q6679 60 6693 54Q6707 48 6723 39L6723 0L6452 0L6452 39Q6485 55 6518 63L6518 669L6442 677L6442 716Q6456 722 6480 728Q6504 734 6531 738Q6558 743 6584 746Q6610 750 6628 752L6662 752L6662 283L6688 283Q6721 318 6749 360Q6778 402 6800 437Q6787 441 6776 447Q6766 453 6755 461ZM7304 109Q7304 135 7285 154Q7267 173 7239 189Q7212 205 7179 221Q7147 237 7119 258Q7092 280 7073 309Q7055 338 7055 380Q7055 410 7069 434Q7083 459 7107 476Q7131 493 7164 502Q7198 512 7237 512Q7291 512 7337 503Q7384 495 7419 480Q7415 448 7403 411Q7391 375 7380 345L7346 345L7304 447Q7292 452 7279 453Q7266 455 7250 455Q7220 455 7204 437Q7189 420 7189 398Q7189 373 7207 354Q7226 336 7253 320Q7281 304 7313 288Q7346 272 7373 251Q7401 231 7419 203Q7438 175 7438 136Q7438 67 7382 27Q7326 -12 7232 -12Q7184 -12 7133 -2Q7082 8 7045 26Q7047 62 7062 99Q7077 136 7094 165L7128 165L7177 56Q7188 48 7201 46Q7215 45 7227 45Q7256 45 7280 62Q7304 79 7304 109Z" fill="#210070" style=""></path></g></g></g></svg>