<svg width="373.59998779296876px" height="274.40501708984374px" xmlns="http://www.w3.org/2000/svg" viewBox="63.20000610351562 -62.20250854492187 373.59998779296876 274.40501708984374" style="background: rgb(253, 253, 253);" preserveAspectRatio="xMidYMid"><defs><linearGradient id="editing-outline-gradient" x1="1.4563047559630355" x2="-0.45630475596303555" y1="0.7923717047227363" y2="0.20762829527726362"><stop offset="0" stop-color="#4a0f7e"></stop><stop offset="1" stop-color="#603487"></stop></linearGradient><filter id="editing-outline" x="-100%" y="-100%" width="300%" height="300%"><feMorphology in="SourceGraphic" operator="dilate" radius="6" result="outline"></feMorphology><feComposite operator="out" in="outline" in2="SourceAlpha"></feComposite></filter></defs><g filter="url(#editing-outline)"><g transform="translate(117.13999557495117, 127.92085266113281)"><path d="M130.63-94.96L130.63 0L111.83 0L111.83-61.30L78.74-3.09L78.74-3.09Q77.52-0.86 75.33 0.29L75.33 0.29L75.33 0.29Q73.14 1.44 70.63 1.44L70.63 1.44L70.63 1.44Q68.19 1.44 66.07 0.29L66.07 0.29L66.07 0.29Q63.95-0.86 62.73-3.09L62.73-3.09L29.50-61.30L29.50 0L10.84 0L10.84-94.96L10.84-94.96Q10.84-98.19 12.74-100.70L12.74-100.70L12.74-100.70Q14.64-103.22 17.73-104.08L17.73-104.08L17.73-104.08Q19.24-104.44 20.74-104.33L20.74-104.33L20.74-104.33Q22.25-104.22 23.65-103.68L23.65-103.68L23.65-103.68Q25.05-103.14 26.20-102.18L26.20-102.18L26.20-102.18Q27.35-101.21 28.14-99.84L28.14-99.84L70.63-25.98L113.12-99.84L113.12-99.84Q114.77-102.57 117.68-103.72L117.68-103.72L117.68-103.72Q120.59-104.87 123.74-104.08L123.74-104.08L123.74-104.08Q126.76-103.22 128.70-100.70L128.70-100.70L128.70-100.70Q130.63-98.19 130.63-94.96L130.63-94.96ZM254.88-68.33L254.88-59.86L254.88-59.86Q254.88-53.47 253.30-48.45L253.30-48.45L253.30-48.45Q251.72-43.43 249.03-39.59L249.03-39.59L249.03-39.59Q246.34-35.75 242.82-33.02L242.82-33.02L242.82-33.02Q239.31-30.29 235.47-28.57L235.47-28.57L235.47-28.57Q231.63-26.84 227.71-26.06L227.71-26.06L227.71-26.06Q223.80-25.27 220.36-25.27L220.36-25.27L178.15-25.27L178.15-43.93L220.36-43.93L220.36-43.93Q223.95-44.21 226.85-45.40L226.85-45.40L226.85-45.40Q229.76-46.58 231.84-48.59L231.84-48.59L231.84-48.59Q233.92-50.60 235.07-53.44L235.07-53.44L235.07-53.44Q236.22-56.27 236.22-59.86L236.22-59.86L236.22-68.33L236.22-68.33Q235.86-71.85 234.71-74.79L234.71-74.79L234.71-74.79Q233.56-77.73 231.59-79.82L231.59-79.82L231.59-79.82Q229.62-81.90 226.82-83.08L226.82-83.08L226.82-83.08Q224.02-84.27 220.36-84.27L220.36-84.27L178.29-84.27L178.29-84.27Q174.56-84.27 172.62-82.33L172.62-82.33L172.62-82.33Q170.69-80.39 170.69-76.73L170.69-76.73L170.69 0L152.02 0L152.02-76.73L152.02-76.73Q152.02-83.91 154.64-88.93L154.64-88.93L154.64-88.93Q157.26-93.96 161.18-97.04L161.18-97.04L161.18-97.04Q165.09-100.13 169.68-101.53L169.68-101.53L169.68-101.53Q174.28-102.93 178.15-102.93L178.15-102.93L220.36-102.93L220.36-102.93Q226.67-102.93 231.70-101.31L231.70-101.31L231.70-101.31Q236.72-99.70 240.56-97.01L240.56-97.01L240.56-97.01Q244.40-94.32 247.09-90.80L247.09-90.80L247.09-90.80Q249.79-87.28 251.54-83.44L251.54-83.44L251.54-83.44Q253.30-79.60 254.09-75.69L254.09-75.69L254.09-75.69Q254.88-71.78 254.88-68.33L254.88-68.33Z" fill="url(#editing-outline-gradient)"></path></g></g><style>text {
  font-size: 64px;
  font-family: Arial Black;
  dominant-baseline: central;
  text-anchor: middle;
}</style></svg>