<svg width="472.20001220703125px" height="346.421240234375px" xmlns="http://www.w3.org/2000/svg" viewBox="13.899993896484375 -98.21062011718749 472.20001220703125 346.421240234375" style="background: rgba(0, 0, 0, 0);" preserveAspectRatio="xMidYMid"><defs><filter id="editing-metal-beveled"><feGaussianBlur stdDeviation="4" in="SourceAlpha" result="blur"></feGaussianBlur><feSpecularLighting surfaceScale="5" specularConstant="0.8" specularExponent="7.5" lighting-color="#c528d6" in="blur" result="specular"><fePointLight x="-250" y="-50" z="300"></fePointLight></feSpecularLighting><feComposite operator="in" in="specular" in2="SourceAlpha" result="comp"></feComposite><feComposite in="SourceGraphic" in2="comp" operator="arithmetic" k1="0" k2="1" k3="1" k4="0"></feComposite></filter></defs><g filter="url(#editing-metal-beveled)"><g transform="translate(80.08499240875244, 142.6728515625)"><path d="M167.07-121.45L167.07 0L143.02 0L143.02-78.39L100.70-3.95L100.70-3.95Q99.14-1.10 96.34 0.37L96.34 0.37L96.34 0.37Q93.54 1.84 90.33 1.84L90.33 1.84L90.33 1.84Q87.21 1.84 84.50 0.37L84.50 0.37L84.50 0.37Q81.79-1.10 80.23-3.95L80.23-3.95L37.73-78.39L37.73 0L13.86 0L13.86-121.45L13.86-121.45Q13.86-125.58 16.29-128.79L16.29-128.79L16.29-128.79Q18.73-132.00 22.67-133.11L22.67-133.11L22.67-133.11Q24.60-133.56 26.53-133.43L26.53-133.43L26.53-133.43Q28.46-133.29 30.25-132.60L30.25-132.60L30.25-132.60Q32.04-131.91 33.51-130.67L33.51-130.67L33.51-130.67Q34.97-129.43 35.98-127.69L35.98-127.69L90.33-33.23L144.67-127.69L144.67-127.69Q146.78-131.18 150.50-132.65L150.50-132.65L150.50-132.65Q154.22-134.12 158.26-133.11L158.26-133.11L158.26-133.11Q162.11-132.00 164.59-128.79L164.59-128.79L164.59-128.79Q167.07-125.58 167.07-121.45L167.07-121.45ZM325.97-87.39L325.97-76.56L325.97-76.56Q325.97-68.39 323.95-61.96L323.95-61.96L323.95-61.96Q321.93-55.54 318.49-50.63L318.49-50.63L318.49-50.63Q315.05-45.71 310.55-42.23L310.55-42.23L310.55-42.23Q306.05-38.74 301.14-36.54L301.14-36.54L301.14-36.54Q296.23-34.33 291.23-33.32L291.23-33.32L291.23-33.32Q286.22-32.31 281.82-32.31L281.82-32.31L227.84-32.31L227.84-56.18L281.82-56.18L281.82-56.18Q286.41-56.55 290.12-58.06L290.12-58.06L290.12-58.06Q293.84-59.58 296.50-62.15L296.50-62.15L296.50-62.15Q299.17-64.72 300.63-68.34L300.63-68.34L300.63-68.34Q302.10-71.97 302.10-76.56L302.10-76.56L302.10-87.39L302.10-87.39Q301.64-91.89 300.18-95.65L300.18-95.65L300.18-95.65Q298.71-99.42 296.18-102.08L296.18-102.08L296.18-102.08Q293.66-104.74 290.08-106.25L290.08-106.25L290.08-106.25Q286.50-107.77 281.82-107.77L281.82-107.77L228.02-107.77L228.02-107.77Q223.25-107.77 220.77-105.29L220.77-105.29L220.77-105.29Q218.29-102.81 218.29-98.13L218.29-98.13L218.29 0L194.43 0L194.43-98.13L194.43-98.13Q194.43-107.31 197.78-113.74L197.78-113.74L197.78-113.74Q201.13-120.16 206.13-124.11L206.13-124.11L206.13-124.11Q211.13-128.06 217.01-129.85L217.01-129.85L217.01-129.85Q222.88-131.64 227.84-131.64L227.84-131.64L281.82-131.64L281.82-131.64Q289.89-131.64 296.32-129.57L296.32-129.57L296.32-129.57Q302.75-127.51 307.66-124.06L307.66-124.06L307.66-124.06Q312.57-120.62 316.01-116.12L316.01-116.12L316.01-116.12Q319.45-111.63 321.70-106.71L321.70-106.71L321.70-106.71Q323.95-101.80 324.96-96.80L324.96-96.80L324.96-96.80Q325.97-91.80 325.97-87.39L325.97-87.39Z" fill="#7b3bb3"></path></g></g><style>text {
  font-size: 64px;
  font-family: Arial Black;
  dominant-baseline: central;
  text-anchor: middle;
}</style></svg>