<svg width="501.0575073242187px" height="366.587451171875px" xmlns="http://www.w3.org/2000/svg" viewBox="-0.5287536621093523 -108.2937255859375 501.0575073242187 366.587451171875" style="background: rgba(0, 0, 0, 0);" preserveAspectRatio="xMidYMid"><defs><linearGradient id="editing-gradient-gradient" x1="0.6294095225512604" x2="0.3705904774487396" y1="0.017037086855465844" y2="0.9829629131445341" gradientUnits="objectBoundingBox"><stop offset="0" stop-color="#f0f"></stop><stop offset="1" stop-color="#0ff"></stop></linearGradient></defs><g><g transform="translate(69.23500061035156, 146.9950714111328)"><path d="M177.73-129.20L177.73 0L152.15 0L152.15-83.40L107.13-4.20L107.13-4.20Q105.47-1.17 102.49 0.39L102.49 0.39L102.49 0.39Q99.51 1.95 96.09 1.95L96.09 1.95L96.09 1.95Q92.77 1.95 89.89 0.39L89.89 0.39L89.89 0.39Q87.01-1.17 85.35-4.20L85.35-4.20L40.14-83.40L40.14 0L14.75 0L14.75-129.20L14.75-129.20Q14.75-133.59 17.33-137.01L17.33-137.01L17.33-137.01Q19.92-140.43 24.12-141.60L24.12-141.60L24.12-141.60Q26.17-142.09 28.22-141.94L28.22-141.94L28.22-141.94Q30.27-141.80 32.18-141.06L32.18-141.06L32.18-141.06Q34.08-140.33 35.64-139.01L35.64-139.01L35.64-139.01Q37.21-137.70 38.28-135.84L38.28-135.84L96.09-35.35L153.91-135.84L153.91-135.84Q156.15-139.55 160.11-141.11L160.11-141.11L160.11-141.11Q164.06-142.68 168.36-141.60L168.36-141.60L168.36-141.60Q172.46-140.43 175.10-137.01L175.10-137.01L175.10-137.01Q177.73-133.59 177.73-129.20L177.73-129.20ZM346.78-92.97L346.78-81.45L346.78-81.45Q346.78-72.75 344.63-65.92L344.63-65.92L344.63-65.92Q342.48-59.08 338.82-53.86L338.82-53.86L338.82-53.86Q335.16-48.63 330.37-44.92L330.37-44.92L330.37-44.92Q325.59-41.21 320.36-38.87L320.36-38.87L320.36-38.87Q315.14-36.52 309.81-35.45L309.81-35.45L309.81-35.45Q304.49-34.38 299.80-34.38L299.80-34.38L242.38-34.38L242.38-59.77L299.80-59.77L299.80-59.77Q304.69-60.16 308.64-61.77L308.64-61.77L308.64-61.77Q312.60-63.38 315.43-66.11L315.43-66.11L315.43-66.11Q318.26-68.85 319.82-72.71L319.82-72.71L319.82-72.71Q321.39-76.56 321.39-81.45L321.39-81.45L321.39-92.97L321.39-92.97Q320.90-97.75 319.34-101.76L319.34-101.76L319.34-101.76Q317.77-105.76 315.09-108.59L315.09-108.59L315.09-108.59Q312.40-111.43 308.59-113.04L308.59-113.04L308.59-113.04Q304.79-114.65 299.80-114.65L299.80-114.65L242.58-114.65L242.58-114.65Q237.50-114.65 234.86-112.01L234.86-112.01L234.86-112.01Q232.23-109.38 232.23-104.39L232.23-104.39L232.23 0L206.84 0L206.84-104.39L206.84-104.39Q206.84-114.16 210.40-121.00L210.40-121.00L210.40-121.00Q213.96-127.83 219.29-132.03L219.29-132.03L219.29-132.03Q224.61-136.23 230.86-138.13L230.86-138.13L230.86-138.13Q237.11-140.04 242.38-140.04L242.38-140.04L299.80-140.04L299.80-140.04Q308.40-140.04 315.23-137.84L315.23-137.84L315.23-137.84Q322.07-135.64 327.29-131.98L327.29-131.98L327.29-131.98Q332.52-128.32 336.18-123.54L336.18-123.54L336.18-123.54Q339.84-118.75 342.24-113.53L342.24-113.53L342.24-113.53Q344.63-108.30 345.70-102.98L345.70-102.98L345.70-102.98Q346.78-97.66 346.78-92.97L346.78-92.97Z" fill="url(#editing-gradient-gradient)"></path></g></g><style>text {
  font-size: 64px;
  font-family: Arial Black;
  dominant-baseline: central;
  text-anchor: middle;
}</style></svg>