<svg version="1.1" xmlns="http://www.w3.org/2000/svg" viewBox="0 0 250 250"><desc>Created with Snap</desc><defs></defs><g transform="matrix(0.0361,0,0,0.0361,10.3997,180.6532)"><rect x="-287.7439987182617" y="-3608.0642456054684" width="6917.12021484375" height="4136.448266601562" fill="#7209b7" style=""></rect><g transform="matrix(27.1294,0,0,27.1294,1800.7804,-3545.029)"><title>mandala 1</title><desc>Created with Sketch.</desc><g stroke="none" stroke-width="1" fill="none" fill-rule="evenodd"><g fill="#000000"><path d="M50,42 C52.7614237,42 55,39.7800786 55,37.0416667 C55,34.3032548 52.7614237,25 50,25 C47.2385763,25 45,34.3032548 45,37.0416667 C45,39.7800786 47.2385763,42 50,42 Z" fill="#ffffff" style=""></path><path d="M50,75.1387841 C52.7614237,75.1387841 55,72.9188626 55,70.1804507 C55,67.4420389 52.7614237,58.1387841 50,58.1387841 C47.2385763,58.1387841 45,67.4420389 45,70.1804507 C45,72.9188626 47.2385763,75.1387841 50,75.1387841 Z" transform="translate(50.000000, 66.638784) rotate(-180.000000) translate(-50.000000, -66.638784) " fill="#ffffff" style=""></path><path d="M50,75.1387841 C52.7614237,75.1387841 55,72.9188626 55,70.1804507 C55,67.4420389 52.7614237,58.1387841 50,58.1387841 C47.2385763,58.1387841 45,67.4420389 45,70.1804507 C45,72.9188626 47.2385763,75.1387841 50,75.1387841 Z" transform="translate(50.000000, 66.638784) rotate(-180.000000) translate(-50.000000, -66.638784) " fill="#ffffff" style=""></path><path d="M50.5,20.9 C52.4329966,20.9 54,19.346055 54,17.4291667 C54,15.5122783 52.4329966,9 50.5,9 C48.5670034,9 47,15.5122783 47,17.4291667 C47,19.346055 48.5670034,20.9 50.5,20.9 Z" fill="#ffffff" style=""></path><path d="M50.5,91.0387841 C52.4329966,91.0387841 54,89.4848391 54,87.5679507 C54,85.6510624 52.4329966,79.1387841 50.5,79.1387841 C48.5670034,79.1387841 47,85.6510624 47,87.5679507 C47,89.4848391 48.5670034,91.0387841 50.5,91.0387841 Z" transform="translate(50.500000, 85.088784) rotate(-180.000000) translate(-50.500000, -85.088784) " fill="#ffffff" style=""></path><path d="M50.5,19.1 C51.3284271,19.1 52,18.4340236 52,17.6125 C52,16.7909764 51.3284271,14 50.5,14 C49.6715729,14 49,16.7909764 49,17.6125 C49,18.4340236 49.6715729,19.1 50.5,19.1 Z" fill="#ffffff" style=""></path><path d="M49.9117647,39.1 C51.3899386,39.1 52.5882353,37.9116891 52.5882353,36.4458333 C52.5882353,34.9799776 51.3899386,30 49.9117647,30 C48.4335908,30 47.2352941,34.9799776 47.2352941,36.4458333 C47.2352941,37.9116891 48.4335908,39.1 49.9117647,39.1 Z" fill="#ffffff" style=""></path><path d="M49.9117647,70.1 C51.3899386,70.1 52.5882353,68.9116891 52.5882353,67.4458333 C52.5882353,65.9799776 51.3899386,61 49.9117647,61 C48.4335908,61 47.2352941,65.9799776 47.2352941,67.4458333 C47.2352941,68.9116891 48.4335908,70.1 49.9117647,70.1 Z" transform="translate(49.911765, 65.550000) rotate(-180.000000) translate(-49.911765, -65.550000) " fill="#ffffff" style=""></path><path d="M36.5879513,30.9125766 C37.8958698,30.9125766 38.9561472,29.8611348 38.9561472,28.5641156 C38.9561472,27.2670964 37.8958698,22.8607104 36.5879513,22.8607104 C35.2800328,22.8607104 34.2197554,27.2670964 34.2197554,28.5641156 C34.2197554,29.8611348 35.2800328,30.9125766 36.5879513,30.9125766 Z" transform="translate(36.587951, 26.886644) rotate(-390.000000) translate(-36.587951, -26.886644) " fill="#ffffff" style=""></path><path d="M64.1610014,77.9044189 C65.500176,77.9044189 66.5857915,76.8278502 66.5857915,75.4998354 C66.5857915,74.1718206 65.500176,69.6601326 64.1610014,69.6601326 C62.8218268,69.6601326 61.7362113,74.1718206 61.7362113,75.4998354 C61.7362113,76.8278502 62.8218268,77.9044189 64.1610014,77.9044189 Z" transform="translate(64.161001, 73.782276) rotate(-570.000000) translate(-64.161001, -73.782276) " fill="#ffffff" style=""></path><path d="M63.6612228,30.8200849 C64.9691413,30.8200849 66.0294187,29.7686431 66.0294187,28.4716239 C66.0294187,27.1746047 64.9691413,22.7682187 63.6612228,22.7682187 C62.3533043,22.7682187 61.2930269,27.1746047 61.2930269,28.4716239 C61.2930269,29.7686431 62.3533043,30.8200849 63.6612228,30.8200849 Z" transform="translate(63.661223, 26.794152) rotate(-690.000000) translate(-63.661223, -26.794152) " fill="#ffffff" style=""></path><path d="M36.404323,77.5139682 C37.7434976,77.5139682 38.8291131,76.4373995 38.8291131,75.1093847 C38.8291131,73.7813699 37.7434976,69.2696819 36.404323,69.2696819 C35.0651485,69.2696819 33.979533,73.7813699 33.979533,75.1093847 C33.979533,76.4373995 35.0651485,77.5139682 36.404323,77.5139682 Z" transform="translate(36.404323, 73.391825) rotate(-870.000000) translate(-36.404323, -73.391825) " fill="#ffffff" style=""></path><path d="M23.3895219,54.1148785 C24.6974403,54.1148785 25.7577178,53.0634367 25.7577178,51.7664175 C25.7577178,50.4693984 24.6974403,46.0630124 23.3895219,46.0630124 C22.0816034,46.0630124 21.0213259,50.4693984 21.0213259,51.7664175 C21.0213259,53.0634367 22.0816034,54.1148785 23.3895219,54.1148785 Z" transform="translate(23.389522, 50.088945) rotate(-450.000000) translate(-23.389522, -50.088945) " fill="#ffffff" style=""></path><path d="M77.3727405,54.5174195 C78.7119151,54.5174195 79.7975306,53.4408508 79.7975306,52.112836 C79.7975306,50.7848212 78.7119151,46.2731332 77.3727405,46.2731332 C76.0335659,46.2731332 74.9479504,50.7848212 74.9479504,52.112836 C74.9479504,53.4408508 76.0335659,54.5174195 77.3727405,54.5174195 Z" transform="translate(77.372741, 50.395276) rotate(-630.000000) translate(-77.372741, -50.395276) " fill="#ffffff" style=""></path><path d="M36.3962979,46.4994902 C37.8744718,46.4994902 39.0727685,45.3111793 39.0727685,43.8453236 C39.0727685,42.3794678 37.8744718,37.3994902 36.3962979,37.3994902 C34.9181241,37.3994902 33.7198274,42.3794678 33.7198274,43.8453236 C33.7198274,45.3111793 34.9181241,46.4994902 36.3962979,46.4994902 Z" transform="translate(36.396298, 41.949490) rotate(-60.000000) translate(-36.396298, -41.949490) " fill="#ffffff" style=""></path><path d="M63.2430855,61.9994902 C64.7212593,61.9994902 65.919556,60.8111793 65.919556,59.3453236 C65.919556,57.8794678 64.7212593,52.8994902 63.2430855,52.8994902 C61.7649116,52.8994902 60.5666149,57.8794678 60.5666149,59.3453236 C60.5666149,60.8111793 61.7649116,61.9994902 63.2430855,61.9994902 Z" transform="translate(63.243085, 57.449490) rotate(-240.000000) translate(-63.243085, -57.449490) " fill="#ffffff" style=""></path><path d="M62.7689875,46.998586 C64.2471614,46.998586 65.4454581,45.8102751 65.4454581,44.3444193 C65.4454581,42.8785636 64.2471614,37.898586 62.7689875,37.898586 C61.2908137,37.898586 60.092517,42.8785636 60.092517,44.3444193 C60.092517,45.8102751 61.2908137,46.998586 62.7689875,46.998586 Z" transform="translate(62.768988, 42.448586) rotate(-300.000000) translate(-62.768988, -42.448586) " fill="#ffffff" style=""></path><path d="M36.2786509,62.1428915 C37.7568248,62.1428915 38.9551215,60.9545806 38.9551215,59.4887249 C38.9551215,58.0228691 37.7568248,53.0428915 36.2786509,53.0428915 C34.800477,53.0428915 33.6021803,58.0228691 33.6021803,59.4887249 C33.6021803,60.9545806 34.800477,62.1428915 36.2786509,62.1428915 Z" transform="translate(36.278651, 57.592892) rotate(-480.000000) translate(-36.278651, -57.592892) " fill="#ffffff" style=""></path><path d="M50.5,86.1 C51.3284271,86.1 52,85.4340236 52,84.6125 C52,83.7909764 51.3284271,81 50.5,81 C49.6715729,81 49,83.7909764 49,84.6125 C49,85.4340236 49.6715729,86.1 50.5,86.1 Z" transform="translate(50.500000, 83.550000) rotate(-180.000000) translate(-50.500000, -83.550000) " fill="#ffffff" style=""></path><path d="M44.7130934,23.2568182 C45.5415205,23.2568182 46.2130934,22.5908418 46.2130934,21.7693182 C46.2130934,20.9477946 45.5415205,18.1568182 44.7130934,18.1568182 C43.8846663,18.1568182 43.2130934,20.9477946 43.2130934,21.7693182 C43.2130934,22.5908418 43.8846663,23.2568182 44.7130934,23.2568182 Z" transform="translate(44.713093, 20.706818) rotate(-15.000000) translate(-44.713093, -20.706818) " fill="#ffffff" style=""></path><path d="M56.0539694,81.9738486 C56.8823966,81.9738486 57.5539694,81.3078721 57.5539694,80.4863486 C57.5539694,79.664825 56.8823966,76.8738486 56.0539694,76.8738486 C55.2255423,76.8738486 54.5539694,79.664825 54.5539694,80.4863486 C54.5539694,81.3078721 55.2255423,81.9738486 56.0539694,81.9738486 Z" transform="translate(56.053969, 79.423849) rotate(-195.000000) translate(-56.053969, -79.423849) " fill="#ffffff" style=""></path><path d="M56.2869066,23.2568182 C57.1153337,23.2568182 57.7869066,22.5908418 57.7869066,21.7693182 C57.7869066,20.9477946 57.1153337,18.1568182 56.2869066,18.1568182 C55.4584795,18.1568182 54.7869066,20.9477946 54.7869066,21.7693182 C54.7869066,22.5908418 55.4584795,23.2568182 56.2869066,23.2568182 Z" transform="translate(56.286907, 20.706818) rotate(-345.000000) translate(-56.286907, -20.706818) " fill="#ffffff" style=""></path><path d="M44.9460306,81.9738486 C45.7744577,81.9738486 46.4460306,81.3078721 46.4460306,80.4863486 C46.4460306,79.664825 45.7744577,76.8738486 44.9460306,76.8738486 C44.1176034,76.8738486 43.4460306,79.664825 43.4460306,80.4863486 C43.4460306,81.3078721 44.1176034,81.9738486 44.9460306,81.9738486 Z" transform="translate(44.946031, 79.423849) rotate(-525.000000) translate(-44.946031, -79.423849) " fill="#ffffff" style=""></path><path d="M27.4937248,33.0437248 C28.3221519,33.0437248 28.9937248,32.3777483 28.9937248,31.5562248 C28.9937248,30.7347012 28.3221519,27.9437248 27.4937248,27.9437248 C26.6652977,27.9437248 25.9937248,30.7347012 25.9937248,31.5562248 C25.9937248,32.3777483 26.6652977,33.0437248 27.4937248,33.0437248 Z" transform="translate(27.493725, 30.493725) rotate(-45.000000) translate(-27.493725, -30.493725) " fill="#ffffff" style=""></path><path d="M72.8698791,71.4198791 C73.6983062,71.4198791 74.3698791,70.7539027 74.3698791,69.9323791 C74.3698791,69.1108556 73.6983062,66.3198791 72.8698791,66.3198791 C72.041452,66.3198791 71.3698791,69.1108556 71.3698791,69.9323791 C71.3698791,70.7539027 72.041452,71.4198791 72.8698791,71.4198791 Z" transform="translate(72.869879, 68.869879) rotate(-225.000000) translate(-72.869879, -68.869879) " fill="#ffffff" style=""></path><path d="M21.7068182,42.2630934 C22.5352453,42.2630934 23.2068182,41.597117 23.2068182,40.7755934 C23.2068182,39.9540699 22.5352453,37.1630934 21.7068182,37.1630934 C20.8783911,37.1630934 20.2068182,39.9540699 20.2068182,40.7755934 C20.2068182,41.597117 20.8783911,42.2630934 21.7068182,42.2630934 Z" transform="translate(21.706818, 39.713093) rotate(-75.000000) translate(-21.706818, -39.713093) " fill="#ffffff" style=""></path><path d="M78.4238486,61.6039694 C79.2522757,61.6039694 79.9238486,60.937993 79.9238486,60.1164694 C79.9238486,59.2949459 79.2522757,56.5039694 78.4238486,56.5039694 C77.5954214,56.5039694 76.9238486,59.2949459 76.9238486,60.1164694 C76.9238486,60.937993 77.5954214,61.6039694 78.4238486,61.6039694 Z" transform="translate(78.423849, 59.053969) rotate(-255.000000) translate(-78.423849, -59.053969) " fill="#ffffff" style=""></path><path d="M20.7068182,61.8369066 C21.5352453,61.8369066 22.2068182,61.1709301 22.2068182,60.3494066 C22.2068182,59.527883 21.5352453,56.7369066 20.7068182,56.7369066 C19.8783911,56.7369066 19.2068182,59.527883 19.2068182,60.3494066 C19.2068182,61.1709301 19.8783911,61.8369066 20.7068182,61.8369066 Z" transform="translate(20.706818, 59.286907) rotate(-105.000000) translate(-20.706818, -59.286907) " fill="#ffffff" style=""></path><path d="M78.4238486,42.4960306 C79.2522757,42.4960306 79.9238486,41.8300541 79.9238486,41.0085306 C79.9238486,40.187007 79.2522757,37.3960306 78.4238486,37.3960306 C77.5954214,37.3960306 76.9238486,40.187007 76.9238486,41.0085306 C76.9238486,41.8300541 77.5954214,42.4960306 78.4238486,42.4960306 Z" transform="translate(78.423849, 39.946031) rotate(-285.000000) translate(-78.423849, -39.946031) " fill="#ffffff" style=""></path><path d="M27.4937248,72.0562752 C28.3221519,72.0562752 28.9937248,71.3902988 28.9937248,70.5687752 C28.9937248,69.7472517 28.3221519,66.9562752 27.4937248,66.9562752 C26.6652977,66.9562752 25.9937248,69.7472517 25.9937248,70.5687752 C25.9937248,71.3902988 26.6652977,72.0562752 27.4937248,72.0562752 Z" transform="translate(27.493725, 69.506275) rotate(-135.000000) translate(-27.493725, -69.506275) " fill="#ffffff" style=""></path><path d="M71.8698791,32.6801209 C72.6983062,32.6801209 73.3698791,32.0141444 73.3698791,31.1926209 C73.3698791,30.3710973 72.6983062,27.5801209 71.8698791,27.5801209 C71.041452,27.5801209 70.3698791,30.3710973 70.3698791,31.1926209 C70.3698791,32.0141444 71.041452,32.6801209 71.8698791,32.6801209 Z" transform="translate(71.869879, 30.130121) rotate(-315.000000) translate(-71.869879, -30.130121) " fill="#ffffff" style=""></path><path d="M20.0984375,35.075 C20.9268647,35.075 21.5984375,34.4090236 21.5984375,33.5875 C21.5984375,32.7659764 20.9268647,29.975 20.0984375,29.975 C19.2700104,29.975 18.5984375,32.7659764 18.5984375,33.5875 C18.5984375,34.4090236 19.2700104,35.075 20.0984375,35.075 Z" transform="translate(20.098438, 32.525000) rotate(-60.000000) translate(-20.098438, -32.525000) " fill="#ffffff" style=""></path><path d="M79.6517809,68.494943 C80.480208,68.494943 81.1517809,67.8289665 81.1517809,67.007443 C81.1517809,66.1859194 80.480208,63.394943 79.6517809,63.394943 C78.8233537,63.394943 78.1517809,66.1859194 78.1517809,67.007443 C78.1517809,67.8289665 78.8233537,68.494943 79.6517809,68.494943 Z" transform="translate(79.651781, 65.944943) rotate(-240.000000) translate(-79.651781, -65.944943) " fill="#ffffff" style=""></path><path d="M78.2185498,35.8919873 C79.0469769,35.8919873 79.7185498,35.2260109 79.7185498,34.4044873 C79.7185498,33.5829637 79.0469769,30.7919873 78.2185498,30.7919873 C77.3901226,30.7919873 76.7185498,33.5829637 76.7185498,34.4044873 C76.7185498,35.2260109 77.3901226,35.8919873 78.2185498,35.8919873 Z" transform="translate(78.218550, 33.341987) rotate(-300.000000) translate(-78.218550, -33.341987) " fill="#ffffff" style=""></path><path d="M21.4993585,68.756724 C22.3277856,68.756724 22.9993585,68.0907476 22.9993585,67.269224 C22.9993585,66.4477004 22.3277856,63.656724 21.4993585,63.656724 C20.6709314,63.656724 19.9993585,66.4477004 19.9993585,67.269224 C19.9993585,68.0907476 20.6709314,68.756724 21.4993585,68.756724 Z" transform="translate(21.499359, 66.206724) rotate(-480.000000) translate(-21.499359, -66.206724) " fill="#ffffff" style=""></path><path d="M79.5429399,38.4 C81.4759366,38.4 83.0429399,36.846055 83.0429399,34.9291667 C83.0429399,33.0122783 81.4759366,26.5 79.5429399,26.5 C77.6099433,26.5 76.0429399,33.0122783 76.0429399,34.9291667 C76.0429399,36.846055 77.6099433,38.4 79.5429399,38.4 Z" transform="translate(79.542940, 32.450000) rotate(-300.000000) translate(-79.542940, -32.450000) " fill="#ffffff" style=""></path><path d="M20.2028949,72.969392 C22.1358916,72.969392 23.7028949,71.415447 23.7028949,69.4985587 C23.7028949,67.5816704 22.1358916,61.069392 20.2028949,61.069392 C18.2698983,61.069392 16.7028949,67.5816704 16.7028949,69.4985587 C16.7028949,71.415447 18.2698983,72.969392 20.2028949,72.969392 Z" transform="translate(20.202895, 67.019392) rotate(-480.000000) translate(-20.202895, -67.019392) " fill="#ffffff" style=""></path><path d="M80.5429399,72.4 C82.4759366,72.4 84.0429399,70.846055 84.0429399,68.9291667 C84.0429399,67.0122783 82.4759366,60.5 80.5429399,60.5 C78.6099433,60.5 77.0429399,67.0122783 77.0429399,68.9291667 C77.0429399,70.846055 78.6099433,72.4 80.5429399,72.4 Z" transform="translate(80.542940, 66.450000) rotate(-240.000000) translate(-80.542940, -66.450000) " fill="#ffffff" style=""></path><path d="M19.2028949,37.830608 C21.1358916,37.830608 22.7028949,36.276663 22.7028949,34.3597746 C22.7028949,32.4428863 21.1358916,25.930608 19.2028949,25.930608 C17.2698983,25.930608 15.7028949,32.4428863 15.7028949,34.3597746 C15.7028949,36.276663 17.2698983,37.830608 19.2028949,37.830608 Z" transform="translate(19.202895, 31.880608) rotate(-420.000000) translate(-19.202895, -31.880608) " fill="#ffffff" style=""></path><path d="M64.580127,33.5 C67.3415508,33.5 69.580127,31.2800786 69.580127,28.5416667 C69.580127,25.8032548 67.3415508,16.5 64.580127,16.5 C61.8187033,16.5 59.580127,25.8032548 59.580127,28.5416667 C59.580127,31.2800786 61.8187033,33.5 64.580127,33.5 Z" transform="translate(64.580127, 25.000000) rotate(-330.000000) translate(-64.580127, -25.000000) " fill="#ffffff" style=""></path><path d="M35.580127,83.5 C38.3415508,83.5 40.580127,81.2800786 40.580127,78.5416667 C40.580127,75.8032548 38.3415508,66.5 35.580127,66.5 C32.8187033,66.5 30.580127,75.8032548 30.580127,78.5416667 C30.580127,81.2800786 32.8187033,83.5 35.580127,83.5 Z" transform="translate(35.580127, 75.000000) rotate(-510.000000) translate(-35.580127, -75.000000) " fill="#ffffff" style=""></path><path d="M35.580127,33.5 C38.3415508,33.5 40.580127,31.2800786 40.580127,28.5416667 C40.580127,25.8032548 38.3415508,16.5 35.580127,16.5 C32.8187033,16.5 30.580127,25.8032548 30.580127,28.5416667 C30.580127,31.2800786 32.8187033,33.5 35.580127,33.5 Z" transform="translate(35.580127, 25.000000) rotate(-30.000000) translate(-35.580127, -25.000000) " fill="#ffffff" style=""></path><path d="M64.580127,83.3612159 C67.3415508,83.3612159 69.580127,81.1412945 69.580127,78.4028826 C69.580127,75.6644707 67.3415508,66.3612159 64.580127,66.3612159 C61.8187033,66.3612159 59.580127,75.6644707 59.580127,78.4028826 C59.580127,81.1412945 61.8187033,83.3612159 64.580127,83.3612159 Z" transform="translate(64.580127, 74.861216) rotate(-210.000000) translate(-64.580127, -74.861216) " fill="#ffffff" style=""></path><path d="M78.5,58.6387841 C81.2614237,58.6387841 83.5,56.4188626 83.5,53.6804507 C83.5,50.9420389 81.2614237,41.6387841 78.5,41.6387841 C75.7385763,41.6387841 73.5,50.9420389 73.5,53.6804507 C73.5,56.4188626 75.7385763,58.6387841 78.5,58.6387841 Z" transform="translate(78.500000, 50.138784) rotate(-270.000000) translate(-78.500000, -50.138784) " fill="#ffffff" style=""></path><path d="M21.5,58.6387841 C24.2614237,58.6387841 26.5,56.4188626 26.5,53.6804507 C26.5,50.9420389 24.2614237,41.6387841 21.5,41.6387841 C18.7385763,41.6387841 16.5,50.9420389 16.5,53.6804507 C16.5,56.4188626 18.7385763,58.6387841 21.5,58.6387841 Z" transform="translate(21.500000, 50.138784) rotate(-450.000000) translate(-21.500000, -50.138784) " fill="#ffffff" style=""></path><path d="M63.8612159,50.2189111 C66.6226397,50.2189111 68.8612159,47.9989896 68.8612159,45.2605778 C68.8612159,42.5221659 66.6226397,33.2189111 63.8612159,33.2189111 C61.0997922,33.2189111 58.8612159,42.5221659 58.8612159,45.2605778 C58.8612159,47.9989896 61.0997922,50.2189111 63.8612159,50.2189111 Z" transform="translate(63.861216, 41.718911) rotate(-300.000000) translate(-63.861216, -41.718911) " fill="#ffffff" style=""></path><path d="M35.8612159,66.2189111 C38.6226397,66.2189111 40.8612159,63.9989896 40.8612159,61.2605778 C40.8612159,58.5221659 38.6226397,49.2189111 35.8612159,49.2189111 C33.0997922,49.2189111 30.8612159,58.5221659 30.8612159,61.2605778 C30.8612159,63.9989896 33.0997922,66.2189111 35.8612159,66.2189111 Z" transform="translate(35.861216, 57.718911) rotate(-480.000000) translate(-35.861216, -57.718911) " fill="#ffffff" style=""></path><path d="M63.8612159,66.2189111 C66.6226397,66.2189111 68.8612159,63.9989896 68.8612159,61.2605778 C68.8612159,58.5221659 66.6226397,49.2189111 63.8612159,49.2189111 C61.0997922,49.2189111 58.8612159,58.5221659 58.8612159,61.2605778 C58.8612159,63.9989896 61.0997922,66.2189111 63.8612159,66.2189111 Z" transform="translate(63.861216, 57.718911) rotate(-240.000000) translate(-63.861216, -57.718911) " fill="#ffffff" style=""></path><path d="M35.8612159,50.2189111 C38.6226397,50.2189111 40.8612159,47.9989896 40.8612159,45.2605778 C40.8612159,42.5221659 38.6226397,33.2189111 35.8612159,33.2189111 C33.0997922,33.2189111 30.8612159,42.5221659 30.8612159,45.2605778 C30.8612159,47.9989896 33.0997922,50.2189111 35.8612159,50.2189111 Z" transform="translate(35.861216, 41.718911) rotate(-420.000000) translate(-35.861216, -41.718911) " fill="#ffffff" style=""></path><circle cx="50" cy="50.1387841" r="4.5" fill="#ffffff" style=""></circle><circle transform="translate(40.794286, 13.777782) rotate(-15.000000) translate(-40.794286, -13.777782) " cx="40.7942858" cy="13.7777815" r="2.5" fill="#ffffff" style=""></circle><circle transform="translate(60.205714, 86.222218) rotate(-15.000000) translate(-60.205714, -86.222218) " cx="60.2057142" cy="86.2222185" r="2.5" fill="#ffffff" style=""></circle><circle transform="translate(60.205714, 13.777782) rotate(-345.000000) translate(-60.205714, -13.777782) " cx="60.2057142" cy="13.7777815" r="2.5" fill="#ffffff" style=""></circle><circle transform="translate(40.794286, 86.222218) rotate(-345.000000) translate(-40.794286, -86.222218) " cx="40.7942858" cy="86.2222185" r="2.5" fill="#ffffff" style=""></circle><circle transform="translate(23.983496, 23.483496) rotate(-45.000000) translate(-23.983496, -23.483496) " cx="23.9834957" cy="23.4834957" r="2.5" fill="#ffffff" style=""></circle><circle transform="translate(77.016504, 76.516504) rotate(-45.000000) translate(-77.016504, -76.516504) " cx="77.0165043" cy="76.5165043" r="2.5" fill="#ffffff" style=""></circle><circle transform="translate(14.277782, 40.294286) rotate(-75.000000) translate(-14.277782, -40.294286) " cx="14.2777815" cy="40.2942858" r="2.5" fill="#ffffff" style=""></circle><circle transform="translate(86.722218, 59.705714) rotate(-75.000000) translate(-86.722218, -59.705714) " cx="86.7222185" cy="59.7057142" r="2.5" fill="#ffffff" style=""></circle><circle transform="translate(14.277782, 59.705714) rotate(-105.000000) translate(-14.277782, -59.705714) " cx="14.2777815" cy="59.7057142" r="2.5" fill="#ffffff" style=""></circle><circle transform="translate(86.722218, 40.294286) rotate(-105.000000) translate(-86.722218, -40.294286) " cx="86.7222185" cy="40.2942858" r="2.5" fill="#ffffff" style=""></circle><circle transform="translate(23.983496, 76.516504) rotate(-135.000000) translate(-23.983496, -76.516504) " cx="23.9834957" cy="76.5165043" r="2.5" fill="#ffffff" style=""></circle><circle transform="translate(77.016504, 23.483496) rotate(-135.000000) translate(-77.016504, -23.483496) " cx="77.0165043" cy="23.4834957" r="2.5" fill="#ffffff" style=""></circle></g></g><defs></defs></g><g><g transform="matrix(1.024,0,0,-1.024,0,0)"><path d="M102 13L102 561L42 561Q32 561 25 567Q19 574 19 584Q19 594 25 601Q32 608 42 608L125 608Q141 608 151 596L402 253L652 595Q661 608 677 608L762 608Q772 608 778 601Q785 594 785 584Q785 574 778 567Q772 561 762 561L702 561L702 62Q702 47 725 47L762 47Q772 47 778 40Q785 33 785 23Q785 13 778 6Q772 0 762 0L725 0Q648 0 648 62L648 503L424 197Q416 186 402 186Q388 186 380 197L156 503L156 13Q156 3 148 -4Q140 -10 129 -10Q118 -10 110 -4Q102 3 102 13ZM1128 136L1128 155Q1062 173 1015 173Q969 173 939 155Q910 137 910 104Q910 72 929 54Q948 36 981 36Q1073 36 1128 136ZM1208 47L1247 47Q1257 47 1263 40Q1270 33 1270 23Q1270 13 1263 6Q1257 0 1247 0L1203 0Q1167 0 1147 16Q1128 32 1128 61Q1128 66 1129 72Q1076 -10 975 -10Q919 -10 887 20Q856 50 856 103Q856 157 898 187Q941 218 1004 218Q1068 218 1128 197L1128 266Q1128 314 1093 328Q1066 338 1018 338Q971 338 931 322L931 259Q931 249 923 242Q915 236 904 236Q893 236 885 242Q877 249 877 259L877 335Q877 348 890 355Q939 384 1020 384Q1101 384 1141 357Q1181 331 1181 266L1181 66Q1181 47 1208 47ZM1370 -11Q1332 -33 1332 -77Q1332 -120 1368 -145Q1405 -170 1469 -170Q1533 -170 1584 -148Q1635 -126 1635 -88Q1635 -47 1563 -39Q1538 -37 1404 -19Q1382 -15 1370 -11ZM1583 241Q1583 285 1553 312Q1524 340 1477 340Q1431 340 1401 312Q1372 285 1372 241Q1372 197 1401 169Q1431 142 1477 142Q1524 142 1553 169Q1583 197 1583 241ZM1613 514Q1629 514 1635 497Q1649 462 1649 434Q1649 376 1601 336Q1637 299 1637 237Q1637 175 1590 135Q1544 96 1477 96Q1447 96 1420 104Q1397 97 1379 82Q1362 68 1362 54Q1362 35 1412 26Q1434 23 1571 7Q1689 -8 1689 -88Q1689 -150 1618 -183Q1548 -216 1468 -216Q1389 -216 1333 -182Q1278 -147 1278 -85Q1278 -23 1331 9Q1309 22 1309 54Q1309 98 1378 125Q1319 170 1319 237Q1319 305 1363 345Q1407 386 1469 386Q1532 386 1568 363Q1595 390 1595 432Q1595 453 1588 471Q1576 501 1600 511Q1607 514 1613 514ZM1828 351L1828 13Q1828 3 1820 -4Q1812 -10 1801 -10Q1790 -10 1782 -4Q1774 3 1774 13L1774 327L1708 327Q1698 327 1691 333Q1685 340 1685 350Q1685 360 1691 367Q1698 374 1708 374L1805 374Q1828 374 1828 351ZM1772 524Q1763 534 1763 548Q1763 562 1772 572Q1781 582 1797 582Q1813 582 1822 572Q1832 562 1832 548Q1832 534 1822 524Q1813 514 1797 514Q1781 514 1772 524ZM2241 96Q2249 108 2257 108Q2266 108 2275 104Q2289 98 2289 87Q2289 77 2286 72Q2235 -10 2124 -10Q2039 -10 1988 47Q1937 105 1937 189Q1937 273 1990 328Q2044 384 2123 384Q2203 384 2262 347Q2274 339 2274 328L2274 244Q2274 234 2266 227Q2258 221 2247 221Q2236 221 2228 227Q2220 234 2220 244L2220 315Q2180 338 2124 338Q2068 338 2029 296Q1990 254 1990 187Q1990 121 2027 78Q2065 36 2124 36Q2202 36 2241 96ZM2647 13L2647 561L2588 561Q2578 561 2571 567Q2565 574 2565 584Q2565 594 2571 601Q2578 608 2588 608L2902 608Q3120 608 3120 411Q3120 215 2902 215L2701 215L2701 13Q2701 3 2693 -4Q2685 -10 2674 -10Q2663 -10 2655 -4Q2647 3 2647 13ZM2902 561L2701 561L2701 261L2902 261Q3066 261 3066 411Q3066 561 2902 561ZM3494 220Q3491 274 3462 306Q3434 338 3380 338Q3327 338 3291 305Q3255 273 3246 220L3494 220ZM3496 96Q3503 108 3512 108Q3521 108 3530 103Q3539 99 3542 89Q3546 80 3541 72Q3490 -10 3379 -10Q3291 -10 3240 46Q3190 103 3190 189Q3190 275 3242 329Q3294 384 3379 384Q3464 384 3505 333Q3547 282 3547 197Q3547 174 3521 174L3244 173Q3248 111 3284 73Q3321 36 3379 36Q3457 36 3496 96ZM3902 136L3902 155Q3836 173 3789 173Q3743 173 3713 155Q3684 137 3684 104Q3684 72 3703 54Q3722 36 3755 36Q3847 36 3902 136ZM3982 47L4021 47Q4031 47 4037 40Q4044 33 4044 23Q4044 13 4037 6Q4031 0 4021 0L3977 0Q3941 0 3921 16Q3902 32 3902 61Q3902 66 3903 72Q3850 -10 3749 -10Q3693 -10 3661 20Q3630 50 3630 103Q3630 157 3672 187Q3715 218 3778 218Q3842 218 3902 197L3902 266Q3902 314 3867 328Q3840 338 3792 338Q3745 338 3705 322L3705 259Q3705 249 3697 242Q3689 236 3678 236Q3667 236 3659 242Q3651 249 3651 259L3651 335Q3651 348 3664 355Q3713 384 3794 384Q3875 384 3915 357Q3955 331 3955 266L3955 66Q3955 47 3982 47ZM4384 96Q4392 108 4400 108Q4409 108 4418 104Q4432 98 4432 87Q4432 77 4429 72Q4378 -10 4267 -10Q4182 -10 4131 47Q4080 105 4080 189Q4080 273 4133 328Q4187 384 4266 384Q4346 384 4405 347Q4417 339 4417 328L4417 244Q4417 234 4409 227Q4401 221 4390 221Q4379 221 4371 227Q4363 234 4363 244L4363 315Q4323 338 4267 338Q4211 338 4172 296Q4133 254 4133 187Q4133 121 4170 78Q4208 36 4267 36Q4345 36 4384 96ZM4701 36Q4762 36 4800 78Q4839 120 4839 186Q4839 253 4800 295Q4762 338 4701 338Q4640 338 4601 295Q4563 253 4563 186Q4563 120 4601 78Q4640 36 4701 36ZM4562 45Q4509 101 4509 187Q4509 273 4563 328Q4617 384 4701 384Q4785 384 4838 328Q4892 273 4892 186Q4892 100 4838 45Q4785 -10 4700 -10Q4616 -10 4562 45ZM5279 96Q5287 108 5295 108Q5304 108 5313 104Q5327 98 5327 87Q5327 77 5324 72Q5273 -10 5162 -10Q5077 -10 5026 47Q4975 105 4975 189Q4975 273 5028 328Q5082 384 5161 384Q5241 384 5300 347Q5312 339 5312 328L5312 244Q5312 234 5304 227Q5296 221 5285 221Q5274 221 5266 227Q5258 234 5258 244L5258 315Q5218 338 5162 338Q5106 338 5067 296Q5028 254 5028 187Q5028 121 5065 78Q5103 36 5162 36Q5240 36 5279 96ZM5484 242L5484 212Q5528 205 5574 205Q5620 205 5659 223Q5699 242 5699 283Q5699 340 5630 340Q5537 340 5484 242ZM5767 36Q5777 36 5783 29Q5790 23 5790 13Q5790 3 5783 -4Q5777 -10 5767 -10Q5678 -10 5604 38Q5531 87 5484 160L5484 13Q5484 3 5476 -4Q5468 -10 5457 -10Q5446 -10 5438 -4Q5430 3 5430 13L5430 703L5364 703Q5354 703 5347 709Q5341 716 5341 726Q5341 736 5347 743Q5354 750 5364 750L5457 750Q5467 750 5475 743Q5484 736 5484 726L5484 307Q5542 386 5630 386Q5687 386 5720 359Q5753 333 5753 286Q5753 239 5723 210Q5674 163 5585 163Q5552 163 5526 170Q5569 113 5634 74Q5700 36 5767 36ZM5852 39L5852 120Q5852 130 5860 136Q5868 143 5879 143Q5890 143 5898 136Q5906 130 5906 120L5906 52Q5954 36 6006 36Q6120 36 6120 100Q6120 148 6013 171Q6008 172 5991 176Q5974 180 5963 182Q5952 185 5926 194Q5901 204 5890 214Q5860 241 5860 280Q5860 320 5886 344Q5913 369 5945 376Q5977 384 6015 384Q6085 384 6144 357Q6162 349 6162 335L6162 258Q6162 248 6154 241Q6146 235 6135 235Q6124 235 6116 241Q6108 248 6108 258L6108 322Q6068 338 6015 338Q5913 338 5913 280Q5913 259 5926 251Q5940 243 5946 239Q5953 235 5970 231Q5994 225 6019 220Q6044 215 6060 211Q6076 207 6100 197Q6125 188 6139 176Q6174 148 6174 103Q6174 58 6144 31Q6115 5 6080 -3Q6046 -10 6006 -10Q5927 -10 5870 16Q5852 24 5852 39Z" fill="#ffffff" style=""></path></g></g></g></svg>