<svg version="1.1" xmlns="http://www.w3.org/2000/svg" viewBox="0 0 250 250"><desc>Created with Snap</desc><defs></defs><g transform="matrix(0.0318,0,0,0.0318,9.0648,174.1555)"><g transform="matrix(27.7473,0,0,27.7473,2239.5949,-3591.0375)"><title>mandala 1</title><desc>Created with Sketch.</desc><g stroke="none" stroke-width="1" fill="none" fill-rule="evenodd"><g fill="#000000"><path d="M50,42 C52.7614237,42 55,39.7800786 55,37.0416667 C55,34.3032548 52.7614237,25 50,25 C47.2385763,25 45,34.3032548 45,37.0416667 C45,39.7800786 47.2385763,42 50,42 Z" fill="#210070" style=""></path><path d="M50,75.1387841 C52.7614237,75.1387841 55,72.9188626 55,70.1804507 C55,67.4420389 52.7614237,58.1387841 50,58.1387841 C47.2385763,58.1387841 45,67.4420389 45,70.1804507 C45,72.9188626 47.2385763,75.1387841 50,75.1387841 Z" transform="translate(50.000000, 66.638784) rotate(-180.000000) translate(-50.000000, -66.638784) " fill="#210070" style=""></path><path d="M50,75.1387841 C52.7614237,75.1387841 55,72.9188626 55,70.1804507 C55,67.4420389 52.7614237,58.1387841 50,58.1387841 C47.2385763,58.1387841 45,67.4420389 45,70.1804507 C45,72.9188626 47.2385763,75.1387841 50,75.1387841 Z" transform="translate(50.000000, 66.638784) rotate(-180.000000) translate(-50.000000, -66.638784) " fill="#210070" style=""></path><path d="M50.5,20.9 C52.4329966,20.9 54,19.346055 54,17.4291667 C54,15.5122783 52.4329966,9 50.5,9 C48.5670034,9 47,15.5122783 47,17.4291667 C47,19.346055 48.5670034,20.9 50.5,20.9 Z" fill="#210070" style=""></path><path d="M50.5,91.0387841 C52.4329966,91.0387841 54,89.4848391 54,87.5679507 C54,85.6510624 52.4329966,79.1387841 50.5,79.1387841 C48.5670034,79.1387841 47,85.6510624 47,87.5679507 C47,89.4848391 48.5670034,91.0387841 50.5,91.0387841 Z" transform="translate(50.500000, 85.088784) rotate(-180.000000) translate(-50.500000, -85.088784) " fill="#210070" style=""></path><path d="M50.5,19.1 C51.3284271,19.1 52,18.4340236 52,17.6125 C52,16.7909764 51.3284271,14 50.5,14 C49.6715729,14 49,16.7909764 49,17.6125 C49,18.4340236 49.6715729,19.1 50.5,19.1 Z" fill="#210070" style=""></path><path d="M49.9117647,39.1 C51.3899386,39.1 52.5882353,37.9116891 52.5882353,36.4458333 C52.5882353,34.9799776 51.3899386,30 49.9117647,30 C48.4335908,30 47.2352941,34.9799776 47.2352941,36.4458333 C47.2352941,37.9116891 48.4335908,39.1 49.9117647,39.1 Z" fill="#210070" style=""></path><path d="M49.9117647,70.1 C51.3899386,70.1 52.5882353,68.9116891 52.5882353,67.4458333 C52.5882353,65.9799776 51.3899386,61 49.9117647,61 C48.4335908,61 47.2352941,65.9799776 47.2352941,67.4458333 C47.2352941,68.9116891 48.4335908,70.1 49.9117647,70.1 Z" transform="translate(49.911765, 65.550000) rotate(-180.000000) translate(-49.911765, -65.550000) " fill="#210070" style=""></path><path d="M36.5879513,30.9125766 C37.8958698,30.9125766 38.9561472,29.8611348 38.9561472,28.5641156 C38.9561472,27.2670964 37.8958698,22.8607104 36.5879513,22.8607104 C35.2800328,22.8607104 34.2197554,27.2670964 34.2197554,28.5641156 C34.2197554,29.8611348 35.2800328,30.9125766 36.5879513,30.9125766 Z" transform="translate(36.587951, 26.886644) rotate(-390.000000) translate(-36.587951, -26.886644) " fill="#210070" style=""></path><path d="M64.1610014,77.9044189 C65.500176,77.9044189 66.5857915,76.8278502 66.5857915,75.4998354 C66.5857915,74.1718206 65.500176,69.6601326 64.1610014,69.6601326 C62.8218268,69.6601326 61.7362113,74.1718206 61.7362113,75.4998354 C61.7362113,76.8278502 62.8218268,77.9044189 64.1610014,77.9044189 Z" transform="translate(64.161001, 73.782276) rotate(-570.000000) translate(-64.161001, -73.782276) " fill="#210070" style=""></path><path d="M63.6612228,30.8200849 C64.9691413,30.8200849 66.0294187,29.7686431 66.0294187,28.4716239 C66.0294187,27.1746047 64.9691413,22.7682187 63.6612228,22.7682187 C62.3533043,22.7682187 61.2930269,27.1746047 61.2930269,28.4716239 C61.2930269,29.7686431 62.3533043,30.8200849 63.6612228,30.8200849 Z" transform="translate(63.661223, 26.794152) rotate(-690.000000) translate(-63.661223, -26.794152) " fill="#210070" style=""></path><path d="M36.404323,77.5139682 C37.7434976,77.5139682 38.8291131,76.4373995 38.8291131,75.1093847 C38.8291131,73.7813699 37.7434976,69.2696819 36.404323,69.2696819 C35.0651485,69.2696819 33.979533,73.7813699 33.979533,75.1093847 C33.979533,76.4373995 35.0651485,77.5139682 36.404323,77.5139682 Z" transform="translate(36.404323, 73.391825) rotate(-870.000000) translate(-36.404323, -73.391825) " fill="#210070" style=""></path><path d="M23.3895219,54.1148785 C24.6974403,54.1148785 25.7577178,53.0634367 25.7577178,51.7664175 C25.7577178,50.4693984 24.6974403,46.0630124 23.3895219,46.0630124 C22.0816034,46.0630124 21.0213259,50.4693984 21.0213259,51.7664175 C21.0213259,53.0634367 22.0816034,54.1148785 23.3895219,54.1148785 Z" transform="translate(23.389522, 50.088945) rotate(-450.000000) translate(-23.389522, -50.088945) " fill="#210070" style=""></path><path d="M77.3727405,54.5174195 C78.7119151,54.5174195 79.7975306,53.4408508 79.7975306,52.112836 C79.7975306,50.7848212 78.7119151,46.2731332 77.3727405,46.2731332 C76.0335659,46.2731332 74.9479504,50.7848212 74.9479504,52.112836 C74.9479504,53.4408508 76.0335659,54.5174195 77.3727405,54.5174195 Z" transform="translate(77.372741, 50.395276) rotate(-630.000000) translate(-77.372741, -50.395276) " fill="#210070" style=""></path><path d="M36.3962979,46.4994902 C37.8744718,46.4994902 39.0727685,45.3111793 39.0727685,43.8453236 C39.0727685,42.3794678 37.8744718,37.3994902 36.3962979,37.3994902 C34.9181241,37.3994902 33.7198274,42.3794678 33.7198274,43.8453236 C33.7198274,45.3111793 34.9181241,46.4994902 36.3962979,46.4994902 Z" transform="translate(36.396298, 41.949490) rotate(-60.000000) translate(-36.396298, -41.949490) " fill="#210070" style=""></path><path d="M63.2430855,61.9994902 C64.7212593,61.9994902 65.919556,60.8111793 65.919556,59.3453236 C65.919556,57.8794678 64.7212593,52.8994902 63.2430855,52.8994902 C61.7649116,52.8994902 60.5666149,57.8794678 60.5666149,59.3453236 C60.5666149,60.8111793 61.7649116,61.9994902 63.2430855,61.9994902 Z" transform="translate(63.243085, 57.449490) rotate(-240.000000) translate(-63.243085, -57.449490) " fill="#210070" style=""></path><path d="M62.7689875,46.998586 C64.2471614,46.998586 65.4454581,45.8102751 65.4454581,44.3444193 C65.4454581,42.8785636 64.2471614,37.898586 62.7689875,37.898586 C61.2908137,37.898586 60.092517,42.8785636 60.092517,44.3444193 C60.092517,45.8102751 61.2908137,46.998586 62.7689875,46.998586 Z" transform="translate(62.768988, 42.448586) rotate(-300.000000) translate(-62.768988, -42.448586) " fill="#210070" style=""></path><path d="M36.2786509,62.1428915 C37.7568248,62.1428915 38.9551215,60.9545806 38.9551215,59.4887249 C38.9551215,58.0228691 37.7568248,53.0428915 36.2786509,53.0428915 C34.800477,53.0428915 33.6021803,58.0228691 33.6021803,59.4887249 C33.6021803,60.9545806 34.800477,62.1428915 36.2786509,62.1428915 Z" transform="translate(36.278651, 57.592892) rotate(-480.000000) translate(-36.278651, -57.592892) " fill="#210070" style=""></path><path d="M50.5,86.1 C51.3284271,86.1 52,85.4340236 52,84.6125 C52,83.7909764 51.3284271,81 50.5,81 C49.6715729,81 49,83.7909764 49,84.6125 C49,85.4340236 49.6715729,86.1 50.5,86.1 Z" transform="translate(50.500000, 83.550000) rotate(-180.000000) translate(-50.500000, -83.550000) " fill="#210070" style=""></path><path d="M44.7130934,23.2568182 C45.5415205,23.2568182 46.2130934,22.5908418 46.2130934,21.7693182 C46.2130934,20.9477946 45.5415205,18.1568182 44.7130934,18.1568182 C43.8846663,18.1568182 43.2130934,20.9477946 43.2130934,21.7693182 C43.2130934,22.5908418 43.8846663,23.2568182 44.7130934,23.2568182 Z" transform="translate(44.713093, 20.706818) rotate(-15.000000) translate(-44.713093, -20.706818) " fill="#210070" style=""></path><path d="M56.0539694,81.9738486 C56.8823966,81.9738486 57.5539694,81.3078721 57.5539694,80.4863486 C57.5539694,79.664825 56.8823966,76.8738486 56.0539694,76.8738486 C55.2255423,76.8738486 54.5539694,79.664825 54.5539694,80.4863486 C54.5539694,81.3078721 55.2255423,81.9738486 56.0539694,81.9738486 Z" transform="translate(56.053969, 79.423849) rotate(-195.000000) translate(-56.053969, -79.423849) " fill="#210070" style=""></path><path d="M56.2869066,23.2568182 C57.1153337,23.2568182 57.7869066,22.5908418 57.7869066,21.7693182 C57.7869066,20.9477946 57.1153337,18.1568182 56.2869066,18.1568182 C55.4584795,18.1568182 54.7869066,20.9477946 54.7869066,21.7693182 C54.7869066,22.5908418 55.4584795,23.2568182 56.2869066,23.2568182 Z" transform="translate(56.286907, 20.706818) rotate(-345.000000) translate(-56.286907, -20.706818) " fill="#210070" style=""></path><path d="M44.9460306,81.9738486 C45.7744577,81.9738486 46.4460306,81.3078721 46.4460306,80.4863486 C46.4460306,79.664825 45.7744577,76.8738486 44.9460306,76.8738486 C44.1176034,76.8738486 43.4460306,79.664825 43.4460306,80.4863486 C43.4460306,81.3078721 44.1176034,81.9738486 44.9460306,81.9738486 Z" transform="translate(44.946031, 79.423849) rotate(-525.000000) translate(-44.946031, -79.423849) " fill="#210070" style=""></path><path d="M27.4937248,33.0437248 C28.3221519,33.0437248 28.9937248,32.3777483 28.9937248,31.5562248 C28.9937248,30.7347012 28.3221519,27.9437248 27.4937248,27.9437248 C26.6652977,27.9437248 25.9937248,30.7347012 25.9937248,31.5562248 C25.9937248,32.3777483 26.6652977,33.0437248 27.4937248,33.0437248 Z" transform="translate(27.493725, 30.493725) rotate(-45.000000) translate(-27.493725, -30.493725) " fill="#210070" style=""></path><path d="M72.8698791,71.4198791 C73.6983062,71.4198791 74.3698791,70.7539027 74.3698791,69.9323791 C74.3698791,69.1108556 73.6983062,66.3198791 72.8698791,66.3198791 C72.041452,66.3198791 71.3698791,69.1108556 71.3698791,69.9323791 C71.3698791,70.7539027 72.041452,71.4198791 72.8698791,71.4198791 Z" transform="translate(72.869879, 68.869879) rotate(-225.000000) translate(-72.869879, -68.869879) " fill="#210070" style=""></path><path d="M21.7068182,42.2630934 C22.5352453,42.2630934 23.2068182,41.597117 23.2068182,40.7755934 C23.2068182,39.9540699 22.5352453,37.1630934 21.7068182,37.1630934 C20.8783911,37.1630934 20.2068182,39.9540699 20.2068182,40.7755934 C20.2068182,41.597117 20.8783911,42.2630934 21.7068182,42.2630934 Z" transform="translate(21.706818, 39.713093) rotate(-75.000000) translate(-21.706818, -39.713093) " fill="#210070" style=""></path><path d="M78.4238486,61.6039694 C79.2522757,61.6039694 79.9238486,60.937993 79.9238486,60.1164694 C79.9238486,59.2949459 79.2522757,56.5039694 78.4238486,56.5039694 C77.5954214,56.5039694 76.9238486,59.2949459 76.9238486,60.1164694 C76.9238486,60.937993 77.5954214,61.6039694 78.4238486,61.6039694 Z" transform="translate(78.423849, 59.053969) rotate(-255.000000) translate(-78.423849, -59.053969) " fill="#210070" style=""></path><path d="M20.7068182,61.8369066 C21.5352453,61.8369066 22.2068182,61.1709301 22.2068182,60.3494066 C22.2068182,59.527883 21.5352453,56.7369066 20.7068182,56.7369066 C19.8783911,56.7369066 19.2068182,59.527883 19.2068182,60.3494066 C19.2068182,61.1709301 19.8783911,61.8369066 20.7068182,61.8369066 Z" transform="translate(20.706818, 59.286907) rotate(-105.000000) translate(-20.706818, -59.286907) " fill="#210070" style=""></path><path d="M78.4238486,42.4960306 C79.2522757,42.4960306 79.9238486,41.8300541 79.9238486,41.0085306 C79.9238486,40.187007 79.2522757,37.3960306 78.4238486,37.3960306 C77.5954214,37.3960306 76.9238486,40.187007 76.9238486,41.0085306 C76.9238486,41.8300541 77.5954214,42.4960306 78.4238486,42.4960306 Z" transform="translate(78.423849, 39.946031) rotate(-285.000000) translate(-78.423849, -39.946031) " fill="#210070" style=""></path><path d="M27.4937248,72.0562752 C28.3221519,72.0562752 28.9937248,71.3902988 28.9937248,70.5687752 C28.9937248,69.7472517 28.3221519,66.9562752 27.4937248,66.9562752 C26.6652977,66.9562752 25.9937248,69.7472517 25.9937248,70.5687752 C25.9937248,71.3902988 26.6652977,72.0562752 27.4937248,72.0562752 Z" transform="translate(27.493725, 69.506275) rotate(-135.000000) translate(-27.493725, -69.506275) " fill="#210070" style=""></path><path d="M71.8698791,32.6801209 C72.6983062,32.6801209 73.3698791,32.0141444 73.3698791,31.1926209 C73.3698791,30.3710973 72.6983062,27.5801209 71.8698791,27.5801209 C71.041452,27.5801209 70.3698791,30.3710973 70.3698791,31.1926209 C70.3698791,32.0141444 71.041452,32.6801209 71.8698791,32.6801209 Z" transform="translate(71.869879, 30.130121) rotate(-315.000000) translate(-71.869879, -30.130121) " fill="#210070" style=""></path><path d="M20.0984375,35.075 C20.9268647,35.075 21.5984375,34.4090236 21.5984375,33.5875 C21.5984375,32.7659764 20.9268647,29.975 20.0984375,29.975 C19.2700104,29.975 18.5984375,32.7659764 18.5984375,33.5875 C18.5984375,34.4090236 19.2700104,35.075 20.0984375,35.075 Z" transform="translate(20.098438, 32.525000) rotate(-60.000000) translate(-20.098438, -32.525000) " fill="#210070" style=""></path><path d="M79.6517809,68.494943 C80.480208,68.494943 81.1517809,67.8289665 81.1517809,67.007443 C81.1517809,66.1859194 80.480208,63.394943 79.6517809,63.394943 C78.8233537,63.394943 78.1517809,66.1859194 78.1517809,67.007443 C78.1517809,67.8289665 78.8233537,68.494943 79.6517809,68.494943 Z" transform="translate(79.651781, 65.944943) rotate(-240.000000) translate(-79.651781, -65.944943) " fill="#210070" style=""></path><path d="M78.2185498,35.8919873 C79.0469769,35.8919873 79.7185498,35.2260109 79.7185498,34.4044873 C79.7185498,33.5829637 79.0469769,30.7919873 78.2185498,30.7919873 C77.3901226,30.7919873 76.7185498,33.5829637 76.7185498,34.4044873 C76.7185498,35.2260109 77.3901226,35.8919873 78.2185498,35.8919873 Z" transform="translate(78.218550, 33.341987) rotate(-300.000000) translate(-78.218550, -33.341987) " fill="#210070" style=""></path><path d="M21.4993585,68.756724 C22.3277856,68.756724 22.9993585,68.0907476 22.9993585,67.269224 C22.9993585,66.4477004 22.3277856,63.656724 21.4993585,63.656724 C20.6709314,63.656724 19.9993585,66.4477004 19.9993585,67.269224 C19.9993585,68.0907476 20.6709314,68.756724 21.4993585,68.756724 Z" transform="translate(21.499359, 66.206724) rotate(-480.000000) translate(-21.499359, -66.206724) " fill="#210070" style=""></path><path d="M79.5429399,38.4 C81.4759366,38.4 83.0429399,36.846055 83.0429399,34.9291667 C83.0429399,33.0122783 81.4759366,26.5 79.5429399,26.5 C77.6099433,26.5 76.0429399,33.0122783 76.0429399,34.9291667 C76.0429399,36.846055 77.6099433,38.4 79.5429399,38.4 Z" transform="translate(79.542940, 32.450000) rotate(-300.000000) translate(-79.542940, -32.450000) " fill="#210070" style=""></path><path d="M20.2028949,72.969392 C22.1358916,72.969392 23.7028949,71.415447 23.7028949,69.4985587 C23.7028949,67.5816704 22.1358916,61.069392 20.2028949,61.069392 C18.2698983,61.069392 16.7028949,67.5816704 16.7028949,69.4985587 C16.7028949,71.415447 18.2698983,72.969392 20.2028949,72.969392 Z" transform="translate(20.202895, 67.019392) rotate(-480.000000) translate(-20.202895, -67.019392) " fill="#210070" style=""></path><path d="M80.5429399,72.4 C82.4759366,72.4 84.0429399,70.846055 84.0429399,68.9291667 C84.0429399,67.0122783 82.4759366,60.5 80.5429399,60.5 C78.6099433,60.5 77.0429399,67.0122783 77.0429399,68.9291667 C77.0429399,70.846055 78.6099433,72.4 80.5429399,72.4 Z" transform="translate(80.542940, 66.450000) rotate(-240.000000) translate(-80.542940, -66.450000) " fill="#210070" style=""></path><path d="M19.2028949,37.830608 C21.1358916,37.830608 22.7028949,36.276663 22.7028949,34.3597746 C22.7028949,32.4428863 21.1358916,25.930608 19.2028949,25.930608 C17.2698983,25.930608 15.7028949,32.4428863 15.7028949,34.3597746 C15.7028949,36.276663 17.2698983,37.830608 19.2028949,37.830608 Z" transform="translate(19.202895, 31.880608) rotate(-420.000000) translate(-19.202895, -31.880608) " fill="#210070" style=""></path><path d="M64.580127,33.5 C67.3415508,33.5 69.580127,31.2800786 69.580127,28.5416667 C69.580127,25.8032548 67.3415508,16.5 64.580127,16.5 C61.8187033,16.5 59.580127,25.8032548 59.580127,28.5416667 C59.580127,31.2800786 61.8187033,33.5 64.580127,33.5 Z" transform="translate(64.580127, 25.000000) rotate(-330.000000) translate(-64.580127, -25.000000) " fill="#210070" style=""></path><path d="M35.580127,83.5 C38.3415508,83.5 40.580127,81.2800786 40.580127,78.5416667 C40.580127,75.8032548 38.3415508,66.5 35.580127,66.5 C32.8187033,66.5 30.580127,75.8032548 30.580127,78.5416667 C30.580127,81.2800786 32.8187033,83.5 35.580127,83.5 Z" transform="translate(35.580127, 75.000000) rotate(-510.000000) translate(-35.580127, -75.000000) " fill="#210070" style=""></path><path d="M35.580127,33.5 C38.3415508,33.5 40.580127,31.2800786 40.580127,28.5416667 C40.580127,25.8032548 38.3415508,16.5 35.580127,16.5 C32.8187033,16.5 30.580127,25.8032548 30.580127,28.5416667 C30.580127,31.2800786 32.8187033,33.5 35.580127,33.5 Z" transform="translate(35.580127, 25.000000) rotate(-30.000000) translate(-35.580127, -25.000000) " fill="#210070" style=""></path><path d="M64.580127,83.3612159 C67.3415508,83.3612159 69.580127,81.1412945 69.580127,78.4028826 C69.580127,75.6644707 67.3415508,66.3612159 64.580127,66.3612159 C61.8187033,66.3612159 59.580127,75.6644707 59.580127,78.4028826 C59.580127,81.1412945 61.8187033,83.3612159 64.580127,83.3612159 Z" transform="translate(64.580127, 74.861216) rotate(-210.000000) translate(-64.580127, -74.861216) " fill="#210070" style=""></path><path d="M78.5,58.6387841 C81.2614237,58.6387841 83.5,56.4188626 83.5,53.6804507 C83.5,50.9420389 81.2614237,41.6387841 78.5,41.6387841 C75.7385763,41.6387841 73.5,50.9420389 73.5,53.6804507 C73.5,56.4188626 75.7385763,58.6387841 78.5,58.6387841 Z" transform="translate(78.500000, 50.138784) rotate(-270.000000) translate(-78.500000, -50.138784) " fill="#210070" style=""></path><path d="M21.5,58.6387841 C24.2614237,58.6387841 26.5,56.4188626 26.5,53.6804507 C26.5,50.9420389 24.2614237,41.6387841 21.5,41.6387841 C18.7385763,41.6387841 16.5,50.9420389 16.5,53.6804507 C16.5,56.4188626 18.7385763,58.6387841 21.5,58.6387841 Z" transform="translate(21.500000, 50.138784) rotate(-450.000000) translate(-21.500000, -50.138784) " fill="#210070" style=""></path><path d="M63.8612159,50.2189111 C66.6226397,50.2189111 68.8612159,47.9989896 68.8612159,45.2605778 C68.8612159,42.5221659 66.6226397,33.2189111 63.8612159,33.2189111 C61.0997922,33.2189111 58.8612159,42.5221659 58.8612159,45.2605778 C58.8612159,47.9989896 61.0997922,50.2189111 63.8612159,50.2189111 Z" transform="translate(63.861216, 41.718911) rotate(-300.000000) translate(-63.861216, -41.718911) " fill="#210070" style=""></path><path d="M35.8612159,66.2189111 C38.6226397,66.2189111 40.8612159,63.9989896 40.8612159,61.2605778 C40.8612159,58.5221659 38.6226397,49.2189111 35.8612159,49.2189111 C33.0997922,49.2189111 30.8612159,58.5221659 30.8612159,61.2605778 C30.8612159,63.9989896 33.0997922,66.2189111 35.8612159,66.2189111 Z" transform="translate(35.861216, 57.718911) rotate(-480.000000) translate(-35.861216, -57.718911) " fill="#210070" style=""></path><path d="M63.8612159,66.2189111 C66.6226397,66.2189111 68.8612159,63.9989896 68.8612159,61.2605778 C68.8612159,58.5221659 66.6226397,49.2189111 63.8612159,49.2189111 C61.0997922,49.2189111 58.8612159,58.5221659 58.8612159,61.2605778 C58.8612159,63.9989896 61.0997922,66.2189111 63.8612159,66.2189111 Z" transform="translate(63.861216, 57.718911) rotate(-240.000000) translate(-63.861216, -57.718911) " fill="#210070" style=""></path><path d="M35.8612159,50.2189111 C38.6226397,50.2189111 40.8612159,47.9989896 40.8612159,45.2605778 C40.8612159,42.5221659 38.6226397,33.2189111 35.8612159,33.2189111 C33.0997922,33.2189111 30.8612159,42.5221659 30.8612159,45.2605778 C30.8612159,47.9989896 33.0997922,50.2189111 35.8612159,50.2189111 Z" transform="translate(35.861216, 41.718911) rotate(-420.000000) translate(-35.861216, -41.718911) " fill="#210070" style=""></path><circle cx="50" cy="50.1387841" r="4.5" fill="#210070" style=""></circle><circle transform="translate(40.794286, 13.777782) rotate(-15.000000) translate(-40.794286, -13.777782) " cx="40.7942858" cy="13.7777815" r="2.5" fill="#210070" style=""></circle><circle transform="translate(60.205714, 86.222218) rotate(-15.000000) translate(-60.205714, -86.222218) " cx="60.2057142" cy="86.2222185" r="2.5" fill="#210070" style=""></circle><circle transform="translate(60.205714, 13.777782) rotate(-345.000000) translate(-60.205714, -13.777782) " cx="60.2057142" cy="13.7777815" r="2.5" fill="#210070" style=""></circle><circle transform="translate(40.794286, 86.222218) rotate(-345.000000) translate(-40.794286, -86.222218) " cx="40.7942858" cy="86.2222185" r="2.5" fill="#210070" style=""></circle><circle transform="translate(23.983496, 23.483496) rotate(-45.000000) translate(-23.983496, -23.483496) " cx="23.9834957" cy="23.4834957" r="2.5" fill="#210070" style=""></circle><circle transform="translate(77.016504, 76.516504) rotate(-45.000000) translate(-77.016504, -76.516504) " cx="77.0165043" cy="76.5165043" r="2.5" fill="#210070" style=""></circle><circle transform="translate(14.277782, 40.294286) rotate(-75.000000) translate(-14.277782, -40.294286) " cx="14.2777815" cy="40.2942858" r="2.5" fill="#210070" style=""></circle><circle transform="translate(86.722218, 59.705714) rotate(-75.000000) translate(-86.722218, -59.705714) " cx="86.7222185" cy="59.7057142" r="2.5" fill="#210070" style=""></circle><circle transform="translate(14.277782, 59.705714) rotate(-105.000000) translate(-14.277782, -59.705714) " cx="14.2777815" cy="59.7057142" r="2.5" fill="#210070" style=""></circle><circle transform="translate(86.722218, 40.294286) rotate(-105.000000) translate(-86.722218, -40.294286) " cx="86.7222185" cy="40.2942858" r="2.5" fill="#210070" style=""></circle><circle transform="translate(23.983496, 76.516504) rotate(-135.000000) translate(-23.983496, -76.516504) " cx="23.9834957" cy="76.5165043" r="2.5" fill="#210070" style=""></circle><circle transform="translate(77.016504, 23.483496) rotate(-135.000000) translate(-77.016504, -23.483496) " cx="77.0165043" cy="23.4834957" r="2.5" fill="#210070" style=""></circle></g></g><defs></defs></g><g><g transform="matrix(1.024,0,0,-1.024,0,0)"><path d="M922 -2L921 -6Q914 -6 898 -5Q882 -4 865 -3Q848 -2 832 -1Q816 0 809 0L750 0Q743 0 727 -1Q711 -2 694 -3Q677 -4 661 -5Q645 -6 638 -6L635 -2L638 36L642 40L653 40Q682 40 698 49Q715 59 715 88L693 415Q691 438 690 455Q690 472 686 492Q680 474 667 441Q654 408 637 365Q621 323 602 275Q583 227 564 179Q545 132 528 88Q512 45 500 13L418 13L243 489Q243 465 241 449Q239 434 237 410L225 246Q223 213 221 191Q220 170 219 155Q219 140 219 129Q219 118 219 107Q219 78 225 67Q232 56 240 50Q248 42 258 41Q269 40 285 40L289 36L292 -2L290 -6Q283 -6 269 -5Q256 -4 242 -3Q228 -2 214 -1Q201 0 194 0L135 0Q128 0 112 -1Q97 -2 79 -3Q62 -4 46 -5Q31 -6 24 -6L22 -2L25 36L31 40Q46 40 60 41Q74 43 84 50Q92 57 100 68Q108 79 113 107Q115 119 118 140Q121 161 125 211L139 394Q142 429 143 453Q145 477 145 494Q146 511 146 523Q147 535 147 547Q147 576 138 587Q130 598 122 604Q113 612 99 613Q85 614 69 614L64 618L61 656L63 660Q70 660 86 659Q102 658 119 657Q136 656 152 655Q168 654 175 654L252 654Q259 654 270 655Q282 656 292 658L297 655Q298 641 304 616Q311 591 320 561Q330 531 342 497Q354 464 366 432L429 270Q440 243 451 213Q462 183 471 156Q474 160 487 191Q500 222 518 268Q536 314 556 369Q577 425 595 479Q614 533 627 579Q641 626 645 654L650 658Q658 656 667 655Q676 654 684 654L770 654Q777 654 793 655Q809 656 826 657Q843 658 859 659Q875 660 882 660L884 656L881 618L876 614Q861 614 846 612Q832 611 823 604Q815 598 806 586Q798 574 798 547Q798 533 798 521Q798 509 799 493Q800 477 801 454Q803 431 806 395L818 251Q821 215 823 192Q825 170 826 155Q828 140 829 129Q830 119 832 107Q836 78 844 67Q852 56 860 50Q869 42 883 41Q898 40 914 40L919 36L922 -2ZM1263 -3L1257 7Q1260 16 1261 33Q1263 50 1266 64L1265 67Q1253 52 1237 38Q1222 24 1203 13Q1184 2 1162 -5Q1141 -11 1117 -11Q1081 -11 1054 0Q1027 11 1009 29Q991 47 981 71Q972 95 972 121Q972 160 989 189Q1006 218 1034 236Q1060 253 1095 262Q1130 272 1163 277Q1196 282 1223 283Q1250 285 1259 285L1273 285Q1272 316 1269 333Q1266 351 1261 363Q1252 383 1231 391Q1211 400 1183 400Q1166 400 1146 397Q1127 395 1110 388Q1093 381 1080 368Q1068 356 1066 336L1062 333L1030 333L1021 427L1024 433Q1030 439 1047 446Q1064 453 1088 459Q1112 466 1140 470Q1169 475 1198 475Q1237 475 1271 465Q1305 456 1329 437Q1354 418 1368 389Q1382 361 1382 323Q1382 282 1381 253Q1381 224 1380 199Q1379 174 1378 150Q1378 127 1378 98Q1380 75 1383 65Q1386 55 1393 49Q1401 41 1417 39Q1434 38 1448 38L1451 34L1453 0L1452 -4Q1435 -2 1413 -1Q1391 0 1372 0Q1344 0 1316 -1Q1288 -1 1263 -3ZM1257 115Q1260 120 1263 127Q1267 134 1268 144L1273 229L1264 229Q1233 229 1203 225Q1173 221 1149 210Q1125 199 1110 179Q1095 159 1095 127Q1095 100 1108 84Q1122 68 1145 68Q1162 68 1179 72Q1197 77 1212 84Q1227 91 1239 99Q1251 108 1257 115ZM1599 132L1599 136Q1548 156 1525 199Q1502 242 1502 294Q1502 331 1515 364Q1528 397 1552 421Q1577 446 1611 460Q1646 474 1690 474Q1716 474 1741 469Q1767 464 1786 455Q1828 456 1864 460Q1901 464 1933 473L1938 469L1931 394L1926 389L1851 397L1850 394Q1866 376 1875 346Q1884 316 1884 289Q1884 256 1871 226Q1859 196 1835 173Q1811 151 1775 137Q1739 124 1692 124Q1686 124 1676 124Q1667 125 1662 125Q1645 118 1636 106Q1628 94 1628 86Q1628 64 1675 58L1772 48Q1805 44 1833 34Q1862 24 1883 7Q1905 -9 1917 -33Q1929 -56 1929 -87Q1929 -116 1916 -146Q1903 -175 1877 -198Q1851 -220 1805 -234Q1759 -248 1699 -248Q1645 -248 1605 -237Q1566 -225 1539 -206Q1513 -186 1500 -162Q1487 -137 1487 -111Q1487 -69 1514 -37Q1542 -4 1585 9L1586 12Q1562 21 1547 34Q1533 48 1533 68Q1533 94 1554 110Q1575 126 1599 132ZM1694 193Q1714 193 1729 201Q1745 209 1756 222Q1767 235 1772 252Q1778 270 1778 289Q1778 309 1772 329Q1766 349 1755 365Q1744 382 1727 392Q1710 403 1688 403Q1667 403 1652 393Q1637 384 1626 369Q1616 354 1611 335Q1606 316 1606 298Q1606 279 1611 260Q1617 241 1628 226Q1639 211 1655 202Q1672 193 1694 193ZM1729 -29L1662 -22Q1640 -23 1624 -30Q1608 -37 1597 -49Q1586 -60 1580 -74Q1575 -87 1575 -100Q1575 -129 1610 -148Q1645 -166 1705 -166Q1759 -166 1796 -149Q1833 -131 1833 -97Q1833 -78 1824 -66Q1815 -54 1800 -47Q1785 -39 1766 -35Q1748 -31 1729 -29ZM2242 0L2240 -4Q2233 -4 2219 -3Q2205 -2 2189 -2Q2173 -1 2159 -1Q2145 0 2138 0L2084 0Q2077 0 2062 -1Q2048 -1 2032 -2Q2017 -2 2002 -3Q1988 -4 1981 -4L1980 0L1982 34L1985 38Q2000 38 2016 39Q2032 41 2040 49Q2047 56 2050 67Q2053 78 2055 98Q2056 105 2056 112Q2057 119 2057 127Q2058 135 2058 146Q2058 157 2058 173L2058 286Q2058 305 2058 316Q2058 328 2057 336Q2057 344 2056 350Q2056 357 2055 366Q2053 376 2049 385Q2045 394 2042 397Q2032 410 2017 412Q2002 414 1986 414L1982 418L1982 452L1986 455L2037 455Q2060 455 2086 455Q2112 456 2132 459L2167 464L2173 445Q2171 441 2169 432Q2168 424 2167 414Q2167 405 2166 395Q2166 386 2166 380Q2166 372 2165 365Q2165 359 2165 350Q2165 342 2164 329Q2164 316 2164 297L2164 185Q2164 165 2164 152Q2165 140 2165 131Q2166 122 2166 114Q2167 107 2168 98Q2170 77 2172 66Q2175 56 2183 49Q2191 41 2205 39Q2220 38 2235 38L2240 33L2242 0ZM2037 613Q2037 625 2042 637Q2047 649 2056 658Q2065 668 2076 673Q2088 679 2101 679Q2126 679 2146 658Q2167 638 2167 613Q2167 600 2161 588Q2156 577 2146 568Q2137 559 2125 554Q2113 549 2101 549Q2075 549 2056 568Q2037 587 2037 613ZM2706 323L2675 323L2671 326Q2671 349 2657 363Q2644 378 2625 386Q2606 394 2584 397Q2563 400 2547 400Q2511 400 2484 386Q2457 372 2440 349Q2423 326 2414 296Q2406 266 2406 234Q2406 200 2415 169Q2425 138 2444 114Q2463 90 2492 75Q2522 61 2562 61Q2596 61 2634 68Q2672 75 2702 91L2719 67L2704 39Q2693 31 2675 22Q2658 14 2636 6Q2614 -1 2588 -6Q2563 -11 2538 -11Q2489 -11 2444 6Q2400 24 2366 55Q2333 87 2313 131Q2293 176 2293 230Q2293 285 2313 330Q2333 375 2368 407Q2403 439 2449 457Q2496 475 2549 475Q2573 475 2597 471Q2622 468 2644 463Q2667 458 2685 451Q2703 445 2714 439L2717 430L2706 323ZM3321 -2L3319 -6Q3312 -6 3296 -5Q3280 -4 3263 -3Q3246 -2 3230 -1Q3214 0 3207 0L3148 0Q3141 0 3125 -1Q3109 -2 3092 -3Q3075 -4 3059 -5Q3043 -6 3036 -6L3034 -2L3037 36L3042 40Q3054 40 3070 41Q3086 43 3095 49Q3103 55 3110 68Q3117 81 3120 107Q3120 114 3120 123Q3121 133 3121 147Q3122 161 3122 181Q3122 201 3122 231L3122 451Q3122 471 3122 496Q3122 522 3120 547Q3118 573 3110 585Q3103 598 3095 604Q3086 612 3076 613Q3067 614 3042 614L3037 618L3034 656L3036 660Q3043 660 3054 659Q3066 658 3078 657Q3091 656 3104 655Q3117 654 3128 654L3204 654Q3215 654 3229 654Q3243 655 3257 655Q3272 655 3284 655Q3296 656 3304 656Q3371 656 3417 642Q3464 629 3493 605Q3522 581 3535 547Q3549 514 3549 474Q3549 407 3525 364Q3501 321 3463 296Q3426 271 3379 261Q3333 252 3289 252L3233 252Q3233 232 3233 210Q3233 188 3233 167Q3234 147 3234 131Q3235 115 3236 107Q3238 78 3246 66Q3254 55 3260 50Q3269 42 3278 41Q3288 40 3314 40L3318 36L3321 -2ZM3271 326L3284 326Q3368 326 3404 364Q3440 402 3440 469Q3440 523 3398 549Q3357 576 3285 576L3238 576Q3235 532 3234 510Q3233 489 3233 472L3233 363Q3233 350 3234 342Q3235 335 3239 331Q3243 328 3250 327Q3258 326 3271 326ZM4052 293L4044 255L4020 237Q3966 237 3913 236Q3861 235 3806 235L3724 235Q3723 228 3723 221Q3723 215 3723 209Q3723 183 3732 157Q3741 131 3760 110Q3780 90 3810 77Q3840 65 3883 65Q3914 65 3948 73Q3983 82 4013 96L4030 89L4030 53L4020 42Q3996 23 3949 6Q3903 -11 3849 -11Q3796 -11 3752 6Q3709 24 3677 56Q3646 88 3628 132Q3611 176 3611 230Q3611 285 3629 330Q3647 375 3678 407Q3710 439 3752 457Q3795 475 3844 475Q3870 475 3902 468Q3935 461 3965 441Q3995 422 4019 386Q4043 351 4052 293ZM3845 400Q3796 400 3766 370Q3737 341 3729 302L3779 302Q3814 302 3848 303Q3882 305 3917 305Q3930 305 3936 312Q3942 320 3942 328Q3942 358 3913 379Q3884 400 3845 400ZM4400 -3L4394 7Q4397 16 4398 33Q4400 50 4403 64L4402 67Q4390 52 4374 38Q4359 24 4340 13Q4321 2 4299 -5Q4278 -11 4254 -11Q4218 -11 4191 0Q4164 11 4146 29Q4128 47 4118 71Q4109 95 4109 121Q4109 160 4126 189Q4143 218 4171 236Q4197 253 4232 262Q4267 272 4300 277Q4333 282 4360 283Q4387 285 4396 285L4410 285Q4409 316 4406 333Q4403 351 4398 363Q4389 383 4368 391Q4348 400 4320 400Q4303 400 4283 397Q4264 395 4247 388Q4230 381 4217 368Q4205 356 4203 336L4199 333L4167 333L4158 427L4161 433Q4167 439 4184 446Q4201 453 4225 459Q4249 466 4277 470Q4306 475 4335 475Q4374 475 4408 465Q4442 456 4466 437Q4491 418 4505 389Q4519 361 4519 323Q4519 282 4518 253Q4518 224 4517 199Q4516 174 4515 150Q4515 127 4515 98Q4517 75 4520 65Q4523 55 4530 49Q4538 41 4554 39Q4571 38 4585 38L4588 34L4590 0L4589 -4Q4572 -2 4550 -1Q4528 0 4509 0Q4481 0 4453 -1Q4425 -1 4400 -3ZM4394 115Q4397 120 4400 127Q4404 134 4405 144L4410 229L4401 229Q4370 229 4340 225Q4310 221 4286 210Q4262 199 4247 179Q4232 159 4232 127Q4232 100 4245 84Q4259 68 4282 68Q4299 68 4316 72Q4334 77 4349 84Q4364 91 4376 99Q4388 108 4394 115ZM5047 323L5016 323L5012 326Q5012 349 4998 363Q4985 378 4966 386Q4947 394 4925 397Q4904 400 4888 400Q4852 400 4825 386Q4798 372 4781 349Q4764 326 4755 296Q4747 266 4747 234Q4747 200 4756 169Q4766 138 4785 114Q4804 90 4833 75Q4863 61 4903 61Q4937 61 4975 68Q5013 75 5043 91L5060 67L5045 39Q5034 31 5016 22Q4999 14 4977 6Q4955 -1 4929 -6Q4904 -11 4879 -11Q4830 -11 4785 6Q4741 24 4707 55Q4674 87 4654 131Q4634 176 4634 230Q4634 285 4654 330Q4674 375 4709 407Q4744 439 4790 457Q4837 475 4890 475Q4914 475 4938 471Q4963 468 4985 463Q5008 458 5026 451Q5044 445 5055 439L5058 430L5047 323ZM5376 475Q5435 475 5481 454Q5527 434 5558 399Q5590 365 5606 320Q5623 275 5623 227Q5623 181 5608 138Q5593 95 5562 62Q5531 29 5485 9Q5439 -11 5378 -11Q5315 -11 5268 10Q5221 31 5190 65Q5160 99 5145 142Q5130 186 5130 232Q5130 281 5147 325Q5164 369 5195 402Q5227 436 5272 455Q5318 475 5376 475ZM5377 58Q5408 58 5431 72Q5455 87 5471 110Q5487 134 5494 164Q5502 195 5502 227Q5502 258 5493 289Q5485 321 5468 346Q5452 371 5428 387Q5404 403 5373 403Q5341 403 5317 388Q5294 373 5279 349Q5264 325 5256 295Q5249 265 5249 234Q5249 202 5257 171Q5266 140 5282 114Q5299 89 5323 73Q5347 58 5377 58ZM6106 323L6075 323L6071 326Q6071 349 6057 363Q6044 378 6025 386Q6006 394 5984 397Q5963 400 5947 400Q5911 400 5884 386Q5857 372 5840 349Q5823 326 5814 296Q5806 266 5806 234Q5806 200 5815 169Q5825 138 5844 114Q5863 90 5892 75Q5922 61 5962 61Q5996 61 6034 68Q6072 75 6102 91L6119 67L6104 39Q6093 31 6075 22Q6058 14 6036 6Q6014 -1 5988 -6Q5963 -11 5938 -11Q5889 -11 5844 6Q5800 24 5766 55Q5733 87 5713 131Q5693 176 5693 230Q5693 285 5713 330Q5733 375 5768 407Q5803 439 5849 457Q5896 475 5949 475Q5973 475 5997 471Q6022 468 6044 463Q6067 458 6085 451Q6103 445 6114 439L6117 430L6106 323ZM6171 694L6171 727L6175 731L6225 731Q6248 731 6274 731Q6300 732 6320 735L6356 740L6362 721Q6360 717 6358 706Q6357 696 6356 684Q6356 672 6355 661Q6355 650 6355 644Q6355 628 6354 614Q6354 600 6353 581Q6353 562 6352 535Q6352 508 6352 466L6352 275L6458 374Q6469 385 6469 395Q6469 411 6423 419L6419 423L6419 455L6423 459Q6442 457 6461 455Q6480 453 6500 453L6561 453Q6578 453 6595 455Q6612 457 6629 459L6632 455L6632 421L6627 416Q6619 414 6606 411Q6594 408 6584 402Q6569 393 6553 381Q6538 369 6522 355Q6507 341 6491 326Q6476 312 6463 300L6441 280L6571 120Q6587 100 6601 85Q6615 71 6630 61Q6645 51 6662 45Q6679 39 6702 38L6705 34L6707 0L6705 -4Q6680 -6 6650 -7Q6621 -7 6591 -7Q6569 -7 6550 6Q6531 20 6517 37L6358 233L6352 227Q6352 193 6353 157Q6354 122 6356 98Q6357 77 6360 66Q6363 56 6371 49Q6379 41 6393 39Q6408 38 6423 38L6428 33L6430 0L6428 -4Q6420 -4 6406 -3Q6392 -2 6377 -2Q6362 -1 6347 -1Q6333 0 6326 0L6272 0Q6265 0 6250 -1Q6236 -1 6220 -2Q6205 -2 6190 -3Q6176 -4 6169 -4L6168 0L6170 34L6173 38Q6189 38 6204 39Q6220 41 6228 49Q6236 56 6238 67Q6241 78 6243 98Q6244 109 6244 120Q6245 132 6245 147Q6246 162 6246 183Q6246 204 6246 234L6246 454Q6246 495 6246 523Q6246 552 6245 573Q6245 594 6244 610Q6244 626 6243 642Q6242 653 6237 661Q6233 670 6230 674Q6220 685 6205 687Q6191 690 6175 690L6171 694ZM6888 296L6959 280Q7001 270 7027 253Q7053 236 7066 216Q7080 196 7084 175Q7089 154 7089 136Q7089 104 7076 77Q7063 50 7038 30Q7014 11 6979 0Q6944 -11 6900 -11Q6854 -11 6814 -2Q6774 8 6751 21L6739 34L6754 157L6787 157L6790 153Q6790 109 6817 83Q6844 58 6897 58Q6925 58 6944 63Q6964 69 6975 77Q6987 86 6992 96Q6997 107 6997 116Q6997 123 6996 131Q6995 139 6990 147Q6985 156 6975 164Q6965 173 6946 179L6850 203Q6817 211 6796 226Q6775 241 6762 259Q6750 278 6745 299Q6741 320 6741 341Q6741 374 6754 399Q6767 425 6789 441Q6812 458 6842 466Q6872 475 6907 475Q6951 475 6988 464Q7025 454 7045 442L7058 430L7047 333L7016 333L7012 336Q7012 358 7000 372Q6989 387 6972 395Q6956 404 6938 407Q6920 411 6906 411Q6866 411 6849 394Q6832 377 6832 356Q6832 338 6843 321Q6855 304 6888 296Z" fill="#210070" style=""></path></g></g></g></svg>