<svg version="1.1" xmlns="http://www.w3.org/2000/svg" viewBox="0 0 250 250"><desc>Created with Snap</desc><defs></defs><g transform="matrix(0.0297,0,0,0.0297,6.876,169.8955)"><g transform="matrix(26.7643,0,0,26.7643,2624.082,-3491.3109)"><title>mandala 1</title><desc>Created with Sketch.</desc><g stroke="none" stroke-width="1" fill="none" fill-rule="evenodd"><g fill="#000000"><path d="M50,42 C52.7614237,42 55,39.7800786 55,37.0416667 C55,34.3032548 52.7614237,25 50,25 C47.2385763,25 45,34.3032548 45,37.0416667 C45,39.7800786 47.2385763,42 50,42 Z" fill="#603f83" style=""></path><path d="M50,75.1387841 C52.7614237,75.1387841 55,72.9188626 55,70.1804507 C55,67.4420389 52.7614237,58.1387841 50,58.1387841 C47.2385763,58.1387841 45,67.4420389 45,70.1804507 C45,72.9188626 47.2385763,75.1387841 50,75.1387841 Z" transform="translate(50.000000, 66.638784) rotate(-180.000000) translate(-50.000000, -66.638784) " fill="#603f83" style=""></path><path d="M50,75.1387841 C52.7614237,75.1387841 55,72.9188626 55,70.1804507 C55,67.4420389 52.7614237,58.1387841 50,58.1387841 C47.2385763,58.1387841 45,67.4420389 45,70.1804507 C45,72.9188626 47.2385763,75.1387841 50,75.1387841 Z" transform="translate(50.000000, 66.638784) rotate(-180.000000) translate(-50.000000, -66.638784) " fill="#603f83" style=""></path><path d="M50.5,20.9 C52.4329966,20.9 54,19.346055 54,17.4291667 C54,15.5122783 52.4329966,9 50.5,9 C48.5670034,9 47,15.5122783 47,17.4291667 C47,19.346055 48.5670034,20.9 50.5,20.9 Z" fill="#603f83" style=""></path><path d="M50.5,91.0387841 C52.4329966,91.0387841 54,89.4848391 54,87.5679507 C54,85.6510624 52.4329966,79.1387841 50.5,79.1387841 C48.5670034,79.1387841 47,85.6510624 47,87.5679507 C47,89.4848391 48.5670034,91.0387841 50.5,91.0387841 Z" transform="translate(50.500000, 85.088784) rotate(-180.000000) translate(-50.500000, -85.088784) " fill="#603f83" style=""></path><path d="M50.5,19.1 C51.3284271,19.1 52,18.4340236 52,17.6125 C52,16.7909764 51.3284271,14 50.5,14 C49.6715729,14 49,16.7909764 49,17.6125 C49,18.4340236 49.6715729,19.1 50.5,19.1 Z" fill="#603f83" style=""></path><path d="M49.9117647,39.1 C51.3899386,39.1 52.5882353,37.9116891 52.5882353,36.4458333 C52.5882353,34.9799776 51.3899386,30 49.9117647,30 C48.4335908,30 47.2352941,34.9799776 47.2352941,36.4458333 C47.2352941,37.9116891 48.4335908,39.1 49.9117647,39.1 Z" fill="#603f83" style=""></path><path d="M49.9117647,70.1 C51.3899386,70.1 52.5882353,68.9116891 52.5882353,67.4458333 C52.5882353,65.9799776 51.3899386,61 49.9117647,61 C48.4335908,61 47.2352941,65.9799776 47.2352941,67.4458333 C47.2352941,68.9116891 48.4335908,70.1 49.9117647,70.1 Z" transform="translate(49.911765, 65.550000) rotate(-180.000000) translate(-49.911765, -65.550000) " fill="#603f83" style=""></path><path d="M36.5879513,30.9125766 C37.8958698,30.9125766 38.9561472,29.8611348 38.9561472,28.5641156 C38.9561472,27.2670964 37.8958698,22.8607104 36.5879513,22.8607104 C35.2800328,22.8607104 34.2197554,27.2670964 34.2197554,28.5641156 C34.2197554,29.8611348 35.2800328,30.9125766 36.5879513,30.9125766 Z" transform="translate(36.587951, 26.886644) rotate(-390.000000) translate(-36.587951, -26.886644) " fill="#603f83" style=""></path><path d="M64.1610014,77.9044189 C65.500176,77.9044189 66.5857915,76.8278502 66.5857915,75.4998354 C66.5857915,74.1718206 65.500176,69.6601326 64.1610014,69.6601326 C62.8218268,69.6601326 61.7362113,74.1718206 61.7362113,75.4998354 C61.7362113,76.8278502 62.8218268,77.9044189 64.1610014,77.9044189 Z" transform="translate(64.161001, 73.782276) rotate(-570.000000) translate(-64.161001, -73.782276) " fill="#603f83" style=""></path><path d="M63.6612228,30.8200849 C64.9691413,30.8200849 66.0294187,29.7686431 66.0294187,28.4716239 C66.0294187,27.1746047 64.9691413,22.7682187 63.6612228,22.7682187 C62.3533043,22.7682187 61.2930269,27.1746047 61.2930269,28.4716239 C61.2930269,29.7686431 62.3533043,30.8200849 63.6612228,30.8200849 Z" transform="translate(63.661223, 26.794152) rotate(-690.000000) translate(-63.661223, -26.794152) " fill="#603f83" style=""></path><path d="M36.404323,77.5139682 C37.7434976,77.5139682 38.8291131,76.4373995 38.8291131,75.1093847 C38.8291131,73.7813699 37.7434976,69.2696819 36.404323,69.2696819 C35.0651485,69.2696819 33.979533,73.7813699 33.979533,75.1093847 C33.979533,76.4373995 35.0651485,77.5139682 36.404323,77.5139682 Z" transform="translate(36.404323, 73.391825) rotate(-870.000000) translate(-36.404323, -73.391825) " fill="#603f83" style=""></path><path d="M23.3895219,54.1148785 C24.6974403,54.1148785 25.7577178,53.0634367 25.7577178,51.7664175 C25.7577178,50.4693984 24.6974403,46.0630124 23.3895219,46.0630124 C22.0816034,46.0630124 21.0213259,50.4693984 21.0213259,51.7664175 C21.0213259,53.0634367 22.0816034,54.1148785 23.3895219,54.1148785 Z" transform="translate(23.389522, 50.088945) rotate(-450.000000) translate(-23.389522, -50.088945) " fill="#603f83" style=""></path><path d="M77.3727405,54.5174195 C78.7119151,54.5174195 79.7975306,53.4408508 79.7975306,52.112836 C79.7975306,50.7848212 78.7119151,46.2731332 77.3727405,46.2731332 C76.0335659,46.2731332 74.9479504,50.7848212 74.9479504,52.112836 C74.9479504,53.4408508 76.0335659,54.5174195 77.3727405,54.5174195 Z" transform="translate(77.372741, 50.395276) rotate(-630.000000) translate(-77.372741, -50.395276) " fill="#603f83" style=""></path><path d="M36.3962979,46.4994902 C37.8744718,46.4994902 39.0727685,45.3111793 39.0727685,43.8453236 C39.0727685,42.3794678 37.8744718,37.3994902 36.3962979,37.3994902 C34.9181241,37.3994902 33.7198274,42.3794678 33.7198274,43.8453236 C33.7198274,45.3111793 34.9181241,46.4994902 36.3962979,46.4994902 Z" transform="translate(36.396298, 41.949490) rotate(-60.000000) translate(-36.396298, -41.949490) " fill="#603f83" style=""></path><path d="M63.2430855,61.9994902 C64.7212593,61.9994902 65.919556,60.8111793 65.919556,59.3453236 C65.919556,57.8794678 64.7212593,52.8994902 63.2430855,52.8994902 C61.7649116,52.8994902 60.5666149,57.8794678 60.5666149,59.3453236 C60.5666149,60.8111793 61.7649116,61.9994902 63.2430855,61.9994902 Z" transform="translate(63.243085, 57.449490) rotate(-240.000000) translate(-63.243085, -57.449490) " fill="#603f83" style=""></path><path d="M62.7689875,46.998586 C64.2471614,46.998586 65.4454581,45.8102751 65.4454581,44.3444193 C65.4454581,42.8785636 64.2471614,37.898586 62.7689875,37.898586 C61.2908137,37.898586 60.092517,42.8785636 60.092517,44.3444193 C60.092517,45.8102751 61.2908137,46.998586 62.7689875,46.998586 Z" transform="translate(62.768988, 42.448586) rotate(-300.000000) translate(-62.768988, -42.448586) " fill="#603f83" style=""></path><path d="M36.2786509,62.1428915 C37.7568248,62.1428915 38.9551215,60.9545806 38.9551215,59.4887249 C38.9551215,58.0228691 37.7568248,53.0428915 36.2786509,53.0428915 C34.800477,53.0428915 33.6021803,58.0228691 33.6021803,59.4887249 C33.6021803,60.9545806 34.800477,62.1428915 36.2786509,62.1428915 Z" transform="translate(36.278651, 57.592892) rotate(-480.000000) translate(-36.278651, -57.592892) " fill="#603f83" style=""></path><path d="M50.5,86.1 C51.3284271,86.1 52,85.4340236 52,84.6125 C52,83.7909764 51.3284271,81 50.5,81 C49.6715729,81 49,83.7909764 49,84.6125 C49,85.4340236 49.6715729,86.1 50.5,86.1 Z" transform="translate(50.500000, 83.550000) rotate(-180.000000) translate(-50.500000, -83.550000) " fill="#603f83" style=""></path><path d="M44.7130934,23.2568182 C45.5415205,23.2568182 46.2130934,22.5908418 46.2130934,21.7693182 C46.2130934,20.9477946 45.5415205,18.1568182 44.7130934,18.1568182 C43.8846663,18.1568182 43.2130934,20.9477946 43.2130934,21.7693182 C43.2130934,22.5908418 43.8846663,23.2568182 44.7130934,23.2568182 Z" transform="translate(44.713093, 20.706818) rotate(-15.000000) translate(-44.713093, -20.706818) " fill="#603f83" style=""></path><path d="M56.0539694,81.9738486 C56.8823966,81.9738486 57.5539694,81.3078721 57.5539694,80.4863486 C57.5539694,79.664825 56.8823966,76.8738486 56.0539694,76.8738486 C55.2255423,76.8738486 54.5539694,79.664825 54.5539694,80.4863486 C54.5539694,81.3078721 55.2255423,81.9738486 56.0539694,81.9738486 Z" transform="translate(56.053969, 79.423849) rotate(-195.000000) translate(-56.053969, -79.423849) " fill="#603f83" style=""></path><path d="M56.2869066,23.2568182 C57.1153337,23.2568182 57.7869066,22.5908418 57.7869066,21.7693182 C57.7869066,20.9477946 57.1153337,18.1568182 56.2869066,18.1568182 C55.4584795,18.1568182 54.7869066,20.9477946 54.7869066,21.7693182 C54.7869066,22.5908418 55.4584795,23.2568182 56.2869066,23.2568182 Z" transform="translate(56.286907, 20.706818) rotate(-345.000000) translate(-56.286907, -20.706818) " fill="#603f83" style=""></path><path d="M44.9460306,81.9738486 C45.7744577,81.9738486 46.4460306,81.3078721 46.4460306,80.4863486 C46.4460306,79.664825 45.7744577,76.8738486 44.9460306,76.8738486 C44.1176034,76.8738486 43.4460306,79.664825 43.4460306,80.4863486 C43.4460306,81.3078721 44.1176034,81.9738486 44.9460306,81.9738486 Z" transform="translate(44.946031, 79.423849) rotate(-525.000000) translate(-44.946031, -79.423849) " fill="#603f83" style=""></path><path d="M27.4937248,33.0437248 C28.3221519,33.0437248 28.9937248,32.3777483 28.9937248,31.5562248 C28.9937248,30.7347012 28.3221519,27.9437248 27.4937248,27.9437248 C26.6652977,27.9437248 25.9937248,30.7347012 25.9937248,31.5562248 C25.9937248,32.3777483 26.6652977,33.0437248 27.4937248,33.0437248 Z" transform="translate(27.493725, 30.493725) rotate(-45.000000) translate(-27.493725, -30.493725) " fill="#603f83" style=""></path><path d="M72.8698791,71.4198791 C73.6983062,71.4198791 74.3698791,70.7539027 74.3698791,69.9323791 C74.3698791,69.1108556 73.6983062,66.3198791 72.8698791,66.3198791 C72.041452,66.3198791 71.3698791,69.1108556 71.3698791,69.9323791 C71.3698791,70.7539027 72.041452,71.4198791 72.8698791,71.4198791 Z" transform="translate(72.869879, 68.869879) rotate(-225.000000) translate(-72.869879, -68.869879) " fill="#603f83" style=""></path><path d="M21.7068182,42.2630934 C22.5352453,42.2630934 23.2068182,41.597117 23.2068182,40.7755934 C23.2068182,39.9540699 22.5352453,37.1630934 21.7068182,37.1630934 C20.8783911,37.1630934 20.2068182,39.9540699 20.2068182,40.7755934 C20.2068182,41.597117 20.8783911,42.2630934 21.7068182,42.2630934 Z" transform="translate(21.706818, 39.713093) rotate(-75.000000) translate(-21.706818, -39.713093) " fill="#603f83" style=""></path><path d="M78.4238486,61.6039694 C79.2522757,61.6039694 79.9238486,60.937993 79.9238486,60.1164694 C79.9238486,59.2949459 79.2522757,56.5039694 78.4238486,56.5039694 C77.5954214,56.5039694 76.9238486,59.2949459 76.9238486,60.1164694 C76.9238486,60.937993 77.5954214,61.6039694 78.4238486,61.6039694 Z" transform="translate(78.423849, 59.053969) rotate(-255.000000) translate(-78.423849, -59.053969) " fill="#603f83" style=""></path><path d="M20.7068182,61.8369066 C21.5352453,61.8369066 22.2068182,61.1709301 22.2068182,60.3494066 C22.2068182,59.527883 21.5352453,56.7369066 20.7068182,56.7369066 C19.8783911,56.7369066 19.2068182,59.527883 19.2068182,60.3494066 C19.2068182,61.1709301 19.8783911,61.8369066 20.7068182,61.8369066 Z" transform="translate(20.706818, 59.286907) rotate(-105.000000) translate(-20.706818, -59.286907) " fill="#603f83" style=""></path><path d="M78.4238486,42.4960306 C79.2522757,42.4960306 79.9238486,41.8300541 79.9238486,41.0085306 C79.9238486,40.187007 79.2522757,37.3960306 78.4238486,37.3960306 C77.5954214,37.3960306 76.9238486,40.187007 76.9238486,41.0085306 C76.9238486,41.8300541 77.5954214,42.4960306 78.4238486,42.4960306 Z" transform="translate(78.423849, 39.946031) rotate(-285.000000) translate(-78.423849, -39.946031) " fill="#603f83" style=""></path><path d="M27.4937248,72.0562752 C28.3221519,72.0562752 28.9937248,71.3902988 28.9937248,70.5687752 C28.9937248,69.7472517 28.3221519,66.9562752 27.4937248,66.9562752 C26.6652977,66.9562752 25.9937248,69.7472517 25.9937248,70.5687752 C25.9937248,71.3902988 26.6652977,72.0562752 27.4937248,72.0562752 Z" transform="translate(27.493725, 69.506275) rotate(-135.000000) translate(-27.493725, -69.506275) " fill="#603f83" style=""></path><path d="M71.8698791,32.6801209 C72.6983062,32.6801209 73.3698791,32.0141444 73.3698791,31.1926209 C73.3698791,30.3710973 72.6983062,27.5801209 71.8698791,27.5801209 C71.041452,27.5801209 70.3698791,30.3710973 70.3698791,31.1926209 C70.3698791,32.0141444 71.041452,32.6801209 71.8698791,32.6801209 Z" transform="translate(71.869879, 30.130121) rotate(-315.000000) translate(-71.869879, -30.130121) " fill="#603f83" style=""></path><path d="M20.0984375,35.075 C20.9268647,35.075 21.5984375,34.4090236 21.5984375,33.5875 C21.5984375,32.7659764 20.9268647,29.975 20.0984375,29.975 C19.2700104,29.975 18.5984375,32.7659764 18.5984375,33.5875 C18.5984375,34.4090236 19.2700104,35.075 20.0984375,35.075 Z" transform="translate(20.098438, 32.525000) rotate(-60.000000) translate(-20.098438, -32.525000) " fill="#603f83" style=""></path><path d="M79.6517809,68.494943 C80.480208,68.494943 81.1517809,67.8289665 81.1517809,67.007443 C81.1517809,66.1859194 80.480208,63.394943 79.6517809,63.394943 C78.8233537,63.394943 78.1517809,66.1859194 78.1517809,67.007443 C78.1517809,67.8289665 78.8233537,68.494943 79.6517809,68.494943 Z" transform="translate(79.651781, 65.944943) rotate(-240.000000) translate(-79.651781, -65.944943) " fill="#603f83" style=""></path><path d="M78.2185498,35.8919873 C79.0469769,35.8919873 79.7185498,35.2260109 79.7185498,34.4044873 C79.7185498,33.5829637 79.0469769,30.7919873 78.2185498,30.7919873 C77.3901226,30.7919873 76.7185498,33.5829637 76.7185498,34.4044873 C76.7185498,35.2260109 77.3901226,35.8919873 78.2185498,35.8919873 Z" transform="translate(78.218550, 33.341987) rotate(-300.000000) translate(-78.218550, -33.341987) " fill="#603f83" style=""></path><path d="M21.4993585,68.756724 C22.3277856,68.756724 22.9993585,68.0907476 22.9993585,67.269224 C22.9993585,66.4477004 22.3277856,63.656724 21.4993585,63.656724 C20.6709314,63.656724 19.9993585,66.4477004 19.9993585,67.269224 C19.9993585,68.0907476 20.6709314,68.756724 21.4993585,68.756724 Z" transform="translate(21.499359, 66.206724) rotate(-480.000000) translate(-21.499359, -66.206724) " fill="#603f83" style=""></path><path d="M79.5429399,38.4 C81.4759366,38.4 83.0429399,36.846055 83.0429399,34.9291667 C83.0429399,33.0122783 81.4759366,26.5 79.5429399,26.5 C77.6099433,26.5 76.0429399,33.0122783 76.0429399,34.9291667 C76.0429399,36.846055 77.6099433,38.4 79.5429399,38.4 Z" transform="translate(79.542940, 32.450000) rotate(-300.000000) translate(-79.542940, -32.450000) " fill="#603f83" style=""></path><path d="M20.2028949,72.969392 C22.1358916,72.969392 23.7028949,71.415447 23.7028949,69.4985587 C23.7028949,67.5816704 22.1358916,61.069392 20.2028949,61.069392 C18.2698983,61.069392 16.7028949,67.5816704 16.7028949,69.4985587 C16.7028949,71.415447 18.2698983,72.969392 20.2028949,72.969392 Z" transform="translate(20.202895, 67.019392) rotate(-480.000000) translate(-20.202895, -67.019392) " fill="#603f83" style=""></path><path d="M80.5429399,72.4 C82.4759366,72.4 84.0429399,70.846055 84.0429399,68.9291667 C84.0429399,67.0122783 82.4759366,60.5 80.5429399,60.5 C78.6099433,60.5 77.0429399,67.0122783 77.0429399,68.9291667 C77.0429399,70.846055 78.6099433,72.4 80.5429399,72.4 Z" transform="translate(80.542940, 66.450000) rotate(-240.000000) translate(-80.542940, -66.450000) " fill="#603f83" style=""></path><path d="M19.2028949,37.830608 C21.1358916,37.830608 22.7028949,36.276663 22.7028949,34.3597746 C22.7028949,32.4428863 21.1358916,25.930608 19.2028949,25.930608 C17.2698983,25.930608 15.7028949,32.4428863 15.7028949,34.3597746 C15.7028949,36.276663 17.2698983,37.830608 19.2028949,37.830608 Z" transform="translate(19.202895, 31.880608) rotate(-420.000000) translate(-19.202895, -31.880608) " fill="#603f83" style=""></path><path d="M64.580127,33.5 C67.3415508,33.5 69.580127,31.2800786 69.580127,28.5416667 C69.580127,25.8032548 67.3415508,16.5 64.580127,16.5 C61.8187033,16.5 59.580127,25.8032548 59.580127,28.5416667 C59.580127,31.2800786 61.8187033,33.5 64.580127,33.5 Z" transform="translate(64.580127, 25.000000) rotate(-330.000000) translate(-64.580127, -25.000000) " fill="#603f83" style=""></path><path d="M35.580127,83.5 C38.3415508,83.5 40.580127,81.2800786 40.580127,78.5416667 C40.580127,75.8032548 38.3415508,66.5 35.580127,66.5 C32.8187033,66.5 30.580127,75.8032548 30.580127,78.5416667 C30.580127,81.2800786 32.8187033,83.5 35.580127,83.5 Z" transform="translate(35.580127, 75.000000) rotate(-510.000000) translate(-35.580127, -75.000000) " fill="#603f83" style=""></path><path d="M35.580127,33.5 C38.3415508,33.5 40.580127,31.2800786 40.580127,28.5416667 C40.580127,25.8032548 38.3415508,16.5 35.580127,16.5 C32.8187033,16.5 30.580127,25.8032548 30.580127,28.5416667 C30.580127,31.2800786 32.8187033,33.5 35.580127,33.5 Z" transform="translate(35.580127, 25.000000) rotate(-30.000000) translate(-35.580127, -25.000000) " fill="#603f83" style=""></path><path d="M64.580127,83.3612159 C67.3415508,83.3612159 69.580127,81.1412945 69.580127,78.4028826 C69.580127,75.6644707 67.3415508,66.3612159 64.580127,66.3612159 C61.8187033,66.3612159 59.580127,75.6644707 59.580127,78.4028826 C59.580127,81.1412945 61.8187033,83.3612159 64.580127,83.3612159 Z" transform="translate(64.580127, 74.861216) rotate(-210.000000) translate(-64.580127, -74.861216) " fill="#603f83" style=""></path><path d="M78.5,58.6387841 C81.2614237,58.6387841 83.5,56.4188626 83.5,53.6804507 C83.5,50.9420389 81.2614237,41.6387841 78.5,41.6387841 C75.7385763,41.6387841 73.5,50.9420389 73.5,53.6804507 C73.5,56.4188626 75.7385763,58.6387841 78.5,58.6387841 Z" transform="translate(78.500000, 50.138784) rotate(-270.000000) translate(-78.500000, -50.138784) " fill="#603f83" style=""></path><path d="M21.5,58.6387841 C24.2614237,58.6387841 26.5,56.4188626 26.5,53.6804507 C26.5,50.9420389 24.2614237,41.6387841 21.5,41.6387841 C18.7385763,41.6387841 16.5,50.9420389 16.5,53.6804507 C16.5,56.4188626 18.7385763,58.6387841 21.5,58.6387841 Z" transform="translate(21.500000, 50.138784) rotate(-450.000000) translate(-21.500000, -50.138784) " fill="#603f83" style=""></path><path d="M63.8612159,50.2189111 C66.6226397,50.2189111 68.8612159,47.9989896 68.8612159,45.2605778 C68.8612159,42.5221659 66.6226397,33.2189111 63.8612159,33.2189111 C61.0997922,33.2189111 58.8612159,42.5221659 58.8612159,45.2605778 C58.8612159,47.9989896 61.0997922,50.2189111 63.8612159,50.2189111 Z" transform="translate(63.861216, 41.718911) rotate(-300.000000) translate(-63.861216, -41.718911) " fill="#603f83" style=""></path><path d="M35.8612159,66.2189111 C38.6226397,66.2189111 40.8612159,63.9989896 40.8612159,61.2605778 C40.8612159,58.5221659 38.6226397,49.2189111 35.8612159,49.2189111 C33.0997922,49.2189111 30.8612159,58.5221659 30.8612159,61.2605778 C30.8612159,63.9989896 33.0997922,66.2189111 35.8612159,66.2189111 Z" transform="translate(35.861216, 57.718911) rotate(-480.000000) translate(-35.861216, -57.718911) " fill="#603f83" style=""></path><path d="M63.8612159,66.2189111 C66.6226397,66.2189111 68.8612159,63.9989896 68.8612159,61.2605778 C68.8612159,58.5221659 66.6226397,49.2189111 63.8612159,49.2189111 C61.0997922,49.2189111 58.8612159,58.5221659 58.8612159,61.2605778 C58.8612159,63.9989896 61.0997922,66.2189111 63.8612159,66.2189111 Z" transform="translate(63.861216, 57.718911) rotate(-240.000000) translate(-63.861216, -57.718911) " fill="#603f83" style=""></path><path d="M35.8612159,50.2189111 C38.6226397,50.2189111 40.8612159,47.9989896 40.8612159,45.2605778 C40.8612159,42.5221659 38.6226397,33.2189111 35.8612159,33.2189111 C33.0997922,33.2189111 30.8612159,42.5221659 30.8612159,45.2605778 C30.8612159,47.9989896 33.0997922,50.2189111 35.8612159,50.2189111 Z" transform="translate(35.861216, 41.718911) rotate(-420.000000) translate(-35.861216, -41.718911) " fill="#603f83" style=""></path><circle cx="50" cy="50.1387841" r="4.5" fill="#603f83" style=""></circle><circle transform="translate(40.794286, 13.777782) rotate(-15.000000) translate(-40.794286, -13.777782) " cx="40.7942858" cy="13.7777815" r="2.5" fill="#603f83" style=""></circle><circle transform="translate(60.205714, 86.222218) rotate(-15.000000) translate(-60.205714, -86.222218) " cx="60.2057142" cy="86.2222185" r="2.5" fill="#603f83" style=""></circle><circle transform="translate(60.205714, 13.777782) rotate(-345.000000) translate(-60.205714, -13.777782) " cx="60.2057142" cy="13.7777815" r="2.5" fill="#603f83" style=""></circle><circle transform="translate(40.794286, 86.222218) rotate(-345.000000) translate(-40.794286, -86.222218) " cx="40.7942858" cy="86.2222185" r="2.5" fill="#603f83" style=""></circle><circle transform="translate(23.983496, 23.483496) rotate(-45.000000) translate(-23.983496, -23.483496) " cx="23.9834957" cy="23.4834957" r="2.5" fill="#603f83" style=""></circle><circle transform="translate(77.016504, 76.516504) rotate(-45.000000) translate(-77.016504, -76.516504) " cx="77.0165043" cy="76.5165043" r="2.5" fill="#603f83" style=""></circle><circle transform="translate(14.277782, 40.294286) rotate(-75.000000) translate(-14.277782, -40.294286) " cx="14.2777815" cy="40.2942858" r="2.5" fill="#603f83" style=""></circle><circle transform="translate(86.722218, 59.705714) rotate(-75.000000) translate(-86.722218, -59.705714) " cx="86.7222185" cy="59.7057142" r="2.5" fill="#603f83" style=""></circle><circle transform="translate(14.277782, 59.705714) rotate(-105.000000) translate(-14.277782, -59.705714) " cx="14.2777815" cy="59.7057142" r="2.5" fill="#603f83" style=""></circle><circle transform="translate(86.722218, 40.294286) rotate(-105.000000) translate(-86.722218, -40.294286) " cx="86.7222185" cy="40.2942858" r="2.5" fill="#603f83" style=""></circle><circle transform="translate(23.983496, 76.516504) rotate(-135.000000) translate(-23.983496, -76.516504) " cx="23.9834957" cy="76.5165043" r="2.5" fill="#603f83" style=""></circle><circle transform="translate(77.016504, 23.483496) rotate(-135.000000) translate(-77.016504, -23.483496) " cx="77.0165043" cy="23.4834957" r="2.5" fill="#603f83" style=""></circle></g></g><defs></defs></g><g><g transform="matrix(1.024,0,0,-1.024,0,0)"><path d="M791 0L653 0L653 470L470 120L395 120L212 470L212 0L74 0L74 710L222 710L432 306L644 710L791 710L791 0ZM1069 -10Q1031 -10 998 2Q965 15 941 37Q917 60 903 90Q890 120 890 156Q890 193 906 224Q923 256 952 278Q982 300 1023 312Q1064 325 1113 325Q1148 325 1181 319Q1215 313 1241 302L1241 332Q1241 384 1211 412Q1182 440 1124 440Q1082 440 1042 425Q1002 410 960 381L919 466Q1020 533 1137 533Q1250 533 1312 477Q1375 422 1375 317L1375 154Q1375 133 1382 124Q1390 115 1407 114L1407 0Q1373 -7 1348 -7Q1310 -7 1289 10Q1269 27 1264 55L1261 84Q1226 38 1176 14Q1126 -10 1069 -10ZM1107 88Q1141 88 1171 100Q1202 112 1219 132Q1241 149 1241 170L1241 230Q1217 239 1189 244Q1161 250 1135 250Q1083 250 1050 226Q1017 203 1017 167Q1017 133 1043 110Q1069 88 1107 88ZM1705 -3Q1652 -3 1609 18Q1566 39 1534 75Q1503 112 1486 160Q1469 208 1469 262Q1469 319 1487 368Q1505 417 1537 454Q1569 491 1614 512Q1659 533 1713 533Q1774 533 1820 505Q1866 478 1896 432L1896 524L2013 524L2013 25Q2013 -33 1991 -79Q1969 -125 1930 -157Q1892 -189 1838 -206Q1785 -223 1722 -223Q1636 -223 1577 -195Q1519 -166 1477 -114L1550 -43Q1580 -80 1625 -101Q1671 -122 1722 -122Q1753 -122 1781 -114Q1810 -105 1832 -87Q1854 -69 1866 -41Q1879 -13 1879 25L1879 91Q1853 46 1806 21Q1759 -3 1705 -3ZM1750 104Q1772 104 1792 111Q1812 118 1829 130Q1846 142 1859 158Q1872 174 1879 192L1879 317Q1861 363 1822 391Q1784 419 1742 419Q1711 419 1686 405Q1661 392 1643 369Q1625 347 1615 318Q1606 289 1606 258Q1606 226 1617 198Q1628 170 1647 149Q1667 128 1693 116Q1719 104 1750 104ZM2268 0L2134 0L2134 524L2268 524L2268 0ZM2268 597L2134 597L2134 730L2268 730L2268 597ZM2356 262Q2356 317 2375 366Q2394 415 2430 452Q2466 489 2517 511Q2568 533 2632 533Q2718 533 2778 496Q2839 459 2869 399L2738 359Q2721 388 2693 403Q2665 419 2631 419Q2602 419 2577 407Q2552 396 2533 375Q2515 355 2504 326Q2494 297 2494 262Q2494 227 2505 198Q2516 169 2534 148Q2553 127 2578 115Q2603 104 2631 104Q2667 104 2697 122Q2728 140 2740 166L2871 126Q2844 66 2782 28Q2720 -10 2633 -10Q2569 -10 2518 12Q2467 34 2431 71Q2395 109 2375 158Q2356 208 2356 262ZM3344 0L3206 0L3206 710L3507 710Q3556 710 3597 689Q3639 669 3669 635Q3699 602 3716 559Q3733 517 3733 474Q3733 429 3717 386Q3701 344 3672 311Q3643 278 3602 258Q3561 238 3512 238L3344 238L3344 0ZM3344 589L3344 359L3504 359Q3542 359 3567 390Q3593 421 3593 474Q3593 501 3585 522Q3577 544 3564 559Q3551 574 3533 581Q3516 589 3498 589L3344 589ZM4059 -10Q3996 -10 3945 11Q3894 33 3858 70Q3822 107 3802 156Q3783 205 3783 259Q3783 315 3802 364Q3821 414 3857 451Q3893 489 3944 511Q3996 533 4060 533Q4124 533 4174 511Q4225 489 4260 452Q4296 415 4314 366Q4333 317 4333 264Q4333 251 4332 239Q4332 227 4330 219L3925 219Q3928 188 3940 164Q3952 140 3971 123Q3990 106 4014 97Q4038 88 4064 88Q4104 88 4139 107Q4175 127 4188 159L4303 127Q4274 67 4210 28Q4147 -10 4059 -10ZM3923 306L4195 306Q4190 365 4151 400Q4113 436 4058 436Q4031 436 4007 426Q3984 417 3966 400Q3948 383 3936 359Q3925 335 3923 306ZM4558 -10Q4520 -10 4487 2Q4454 15 4430 37Q4406 60 4392 90Q4379 120 4379 156Q4379 193 4395 224Q4412 256 4441 278Q4471 300 4512 312Q4553 325 4602 325Q4637 325 4670 319Q4704 313 4730 302L4730 332Q4730 384 4700 412Q4671 440 4613 440Q4571 440 4531 425Q4491 410 4449 381L4408 466Q4509 533 4626 533Q4739 533 4801 477Q4864 422 4864 317L4864 154Q4864 133 4871 124Q4879 115 4896 114L4896 0Q4862 -7 4837 -7Q4799 -7 4778 10Q4758 27 4753 55L4750 84Q4715 38 4665 14Q4615 -10 4558 -10ZM4596 88Q4630 88 4660 100Q4691 112 4708 132Q4730 149 4730 170L4730 230Q4706 239 4678 244Q4650 250 4624 250Q4572 250 4539 226Q4506 203 4506 167Q4506 133 4532 110Q4558 88 4596 88ZM4956 262Q4956 317 4975 366Q4994 415 5030 452Q5066 489 5117 511Q5168 533 5232 533Q5318 533 5378 496Q5439 459 5469 399L5338 359Q5321 388 5293 403Q5265 419 5231 419Q5202 419 5177 407Q5152 396 5133 375Q5115 355 5104 326Q5094 297 5094 262Q5094 227 5105 198Q5116 169 5134 148Q5153 127 5178 115Q5203 104 5231 104Q5267 104 5297 122Q5328 140 5340 166L5471 126Q5444 66 5382 28Q5320 -10 5233 -10Q5169 -10 5118 12Q5067 34 5031 71Q4995 109 4975 158Q4956 208 4956 262ZM5795 -10Q5731 -10 5680 12Q5629 34 5593 71Q5558 109 5539 158Q5520 207 5520 261Q5520 316 5539 365Q5558 414 5593 451Q5629 489 5680 511Q5731 533 5795 533Q5859 533 5909 511Q5960 489 5995 451Q6031 414 6050 365Q6069 316 6069 261Q6069 207 6050 158Q6031 109 5996 71Q5961 34 5910 12Q5859 -10 5795 -10ZM5658 261Q5658 226 5668 197Q5679 169 5697 148Q5716 127 5741 115Q5766 104 5795 104Q5824 104 5849 115Q5874 127 5892 148Q5911 169 5921 198Q5932 227 5932 262Q5932 296 5921 325Q5911 354 5892 375Q5874 396 5849 407Q5824 419 5795 419Q5766 419 5741 407Q5716 395 5697 374Q5679 353 5668 324Q5658 295 5658 261ZM6126 262Q6126 317 6145 366Q6164 415 6200 452Q6236 489 6287 511Q6338 533 6402 533Q6488 533 6548 496Q6609 459 6639 399L6508 359Q6491 388 6463 403Q6435 419 6401 419Q6372 419 6347 407Q6322 396 6303 375Q6285 355 6274 326Q6264 297 6264 262Q6264 227 6275 198Q6286 169 6304 148Q6323 127 6348 115Q6373 104 6401 104Q6437 104 6467 122Q6498 140 6510 166L6641 126Q6614 66 6552 28Q6490 -10 6403 -10Q6339 -10 6288 12Q6237 34 6201 71Q6165 109 6145 158Q6126 208 6126 262ZM7224 0L7081 0L6929 227L6857 156L6857 0L6723 0L6723 730L6857 730L6857 287L7067 523L7210 523L7015 301L7224 0ZM7479 -10Q7413 -10 7350 11Q7287 32 7242 71L7292 155Q7340 121 7385 103Q7431 86 7476 86Q7516 86 7539 101Q7562 116 7562 144Q7562 172 7535 185Q7508 198 7447 215Q7396 229 7360 242Q7324 255 7302 271Q7280 288 7270 309Q7260 331 7260 361Q7260 401 7275 433Q7291 465 7319 487Q7347 510 7384 522Q7422 534 7466 534Q7525 534 7576 517Q7628 500 7671 462L7617 381Q7577 411 7539 425Q7502 439 7465 439Q7431 439 7408 425Q7385 411 7385 380Q7385 366 7390 357Q7396 348 7408 341Q7420 334 7439 327Q7459 321 7488 314Q7542 300 7580 286Q7619 272 7643 254Q7668 236 7679 212Q7691 189 7691 156Q7691 79 7634 34Q7577 -10 7479 -10Z" fill="#603f83" style=""></path></g></g></g></svg>