<svg version="1.1" xmlns="http://www.w3.org/2000/svg" viewBox="0 0 250 250"><desc>Created with Snap</desc><defs></defs><g transform="matrix(0.0455,0,0,0.0455,15.1637,188.6235)"><g transform="matrix(25.0537,0,0,25.0537,1148.288,-3261.5583)"><title>mandala 1</title><desc>Created with Sketch.</desc><g stroke="none" stroke-width="1" fill="none" fill-rule="evenodd"><g fill="#000000"><path d="M50,42 C52.7614237,42 55,39.7800786 55,37.0416667 C55,34.3032548 52.7614237,25 50,25 C47.2385763,25 45,34.3032548 45,37.0416667 C45,39.7800786 47.2385763,42 50,42 Z" fill="#603f83" style=""></path><path d="M50,75.1387841 C52.7614237,75.1387841 55,72.9188626 55,70.1804507 C55,67.4420389 52.7614237,58.1387841 50,58.1387841 C47.2385763,58.1387841 45,67.4420389 45,70.1804507 C45,72.9188626 47.2385763,75.1387841 50,75.1387841 Z" transform="translate(50.000000, 66.638784) rotate(-180.000000) translate(-50.000000, -66.638784) " fill="#603f83" style=""></path><path d="M50,75.1387841 C52.7614237,75.1387841 55,72.9188626 55,70.1804507 C55,67.4420389 52.7614237,58.1387841 50,58.1387841 C47.2385763,58.1387841 45,67.4420389 45,70.1804507 C45,72.9188626 47.2385763,75.1387841 50,75.1387841 Z" transform="translate(50.000000, 66.638784) rotate(-180.000000) translate(-50.000000, -66.638784) " fill="#603f83" style=""></path><path d="M50.5,20.9 C52.4329966,20.9 54,19.346055 54,17.4291667 C54,15.5122783 52.4329966,9 50.5,9 C48.5670034,9 47,15.5122783 47,17.4291667 C47,19.346055 48.5670034,20.9 50.5,20.9 Z" fill="#603f83" style=""></path><path d="M50.5,91.0387841 C52.4329966,91.0387841 54,89.4848391 54,87.5679507 C54,85.6510624 52.4329966,79.1387841 50.5,79.1387841 C48.5670034,79.1387841 47,85.6510624 47,87.5679507 C47,89.4848391 48.5670034,91.0387841 50.5,91.0387841 Z" transform="translate(50.500000, 85.088784) rotate(-180.000000) translate(-50.500000, -85.088784) " fill="#603f83" style=""></path><path d="M50.5,19.1 C51.3284271,19.1 52,18.4340236 52,17.6125 C52,16.7909764 51.3284271,14 50.5,14 C49.6715729,14 49,16.7909764 49,17.6125 C49,18.4340236 49.6715729,19.1 50.5,19.1 Z" fill="#603f83" style=""></path><path d="M49.9117647,39.1 C51.3899386,39.1 52.5882353,37.9116891 52.5882353,36.4458333 C52.5882353,34.9799776 51.3899386,30 49.9117647,30 C48.4335908,30 47.2352941,34.9799776 47.2352941,36.4458333 C47.2352941,37.9116891 48.4335908,39.1 49.9117647,39.1 Z" fill="#603f83" style=""></path><path d="M49.9117647,70.1 C51.3899386,70.1 52.5882353,68.9116891 52.5882353,67.4458333 C52.5882353,65.9799776 51.3899386,61 49.9117647,61 C48.4335908,61 47.2352941,65.9799776 47.2352941,67.4458333 C47.2352941,68.9116891 48.4335908,70.1 49.9117647,70.1 Z" transform="translate(49.911765, 65.550000) rotate(-180.000000) translate(-49.911765, -65.550000) " fill="#603f83" style=""></path><path d="M36.5879513,30.9125766 C37.8958698,30.9125766 38.9561472,29.8611348 38.9561472,28.5641156 C38.9561472,27.2670964 37.8958698,22.8607104 36.5879513,22.8607104 C35.2800328,22.8607104 34.2197554,27.2670964 34.2197554,28.5641156 C34.2197554,29.8611348 35.2800328,30.9125766 36.5879513,30.9125766 Z" transform="translate(36.587951, 26.886644) rotate(-390.000000) translate(-36.587951, -26.886644) " fill="#603f83" style=""></path><path d="M64.1610014,77.9044189 C65.500176,77.9044189 66.5857915,76.8278502 66.5857915,75.4998354 C66.5857915,74.1718206 65.500176,69.6601326 64.1610014,69.6601326 C62.8218268,69.6601326 61.7362113,74.1718206 61.7362113,75.4998354 C61.7362113,76.8278502 62.8218268,77.9044189 64.1610014,77.9044189 Z" transform="translate(64.161001, 73.782276) rotate(-570.000000) translate(-64.161001, -73.782276) " fill="#603f83" style=""></path><path d="M63.6612228,30.8200849 C64.9691413,30.8200849 66.0294187,29.7686431 66.0294187,28.4716239 C66.0294187,27.1746047 64.9691413,22.7682187 63.6612228,22.7682187 C62.3533043,22.7682187 61.2930269,27.1746047 61.2930269,28.4716239 C61.2930269,29.7686431 62.3533043,30.8200849 63.6612228,30.8200849 Z" transform="translate(63.661223, 26.794152) rotate(-690.000000) translate(-63.661223, -26.794152) " fill="#603f83" style=""></path><path d="M36.404323,77.5139682 C37.7434976,77.5139682 38.8291131,76.4373995 38.8291131,75.1093847 C38.8291131,73.7813699 37.7434976,69.2696819 36.404323,69.2696819 C35.0651485,69.2696819 33.979533,73.7813699 33.979533,75.1093847 C33.979533,76.4373995 35.0651485,77.5139682 36.404323,77.5139682 Z" transform="translate(36.404323, 73.391825) rotate(-870.000000) translate(-36.404323, -73.391825) " fill="#603f83" style=""></path><path d="M23.3895219,54.1148785 C24.6974403,54.1148785 25.7577178,53.0634367 25.7577178,51.7664175 C25.7577178,50.4693984 24.6974403,46.0630124 23.3895219,46.0630124 C22.0816034,46.0630124 21.0213259,50.4693984 21.0213259,51.7664175 C21.0213259,53.0634367 22.0816034,54.1148785 23.3895219,54.1148785 Z" transform="translate(23.389522, 50.088945) rotate(-450.000000) translate(-23.389522, -50.088945) " fill="#603f83" style=""></path><path d="M77.3727405,54.5174195 C78.7119151,54.5174195 79.7975306,53.4408508 79.7975306,52.112836 C79.7975306,50.7848212 78.7119151,46.2731332 77.3727405,46.2731332 C76.0335659,46.2731332 74.9479504,50.7848212 74.9479504,52.112836 C74.9479504,53.4408508 76.0335659,54.5174195 77.3727405,54.5174195 Z" transform="translate(77.372741, 50.395276) rotate(-630.000000) translate(-77.372741, -50.395276) " fill="#603f83" style=""></path><path d="M36.3962979,46.4994902 C37.8744718,46.4994902 39.0727685,45.3111793 39.0727685,43.8453236 C39.0727685,42.3794678 37.8744718,37.3994902 36.3962979,37.3994902 C34.9181241,37.3994902 33.7198274,42.3794678 33.7198274,43.8453236 C33.7198274,45.3111793 34.9181241,46.4994902 36.3962979,46.4994902 Z" transform="translate(36.396298, 41.949490) rotate(-60.000000) translate(-36.396298, -41.949490) " fill="#603f83" style=""></path><path d="M63.2430855,61.9994902 C64.7212593,61.9994902 65.919556,60.8111793 65.919556,59.3453236 C65.919556,57.8794678 64.7212593,52.8994902 63.2430855,52.8994902 C61.7649116,52.8994902 60.5666149,57.8794678 60.5666149,59.3453236 C60.5666149,60.8111793 61.7649116,61.9994902 63.2430855,61.9994902 Z" transform="translate(63.243085, 57.449490) rotate(-240.000000) translate(-63.243085, -57.449490) " fill="#603f83" style=""></path><path d="M62.7689875,46.998586 C64.2471614,46.998586 65.4454581,45.8102751 65.4454581,44.3444193 C65.4454581,42.8785636 64.2471614,37.898586 62.7689875,37.898586 C61.2908137,37.898586 60.092517,42.8785636 60.092517,44.3444193 C60.092517,45.8102751 61.2908137,46.998586 62.7689875,46.998586 Z" transform="translate(62.768988, 42.448586) rotate(-300.000000) translate(-62.768988, -42.448586) " fill="#603f83" style=""></path><path d="M36.2786509,62.1428915 C37.7568248,62.1428915 38.9551215,60.9545806 38.9551215,59.4887249 C38.9551215,58.0228691 37.7568248,53.0428915 36.2786509,53.0428915 C34.800477,53.0428915 33.6021803,58.0228691 33.6021803,59.4887249 C33.6021803,60.9545806 34.800477,62.1428915 36.2786509,62.1428915 Z" transform="translate(36.278651, 57.592892) rotate(-480.000000) translate(-36.278651, -57.592892) " fill="#603f83" style=""></path><path d="M50.5,86.1 C51.3284271,86.1 52,85.4340236 52,84.6125 C52,83.7909764 51.3284271,81 50.5,81 C49.6715729,81 49,83.7909764 49,84.6125 C49,85.4340236 49.6715729,86.1 50.5,86.1 Z" transform="translate(50.500000, 83.550000) rotate(-180.000000) translate(-50.500000, -83.550000) " fill="#603f83" style=""></path><path d="M44.7130934,23.2568182 C45.5415205,23.2568182 46.2130934,22.5908418 46.2130934,21.7693182 C46.2130934,20.9477946 45.5415205,18.1568182 44.7130934,18.1568182 C43.8846663,18.1568182 43.2130934,20.9477946 43.2130934,21.7693182 C43.2130934,22.5908418 43.8846663,23.2568182 44.7130934,23.2568182 Z" transform="translate(44.713093, 20.706818) rotate(-15.000000) translate(-44.713093, -20.706818) " fill="#603f83" style=""></path><path d="M56.0539694,81.9738486 C56.8823966,81.9738486 57.5539694,81.3078721 57.5539694,80.4863486 C57.5539694,79.664825 56.8823966,76.8738486 56.0539694,76.8738486 C55.2255423,76.8738486 54.5539694,79.664825 54.5539694,80.4863486 C54.5539694,81.3078721 55.2255423,81.9738486 56.0539694,81.9738486 Z" transform="translate(56.053969, 79.423849) rotate(-195.000000) translate(-56.053969, -79.423849) " fill="#603f83" style=""></path><path d="M56.2869066,23.2568182 C57.1153337,23.2568182 57.7869066,22.5908418 57.7869066,21.7693182 C57.7869066,20.9477946 57.1153337,18.1568182 56.2869066,18.1568182 C55.4584795,18.1568182 54.7869066,20.9477946 54.7869066,21.7693182 C54.7869066,22.5908418 55.4584795,23.2568182 56.2869066,23.2568182 Z" transform="translate(56.286907, 20.706818) rotate(-345.000000) translate(-56.286907, -20.706818) " fill="#603f83" style=""></path><path d="M44.9460306,81.9738486 C45.7744577,81.9738486 46.4460306,81.3078721 46.4460306,80.4863486 C46.4460306,79.664825 45.7744577,76.8738486 44.9460306,76.8738486 C44.1176034,76.8738486 43.4460306,79.664825 43.4460306,80.4863486 C43.4460306,81.3078721 44.1176034,81.9738486 44.9460306,81.9738486 Z" transform="translate(44.946031, 79.423849) rotate(-525.000000) translate(-44.946031, -79.423849) " fill="#603f83" style=""></path><path d="M27.4937248,33.0437248 C28.3221519,33.0437248 28.9937248,32.3777483 28.9937248,31.5562248 C28.9937248,30.7347012 28.3221519,27.9437248 27.4937248,27.9437248 C26.6652977,27.9437248 25.9937248,30.7347012 25.9937248,31.5562248 C25.9937248,32.3777483 26.6652977,33.0437248 27.4937248,33.0437248 Z" transform="translate(27.493725, 30.493725) rotate(-45.000000) translate(-27.493725, -30.493725) " fill="#603f83" style=""></path><path d="M72.8698791,71.4198791 C73.6983062,71.4198791 74.3698791,70.7539027 74.3698791,69.9323791 C74.3698791,69.1108556 73.6983062,66.3198791 72.8698791,66.3198791 C72.041452,66.3198791 71.3698791,69.1108556 71.3698791,69.9323791 C71.3698791,70.7539027 72.041452,71.4198791 72.8698791,71.4198791 Z" transform="translate(72.869879, 68.869879) rotate(-225.000000) translate(-72.869879, -68.869879) " fill="#603f83" style=""></path><path d="M21.7068182,42.2630934 C22.5352453,42.2630934 23.2068182,41.597117 23.2068182,40.7755934 C23.2068182,39.9540699 22.5352453,37.1630934 21.7068182,37.1630934 C20.8783911,37.1630934 20.2068182,39.9540699 20.2068182,40.7755934 C20.2068182,41.597117 20.8783911,42.2630934 21.7068182,42.2630934 Z" transform="translate(21.706818, 39.713093) rotate(-75.000000) translate(-21.706818, -39.713093) " fill="#603f83" style=""></path><path d="M78.4238486,61.6039694 C79.2522757,61.6039694 79.9238486,60.937993 79.9238486,60.1164694 C79.9238486,59.2949459 79.2522757,56.5039694 78.4238486,56.5039694 C77.5954214,56.5039694 76.9238486,59.2949459 76.9238486,60.1164694 C76.9238486,60.937993 77.5954214,61.6039694 78.4238486,61.6039694 Z" transform="translate(78.423849, 59.053969) rotate(-255.000000) translate(-78.423849, -59.053969) " fill="#603f83" style=""></path><path d="M20.7068182,61.8369066 C21.5352453,61.8369066 22.2068182,61.1709301 22.2068182,60.3494066 C22.2068182,59.527883 21.5352453,56.7369066 20.7068182,56.7369066 C19.8783911,56.7369066 19.2068182,59.527883 19.2068182,60.3494066 C19.2068182,61.1709301 19.8783911,61.8369066 20.7068182,61.8369066 Z" transform="translate(20.706818, 59.286907) rotate(-105.000000) translate(-20.706818, -59.286907) " fill="#603f83" style=""></path><path d="M78.4238486,42.4960306 C79.2522757,42.4960306 79.9238486,41.8300541 79.9238486,41.0085306 C79.9238486,40.187007 79.2522757,37.3960306 78.4238486,37.3960306 C77.5954214,37.3960306 76.9238486,40.187007 76.9238486,41.0085306 C76.9238486,41.8300541 77.5954214,42.4960306 78.4238486,42.4960306 Z" transform="translate(78.423849, 39.946031) rotate(-285.000000) translate(-78.423849, -39.946031) " fill="#603f83" style=""></path><path d="M27.4937248,72.0562752 C28.3221519,72.0562752 28.9937248,71.3902988 28.9937248,70.5687752 C28.9937248,69.7472517 28.3221519,66.9562752 27.4937248,66.9562752 C26.6652977,66.9562752 25.9937248,69.7472517 25.9937248,70.5687752 C25.9937248,71.3902988 26.6652977,72.0562752 27.4937248,72.0562752 Z" transform="translate(27.493725, 69.506275) rotate(-135.000000) translate(-27.493725, -69.506275) " fill="#603f83" style=""></path><path d="M71.8698791,32.6801209 C72.6983062,32.6801209 73.3698791,32.0141444 73.3698791,31.1926209 C73.3698791,30.3710973 72.6983062,27.5801209 71.8698791,27.5801209 C71.041452,27.5801209 70.3698791,30.3710973 70.3698791,31.1926209 C70.3698791,32.0141444 71.041452,32.6801209 71.8698791,32.6801209 Z" transform="translate(71.869879, 30.130121) rotate(-315.000000) translate(-71.869879, -30.130121) " fill="#603f83" style=""></path><path d="M20.0984375,35.075 C20.9268647,35.075 21.5984375,34.4090236 21.5984375,33.5875 C21.5984375,32.7659764 20.9268647,29.975 20.0984375,29.975 C19.2700104,29.975 18.5984375,32.7659764 18.5984375,33.5875 C18.5984375,34.4090236 19.2700104,35.075 20.0984375,35.075 Z" transform="translate(20.098438, 32.525000) rotate(-60.000000) translate(-20.098438, -32.525000) " fill="#603f83" style=""></path><path d="M79.6517809,68.494943 C80.480208,68.494943 81.1517809,67.8289665 81.1517809,67.007443 C81.1517809,66.1859194 80.480208,63.394943 79.6517809,63.394943 C78.8233537,63.394943 78.1517809,66.1859194 78.1517809,67.007443 C78.1517809,67.8289665 78.8233537,68.494943 79.6517809,68.494943 Z" transform="translate(79.651781, 65.944943) rotate(-240.000000) translate(-79.651781, -65.944943) " fill="#603f83" style=""></path><path d="M78.2185498,35.8919873 C79.0469769,35.8919873 79.7185498,35.2260109 79.7185498,34.4044873 C79.7185498,33.5829637 79.0469769,30.7919873 78.2185498,30.7919873 C77.3901226,30.7919873 76.7185498,33.5829637 76.7185498,34.4044873 C76.7185498,35.2260109 77.3901226,35.8919873 78.2185498,35.8919873 Z" transform="translate(78.218550, 33.341987) rotate(-300.000000) translate(-78.218550, -33.341987) " fill="#603f83" style=""></path><path d="M21.4993585,68.756724 C22.3277856,68.756724 22.9993585,68.0907476 22.9993585,67.269224 C22.9993585,66.4477004 22.3277856,63.656724 21.4993585,63.656724 C20.6709314,63.656724 19.9993585,66.4477004 19.9993585,67.269224 C19.9993585,68.0907476 20.6709314,68.756724 21.4993585,68.756724 Z" transform="translate(21.499359, 66.206724) rotate(-480.000000) translate(-21.499359, -66.206724) " fill="#603f83" style=""></path><path d="M79.5429399,38.4 C81.4759366,38.4 83.0429399,36.846055 83.0429399,34.9291667 C83.0429399,33.0122783 81.4759366,26.5 79.5429399,26.5 C77.6099433,26.5 76.0429399,33.0122783 76.0429399,34.9291667 C76.0429399,36.846055 77.6099433,38.4 79.5429399,38.4 Z" transform="translate(79.542940, 32.450000) rotate(-300.000000) translate(-79.542940, -32.450000) " fill="#603f83" style=""></path><path d="M20.2028949,72.969392 C22.1358916,72.969392 23.7028949,71.415447 23.7028949,69.4985587 C23.7028949,67.5816704 22.1358916,61.069392 20.2028949,61.069392 C18.2698983,61.069392 16.7028949,67.5816704 16.7028949,69.4985587 C16.7028949,71.415447 18.2698983,72.969392 20.2028949,72.969392 Z" transform="translate(20.202895, 67.019392) rotate(-480.000000) translate(-20.202895, -67.019392) " fill="#603f83" style=""></path><path d="M80.5429399,72.4 C82.4759366,72.4 84.0429399,70.846055 84.0429399,68.9291667 C84.0429399,67.0122783 82.4759366,60.5 80.5429399,60.5 C78.6099433,60.5 77.0429399,67.0122783 77.0429399,68.9291667 C77.0429399,70.846055 78.6099433,72.4 80.5429399,72.4 Z" transform="translate(80.542940, 66.450000) rotate(-240.000000) translate(-80.542940, -66.450000) " fill="#603f83" style=""></path><path d="M19.2028949,37.830608 C21.1358916,37.830608 22.7028949,36.276663 22.7028949,34.3597746 C22.7028949,32.4428863 21.1358916,25.930608 19.2028949,25.930608 C17.2698983,25.930608 15.7028949,32.4428863 15.7028949,34.3597746 C15.7028949,36.276663 17.2698983,37.830608 19.2028949,37.830608 Z" transform="translate(19.202895, 31.880608) rotate(-420.000000) translate(-19.202895, -31.880608) " fill="#603f83" style=""></path><path d="M64.580127,33.5 C67.3415508,33.5 69.580127,31.2800786 69.580127,28.5416667 C69.580127,25.8032548 67.3415508,16.5 64.580127,16.5 C61.8187033,16.5 59.580127,25.8032548 59.580127,28.5416667 C59.580127,31.2800786 61.8187033,33.5 64.580127,33.5 Z" transform="translate(64.580127, 25.000000) rotate(-330.000000) translate(-64.580127, -25.000000) " fill="#603f83" style=""></path><path d="M35.580127,83.5 C38.3415508,83.5 40.580127,81.2800786 40.580127,78.5416667 C40.580127,75.8032548 38.3415508,66.5 35.580127,66.5 C32.8187033,66.5 30.580127,75.8032548 30.580127,78.5416667 C30.580127,81.2800786 32.8187033,83.5 35.580127,83.5 Z" transform="translate(35.580127, 75.000000) rotate(-510.000000) translate(-35.580127, -75.000000) " fill="#603f83" style=""></path><path d="M35.580127,33.5 C38.3415508,33.5 40.580127,31.2800786 40.580127,28.5416667 C40.580127,25.8032548 38.3415508,16.5 35.580127,16.5 C32.8187033,16.5 30.580127,25.8032548 30.580127,28.5416667 C30.580127,31.2800786 32.8187033,33.5 35.580127,33.5 Z" transform="translate(35.580127, 25.000000) rotate(-30.000000) translate(-35.580127, -25.000000) " fill="#603f83" style=""></path><path d="M64.580127,83.3612159 C67.3415508,83.3612159 69.580127,81.1412945 69.580127,78.4028826 C69.580127,75.6644707 67.3415508,66.3612159 64.580127,66.3612159 C61.8187033,66.3612159 59.580127,75.6644707 59.580127,78.4028826 C59.580127,81.1412945 61.8187033,83.3612159 64.580127,83.3612159 Z" transform="translate(64.580127, 74.861216) rotate(-210.000000) translate(-64.580127, -74.861216) " fill="#603f83" style=""></path><path d="M78.5,58.6387841 C81.2614237,58.6387841 83.5,56.4188626 83.5,53.6804507 C83.5,50.9420389 81.2614237,41.6387841 78.5,41.6387841 C75.7385763,41.6387841 73.5,50.9420389 73.5,53.6804507 C73.5,56.4188626 75.7385763,58.6387841 78.5,58.6387841 Z" transform="translate(78.500000, 50.138784) rotate(-270.000000) translate(-78.500000, -50.138784) " fill="#603f83" style=""></path><path d="M21.5,58.6387841 C24.2614237,58.6387841 26.5,56.4188626 26.5,53.6804507 C26.5,50.9420389 24.2614237,41.6387841 21.5,41.6387841 C18.7385763,41.6387841 16.5,50.9420389 16.5,53.6804507 C16.5,56.4188626 18.7385763,58.6387841 21.5,58.6387841 Z" transform="translate(21.500000, 50.138784) rotate(-450.000000) translate(-21.500000, -50.138784) " fill="#603f83" style=""></path><path d="M63.8612159,50.2189111 C66.6226397,50.2189111 68.8612159,47.9989896 68.8612159,45.2605778 C68.8612159,42.5221659 66.6226397,33.2189111 63.8612159,33.2189111 C61.0997922,33.2189111 58.8612159,42.5221659 58.8612159,45.2605778 C58.8612159,47.9989896 61.0997922,50.2189111 63.8612159,50.2189111 Z" transform="translate(63.861216, 41.718911) rotate(-300.000000) translate(-63.861216, -41.718911) " fill="#603f83" style=""></path><path d="M35.8612159,66.2189111 C38.6226397,66.2189111 40.8612159,63.9989896 40.8612159,61.2605778 C40.8612159,58.5221659 38.6226397,49.2189111 35.8612159,49.2189111 C33.0997922,49.2189111 30.8612159,58.5221659 30.8612159,61.2605778 C30.8612159,63.9989896 33.0997922,66.2189111 35.8612159,66.2189111 Z" transform="translate(35.861216, 57.718911) rotate(-480.000000) translate(-35.861216, -57.718911) " fill="#603f83" style=""></path><path d="M63.8612159,66.2189111 C66.6226397,66.2189111 68.8612159,63.9989896 68.8612159,61.2605778 C68.8612159,58.5221659 66.6226397,49.2189111 63.8612159,49.2189111 C61.0997922,49.2189111 58.8612159,58.5221659 58.8612159,61.2605778 C58.8612159,63.9989896 61.0997922,66.2189111 63.8612159,66.2189111 Z" transform="translate(63.861216, 57.718911) rotate(-240.000000) translate(-63.861216, -57.718911) " fill="#603f83" style=""></path><path d="M35.8612159,50.2189111 C38.6226397,50.2189111 40.8612159,47.9989896 40.8612159,45.2605778 C40.8612159,42.5221659 38.6226397,33.2189111 35.8612159,33.2189111 C33.0997922,33.2189111 30.8612159,42.5221659 30.8612159,45.2605778 C30.8612159,47.9989896 33.0997922,50.2189111 35.8612159,50.2189111 Z" transform="translate(35.861216, 41.718911) rotate(-420.000000) translate(-35.861216, -41.718911) " fill="#603f83" style=""></path><circle cx="50" cy="50.1387841" r="4.5" fill="#603f83" style=""></circle><circle transform="translate(40.794286, 13.777782) rotate(-15.000000) translate(-40.794286, -13.777782) " cx="40.7942858" cy="13.7777815" r="2.5" fill="#603f83" style=""></circle><circle transform="translate(60.205714, 86.222218) rotate(-15.000000) translate(-60.205714, -86.222218) " cx="60.2057142" cy="86.2222185" r="2.5" fill="#603f83" style=""></circle><circle transform="translate(60.205714, 13.777782) rotate(-345.000000) translate(-60.205714, -13.777782) " cx="60.2057142" cy="13.7777815" r="2.5" fill="#603f83" style=""></circle><circle transform="translate(40.794286, 86.222218) rotate(-345.000000) translate(-40.794286, -86.222218) " cx="40.7942858" cy="86.2222185" r="2.5" fill="#603f83" style=""></circle><circle transform="translate(23.983496, 23.483496) rotate(-45.000000) translate(-23.983496, -23.483496) " cx="23.9834957" cy="23.4834957" r="2.5" fill="#603f83" style=""></circle><circle transform="translate(77.016504, 76.516504) rotate(-45.000000) translate(-77.016504, -76.516504) " cx="77.0165043" cy="76.5165043" r="2.5" fill="#603f83" style=""></circle><circle transform="translate(14.277782, 40.294286) rotate(-75.000000) translate(-14.277782, -40.294286) " cx="14.2777815" cy="40.2942858" r="2.5" fill="#603f83" style=""></circle><circle transform="translate(86.722218, 59.705714) rotate(-75.000000) translate(-86.722218, -59.705714) " cx="86.7222185" cy="59.7057142" r="2.5" fill="#603f83" style=""></circle><circle transform="translate(14.277782, 59.705714) rotate(-105.000000) translate(-14.277782, -59.705714) " cx="14.2777815" cy="59.7057142" r="2.5" fill="#603f83" style=""></circle><circle transform="translate(86.722218, 40.294286) rotate(-105.000000) translate(-86.722218, -40.294286) " cx="86.7222185" cy="40.2942858" r="2.5" fill="#603f83" style=""></circle><circle transform="translate(23.983496, 76.516504) rotate(-135.000000) translate(-23.983496, -76.516504) " cx="23.9834957" cy="76.5165043" r="2.5" fill="#603f83" style=""></circle><circle transform="translate(77.016504, 23.483496) rotate(-135.000000) translate(-77.016504, -23.483496) " cx="77.0165043" cy="23.4834957" r="2.5" fill="#603f83" style=""></circle></g></g><defs></defs></g><g><g transform="matrix(0.5,0,0,-0.5,0,0)"><path d="M107 111Q114 180 119 242Q124 305 128 366Q133 428 138 491Q143 554 149 624Q152 661 155 703Q159 746 162 789Q165 833 168 876Q171 920 174 960Q180 1053 185 1147Q186 1153 186 1158Q186 1164 186 1169Q186 1283 74 1322L75 1327L276 1327Q287 1327 297 1310Q308 1294 317 1268Q327 1242 335 1210Q343 1179 349 1148Q356 1118 361 1092Q366 1067 369 1054Q381 1010 396 959Q411 909 427 856Q443 804 459 751Q476 698 491 649Q527 535 564 418Q620 608 668 767Q688 835 708 902Q728 970 744 1028Q761 1087 773 1130Q786 1174 791 1194Q797 1218 800 1241Q804 1265 812 1284Q821 1303 838 1315Q856 1327 891 1327L1034 1327L1035 1322Q943 1292 943 1195Q943 1190 943 1186Q943 1182 944 1177Q946 1151 949 1090Q953 1029 958 944Q964 860 971 758Q978 657 987 551Q996 445 1007 341Q1018 238 1031 149Q1039 95 1067 58Q1095 22 1146 5L1147 0L786 0L785 5Q836 22 854 61Q872 100 872 153Q869 234 866 308Q864 382 860 452Q857 522 852 589Q847 656 840 721L827 905Q807 825 777 735Q748 645 717 555Q686 465 658 380Q630 295 612 224Q605 200 598 174Q592 149 585 128Q579 107 571 94Q564 81 555 81Q546 81 538 94Q530 107 523 127Q516 148 509 173Q503 199 496 224Q475 296 450 378Q425 460 399 545Q373 631 346 717Q320 804 296 885Q287 690 275 497Q263 305 256 117Q255 85 253 51Q252 17 245 -15Q239 -47 226 -75Q213 -103 188 -125Q163 -146 124 -158Q85 -170 28 -170L-52 -44L-49 -40Q-27 -45 -9 -49Q9 -52 23 -52Q44 -52 58 -45Q72 -37 81 -18Q91 1 96 32Q102 64 107 111ZM1385 675L1383 672L1213 777Q1226 848 1252 890Q1279 933 1311 955Q1344 978 1380 985Q1417 992 1452 992Q1576 992 1637 903Q1699 814 1698 640Q1698 549 1697 482Q1697 416 1697 369Q1697 322 1696 291Q1696 261 1696 241Q1696 222 1696 210Q1696 198 1696 188Q1696 163 1699 135Q1702 107 1711 81Q1721 56 1739 35Q1758 15 1789 5L1789 0L1634 0Q1611 14 1599 38Q1587 62 1581 91Q1575 79 1562 58Q1549 38 1528 18Q1507 -1 1477 -15Q1448 -29 1409 -29Q1352 -29 1310 -6Q1269 17 1242 56Q1215 95 1202 145Q1189 196 1189 250Q1189 319 1210 387Q1232 456 1271 510Q1311 565 1366 599Q1421 633 1489 633Q1523 633 1554 626Q1554 706 1547 757Q1540 808 1526 837Q1512 866 1490 876Q1469 887 1441 887Q1417 887 1400 879Q1384 871 1373 857Q1363 843 1358 824Q1354 806 1354 785Q1354 757 1362 728Q1371 699 1385 675ZM1426 77Q1464 77 1488 105Q1513 134 1527 176Q1542 218 1548 265Q1554 313 1554 351L1554 542Q1525 552 1496 552Q1456 552 1425 528Q1394 505 1373 467Q1352 429 1341 379Q1330 329 1330 277Q1330 237 1336 201Q1342 165 1354 137Q1366 110 1384 93Q1402 77 1426 77ZM2467 1Q2467 -137 2444 -229Q2422 -321 2382 -377Q2343 -433 2289 -457Q2236 -480 2175 -480Q2139 -480 2097 -466Q2056 -451 2020 -419Q1985 -386 1961 -334Q1938 -282 1938 -208Q1938 -194 1939 -180Q1941 -166 1943 -150L2172 -100L2173 -105Q2125 -134 2102 -172Q2080 -210 2080 -251Q2080 -270 2085 -291Q2090 -311 2101 -328Q2112 -345 2129 -356Q2146 -367 2171 -367Q2189 -367 2206 -364Q2224 -361 2240 -349Q2256 -337 2269 -312Q2282 -286 2291 -242Q2301 -197 2306 -129Q2312 -61 2312 36Q2240 -17 2172 -17Q2108 -17 2054 15Q2000 48 1961 110Q1922 172 1900 261Q1879 350 1879 463Q1879 577 1902 673Q1925 770 1971 840Q2018 911 2087 950Q2157 990 2250 990Q2279 990 2322 983Q2365 977 2410 975L2587 975L2587 970Q2530 951 2504 906Q2478 862 2478 802Q2478 749 2477 681Q2476 613 2475 538Q2474 463 2472 386Q2471 309 2470 238Q2469 167 2468 105Q2467 44 2467 1ZM2313 135L2314 351Q2315 481 2311 619Q2308 758 2302 887Q2290 892 2277 895Q2265 899 2257 899Q2206 899 2164 870Q2122 842 2092 787Q2062 732 2045 650Q2029 569 2029 463Q2029 79 2198 79Q2221 79 2250 88Q2280 98 2313 121L2313 135ZM2770 517Q2770 610 2769 675Q2769 740 2765 783Q2761 827 2752 852Q2744 877 2727 889Q2711 902 2686 905Q2661 908 2625 908L2625 913L2916 993Q2905 884 2904 752Q2904 621 2904 480Q2904 424 2904 386Q2904 348 2904 314Q2905 280 2907 242Q2909 205 2913 149Q2917 95 2941 58Q2965 22 3016 5L3016 0L2655 0L2655 5Q2706 22 2728 61Q2750 100 2754 153Q2756 199 2758 233Q2761 268 2762 296Q2764 324 2765 348Q2767 372 2768 397Q2769 422 2769 450Q2770 479 2770 517ZM2731 1235Q2731 1273 2757 1299Q2783 1326 2821 1326Q2859 1326 2885 1299Q2912 1273 2912 1235Q2912 1197 2885 1171Q2859 1145 2821 1145Q2783 1145 2757 1171Q2731 1197 2731 1235ZM3661 281L3665 282L3714 146Q3667 59 3601 15Q3536 -29 3455 -29Q3380 -29 3315 4Q3251 38 3203 103Q3156 168 3129 263Q3102 358 3102 481Q3102 604 3127 699Q3153 794 3197 859Q3242 924 3302 958Q3363 992 3434 992Q3507 992 3559 969Q3612 947 3649 906Q3686 866 3710 810Q3735 754 3753 687L3558 585L3555 590Q3575 615 3584 639Q3593 664 3593 688Q3593 719 3587 754Q3581 790 3564 819Q3548 848 3520 867Q3492 887 3448 887Q3406 887 3370 862Q3334 838 3307 788Q3281 738 3266 661Q3252 585 3252 481Q3252 280 3308 178Q3364 76 3464 76Q3501 76 3532 92Q3564 108 3589 135Q3614 163 3632 200Q3650 238 3661 281ZM4131 1322L4131 1327L4526 1327Q4574 1327 4616 1302Q4659 1277 4691 1229Q4724 1181 4742 1110Q4761 1039 4761 947Q4761 885 4754 812Q4747 739 4730 666Q4714 593 4685 525Q4657 458 4615 407Q4573 357 4515 329Q4458 301 4382 307Q4384 267 4385 227Q4387 188 4389 149Q4393 95 4417 58Q4441 22 4492 5L4492 0L4131 0L4131 5Q4182 22 4204 61Q4226 100 4230 153Q4237 314 4241 452Q4246 590 4246 721Q4246 838 4244 953Q4243 1068 4231 1194Q4226 1241 4201 1274Q4177 1308 4131 1322ZM4380 684Q4380 618 4380 553Q4381 488 4382 422Q4502 422 4551 553Q4601 684 4601 947Q4601 1079 4569 1149Q4538 1220 4475 1220Q4455 1220 4432 1219Q4409 1219 4389 1217L4389 1177Q4386 1089 4384 1001Q4383 963 4382 922Q4382 881 4381 840Q4381 799 4380 759Q4380 719 4380 684ZM5250 336L5251 341L5470 321Q5470 231 5444 165Q5419 100 5379 56Q5340 13 5292 -8Q5244 -29 5198 -29Q5132 -29 5075 5Q5018 39 4976 104Q4934 169 4910 264Q4886 359 4886 482Q4886 605 4910 700Q4934 795 4976 860Q5018 925 5075 959Q5132 993 5198 993Q5253 993 5299 963Q5346 934 5381 876Q5416 819 5437 733Q5459 648 5464 537L5041 389Q5054 225 5099 150Q5144 76 5213 76Q5246 76 5268 88Q5291 101 5305 121Q5320 142 5326 167Q5333 193 5333 220Q5333 252 5312 283Q5292 314 5250 336ZM5036 482L5036 478Q5065 489 5108 506Q5151 523 5216 553Q5253 570 5280 587Q5307 604 5328 616Q5318 755 5285 821Q5253 887 5198 887Q5121 887 5078 785Q5036 683 5036 482ZM5774 675L5772 672L5602 777Q5615 848 5641 890Q5668 933 5700 955Q5733 978 5769 985Q5806 992 5841 992Q5965 992 6026 903Q6088 814 6087 640Q6087 549 6086 482Q6086 416 6086 369Q6086 322 6085 291Q6085 261 6085 241Q6085 222 6085 210Q6085 198 6085 188Q6085 163 6088 135Q6091 107 6100 81Q6110 56 6128 35Q6147 15 6178 5L6178 0L6023 0Q6000 14 5988 38Q5976 62 5970 91Q5964 79 5951 58Q5938 38 5917 18Q5896 -1 5866 -15Q5837 -29 5798 -29Q5741 -29 5699 -6Q5658 17 5631 56Q5604 95 5591 145Q5578 196 5578 250Q5578 319 5599 387Q5621 456 5660 510Q5700 565 5755 599Q5810 633 5878 633Q5912 633 5943 626Q5943 706 5936 757Q5929 808 5915 837Q5901 866 5879 876Q5858 887 5830 887Q5806 887 5789 879Q5773 871 5762 857Q5752 843 5747 824Q5743 806 5743 785Q5743 757 5751 728Q5760 699 5774 675ZM5815 77Q5853 77 5877 105Q5902 134 5916 176Q5931 218 5937 265Q5943 313 5943 351L5943 542Q5914 552 5885 552Q5845 552 5814 528Q5783 505 5762 467Q5741 429 5730 379Q5719 329 5719 277Q5719 237 5725 201Q5731 165 5743 137Q5755 110 5773 93Q5791 77 5815 77ZM6826 281L6830 282L6879 146Q6832 59 6766 15Q6701 -29 6620 -29Q6545 -29 6480 4Q6416 38 6368 103Q6321 168 6294 263Q6267 358 6267 481Q6267 604 6292 699Q6318 794 6362 859Q6407 924 6467 958Q6528 992 6599 992Q6672 992 6724 969Q6777 947 6814 906Q6851 866 6875 810Q6900 754 6918 687L6723 585L6720 590Q6740 615 6749 639Q6758 664 6758 688Q6758 719 6752 754Q6746 790 6729 819Q6713 848 6685 867Q6657 887 6613 887Q6571 887 6535 862Q6499 838 6472 788Q6446 738 6431 661Q6417 585 6417 481Q6417 280 6473 178Q6529 76 6629 76Q6666 76 6697 92Q6729 108 6754 135Q6779 163 6797 200Q6815 238 6826 281ZM7154 482Q7154 281 7194 179Q7234 77 7306 77Q7379 77 7415 179Q7452 281 7452 482Q7452 683 7415 784Q7379 885 7306 885Q7234 885 7194 784Q7154 683 7154 482ZM7004 482Q7004 605 7027 700Q7051 795 7091 860Q7132 925 7187 958Q7242 992 7306 992Q7367 992 7421 958Q7475 925 7515 860Q7555 795 7578 700Q7602 605 7602 482Q7602 359 7578 264Q7555 169 7515 104Q7475 39 7421 5Q7367 -29 7306 -29Q7242 -29 7187 5Q7132 39 7091 104Q7051 169 7027 264Q7004 359 7004 482ZM8285 281L8289 282L8338 146Q8291 59 8225 15Q8160 -29 8079 -29Q8004 -29 7939 4Q7875 38 7827 103Q7780 168 7753 263Q7726 358 7726 481Q7726 604 7751 699Q7777 794 7821 859Q7866 924 7926 958Q7987 992 8058 992Q8131 992 8183 969Q8236 947 8273 906Q8310 866 8334 810Q8359 754 8377 687L8182 585L8179 590Q8199 615 8208 639Q8217 664 8217 688Q8217 719 8211 754Q8205 790 8188 819Q8172 848 8144 867Q8116 887 8072 887Q8030 887 7994 862Q7958 838 7931 788Q7905 738 7890 661Q7876 585 7876 481Q7876 280 7932 178Q7988 76 8088 76Q8125 76 8156 92Q8188 108 8213 135Q8238 163 8256 200Q8274 238 8285 281ZM8395 1267L8686 1347Q8675 1204 8674 1036Q8674 869 8674 684L8674 531Q8698 577 8725 630Q8748 675 8777 732Q8806 790 8837 851Q8862 900 8888 940Q8914 981 8946 1010Q8979 1040 9019 1057Q9059 1074 9111 1076L9169 867L9163 861Q9140 885 9115 891Q9091 897 9075 897Q9046 897 9022 875Q8999 854 8976 816Q8951 775 8924 731Q8897 687 8874 650Q8847 607 8821 565L9021 227Q9049 179 9072 154Q9095 129 9127 129Q9155 129 9199 153L9205 148L9114 -60Q9063 -51 9030 -29Q8998 -7 8974 24Q8951 56 8931 96Q8912 137 8885 184L8743 457L8676 342Q8677 298 8678 245Q8680 192 8683 149Q8687 95 8711 58Q8735 22 8786 5L8786 0L8425 0L8425 5Q8476 22 8498 61Q8520 100 8524 153Q8531 314 8535 452Q8540 590 8540 721Q8540 849 8539 938Q8539 1028 8535 1088Q8531 1148 8522 1183Q8514 1218 8497 1235Q8481 1253 8456 1257Q8431 1262 8395 1262L8395 1267ZM9458 77Q9476 77 9491 86Q9507 95 9519 110Q9531 125 9537 143Q9544 162 9544 181Q9544 218 9524 260Q9504 303 9474 349Q9445 395 9410 445Q9375 495 9345 548Q9316 602 9296 658Q9276 715 9276 774Q9276 821 9296 861Q9317 901 9350 930Q9384 959 9427 975Q9471 992 9517 992Q9568 992 9617 970Q9667 948 9706 898L9599 739L9596 741Q9602 757 9602 776Q9602 795 9596 815Q9590 835 9578 851Q9567 867 9551 877Q9536 887 9517 887Q9496 887 9476 879Q9457 872 9442 858Q9428 845 9419 825Q9410 806 9410 783Q9410 746 9430 701Q9451 657 9482 607Q9513 558 9548 504Q9584 451 9615 396Q9646 342 9666 288Q9687 235 9687 185Q9687 137 9668 97Q9650 58 9619 30Q9588 2 9548 -14Q9508 -29 9465 -29Q9408 -29 9353 0Q9298 30 9260 97L9367 226L9370 223Q9361 208 9361 187Q9361 168 9368 148Q9376 129 9388 113Q9401 97 9419 87Q9437 77 9458 77Z" fill="#603f83" style=""></path></g></g></g></svg>