<svg version="1.1" xmlns="http://www.w3.org/2000/svg" viewBox="0 0 250 250"><desc>Created with Snap</desc><defs></defs><g transform="matrix(0.0342,0,0,0.0342,9.184,184.0385)"><g transform="matrix(28.3651,0,0,28.3651,1950.857,-3814.1984)"><title>mandala 1</title><desc>Created with Sketch.</desc><g stroke="none" stroke-width="1" fill="none" fill-rule="evenodd"><g fill="#000000"><path d="M50,42 C52.7614237,42 55,39.7800786 55,37.0416667 C55,34.3032548 52.7614237,25 50,25 C47.2385763,25 45,34.3032548 45,37.0416667 C45,39.7800786 47.2385763,42 50,42 Z" fill="#603f83" style=""></path><path d="M50,75.1387841 C52.7614237,75.1387841 55,72.9188626 55,70.1804507 C55,67.4420389 52.7614237,58.1387841 50,58.1387841 C47.2385763,58.1387841 45,67.4420389 45,70.1804507 C45,72.9188626 47.2385763,75.1387841 50,75.1387841 Z" transform="translate(50.000000, 66.638784) rotate(-180.000000) translate(-50.000000, -66.638784) " fill="#603f83" style=""></path><path d="M50,75.1387841 C52.7614237,75.1387841 55,72.9188626 55,70.1804507 C55,67.4420389 52.7614237,58.1387841 50,58.1387841 C47.2385763,58.1387841 45,67.4420389 45,70.1804507 C45,72.9188626 47.2385763,75.1387841 50,75.1387841 Z" transform="translate(50.000000, 66.638784) rotate(-180.000000) translate(-50.000000, -66.638784) " fill="#603f83" style=""></path><path d="M50.5,20.9 C52.4329966,20.9 54,19.346055 54,17.4291667 C54,15.5122783 52.4329966,9 50.5,9 C48.5670034,9 47,15.5122783 47,17.4291667 C47,19.346055 48.5670034,20.9 50.5,20.9 Z" fill="#603f83" style=""></path><path d="M50.5,91.0387841 C52.4329966,91.0387841 54,89.4848391 54,87.5679507 C54,85.6510624 52.4329966,79.1387841 50.5,79.1387841 C48.5670034,79.1387841 47,85.6510624 47,87.5679507 C47,89.4848391 48.5670034,91.0387841 50.5,91.0387841 Z" transform="translate(50.500000, 85.088784) rotate(-180.000000) translate(-50.500000, -85.088784) " fill="#603f83" style=""></path><path d="M50.5,19.1 C51.3284271,19.1 52,18.4340236 52,17.6125 C52,16.7909764 51.3284271,14 50.5,14 C49.6715729,14 49,16.7909764 49,17.6125 C49,18.4340236 49.6715729,19.1 50.5,19.1 Z" fill="#603f83" style=""></path><path d="M49.9117647,39.1 C51.3899386,39.1 52.5882353,37.9116891 52.5882353,36.4458333 C52.5882353,34.9799776 51.3899386,30 49.9117647,30 C48.4335908,30 47.2352941,34.9799776 47.2352941,36.4458333 C47.2352941,37.9116891 48.4335908,39.1 49.9117647,39.1 Z" fill="#603f83" style=""></path><path d="M49.9117647,70.1 C51.3899386,70.1 52.5882353,68.9116891 52.5882353,67.4458333 C52.5882353,65.9799776 51.3899386,61 49.9117647,61 C48.4335908,61 47.2352941,65.9799776 47.2352941,67.4458333 C47.2352941,68.9116891 48.4335908,70.1 49.9117647,70.1 Z" transform="translate(49.911765, 65.550000) rotate(-180.000000) translate(-49.911765, -65.550000) " fill="#603f83" style=""></path><path d="M36.5879513,30.9125766 C37.8958698,30.9125766 38.9561472,29.8611348 38.9561472,28.5641156 C38.9561472,27.2670964 37.8958698,22.8607104 36.5879513,22.8607104 C35.2800328,22.8607104 34.2197554,27.2670964 34.2197554,28.5641156 C34.2197554,29.8611348 35.2800328,30.9125766 36.5879513,30.9125766 Z" transform="translate(36.587951, 26.886644) rotate(-390.000000) translate(-36.587951, -26.886644) " fill="#603f83" style=""></path><path d="M64.1610014,77.9044189 C65.500176,77.9044189 66.5857915,76.8278502 66.5857915,75.4998354 C66.5857915,74.1718206 65.500176,69.6601326 64.1610014,69.6601326 C62.8218268,69.6601326 61.7362113,74.1718206 61.7362113,75.4998354 C61.7362113,76.8278502 62.8218268,77.9044189 64.1610014,77.9044189 Z" transform="translate(64.161001, 73.782276) rotate(-570.000000) translate(-64.161001, -73.782276) " fill="#603f83" style=""></path><path d="M63.6612228,30.8200849 C64.9691413,30.8200849 66.0294187,29.7686431 66.0294187,28.4716239 C66.0294187,27.1746047 64.9691413,22.7682187 63.6612228,22.7682187 C62.3533043,22.7682187 61.2930269,27.1746047 61.2930269,28.4716239 C61.2930269,29.7686431 62.3533043,30.8200849 63.6612228,30.8200849 Z" transform="translate(63.661223, 26.794152) rotate(-690.000000) translate(-63.661223, -26.794152) " fill="#603f83" style=""></path><path d="M36.404323,77.5139682 C37.7434976,77.5139682 38.8291131,76.4373995 38.8291131,75.1093847 C38.8291131,73.7813699 37.7434976,69.2696819 36.404323,69.2696819 C35.0651485,69.2696819 33.979533,73.7813699 33.979533,75.1093847 C33.979533,76.4373995 35.0651485,77.5139682 36.404323,77.5139682 Z" transform="translate(36.404323, 73.391825) rotate(-870.000000) translate(-36.404323, -73.391825) " fill="#603f83" style=""></path><path d="M23.3895219,54.1148785 C24.6974403,54.1148785 25.7577178,53.0634367 25.7577178,51.7664175 C25.7577178,50.4693984 24.6974403,46.0630124 23.3895219,46.0630124 C22.0816034,46.0630124 21.0213259,50.4693984 21.0213259,51.7664175 C21.0213259,53.0634367 22.0816034,54.1148785 23.3895219,54.1148785 Z" transform="translate(23.389522, 50.088945) rotate(-450.000000) translate(-23.389522, -50.088945) " fill="#603f83" style=""></path><path d="M77.3727405,54.5174195 C78.7119151,54.5174195 79.7975306,53.4408508 79.7975306,52.112836 C79.7975306,50.7848212 78.7119151,46.2731332 77.3727405,46.2731332 C76.0335659,46.2731332 74.9479504,50.7848212 74.9479504,52.112836 C74.9479504,53.4408508 76.0335659,54.5174195 77.3727405,54.5174195 Z" transform="translate(77.372741, 50.395276) rotate(-630.000000) translate(-77.372741, -50.395276) " fill="#603f83" style=""></path><path d="M36.3962979,46.4994902 C37.8744718,46.4994902 39.0727685,45.3111793 39.0727685,43.8453236 C39.0727685,42.3794678 37.8744718,37.3994902 36.3962979,37.3994902 C34.9181241,37.3994902 33.7198274,42.3794678 33.7198274,43.8453236 C33.7198274,45.3111793 34.9181241,46.4994902 36.3962979,46.4994902 Z" transform="translate(36.396298, 41.949490) rotate(-60.000000) translate(-36.396298, -41.949490) " fill="#603f83" style=""></path><path d="M63.2430855,61.9994902 C64.7212593,61.9994902 65.919556,60.8111793 65.919556,59.3453236 C65.919556,57.8794678 64.7212593,52.8994902 63.2430855,52.8994902 C61.7649116,52.8994902 60.5666149,57.8794678 60.5666149,59.3453236 C60.5666149,60.8111793 61.7649116,61.9994902 63.2430855,61.9994902 Z" transform="translate(63.243085, 57.449490) rotate(-240.000000) translate(-63.243085, -57.449490) " fill="#603f83" style=""></path><path d="M62.7689875,46.998586 C64.2471614,46.998586 65.4454581,45.8102751 65.4454581,44.3444193 C65.4454581,42.8785636 64.2471614,37.898586 62.7689875,37.898586 C61.2908137,37.898586 60.092517,42.8785636 60.092517,44.3444193 C60.092517,45.8102751 61.2908137,46.998586 62.7689875,46.998586 Z" transform="translate(62.768988, 42.448586) rotate(-300.000000) translate(-62.768988, -42.448586) " fill="#603f83" style=""></path><path d="M36.2786509,62.1428915 C37.7568248,62.1428915 38.9551215,60.9545806 38.9551215,59.4887249 C38.9551215,58.0228691 37.7568248,53.0428915 36.2786509,53.0428915 C34.800477,53.0428915 33.6021803,58.0228691 33.6021803,59.4887249 C33.6021803,60.9545806 34.800477,62.1428915 36.2786509,62.1428915 Z" transform="translate(36.278651, 57.592892) rotate(-480.000000) translate(-36.278651, -57.592892) " fill="#603f83" style=""></path><path d="M50.5,86.1 C51.3284271,86.1 52,85.4340236 52,84.6125 C52,83.7909764 51.3284271,81 50.5,81 C49.6715729,81 49,83.7909764 49,84.6125 C49,85.4340236 49.6715729,86.1 50.5,86.1 Z" transform="translate(50.500000, 83.550000) rotate(-180.000000) translate(-50.500000, -83.550000) " fill="#603f83" style=""></path><path d="M44.7130934,23.2568182 C45.5415205,23.2568182 46.2130934,22.5908418 46.2130934,21.7693182 C46.2130934,20.9477946 45.5415205,18.1568182 44.7130934,18.1568182 C43.8846663,18.1568182 43.2130934,20.9477946 43.2130934,21.7693182 C43.2130934,22.5908418 43.8846663,23.2568182 44.7130934,23.2568182 Z" transform="translate(44.713093, 20.706818) rotate(-15.000000) translate(-44.713093, -20.706818) " fill="#603f83" style=""></path><path d="M56.0539694,81.9738486 C56.8823966,81.9738486 57.5539694,81.3078721 57.5539694,80.4863486 C57.5539694,79.664825 56.8823966,76.8738486 56.0539694,76.8738486 C55.2255423,76.8738486 54.5539694,79.664825 54.5539694,80.4863486 C54.5539694,81.3078721 55.2255423,81.9738486 56.0539694,81.9738486 Z" transform="translate(56.053969, 79.423849) rotate(-195.000000) translate(-56.053969, -79.423849) " fill="#603f83" style=""></path><path d="M56.2869066,23.2568182 C57.1153337,23.2568182 57.7869066,22.5908418 57.7869066,21.7693182 C57.7869066,20.9477946 57.1153337,18.1568182 56.2869066,18.1568182 C55.4584795,18.1568182 54.7869066,20.9477946 54.7869066,21.7693182 C54.7869066,22.5908418 55.4584795,23.2568182 56.2869066,23.2568182 Z" transform="translate(56.286907, 20.706818) rotate(-345.000000) translate(-56.286907, -20.706818) " fill="#603f83" style=""></path><path d="M44.9460306,81.9738486 C45.7744577,81.9738486 46.4460306,81.3078721 46.4460306,80.4863486 C46.4460306,79.664825 45.7744577,76.8738486 44.9460306,76.8738486 C44.1176034,76.8738486 43.4460306,79.664825 43.4460306,80.4863486 C43.4460306,81.3078721 44.1176034,81.9738486 44.9460306,81.9738486 Z" transform="translate(44.946031, 79.423849) rotate(-525.000000) translate(-44.946031, -79.423849) " fill="#603f83" style=""></path><path d="M27.4937248,33.0437248 C28.3221519,33.0437248 28.9937248,32.3777483 28.9937248,31.5562248 C28.9937248,30.7347012 28.3221519,27.9437248 27.4937248,27.9437248 C26.6652977,27.9437248 25.9937248,30.7347012 25.9937248,31.5562248 C25.9937248,32.3777483 26.6652977,33.0437248 27.4937248,33.0437248 Z" transform="translate(27.493725, 30.493725) rotate(-45.000000) translate(-27.493725, -30.493725) " fill="#603f83" style=""></path><path d="M72.8698791,71.4198791 C73.6983062,71.4198791 74.3698791,70.7539027 74.3698791,69.9323791 C74.3698791,69.1108556 73.6983062,66.3198791 72.8698791,66.3198791 C72.041452,66.3198791 71.3698791,69.1108556 71.3698791,69.9323791 C71.3698791,70.7539027 72.041452,71.4198791 72.8698791,71.4198791 Z" transform="translate(72.869879, 68.869879) rotate(-225.000000) translate(-72.869879, -68.869879) " fill="#603f83" style=""></path><path d="M21.7068182,42.2630934 C22.5352453,42.2630934 23.2068182,41.597117 23.2068182,40.7755934 C23.2068182,39.9540699 22.5352453,37.1630934 21.7068182,37.1630934 C20.8783911,37.1630934 20.2068182,39.9540699 20.2068182,40.7755934 C20.2068182,41.597117 20.8783911,42.2630934 21.7068182,42.2630934 Z" transform="translate(21.706818, 39.713093) rotate(-75.000000) translate(-21.706818, -39.713093) " fill="#603f83" style=""></path><path d="M78.4238486,61.6039694 C79.2522757,61.6039694 79.9238486,60.937993 79.9238486,60.1164694 C79.9238486,59.2949459 79.2522757,56.5039694 78.4238486,56.5039694 C77.5954214,56.5039694 76.9238486,59.2949459 76.9238486,60.1164694 C76.9238486,60.937993 77.5954214,61.6039694 78.4238486,61.6039694 Z" transform="translate(78.423849, 59.053969) rotate(-255.000000) translate(-78.423849, -59.053969) " fill="#603f83" style=""></path><path d="M20.7068182,61.8369066 C21.5352453,61.8369066 22.2068182,61.1709301 22.2068182,60.3494066 C22.2068182,59.527883 21.5352453,56.7369066 20.7068182,56.7369066 C19.8783911,56.7369066 19.2068182,59.527883 19.2068182,60.3494066 C19.2068182,61.1709301 19.8783911,61.8369066 20.7068182,61.8369066 Z" transform="translate(20.706818, 59.286907) rotate(-105.000000) translate(-20.706818, -59.286907) " fill="#603f83" style=""></path><path d="M78.4238486,42.4960306 C79.2522757,42.4960306 79.9238486,41.8300541 79.9238486,41.0085306 C79.9238486,40.187007 79.2522757,37.3960306 78.4238486,37.3960306 C77.5954214,37.3960306 76.9238486,40.187007 76.9238486,41.0085306 C76.9238486,41.8300541 77.5954214,42.4960306 78.4238486,42.4960306 Z" transform="translate(78.423849, 39.946031) rotate(-285.000000) translate(-78.423849, -39.946031) " fill="#603f83" style=""></path><path d="M27.4937248,72.0562752 C28.3221519,72.0562752 28.9937248,71.3902988 28.9937248,70.5687752 C28.9937248,69.7472517 28.3221519,66.9562752 27.4937248,66.9562752 C26.6652977,66.9562752 25.9937248,69.7472517 25.9937248,70.5687752 C25.9937248,71.3902988 26.6652977,72.0562752 27.4937248,72.0562752 Z" transform="translate(27.493725, 69.506275) rotate(-135.000000) translate(-27.493725, -69.506275) " fill="#603f83" style=""></path><path d="M71.8698791,32.6801209 C72.6983062,32.6801209 73.3698791,32.0141444 73.3698791,31.1926209 C73.3698791,30.3710973 72.6983062,27.5801209 71.8698791,27.5801209 C71.041452,27.5801209 70.3698791,30.3710973 70.3698791,31.1926209 C70.3698791,32.0141444 71.041452,32.6801209 71.8698791,32.6801209 Z" transform="translate(71.869879, 30.130121) rotate(-315.000000) translate(-71.869879, -30.130121) " fill="#603f83" style=""></path><path d="M20.0984375,35.075 C20.9268647,35.075 21.5984375,34.4090236 21.5984375,33.5875 C21.5984375,32.7659764 20.9268647,29.975 20.0984375,29.975 C19.2700104,29.975 18.5984375,32.7659764 18.5984375,33.5875 C18.5984375,34.4090236 19.2700104,35.075 20.0984375,35.075 Z" transform="translate(20.098438, 32.525000) rotate(-60.000000) translate(-20.098438, -32.525000) " fill="#603f83" style=""></path><path d="M79.6517809,68.494943 C80.480208,68.494943 81.1517809,67.8289665 81.1517809,67.007443 C81.1517809,66.1859194 80.480208,63.394943 79.6517809,63.394943 C78.8233537,63.394943 78.1517809,66.1859194 78.1517809,67.007443 C78.1517809,67.8289665 78.8233537,68.494943 79.6517809,68.494943 Z" transform="translate(79.651781, 65.944943) rotate(-240.000000) translate(-79.651781, -65.944943) " fill="#603f83" style=""></path><path d="M78.2185498,35.8919873 C79.0469769,35.8919873 79.7185498,35.2260109 79.7185498,34.4044873 C79.7185498,33.5829637 79.0469769,30.7919873 78.2185498,30.7919873 C77.3901226,30.7919873 76.7185498,33.5829637 76.7185498,34.4044873 C76.7185498,35.2260109 77.3901226,35.8919873 78.2185498,35.8919873 Z" transform="translate(78.218550, 33.341987) rotate(-300.000000) translate(-78.218550, -33.341987) " fill="#603f83" style=""></path><path d="M21.4993585,68.756724 C22.3277856,68.756724 22.9993585,68.0907476 22.9993585,67.269224 C22.9993585,66.4477004 22.3277856,63.656724 21.4993585,63.656724 C20.6709314,63.656724 19.9993585,66.4477004 19.9993585,67.269224 C19.9993585,68.0907476 20.6709314,68.756724 21.4993585,68.756724 Z" transform="translate(21.499359, 66.206724) rotate(-480.000000) translate(-21.499359, -66.206724) " fill="#603f83" style=""></path><path d="M79.5429399,38.4 C81.4759366,38.4 83.0429399,36.846055 83.0429399,34.9291667 C83.0429399,33.0122783 81.4759366,26.5 79.5429399,26.5 C77.6099433,26.5 76.0429399,33.0122783 76.0429399,34.9291667 C76.0429399,36.846055 77.6099433,38.4 79.5429399,38.4 Z" transform="translate(79.542940, 32.450000) rotate(-300.000000) translate(-79.542940, -32.450000) " fill="#603f83" style=""></path><path d="M20.2028949,72.969392 C22.1358916,72.969392 23.7028949,71.415447 23.7028949,69.4985587 C23.7028949,67.5816704 22.1358916,61.069392 20.2028949,61.069392 C18.2698983,61.069392 16.7028949,67.5816704 16.7028949,69.4985587 C16.7028949,71.415447 18.2698983,72.969392 20.2028949,72.969392 Z" transform="translate(20.202895, 67.019392) rotate(-480.000000) translate(-20.202895, -67.019392) " fill="#603f83" style=""></path><path d="M80.5429399,72.4 C82.4759366,72.4 84.0429399,70.846055 84.0429399,68.9291667 C84.0429399,67.0122783 82.4759366,60.5 80.5429399,60.5 C78.6099433,60.5 77.0429399,67.0122783 77.0429399,68.9291667 C77.0429399,70.846055 78.6099433,72.4 80.5429399,72.4 Z" transform="translate(80.542940, 66.450000) rotate(-240.000000) translate(-80.542940, -66.450000) " fill="#603f83" style=""></path><path d="M19.2028949,37.830608 C21.1358916,37.830608 22.7028949,36.276663 22.7028949,34.3597746 C22.7028949,32.4428863 21.1358916,25.930608 19.2028949,25.930608 C17.2698983,25.930608 15.7028949,32.4428863 15.7028949,34.3597746 C15.7028949,36.276663 17.2698983,37.830608 19.2028949,37.830608 Z" transform="translate(19.202895, 31.880608) rotate(-420.000000) translate(-19.202895, -31.880608) " fill="#603f83" style=""></path><path d="M64.580127,33.5 C67.3415508,33.5 69.580127,31.2800786 69.580127,28.5416667 C69.580127,25.8032548 67.3415508,16.5 64.580127,16.5 C61.8187033,16.5 59.580127,25.8032548 59.580127,28.5416667 C59.580127,31.2800786 61.8187033,33.5 64.580127,33.5 Z" transform="translate(64.580127, 25.000000) rotate(-330.000000) translate(-64.580127, -25.000000) " fill="#603f83" style=""></path><path d="M35.580127,83.5 C38.3415508,83.5 40.580127,81.2800786 40.580127,78.5416667 C40.580127,75.8032548 38.3415508,66.5 35.580127,66.5 C32.8187033,66.5 30.580127,75.8032548 30.580127,78.5416667 C30.580127,81.2800786 32.8187033,83.5 35.580127,83.5 Z" transform="translate(35.580127, 75.000000) rotate(-510.000000) translate(-35.580127, -75.000000) " fill="#603f83" style=""></path><path d="M35.580127,33.5 C38.3415508,33.5 40.580127,31.2800786 40.580127,28.5416667 C40.580127,25.8032548 38.3415508,16.5 35.580127,16.5 C32.8187033,16.5 30.580127,25.8032548 30.580127,28.5416667 C30.580127,31.2800786 32.8187033,33.5 35.580127,33.5 Z" transform="translate(35.580127, 25.000000) rotate(-30.000000) translate(-35.580127, -25.000000) " fill="#603f83" style=""></path><path d="M64.580127,83.3612159 C67.3415508,83.3612159 69.580127,81.1412945 69.580127,78.4028826 C69.580127,75.6644707 67.3415508,66.3612159 64.580127,66.3612159 C61.8187033,66.3612159 59.580127,75.6644707 59.580127,78.4028826 C59.580127,81.1412945 61.8187033,83.3612159 64.580127,83.3612159 Z" transform="translate(64.580127, 74.861216) rotate(-210.000000) translate(-64.580127, -74.861216) " fill="#603f83" style=""></path><path d="M78.5,58.6387841 C81.2614237,58.6387841 83.5,56.4188626 83.5,53.6804507 C83.5,50.9420389 81.2614237,41.6387841 78.5,41.6387841 C75.7385763,41.6387841 73.5,50.9420389 73.5,53.6804507 C73.5,56.4188626 75.7385763,58.6387841 78.5,58.6387841 Z" transform="translate(78.500000, 50.138784) rotate(-270.000000) translate(-78.500000, -50.138784) " fill="#603f83" style=""></path><path d="M21.5,58.6387841 C24.2614237,58.6387841 26.5,56.4188626 26.5,53.6804507 C26.5,50.9420389 24.2614237,41.6387841 21.5,41.6387841 C18.7385763,41.6387841 16.5,50.9420389 16.5,53.6804507 C16.5,56.4188626 18.7385763,58.6387841 21.5,58.6387841 Z" transform="translate(21.500000, 50.138784) rotate(-450.000000) translate(-21.500000, -50.138784) " fill="#603f83" style=""></path><path d="M63.8612159,50.2189111 C66.6226397,50.2189111 68.8612159,47.9989896 68.8612159,45.2605778 C68.8612159,42.5221659 66.6226397,33.2189111 63.8612159,33.2189111 C61.0997922,33.2189111 58.8612159,42.5221659 58.8612159,45.2605778 C58.8612159,47.9989896 61.0997922,50.2189111 63.8612159,50.2189111 Z" transform="translate(63.861216, 41.718911) rotate(-300.000000) translate(-63.861216, -41.718911) " fill="#603f83" style=""></path><path d="M35.8612159,66.2189111 C38.6226397,66.2189111 40.8612159,63.9989896 40.8612159,61.2605778 C40.8612159,58.5221659 38.6226397,49.2189111 35.8612159,49.2189111 C33.0997922,49.2189111 30.8612159,58.5221659 30.8612159,61.2605778 C30.8612159,63.9989896 33.0997922,66.2189111 35.8612159,66.2189111 Z" transform="translate(35.861216, 57.718911) rotate(-480.000000) translate(-35.861216, -57.718911) " fill="#603f83" style=""></path><path d="M63.8612159,66.2189111 C66.6226397,66.2189111 68.8612159,63.9989896 68.8612159,61.2605778 C68.8612159,58.5221659 66.6226397,49.2189111 63.8612159,49.2189111 C61.0997922,49.2189111 58.8612159,58.5221659 58.8612159,61.2605778 C58.8612159,63.9989896 61.0997922,66.2189111 63.8612159,66.2189111 Z" transform="translate(63.861216, 57.718911) rotate(-240.000000) translate(-63.861216, -57.718911) " fill="#603f83" style=""></path><path d="M35.8612159,50.2189111 C38.6226397,50.2189111 40.8612159,47.9989896 40.8612159,45.2605778 C40.8612159,42.5221659 38.6226397,33.2189111 35.8612159,33.2189111 C33.0997922,33.2189111 30.8612159,42.5221659 30.8612159,45.2605778 C30.8612159,47.9989896 33.0997922,50.2189111 35.8612159,50.2189111 Z" transform="translate(35.861216, 41.718911) rotate(-420.000000) translate(-35.861216, -41.718911) " fill="#603f83" style=""></path><circle cx="50" cy="50.1387841" r="4.5" fill="#603f83" style=""></circle><circle transform="translate(40.794286, 13.777782) rotate(-15.000000) translate(-40.794286, -13.777782) " cx="40.7942858" cy="13.7777815" r="2.5" fill="#603f83" style=""></circle><circle transform="translate(60.205714, 86.222218) rotate(-15.000000) translate(-60.205714, -86.222218) " cx="60.2057142" cy="86.2222185" r="2.5" fill="#603f83" style=""></circle><circle transform="translate(60.205714, 13.777782) rotate(-345.000000) translate(-60.205714, -13.777782) " cx="60.2057142" cy="13.7777815" r="2.5" fill="#603f83" style=""></circle><circle transform="translate(40.794286, 86.222218) rotate(-345.000000) translate(-40.794286, -86.222218) " cx="40.7942858" cy="86.2222185" r="2.5" fill="#603f83" style=""></circle><circle transform="translate(23.983496, 23.483496) rotate(-45.000000) translate(-23.983496, -23.483496) " cx="23.9834957" cy="23.4834957" r="2.5" fill="#603f83" style=""></circle><circle transform="translate(77.016504, 76.516504) rotate(-45.000000) translate(-77.016504, -76.516504) " cx="77.0165043" cy="76.5165043" r="2.5" fill="#603f83" style=""></circle><circle transform="translate(14.277782, 40.294286) rotate(-75.000000) translate(-14.277782, -40.294286) " cx="14.2777815" cy="40.2942858" r="2.5" fill="#603f83" style=""></circle><circle transform="translate(86.722218, 59.705714) rotate(-75.000000) translate(-86.722218, -59.705714) " cx="86.7222185" cy="59.7057142" r="2.5" fill="#603f83" style=""></circle><circle transform="translate(14.277782, 59.705714) rotate(-105.000000) translate(-14.277782, -59.705714) " cx="14.2777815" cy="59.7057142" r="2.5" fill="#603f83" style=""></circle><circle transform="translate(86.722218, 40.294286) rotate(-105.000000) translate(-86.722218, -40.294286) " cx="86.7222185" cy="40.2942858" r="2.5" fill="#603f83" style=""></circle><circle transform="translate(23.983496, 76.516504) rotate(-135.000000) translate(-23.983496, -76.516504) " cx="23.9834957" cy="76.5165043" r="2.5" fill="#603f83" style=""></circle><circle transform="translate(77.016504, 23.483496) rotate(-135.000000) translate(-77.016504, -23.483496) " cx="77.0165043" cy="23.4834957" r="2.5" fill="#603f83" style=""></circle></g></g><defs></defs></g><g><g transform="matrix(1.024,0,0,-1.024,0,0)"><path d="M193 0L38 0L38 859L300 859L372 335L444 859L708 859L708 0L551 0L551 619L452 0L298 0L193 619L193 0ZM914 -8Q829 -8 797 48Q766 105 766 210Q766 296 788 342Q811 388 851 409Q891 431 973 457L1021 473L1021 475L1021 548Q1021 577 1009 592Q998 608 982 608Q968 608 957 595Q947 582 947 560L947 516L777 516L777 540Q777 648 827 694Q878 740 992 740Q1083 740 1140 692Q1197 645 1197 558L1197 0L1023 0L1023 87Q1010 42 981 17Q953 -8 914 -8ZM983 128Q1003 128 1011 144Q1020 161 1020 185L1020 389Q981 374 962 351Q944 328 944 287L944 193Q944 128 983 128ZM1461 -107Q1383 -107 1338 -95Q1294 -82 1251 -47L1311 54Q1375 16 1438 16Q1479 16 1500 42Q1521 68 1521 113L1521 153Q1500 78 1410 78Q1335 78 1299 129Q1264 180 1264 265L1264 540Q1264 637 1296 688Q1329 740 1410 740Q1457 740 1484 716Q1512 693 1521 650L1521 732L1700 732L1700 124Q1700 1 1643 -53Q1586 -107 1461 -107ZM1480 210Q1521 210 1521 284L1521 545Q1521 567 1509 587Q1497 607 1479 607Q1456 607 1448 590Q1440 574 1440 545L1440 284Q1440 251 1448 230Q1456 210 1480 210ZM1942 781L1767 781L1767 903L1942 903L1942 781ZM1942 0L1767 0L1767 732L1942 732L1942 0ZM2231 -8Q2111 -8 2058 53Q2005 114 2005 240L2005 466Q2005 561 2025 620Q2046 680 2094 710Q2143 740 2229 740Q2323 740 2382 691Q2441 642 2441 554L2441 442L2263 442L2263 545Q2263 574 2255 589Q2247 605 2224 605Q2181 605 2181 544L2181 189Q2181 164 2191 146Q2202 129 2223 129Q2244 129 2254 146Q2265 163 2264 190L2263 313L2441 313L2441 185Q2441 95 2382 43Q2324 -8 2231 -8ZM2739 0L2739 859L2966 859Q3069 859 3113 792Q3157 726 3157 598Q3157 470 3118 405Q3079 340 2978 340L2908 340L2908 0L2739 0ZM2908 495L2918 495Q2949 495 2963 506Q2978 518 2982 539Q2987 561 2987 601Q2987 655 2975 679Q2963 703 2927 703L2908 703L2908 495ZM3413 -8Q3300 -8 3251 54Q3202 116 3202 239L3202 533Q3202 634 3260 687Q3318 740 3422 740Q3633 740 3633 533L3633 480Q3633 400 3631 350L3377 350L3377 208Q3377 170 3385 148Q3393 127 3419 127Q3439 127 3447 139Q3456 151 3457 166Q3459 182 3459 212L3459 283L3633 283L3633 241Q3633 113 3583 52Q3534 -8 3413 -8ZM3376 437L3459 437L3459 531Q3459 610 3420 610Q3376 610 3376 531L3376 437ZM3829 -8Q3744 -8 3712 48Q3681 105 3681 210Q3681 296 3703 342Q3726 388 3766 409Q3806 431 3888 457L3936 473L3936 475L3936 548Q3936 577 3924 592Q3913 608 3897 608Q3883 608 3872 595Q3862 582 3862 560L3862 516L3692 516L3692 540Q3692 648 3742 694Q3793 740 3907 740Q3998 740 4055 692Q4112 645 4112 558L4112 0L3938 0L3938 87Q3925 42 3896 17Q3868 -8 3829 -8ZM3898 128Q3918 128 3926 144Q3935 161 3935 185L3935 389Q3896 374 3877 351Q3859 328 3859 287L3859 193Q3859 128 3898 128ZM4399 -8Q4279 -8 4226 53Q4173 114 4173 240L4173 466Q4173 561 4193 620Q4214 680 4262 710Q4311 740 4397 740Q4491 740 4550 691Q4609 642 4609 554L4609 442L4431 442L4431 545Q4431 574 4423 589Q4415 605 4392 605Q4349 605 4349 544L4349 189Q4349 164 4359 146Q4370 129 4391 129Q4412 129 4422 146Q4433 163 4432 190L4431 313L4609 313L4609 185Q4609 95 4550 43Q4492 -8 4399 -8ZM4883 -8Q4664 -8 4664 219L4664 513Q4664 617 4722 678Q4781 740 4883 740Q4985 740 5043 678Q5102 617 5102 513L5102 219Q5102 -8 4883 -8ZM4883 127Q4904 127 4914 142Q4924 157 4924 183L4924 541Q4924 605 4883 605Q4842 605 4842 541L4842 183Q4842 157 4852 142Q4862 127 4883 127ZM5387 -8Q5267 -8 5214 53Q5161 114 5161 240L5161 466Q5161 561 5181 620Q5202 680 5250 710Q5299 740 5385 740Q5479 740 5538 691Q5597 642 5597 554L5597 442L5419 442L5419 545Q5419 574 5411 589Q5403 605 5380 605Q5337 605 5337 544L5337 189Q5337 164 5347 146Q5358 129 5379 129Q5400 129 5410 146Q5421 163 5420 190L5419 313L5597 313L5597 185Q5597 95 5538 43Q5480 -8 5387 -8ZM5831 0L5658 0L5658 864L5831 864L5831 480L5915 732L6096 732L5986 414L6126 0L5940 0L5831 345L5831 0ZM6350 -8Q6133 -8 6133 212L6134 270L6309 270L6310 184Q6310 158 6320 144Q6330 131 6353 131Q6388 131 6388 188Q6388 230 6371 254Q6355 278 6319 305L6226 377Q6178 414 6157 453Q6136 493 6136 565Q6136 621 6165 660Q6195 700 6244 720Q6293 740 6353 740Q6566 740 6566 528L6566 514L6385 514L6385 542Q6385 568 6376 586Q6368 605 6348 605Q6330 605 6320 594Q6311 584 6311 566Q6311 526 6342 504L6450 425Q6508 382 6539 331Q6570 281 6570 204Q6570 102 6512 47Q6454 -8 6350 -8Z" fill="#603f83" style=""></path></g></g></g></svg>